<svg width="578" height="179" viewBox="0 0 578 179" fill="none" xmlns="http://www.w3.org/2000/svg">
<path d="M391.839 14.8226C374.242 7.5367 353.301 15.6051 344.717 32.673C342.215 37.644 340.868 43.1119 340.779 48.6662C340.689 54.2204 341.859 59.7166 344.201 64.7422C346.695 69.8921 347.592 75.6766 346.776 81.3552L342.056 91.4366C341.969 91.6122 341.826 91.7535 341.649 91.8371C341.472 91.9207 341.272 91.9417 341.082 91.8966C340.431 91.7633 339.753 91.8538 339.158 92.1535C338.563 92.4531 338.085 92.9444 337.803 93.5478C337.52 94.1511 337.449 94.8312 337.601 95.4778C337.753 96.1244 338.12 96.6998 338.64 97.1106C338.795 97.2271 338.904 97.3931 338.95 97.5809C338.996 97.7686 338.976 97.9669 338.894 98.1425C338.812 98.3182 338.672 98.4606 338.498 98.5461C338.324 98.6316 338.126 98.655 337.937 98.6124C337.286 98.479 336.608 98.5695 336.013 98.8692C335.418 99.1689 334.941 99.6602 334.658 100.264C334.376 100.867 334.305 101.547 334.457 102.194C334.609 102.84 334.975 103.416 335.496 103.826C335.653 103.942 335.765 104.108 335.814 104.297C335.864 104.486 335.848 104.686 335.768 104.865L335.424 105.599C334.882 106.758 334.821 108.083 335.255 109.283C335.689 110.482 336.583 111.458 337.739 111.995C338.086 112.16 338.384 112.413 338.603 112.728C338.821 113.044 338.954 113.411 338.987 113.794C339.106 115.37 339.642 116.883 340.539 118.179C341.436 119.476 342.663 120.509 344.094 121.173C345.525 121.838 347.108 122.109 348.682 121.961C350.256 121.812 351.764 121.248 353.053 120.326C353.369 120.105 353.737 119.97 354.12 119.934C354.503 119.898 354.889 119.963 355.239 120.121L355.482 120.234C356.638 120.771 357.963 120.826 359.165 120.386C360.367 119.946 361.347 119.048 361.89 117.889L364.333 112.671C364.41 112.509 364.536 112.374 364.694 112.288C364.852 112.201 365.033 112.167 365.211 112.19C365.837 112.279 366.476 112.163 367.033 111.861C367.59 111.559 368.036 111.086 368.305 110.512C368.574 109.938 368.651 109.293 368.525 108.674C368.4 108.054 368.078 107.493 367.607 107.073C367.474 106.952 367.384 106.792 367.349 106.615C367.314 106.439 367.337 106.256 367.413 106.093L367.478 105.956C367.554 105.793 367.681 105.658 367.838 105.572C367.996 105.485 368.177 105.451 368.355 105.474C368.981 105.563 369.62 105.448 370.178 105.145C370.735 104.843 371.181 104.37 371.45 103.796C371.719 103.222 371.796 102.578 371.67 101.958C371.544 101.339 371.222 100.777 370.752 100.357C370.619 100.236 370.529 100.076 370.494 99.8996C370.459 99.7234 370.481 99.5404 370.558 99.3773L373.232 93.6669C377.047 89.456 381.965 86.3972 387.424 84.8401C392.622 83.4472 397.457 80.9297 401.584 77.4661C405.712 74.0025 409.032 69.6775 411.309 64.7974C420.205 45.799 411.704 22.8769 391.808 14.8235" fill="#FF6000"/>
<path d="M168.04 83.2863L164.518 105.682C163.861 109.86 164.918 114.13 167.456 117.553C169.994 120.975 173.805 123.27 178.051 123.932L208.063 128.612C208.069 128.613 208.075 128.611 208.08 128.608C208.084 128.604 208.088 128.599 208.089 128.594C209.761 117.906 207.541 106.967 201.822 97.7082C196.102 88.4489 187.251 81.4652 176.831 77.9901C175.898 77.6874 174.91 77.5881 173.936 77.6992C172.962 77.8103 172.024 78.129 171.189 78.6333C170.354 79.1375 169.641 79.8152 169.1 80.6191C168.559 81.4231 168.203 82.3341 168.056 83.2888" fill="white"/>
<path d="M250.025 96.0717L246.503 118.468C245.846 122.646 243.529 126.39 240.062 128.876C236.595 131.362 232.262 132.386 228.016 131.724L198.02 127.046C198.014 127.045 198.009 127.041 198.006 127.037C198.002 127.032 198 127.026 198.001 127.021C199.687 116.331 205.16 106.587 213.451 99.5095C221.742 92.4322 232.319 88.4776 243.311 88.3447C244.293 88.3406 245.264 88.5469 246.158 88.9493C247.051 89.3516 247.846 89.9404 248.487 90.6747C249.127 91.4091 249.598 92.2713 249.867 93.2015C250.136 94.1318 250.196 95.1077 250.043 96.0616" fill="white"/>
<path d="M156.039 159.606L159.561 137.21C159.886 135.142 160.622 133.158 161.727 131.373C162.832 129.587 164.285 128.034 166.001 126.804C167.718 125.573 169.665 124.688 171.732 124.2C173.799 123.711 175.945 123.629 178.047 123.957L208.059 128.638C208.065 128.639 208.071 128.642 208.074 128.647C208.078 128.651 208.079 128.657 208.078 128.663C206.389 139.348 200.918 149.087 192.63 156.161C184.342 163.235 173.771 167.189 162.783 167.325C161.802 167.33 160.831 167.123 159.937 166.721C159.043 166.319 158.249 165.73 157.609 164.995C156.968 164.261 156.498 163.399 156.229 162.469C155.961 161.538 155.901 160.563 156.055 159.609" fill="white"/>
<path d="M238.023 172.392L241.545 149.996C241.87 147.927 241.778 145.814 241.274 143.778C240.77 141.741 239.864 139.821 238.607 138.127C237.351 136.432 235.768 134.997 233.95 133.903C232.132 132.808 230.114 132.077 228.012 131.749L198.016 127.071C198.01 127.07 198.004 127.072 197.999 127.075C197.994 127.079 197.991 127.084 197.99 127.09C196.314 137.781 198.534 148.724 204.256 157.986C209.978 167.249 218.834 174.233 229.259 177.705C230.192 178.008 231.18 178.107 232.155 177.996C233.129 177.885 234.067 177.566 234.902 177.062C235.737 176.558 236.451 175.881 236.992 175.077C237.533 174.273 237.89 173.362 238.037 172.407" fill="white"/>
<path d="M14.124 79.5157C22.1157 71.8314 28.4476 62.5811 32.7299 52.3343C37.0122 42.0876 39.1542 31.0614 39.0238 19.9351C39.0191 19.5998 39.1263 19.2731 39.3283 19.0069C39.5303 18.7406 39.8155 18.5501 40.1386 18.4656C40.4616 18.3811 40.8041 18.4075 41.1114 18.5405C41.4187 18.6735 41.6733 18.9056 41.8346 19.1998C47.2114 28.954 54.5177 37.5088 63.3036 44.3374C72.0894 51.166 82.1687 56.1238 92.9207 58.9054C93.1784 58.9726 93.4138 59.1076 93.6027 59.2963C93.7915 59.4849 93.927 59.7205 93.9951 59.9787C94.0632 60.2369 94.0615 60.5084 93.9901 60.7651C93.9187 61.0219 93.7803 61.2546 93.5891 61.4393C85.5974 69.1235 79.2654 78.3739 74.9831 88.6206C70.7008 98.8674 68.5589 109.894 68.6893 121.02C68.6939 121.355 68.5867 121.682 68.3847 121.948C68.1827 122.214 67.8975 122.405 67.5744 122.489C67.2514 122.574 66.909 122.548 66.6017 122.414C66.2944 122.281 66.0398 122.049 65.8784 121.755C60.5017 112.001 53.1953 103.446 44.4095 96.6176C35.6236 89.789 25.5443 84.8312 14.7923 82.0496C14.5346 81.9823 14.2992 81.8474 14.1104 81.6587C13.9215 81.47 13.786 81.2345 13.7179 80.9763C13.6498 80.7181 13.6516 80.4466 13.7229 80.1898C13.7943 79.9331 13.9328 79.7004 14.124 79.5157Z" fill="#00A788"/>
<path d="M493.55 92.4528C526.269 65.6949 577.442 57.7901 547.846 95.0909C516.791 134.225 482.049 131.51 488.865 157.417C496.611 186.764 557.686 162.872 575 116.668" stroke="#00A788" stroke-width="6" stroke-linecap="round" stroke-linejoin="round" stroke-dasharray="4.03 18.16"/>
</svg>
