<svg width="172" height="41" viewBox="0 0 172 41" fill="none" xmlns="http://www.w3.org/2000/svg">
<path d="M171.099 15.442C170.97 15.2341 170.745 15.1099 170.496 15.1099H167.074C166.807 15.1099 166.559 15.2605 166.442 15.4936L159.501 29.2856C159.307 29.6455 159.068 29.8246 158.786 29.8246C158.363 29.8246 158.087 29.3952 158.057 29.3462C158.053 29.3399 158.049 29.3335 158.046 29.3269L150.983 15.4902C150.863 15.2555 150.622 15.1099 150.353 15.1099H146.711C146.461 15.1099 146.236 15.2341 146.108 15.4423C145.979 15.6505 145.972 15.9028 146.089 16.1172L155.398 33.1709C155.655 33.6673 156.077 34.6123 156.053 35.427C156.047 35.6359 156.015 35.9053 155.816 36.1367C155.537 36.461 155.109 36.5094 154.879 36.5094C154.844 36.5094 154.816 36.5084 154.795 36.5074H150.889C150.501 36.5074 150.186 36.8148 150.186 37.1928V39.6917C150.186 40.0697 150.501 40.3771 150.889 40.3771H155.347C155.437 40.3665 155.54 40.3603 155.659 40.3532C156.288 40.3154 157.339 40.2522 158.228 39.3858C158.626 38.9973 158.949 38.541 159.189 38.0296C159.192 38.0246 159.194 38.0198 159.197 38.015L171.117 16.1164C171.234 15.9021 171.227 15.6499 171.099 15.442Z" fill="black"/>
<path d="M46.1907 31.0667C42.5856 31.0667 40.9437 27.8009 40.9437 24.7666C40.9437 20.0033 43.8127 18.3132 46.2695 18.3132C49.4314 18.3132 51.5559 20.8913 51.5559 24.7285C51.5559 28.4603 49.3496 31.0667 46.1907 31.0667ZM53.6602 17.4377C52.1088 15.6395 49.9345 14.6891 47.3721 14.6891C43.376 14.6891 41.6044 17.2596 41.5871 17.2855C41.5343 17.3641 41.444 17.412 41.3477 17.412H41.2687C41.1874 17.412 41.1101 17.3784 41.0559 17.3193C41.0016 17.2604 40.9758 17.1816 40.9847 17.103C40.9855 17.0963 41.062 16.4151 41.062 15.4848V10.523C41.062 8.84406 39.6598 7.47827 37.9362 7.47827H34.718C34.4492 7.47827 34.2305 7.69119 34.2305 7.95295V10.5893C34.2305 10.8511 34.4492 11.0641 34.718 11.0641H35.5199C36.252 11.0641 36.6719 11.4731 36.6719 12.1861V33.6792C36.6719 33.941 36.8906 34.154 37.1593 34.154H40.2988C40.5676 34.154 40.7862 33.941 40.7862 33.6792V33.4352C40.7862 32.6882 40.7481 32.156 40.7476 32.1507C40.742 32.0736 40.7695 31.9977 40.8235 31.9413C40.8776 31.8847 40.9533 31.8526 41.0326 31.8526H41.1113C41.2097 31.8526 41.3013 31.9021 41.3535 31.9834C41.3703 32.0093 43.1026 34.6145 47.057 34.6145C49.5805 34.6145 51.8562 33.6561 53.4649 31.9161C55.1395 30.1046 56.0247 27.5927 56.0247 24.6518C56.0247 21.7251 55.2071 19.2305 53.6602 17.4377Z" fill="black"/>
<path d="M69.1961 30.6062H69.161C68.1013 30.6062 67.2392 29.7664 67.2392 28.7342V10.5197C67.2392 8.84262 65.8385 7.47803 64.1166 7.47803H60.8919C60.6249 7.47803 60.4077 7.68975 60.4077 7.94977V10.5923C60.4077 10.8524 60.6249 11.064 60.8919 11.064H61.6972C62.4292 11.064 62.849 11.4729 62.849 12.186V31.824C62.849 33.5007 63.5086 34.1539 65.2016 34.1539H69.1961C69.4631 34.1539 69.6804 33.9423 69.6804 33.6823V31.0778C69.6804 30.8177 69.4631 30.6062 69.1961 30.6062Z" fill="black"/>
<path d="M86.6633 26.0324C86.6633 28.5952 84.654 31.4506 81.7706 31.4506C79.5926 31.4506 78.453 29.9983 78.453 28.5638C78.453 26.3745 80.8802 25.2174 85.472 25.2174H86.3776C86.5355 25.2174 86.6633 25.3421 86.6633 25.4957V26.0324ZM92.9928 30.6064C91.9234 30.6064 91.0534 29.7589 91.0534 28.7172V22.1971C91.0534 17.0749 88.3415 14.6892 82.5188 14.6892C81.3567 14.6892 75.5593 14.8699 75.5593 18.4381V19.7419C75.5593 20.0115 75.7845 20.2308 76.0613 20.2308H79.1719C79.4487 20.2308 79.6738 20.0115 79.6738 19.7419V19.4738C79.6738 18.3057 81.27 17.8913 82.6369 17.8913C85.3943 17.8913 86.6239 19.1246 86.6239 21.89V22.1586C86.6239 22.3123 86.496 22.4368 86.3383 22.4368H85.7084C80.3957 22.4368 74.063 23.5863 74.063 29.0624C74.063 30.7094 74.7139 32.1165 75.9454 33.1316C77.1056 34.0879 78.6989 34.6145 80.4319 34.6145C84.6026 34.6145 86.2737 31.5709 86.3775 31.3675C86.4106 31.2492 86.5215 31.1622 86.6533 31.1622H86.7321C86.8898 31.1622 87.0177 31.2868 87.0177 31.4405V32.2843C87.0177 33.1373 87.4054 34.1541 89.2521 34.1541H92.9928C93.2696 34.1541 93.4947 33.9349 93.4947 33.6652V31.0953C93.4947 30.8257 93.2696 30.6064 92.9928 30.6064Z" fill="black"/>
<path d="M116.04 16.8891C114.571 15.7396 112.955 15.513 111.775 15.3475L111.756 15.3448C111.265 15.2759 110.752 15.241 110.231 15.241C109.379 15.241 108.525 15.3335 107.695 15.5161C106.701 15.7348 105.74 16.0829 104.836 16.5508C104.794 16.5725 104.748 16.5834 104.702 16.5834C104.656 16.5834 104.609 16.5724 104.567 16.5505C104.483 16.5066 104.427 16.4249 104.418 16.3325C104.405 16.2029 104.37 16.0791 104.315 15.9644C104.314 15.9631 104.186 15.7087 103.925 15.516C103.609 15.2827 102.98 15.1489 102.198 15.1489H98.5904C98.1971 15.1489 97.8772 15.4606 97.8772 15.8437V18.0401C97.8772 18.4232 98.1971 18.7348 98.5904 18.7348H99.1667C99.8987 18.7348 100.319 19.1438 100.319 19.8569V33.4592C100.319 33.8422 100.638 34.1538 101.032 34.1538H104.035C104.428 34.1538 104.748 33.8422 104.748 33.4592V23.0525C104.748 23.0444 104.748 23.0365 104.749 23.0286C104.754 22.9682 104.764 22.8806 104.78 22.7761C104.925 22.085 105.2 21.4644 105.6 20.9181C105.836 20.5962 107.124 18.9851 109.315 18.8969C109.378 18.8944 109.441 18.8931 109.502 18.8931C110.696 18.8931 111.623 19.3446 112.19 19.7233C113.68 20.7175 114.128 22.2014 114.252 22.7932C114.256 22.8115 114.258 22.8301 114.258 22.8487V25.5484V29.484V31.824C114.258 33.3954 114.831 34.0432 116.304 34.1342C116.33 34.1358 116.356 34.1409 116.38 34.149C116.407 34.1469 116.435 34.1449 116.464 34.1441C116.467 34.144 116.47 34.144 116.472 34.144C116.475 34.144 116.478 34.144 116.481 34.1441C116.51 34.1449 116.538 34.1469 116.565 34.149C116.589 34.1409 116.615 34.1358 116.641 34.1342C118.114 34.0432 118.687 33.3954 118.687 31.824V29.484V25.1189V21.866C118.584 20.9003 118.118 18.5147 116.04 16.8891Z" fill="black"/>
<path d="M140.356 29.0057C140.252 28.8348 140.068 28.7328 139.865 28.7328C139.733 28.7328 139.608 28.776 139.504 28.8578C138.526 29.6255 136.527 30.9134 134.124 30.9134C130.953 30.9134 127.539 28.9419 127.539 24.6132C127.539 20.9183 130.159 18.2365 133.77 18.2365C135.056 18.2365 136.97 18.7192 136.97 20.049V20.2883C136.97 20.595 137.226 20.8446 137.541 20.8446H140.198C140.513 20.8446 140.769 20.595 140.769 20.2883V18.8214C140.769 15.4316 135.717 14.6892 133.77 14.6892C130.576 14.6892 127.853 15.7147 125.897 17.6551C124.074 19.4634 123.07 21.9482 123.07 24.6519C123.07 27.3893 124.091 29.8938 125.945 31.7044C127.894 33.6081 130.573 34.6145 133.691 34.6145C137.821 34.6145 140.492 32.5378 141.448 31.6449C141.639 31.4666 141.678 31.1857 141.542 30.9619L140.356 29.0057Z" fill="black"/>
<path fill-rule="evenodd" clip-rule="evenodd" d="M9.68359 20.1708V34.9813C9.68359 37.8374 12.0605 40.1528 14.9927 40.1528C16.9015 40.1528 18.5744 39.171 19.5099 37.6981L19.5104 37.6983L19.5157 37.6893C19.572 37.6004 19.6255 37.5097 19.6763 37.4172L28.16 23.0378C28.2911 22.8464 28.4094 22.6462 28.5139 22.438L28.5173 22.432L28.5172 22.4317C28.8585 21.7487 29.0506 20.9816 29.0506 20.1708C29.0506 17.3883 26.7944 15.12 23.9669 15.0048L23.9665 15.0042H23.9423C23.8756 15.0017 23.8088 14.9993 23.7415 14.9993C23.6741 14.9993 23.6074 15.0017 23.5407 15.0042H15.1936C15.1268 15.0017 15.06 14.9993 14.9927 14.9993C12.0605 14.9993 9.68359 17.3146 9.68359 20.1708Z" fill="#F06FB0"/>
<path fill-rule="evenodd" clip-rule="evenodd" d="M19.367 19.982V5.17147C19.367 2.31535 16.99 0 14.0579 0C12.1491 0 10.4762 0.981704 9.54057 2.45469L9.54009 2.45443L9.53482 2.46343C9.47859 2.55235 9.42504 2.64307 9.37437 2.73552L0.890652 17.115C0.759512 17.3063 0.64111 17.5066 0.536747 17.7148L0.533254 17.7208L0.53346 17.721C0.19195 18.4041 0 19.1711 0 19.982C0 22.7645 2.25628 25.0328 5.08361 25.148L5.08409 25.1486H5.10834C5.17504 25.151 5.24174 25.1535 5.30912 25.1535C5.3765 25.1535 5.44327 25.151 5.50997 25.1486H13.8571C13.9238 25.151 13.9905 25.1535 14.0579 25.1535C16.99 25.1535 19.367 22.8381 19.367 19.982Z" fill="#F06FB0"/>
<path fill-rule="evenodd" clip-rule="evenodd" d="M9.68359 20.1707V25.1486H13.8571C13.9238 25.151 13.9906 25.1534 14.0579 25.1534C16.9901 25.1534 19.3671 22.8381 19.3671 19.982V15.0042H15.1936C15.1268 15.0017 15.0601 14.9993 14.9927 14.9993C12.0605 14.9993 9.68359 17.3146 9.68359 20.1707Z" fill="#E03176"/>
</svg>
