<svg width="150" height="96" viewBox="0 0 150 96" fill="none" xmlns="http://www.w3.org/2000/svg">
<g clip-path="url(#clip0_1_17)">
<path d="M8.90448 73.6343C11.0004 73.6343 12.6901 74.1107 13.7149 74.7533V78.5235C12.7861 77.7849 11.1443 77.0703 9.23866 77.0703C6.28592 77.0703 3.90385 78.784 3.90385 82.3331C3.90385 85.6423 5.90376 87.548 9.16668 87.548C10.9764 87.548 12.7861 86.9996 13.8091 86.3089V89.834C12.8803 90.4047 10.9524 90.9771 8.85649 90.9771C3.40344 90.9771 0 88.0244 0 82.4085C0 76.8835 3.73762 73.6463 8.91133 73.6463" fill="#00AD8E"/>
<path d="M17.0222 90.6342V77.2998C18.4994 77.2295 20.9278 77.2295 22.9517 77.2295C26.1186 77.2295 28.0928 78.2766 28.0928 80.8283C28.0928 81.9474 27.6884 82.9225 26.6173 83.5702C27.9506 84.0227 28.5933 84.8555 28.5933 86.475C28.5933 89.1176 26.8795 90.713 23.0459 90.713C20.5696 90.713 18.5457 90.713 17.0205 90.6411L17.0222 90.6342ZM20.5028 79.968V82.5866H22.7135C24.1427 82.5866 24.6894 82.2284 24.6894 81.2533C24.6894 80.3964 24.0707 79.968 22.8043 79.968H20.5028ZM20.5028 85.1092V87.9625H22.8591C24.5026 87.9625 25.1932 87.5821 25.1932 86.5573C25.1932 85.5325 24.5986 85.1057 22.8831 85.1057L20.5028 85.1092Z" fill="#00AD8E"/>
<path d="M43.5236 81.5635C43.5236 84.5145 41.0712 85.4913 36.9754 85.4913H34.2335C34.7819 87.1348 36.1631 87.7534 38.3773 87.7534C40.2829 87.7534 42.0446 87.1828 43.0043 86.5384V89.8253C41.8835 90.468 40.2178 90.9684 37.9557 90.9684C33.6457 90.9684 30.5747 88.6823 30.5747 83.9678C30.5747 79.5858 33.6457 76.9673 37.8357 76.9673C41.0267 76.9673 43.527 78.633 43.527 81.5635H43.5236ZM34.1015 82.8968H37.529C39.3147 82.8968 40.0773 82.554 40.0773 81.6337C40.0773 80.7529 39.3627 80.0383 37.8152 80.0383C36.0055 80.0383 34.4803 80.9911 34.0998 82.8968" fill="#00AD8E"/>
<path d="M49.9034 77.2999V78.5372C50.738 77.6803 51.9753 77.0599 53.5948 77.0599C55.4799 77.0599 56.8337 77.7454 57.6906 78.9896C58.2234 78.3715 58.8858 77.8782 59.6306 77.5447C60.3755 77.2112 61.1846 77.0457 62.0006 77.0599C65.7142 77.0599 67.4056 79.298 67.4056 82.9894V90.6326H63.7143V83.3013C63.7143 81.4676 62.9294 80.3965 61.3151 80.3965C59.8139 80.3965 58.7188 81.1814 58.7188 82.9671V90.6343H55.024V83.3013C55.024 81.4676 54.3557 80.3965 52.7139 80.3965C50.9282 80.3965 50.0234 81.4676 50.0234 83.3013V90.6343H46.332V77.2999H49.9034Z" fill="#00AD8E"/>
<path d="M72.8329 94.444H69.4277V87.3012H71.1175C71.9041 86.3244 72.2142 85.2773 72.4747 84.0623C72.6781 82.9713 72.774 81.8629 72.7609 80.7531L72.8089 73.9668H85.6241V87.3012H88.0524V94.444H84.625V90.6344H72.8329V94.444ZM81.8333 77.3068H76.262L76.2141 81.1644C76.1998 82.2889 76.1041 83.4109 75.9279 84.5216C75.7658 85.487 75.4693 86.425 75.047 87.3081H81.8333V77.3068Z" fill="#4B008C"/>
<path d="M102.571 81.5635C102.571 84.5145 100.119 85.4913 96.0231 85.4913H93.2811C93.8295 87.1348 95.2091 87.7534 97.4249 87.7534C99.3288 87.7534 101.091 87.1828 102.043 86.5384V89.8253C100.924 90.468 99.2586 90.9684 96.9947 90.9684C92.6865 90.9684 89.6138 88.6823 89.6138 83.9678C89.6138 79.5858 92.6865 76.9673 96.8765 76.9673C100.067 76.9673 102.568 78.633 102.568 81.5635H102.571ZM93.1423 82.8968H96.5697C98.3572 82.8968 99.118 82.554 99.118 81.6337C99.118 80.7529 98.4034 80.0383 96.8559 80.0383C95.0463 80.0383 93.5228 80.9911 93.1423 82.8968Z" fill="#4B008C"/>
<path d="M109.07 82.3724H110.879L114.238 77.2998H118.404L114.07 83.7777L118.618 90.6342H114.308L111.095 85.5633H109.07V90.6342H105.38V77.2998H109.07V82.3724Z" fill="#4B008C"/>
<path d="M126.546 90.9686C122.616 90.9686 119.283 88.6345 119.283 83.9424C119.283 79.3702 122.616 76.9658 126.546 76.9658C130.475 76.9658 133.809 79.365 133.809 83.9184C133.809 88.5454 130.475 90.9669 126.546 90.9669V90.9686ZM126.546 80.275C124.618 80.275 122.947 81.514 122.947 83.9424C122.947 86.3707 124.567 87.656 126.546 87.656C128.452 87.656 130.145 86.3707 130.145 83.9184C130.145 81.466 128.455 80.275 126.546 80.275Z" fill="#4B008C"/>
<path d="M136.236 95.3968V84.0212C136.236 79.1628 139.356 76.9727 143.308 76.9727C147.5 76.9727 150 79.7592 150 83.9732C150 88.3535 147.452 90.8778 143.476 90.8778C142.071 90.8778 140.784 90.4493 139.903 89.7107C139.927 90.1169 139.927 90.5453 139.927 90.9257V95.402L136.236 95.3968ZM143.214 80.3487C141.142 80.3487 139.903 81.7299 139.903 83.9475C139.903 86.165 141.284 87.5189 143.214 87.5189C145.19 87.5189 146.333 86.1856 146.333 84.0195C146.333 81.7334 145.19 80.3521 143.214 80.3521" fill="#4B008C"/>
</g>
<g clip-path="url(#clip1_1_17)">
<path d="M89.4048 62.7258L89.2334 62.6863L89.1392 62.6606L89.3979 62.7258" fill="#4B008C"/>
<path d="M73.3609 18.9057C73.8681 17.9746 74.4142 17.0692 74.9992 16.1895C75.5819 17.0703 76.1274 17.9763 76.6358 18.9074C76.934 19.4547 77.2196 20.0088 77.4926 20.5697C77.7726 21.1512 78.0353 21.7448 78.281 22.3503C78.7094 23.4385 79.1498 24.6604 79.424 25.5378C79.4766 25.7092 79.528 25.8805 79.5782 26.0519C79.6691 26.3535 79.7496 26.6586 79.8353 26.9636C79.885 27.1487 79.933 27.3355 79.9793 27.5223C80.0255 27.7091 80.0615 27.8547 80.1009 28.0227C80.1335 28.1615 80.166 28.3003 80.1952 28.4391C80.2066 28.4837 80.2169 28.5282 80.226 28.5728L80.3186 29.0115C80.3494 29.1572 80.3768 29.3045 80.406 29.4519C80.4351 29.5993 80.4625 29.745 80.4882 29.8923C80.5139 30.0397 80.5345 30.1477 80.5551 30.2745C80.5848 30.4402 80.6122 30.6081 80.6373 30.7783C80.6527 30.8709 80.6665 30.9651 80.6802 31.0594C80.6887 31.1142 80.6973 31.1691 80.7042 31.2308L80.7247 31.3816C80.7257 31.3998 80.7257 31.4181 80.7247 31.4364C80.7367 31.5169 80.747 31.5958 80.7573 31.6763C80.7625 31.7041 80.7659 31.7321 80.7676 31.7603C80.7796 31.8391 80.7881 31.918 80.7967 31.9985C80.7967 31.9985 80.7967 32.0139 80.7967 32.0225C80.7967 32.0311 80.7967 32.0688 80.8053 32.091C80.8062 32.1019 80.8062 32.1128 80.8053 32.1236C80.819 32.2384 80.831 32.3515 80.843 32.4663C80.855 32.5812 80.867 32.696 80.8772 32.8091C80.8875 32.9222 80.8995 33.025 80.9098 33.133C80.9106 33.1404 80.9106 33.1479 80.9098 33.1553C80.9252 33.3146 80.9389 33.474 80.9509 33.6351C80.9852 34.0921 81.0109 34.5531 81.028 35.0181C81.0366 35.2409 81.0435 35.4636 81.0486 35.6881V35.7327C81.0486 35.9521 81.0486 36.1714 81.0486 36.3908V36.4079C81.0486 36.425 81.0486 36.4422 81.0486 36.4593C81.0281 36.814 80.8781 37.1488 80.627 37.4001C80.4451 37.5846 80.2164 37.7161 79.9655 37.7806C79.9431 37.7873 79.9202 37.7925 79.897 37.796C79.8542 37.8046 79.8096 37.8114 79.765 37.8166C79.7159 37.8192 79.6668 37.8192 79.6177 37.8166H70.3601C70.3111 37.8191 70.2619 37.8191 70.2128 37.8166C70.1682 37.8166 70.1237 37.8046 70.0808 37.796L70.0123 37.7806C69.7614 37.7161 69.5327 37.5846 69.3508 37.4001C69.0997 37.1488 68.9497 36.814 68.9292 36.4593C68.9292 36.437 68.9292 36.4148 68.9292 36.3908C68.9292 36.1714 68.9292 35.9521 68.9292 35.7327V35.6881C68.9292 35.4636 68.9412 35.2409 68.9498 35.0181C68.9669 34.5554 68.9926 34.0944 69.0269 33.6351C69.044 33.4037 69.0629 33.1758 69.0851 32.9496C69.128 32.4903 69.1794 32.0345 69.2394 31.5786C69.2599 31.4175 69.2839 31.2582 69.3079 31.0988C69.3319 30.9377 69.3559 30.7783 69.3816 30.619C69.4073 30.4596 69.433 30.3036 69.4604 30.146C69.4776 30.0432 69.4964 29.9403 69.517 29.8392L69.5376 29.7244C69.5461 29.6816 69.553 29.6404 69.5616 29.5976C69.5787 29.505 69.5958 29.4125 69.6147 29.32C69.6147 29.2891 69.6267 29.2566 69.6335 29.2257C69.6524 29.1263 69.6729 29.0269 69.6935 28.9275C69.7141 28.8281 69.7261 28.7733 69.7432 28.6945C69.8186 28.3414 69.9009 27.9901 69.9866 27.6388L70.1202 27.1127L70.1408 27.0339C70.1802 26.8848 70.2213 26.7374 70.2625 26.59C70.3036 26.4426 70.355 26.2644 70.4013 26.1016C70.4475 25.9388 70.5127 25.7314 70.5726 25.5481C70.84 24.6912 71.2684 23.4916 71.6883 22.424C71.6873 22.4194 71.6873 22.4148 71.6883 22.4102C71.9442 21.7899 72.2167 21.1792 72.5057 20.5783C72.7742 20.0162 73.0598 19.4621 73.3626 18.916L73.3609 18.9057ZM73.5939 32.9119C73.5939 32.5489 73.7333 32.1998 73.9834 31.9367C74.2334 31.6736 74.575 31.5166 74.9375 31.4981H75.0643C75.4267 31.517 75.768 31.6741 76.018 31.9371C76.2679 32.2002 76.4075 32.5491 76.4079 32.9119V34.9804H78.2124C78.197 34.6051 78.1747 34.228 78.1473 33.8545C78.1353 33.7071 78.1233 33.558 78.1096 33.4106C78.0822 33.0896 78.0496 32.7697 78.0119 32.4509C77.9999 32.3447 77.9862 32.2367 77.9725 32.1305C77.9519 31.9637 77.9296 31.7974 77.9057 31.6318C77.8919 31.5272 77.8765 31.4244 77.8611 31.3216C77.8457 31.2188 77.8354 31.1502 77.8217 31.0714C77.8045 30.9548 77.7857 30.8366 77.7634 30.7201C77.7411 30.6035 77.724 30.487 77.7017 30.3773C77.6623 30.1425 77.616 29.9095 77.568 29.6781C77.5458 29.5616 77.5218 29.4451 77.4961 29.3354C77.4498 29.1126 77.4001 28.8915 77.347 28.6705C77.3127 28.5248 77.2784 28.3808 77.2407 28.2369C77.191 28.0261 77.1362 27.8187 77.0694 27.6097C77.0402 27.4948 77.0094 27.3817 76.9751 27.2669C76.8928 26.9722 76.806 26.678 76.7146 26.3844C76.6803 26.273 76.6444 26.1616 76.6084 26.0502C76.5381 25.8274 76.4627 25.6046 76.3856 25.3835C76.2896 25.1059 76.1897 24.8289 76.0857 24.5524C75.9726 24.2439 75.8509 23.9372 75.7258 23.6338C75.4973 23.0626 75.2528 22.5045 74.9923 21.9595C74.7318 22.5091 74.4874 23.0672 74.2589 23.6338C74.1338 23.9372 74.0121 24.2439 73.899 24.5524C73.7939 24.8289 73.6939 25.1059 73.5991 25.3835C73.522 25.6046 73.4466 25.8274 73.3763 26.0502C73.2461 26.4546 73.1244 26.8591 73.0096 27.2669C72.9753 27.3817 72.9444 27.4948 72.9153 27.6097C72.857 27.8187 72.8022 28.0261 72.7439 28.2369C72.7079 28.3808 72.6737 28.5248 72.6377 28.6705C72.5846 28.8915 72.5349 29.1126 72.4886 29.3354C72.4629 29.4502 72.4389 29.5667 72.4166 29.6781C72.3686 29.9095 72.3224 30.1425 72.2829 30.3773C72.2612 30.4916 72.2407 30.6058 72.2212 30.7201C72.2007 30.8383 72.1818 30.9548 72.163 31.0714C72.1493 31.1554 72.1356 31.2428 72.1236 31.3216C72.1116 31.4004 72.0927 31.5272 72.079 31.6318C72.055 31.7986 72.0327 31.9648 72.0122 32.1305C71.9985 32.2367 71.9848 32.3447 71.9728 32.4509C71.9351 32.7697 71.9025 33.0896 71.8751 33.4106C71.8614 33.558 71.8494 33.7071 71.8374 33.8545C71.81 34.2292 71.7882 34.6045 71.7723 34.9804H73.5768L73.5939 32.9119Z" fill="#4B008C"/>
<path d="M48.6381 0.053346C49.1848 -0.017782 49.7384 -0.017782 50.285 0.053346C50.3741 0.065342 50.465 0.077338 50.5541 0.092761C51.0648 0.178447 51.572 0.275557 52.0758 0.384093C52.3123 0.435504 52.5488 0.488631 52.7836 0.54347C53.0184 0.598309 53.2326 0.651439 53.4554 0.714839C60.3596 2.49419 66.5947 6.24928 71.3963 11.5198L71.422 11.549C72.2386 12.4477 73.0096 13.3869 73.7321 14.3629L73.8195 14.4794L72.1881 17.0072L72.0081 16.7587L71.967 16.7021L71.8659 16.5616C71.2159 15.638 70.518 14.7491 69.7751 13.8985C65.3633 8.86115 59.5484 5.25525 53.075 3.54248C52.875 3.48878 52.6745 3.43737 52.4734 3.38824C52.2695 3.33683 52.0639 3.28885 51.8582 3.24258L51.7948 3.22886L51.4521 3.15347L51.1093 3.0832C50.7666 3.01294 50.4238 2.94953 50.0811 2.89127C49.5624 2.80332 49.0307 2.83017 48.5235 2.96992C48.0163 3.10968 47.5459 3.35893 47.1455 3.70014C46.7335 4.04749 46.4024 4.4807 46.1753 4.96943C45.9483 5.45815 45.8308 5.9906 45.8311 6.52949V20.0679C45.837 23.9294 47.3735 27.631 50.104 30.3615C52.8345 33.092 56.5362 34.6286 60.3977 34.6345C60.7731 34.6345 61.1332 34.7836 61.3986 35.0491C61.6641 35.3145 61.8132 35.6746 61.8132 36.05C61.8132 36.4254 61.6641 36.7855 61.3986 37.0509C61.1332 37.3164 60.7731 37.4655 60.3977 37.4655C59.0028 37.4669 57.6654 38.0216 56.679 39.008C55.6927 39.9943 55.1379 41.3317 55.1366 42.7267V56.0028C55.1368 56.1477 55.1448 56.2924 55.1606 56.4364C55.1691 56.505 55.1794 56.5752 55.1914 56.6438C55.2034 56.7106 55.2171 56.7791 55.2325 56.846C55.2325 56.846 55.2325 56.846 55.2325 56.8563C55.2445 56.9077 55.2582 56.9591 55.272 57.0105C55.2857 57.0619 55.2994 57.1048 55.3148 57.1527C55.5504 57.8665 55.996 58.4924 56.5932 58.9487C57.0258 59.2896 57.5309 59.5267 58.0696 59.6417C58.6082 59.7567 59.1661 59.7465 59.7002 59.6119L59.8013 59.5845L59.8544 59.5725L60.0721 59.5142L60.2743 59.4594L60.5553 59.3789L60.8792 59.2812L60.9358 59.264C61.0729 59.2229 61.21 59.1784 61.3454 59.1338L61.5305 59.0704C61.647 59.0327 61.7635 58.9916 61.8732 58.9504L62.0103 58.9007C62.1337 58.8579 62.2554 58.8116 62.377 58.7653L62.4679 58.7293C62.6135 58.6745 62.7609 58.6162 62.9048 58.558C63.0488 58.4997 63.2356 58.4226 63.3984 58.3506C63.5612 58.2786 63.7172 58.2101 63.8765 58.1381L63.9262 58.1141C64.0736 58.0479 64.221 57.9776 64.3684 57.9033C64.5295 57.8279 64.6871 57.7474 64.8465 57.6651C65.0059 57.5829 65.1618 57.4938 65.3178 57.4149C65.4737 57.3361 65.6297 57.2436 65.7839 57.1545C65.9381 57.0653 66.0924 56.9831 66.2432 56.8854L66.6133 56.6592C66.9818 56.4278 67.3417 56.1879 67.6964 55.9394C67.9626 55.7532 68.2248 55.5607 68.483 55.3619L68.7418 55.1631C68.9131 55.0294 69.0845 54.8941 69.2456 54.7535C69.417 54.6147 69.5781 54.4742 69.7409 54.3302C69.9037 54.1863 70.0665 54.0423 70.2259 53.8932C70.3852 53.7441 70.5429 53.5968 70.6988 53.4442C70.752 53.3928 70.8051 53.3414 70.8548 53.29L71.009 53.1358C71.2124 52.9301 71.4129 52.7199 71.6105 52.5051C71.7014 52.4057 71.7922 52.3063 71.8813 52.2052C72.5125 51.498 73.1013 50.7541 73.6447 49.9774C73.7012 49.8976 73.7655 49.8235 73.8367 49.7563C73.9073 49.6916 73.9842 49.6342 74.0663 49.585C74.1648 49.5241 74.2708 49.4763 74.3816 49.4427C74.6255 49.367 74.8853 49.3589 75.1334 49.4192C75.3815 49.4796 75.6085 49.6062 75.7903 49.7855C75.8534 49.8451 75.9108 49.9105 75.9617 49.9808L76.1193 50.2019C76.1725 50.2756 76.2239 50.3476 76.2787 50.4212C76.385 50.5669 76.4946 50.7109 76.6043 50.8531C76.714 50.9953 76.8254 51.1376 76.9471 51.2781C77.2898 51.698 77.6325 52.1075 78.0027 52.5017C78.0935 52.6011 78.1844 52.6988 78.2769 52.7965C78.3694 52.8941 78.4637 52.9901 78.558 53.0861C78.7447 53.278 78.9367 53.4648 79.1303 53.6482C79.3885 53.8972 79.6524 54.1377 79.9221 54.3697C80.0557 54.4879 80.1928 54.6044 80.3299 54.7124C80.467 54.8204 80.6041 54.9403 80.7429 55.0551L81.0051 55.2608C81.4456 55.6035 81.8963 55.9291 82.359 56.2376C82.5423 56.361 82.7291 56.4827 82.9177 56.6009C83.0547 56.69 83.1936 56.7723 83.3341 56.8597L83.3821 56.8871C83.5295 56.9779 83.6803 57.067 83.8311 57.151C83.9819 57.235 84.1412 57.3224 84.2972 57.4115C84.4531 57.5006 84.6108 57.5829 84.7702 57.6617C84.9296 57.7405 85.0735 57.8177 85.2277 57.8896C85.2359 57.8959 85.2452 57.9005 85.2552 57.9033C85.3957 57.9736 85.5362 58.0404 85.6784 58.1056L85.7419 58.1347C85.8892 58.2032 86.0366 58.2701 86.1874 58.3352L86.2251 58.3506C86.3862 58.4209 86.5473 58.4894 86.7101 58.5546C86.8729 58.6197 86.9997 58.6728 87.1471 58.7259C87.1762 58.7396 87.2071 58.7499 87.2379 58.7619C87.3442 58.803 87.4504 58.8425 87.5584 58.8802C87.627 58.9076 87.6972 58.9316 87.7675 58.9573C87.8377 58.983 87.9388 59.0155 88.016 59.0412L88.3073 59.1406C88.4615 59.1921 88.6175 59.2418 88.7751 59.288C88.8563 59.3143 88.9368 59.3383 89.0168 59.36C89.131 59.3954 89.2493 59.4297 89.3715 59.4628L89.4726 59.4902L89.7657 59.5691L89.8359 59.5862L89.9216 59.6085C90.4555 59.7428 91.013 59.7529 91.5514 59.6379C92.0897 59.5229 92.5945 59.286 93.0269 58.9453C93.6251 58.4834 94.0686 57.8504 94.2984 57.1305C94.3139 57.0842 94.3276 57.0362 94.3413 56.9882C94.355 56.9402 94.3687 56.8854 94.3807 56.834C94.3815 56.8306 94.3815 56.8271 94.3807 56.8237C94.3961 56.7569 94.4098 56.69 94.4218 56.6215C94.4338 56.5529 94.4441 56.4844 94.4527 56.4141C94.4685 56.2707 94.4765 56.1265 94.4767 55.9823V42.7129C94.4749 41.3182 93.92 39.981 92.9337 38.9948C91.9475 38.0085 90.6103 37.4536 89.2156 37.4518C88.8401 37.4518 88.4801 37.3027 88.2146 37.0372C87.9492 36.7718 87.8 36.4117 87.8 36.0363C87.8 35.6609 87.9492 35.3008 88.2146 35.0354C88.4801 34.7699 88.8401 34.6208 89.2156 34.6208C93.077 34.6149 96.7787 33.0783 99.5092 30.3478C102.24 27.6173 103.776 23.9157 103.782 20.0542V6.51578C103.782 5.97689 103.665 5.44444 103.438 4.95571C103.211 4.46699 102.88 4.03379 102.468 3.68643C102.067 3.34498 101.596 3.09559 101.089 2.95583C100.581 2.81607 100.049 2.78935 99.5304 2.87755C99.1877 2.93582 98.8449 2.9998 98.5022 3.06949L98.1595 3.13975L97.8167 3.21516L97.7533 3.22886C97.5477 3.27513 97.342 3.32312 97.1381 3.37453L96.5366 3.52877C90.0638 5.24194 84.2495 8.84781 79.8381 13.8848C79.0952 14.7354 78.3974 15.6243 77.7474 16.5479C77.7114 16.5942 77.6788 16.6404 77.6463 16.6884L77.6051 16.745L77.4252 16.9935L75.7937 14.4657L75.8794 14.3492C76.6009 13.3775 77.3772 12.4298 78.1912 11.5353L78.2169 11.5061C83.0185 6.23557 89.2536 2.48048 96.1578 0.701129C96.3806 0.644579 96.6051 0.58974 96.8296 0.52976C97.0541 0.46978 97.2992 0.421794 97.5357 0.370383C98.0378 0.262418 98.545 0.166451 99.0574 0.079051C99.1466 0.063628 99.2288 0.051632 99.3265 0.039636L99.527 0.017357C99.5944 0.010502 99.6613 0.00536199 99.7275 0.00193399H99.8492C99.952 0.00193399 100.053 0.00193399 100.154 0.00193399H100.202C100.255 0.00193399 100.308 0.00193399 100.362 0.00193399C100.415 0.00193399 100.499 0.001934 100.567 0.012216C100.703 0.012216 100.84 0.034495 100.975 0.053346C101.045 0.053346 101.114 0.072196 101.184 0.084192C101.355 0.113325 101.527 0.149314 101.698 0.192157C101.87 0.235 102.041 0.284697 102.202 0.34125C102.336 0.38752 102.466 0.435506 102.596 0.490345C102.768 0.564035 102.939 0.642869 103.11 0.730269C103.533 0.950509 103.931 1.21721 104.295 1.52543C105.022 2.13777 105.607 2.90202 106.007 3.76445C106.408 4.62688 106.615 5.56657 106.613 6.51749V20.0559C106.596 23.7375 105.419 27.3201 103.25 30.2949C101.081 33.2697 98.0298 35.4855 94.5298 36.6275C95.402 37.3845 96.101 38.3205 96.5792 39.3717C97.0574 40.423 97.3035 41.5649 97.3009 42.7198V55.9977C97.3012 56.3136 97.2788 56.6292 97.234 56.9419C97.2066 57.1253 97.1741 57.307 97.1329 57.4869C97.1192 57.5503 97.1021 57.6137 97.0867 57.6754C97.0404 57.8468 96.9873 58.0182 96.9256 58.1895C96.9263 58.1935 96.9263 58.1976 96.9256 58.2015C96.8742 58.3455 96.8176 58.4877 96.7542 58.6265C96.1327 60.0224 95.046 61.1594 93.6796 61.8432C92.3131 62.527 90.7517 62.7154 89.2618 62.3761L89.2241 62.3676H89.2139L88.9551 62.3025L88.698 62.2322C88.5267 62.1842 88.3553 62.1345 88.1839 62.0831C88.0125 62.0317 87.8412 61.9786 87.6698 61.9237L87.1557 61.7524H87.142C86.9706 61.6941 86.7992 61.637 86.6278 61.581C86.4702 61.5244 86.3125 61.4644 86.1566 61.4096L86.1017 61.389C85.9304 61.3256 85.7761 61.2605 85.615 61.1937C85.5002 61.1474 85.3854 61.0994 85.2723 61.0497C85.1849 61.0137 85.1009 60.976 85.0118 60.9366L84.957 60.9126C84.8062 60.8475 84.6571 60.779 84.508 60.7104H84.4926L84.0196 60.4842C83.8585 60.4071 83.6991 60.3265 83.5397 60.2443C83.3804 60.162 83.221 60.0729 83.0633 59.9941C82.9057 59.9152 82.748 59.8227 82.592 59.7353C81.7732 59.2723 80.9782 58.7684 80.21 58.2255C79.9541 58.0439 79.701 57.8582 79.4508 57.6686C79.3428 57.5863 79.2366 57.4972 79.132 57.4218C78.9195 57.2504 78.7105 57.0876 78.5031 56.9077L78.1946 56.6472C77.8108 56.3159 77.4366 55.9731 77.0722 55.619C76.9505 55.5024 76.8305 55.3842 76.7106 55.2659C76.5906 55.1477 76.5186 55.0757 76.4261 54.978C75.8617 54.3988 75.323 53.7938 74.8101 53.1632C74.2971 53.7938 73.7584 54.3988 73.194 54.978L72.9095 55.2659C72.7896 55.3842 72.6696 55.5024 72.5479 55.619C72.1835 55.9686 71.8093 56.3113 71.4255 56.6472L71.117 56.9077C70.9096 57.079 70.7005 57.2504 70.488 57.4218C70.3835 57.5058 70.2773 57.5932 70.1693 57.6686C69.7409 57.9942 69.3033 58.3072 68.8566 58.6077L68.4076 58.9024C68.2568 59.0001 68.106 59.0944 67.9535 59.1886C67.8009 59.2829 67.6467 59.3754 67.4925 59.4663C67.3382 59.5571 67.1823 59.6479 67.0263 59.7353L66.6476 59.9444C66.4591 60.0472 66.2706 60.1466 66.0804 60.2443C65.9261 60.3231 65.7702 60.4019 65.6142 60.4773L65.5937 60.4876C65.4531 60.5579 65.3109 60.6247 65.1687 60.6898L65.1035 60.7207C64.9579 60.7892 64.8105 60.8561 64.6631 60.9195L64.6083 60.9435C64.5226 60.9829 64.4369 61.0206 64.3478 61.0566C64.2347 61.1063 64.1199 61.1543 64.0051 61.2005C63.844 61.2674 63.6812 61.3325 63.5184 61.3959L63.4635 61.4165C63.3076 61.4764 63.1499 61.5364 62.9922 61.5878C62.8346 61.6393 62.6598 61.7078 62.4918 61.7592L62.4439 61.7763L61.9657 61.934C61.7944 61.9888 61.623 62.0403 61.4516 62.0917C61.2802 62.1431 61.1089 62.1928 60.9375 62.2408C60.7661 62.2888 60.6085 62.3299 60.4422 62.371L60.3737 62.3881C59.4228 62.6064 58.4353 62.6104 57.4827 62.4C56.5301 62.1896 55.6362 61.7699 54.8658 61.1714C53.7727 60.3296 52.9752 59.1625 52.5883 57.8382C52.5643 57.7508 52.5403 57.6668 52.518 57.5726C52.4683 57.3687 52.4289 57.1613 52.398 56.9522C52.3532 56.6389 52.3309 56.3228 52.3312 56.0063V42.7129C52.3289 41.5579 52.5754 40.416 53.0538 39.3647C53.5323 38.3135 54.2315 37.3776 55.104 36.6207C51.6 35.4818 48.5442 33.2673 46.3712 30.2919C44.1982 27.3165 43.0185 23.7317 43 20.0473V6.50892C42.9995 5.55799 43.2069 4.61843 43.6077 3.7561C44.0085 2.89376 44.5931 2.1295 45.3204 1.51686C45.6843 1.20864 46.0815 0.941939 46.5046 0.721699C46.6759 0.634299 46.8473 0.550325 47.0187 0.481776C47.1489 0.426937 47.2792 0.378954 47.4128 0.332683C47.5796 0.276702 47.7476 0.227002 47.9167 0.183588C48.0857 0.140174 48.2571 0.104188 48.4308 0.075626C48.501 0.065343 48.5696 0.053346 48.6398 0.044777L48.6381 0.053346Z" fill="#00AD8E"/>
<path d="M61.1183 62.5903C61.0018 62.6246 60.8835 62.6555 60.7653 62.6863L60.623 62.7206C60.7944 62.6794 60.9538 62.6366 61.1183 62.5903Z" fill="#4B008C"/>
</g>
<defs>
<clipPath id="clip0_1_17">
<rect width="150" height="23" fill="white" transform="translate(0 73)"/>
</clipPath>
<clipPath id="clip1_1_17">
<rect width="64" height="63" fill="white" transform="translate(43)"/>
</clipPath>
</defs>
</svg>
