<svg width="154" height="109" viewBox="0 0 154 109" fill="none" xmlns="http://www.w3.org/2000/svg">
<path d="M108.027 2.42648C107.275 1.78776 106.392 1.32136 105.44 1.06004C104.488 0.798709 103.491 0.748775 102.518 0.913738C94.0735 2.36651 86.3555 6.59496 80.5867 12.9292L80.5596 12.9598C79.703 13.901 78.8861 14.8981 78.1268 15.9204L78.0367 16.043L79.7535 18.7025L79.9429 18.441C80.7219 17.3592 81.8905 15.9168 82.7832 14.9395C88.105 9.09375 95.2259 5.19078 103.017 3.84908C103.563 3.75779 104.123 3.78681 104.656 3.93412C105.19 4.08142 105.685 4.34346 106.107 4.70191C106.54 5.06702 106.889 5.52247 107.128 6.03638C107.366 6.55028 107.49 7.11021 107.49 7.67692V21.9209C107.483 25.9835 105.866 29.8778 102.993 32.7505C100.119 35.6232 96.2243 37.24 92.1609 37.2467C91.7658 37.2467 91.387 37.4036 91.1076 37.6829C90.8282 37.9622 90.6713 38.341 90.6713 38.736C90.6713 39.131 90.8282 39.5098 91.1076 39.7891C91.387 40.0684 91.7658 40.2253 92.1609 40.2253C93.6288 40.2267 95.0362 40.8104 96.0742 41.8481C97.1122 42.8859 97.6959 44.293 97.6974 45.7606V59.7287C97.6996 60.3232 97.5645 60.9103 97.3027 61.4441C97.0409 61.9779 96.6594 62.4441 96.1879 62.8065C95.7057 63.1803 95.1437 63.438 94.5457 63.5593C93.9476 63.6806 93.3297 63.6624 92.7398 63.5061C86.8566 61.9683 81.7117 58.3896 78.2242 53.4091C78.087 53.213 77.9046 53.053 77.6924 52.9425C77.4802 52.8319 77.2444 52.7742 77.0051 52.7742C76.7658 52.7742 76.5301 52.8319 76.3178 52.9425C76.1056 53.053 75.9232 53.213 75.786 53.4091C72.2649 58.4363 67.0547 62.0317 61.1045 63.5403C60.5414 63.6831 59.9529 63.6944 59.3847 63.5734C58.8165 63.4524 58.2838 63.2023 57.8277 62.8425C57.3517 62.4743 56.9666 62.0018 56.7021 61.4613C56.4376 60.9208 56.3007 60.3268 56.302 59.7251V45.7606C56.3035 44.293 56.8872 42.8859 57.9252 41.8481C58.9632 40.8104 60.3706 40.2267 61.8385 40.2253C62.2345 40.2265 62.6148 40.0703 62.8957 39.7912C63.1765 39.5121 63.335 39.1328 63.3362 38.7369C63.3374 38.3409 63.1812 37.9607 62.902 37.6799C62.6229 37.3991 62.2435 37.2407 61.8475 37.2395C57.7841 37.2328 53.889 35.616 51.0157 32.7433C48.1424 29.8706 46.5252 25.9763 46.5186 21.9137V7.66971C46.5183 7.10299 46.6419 6.54307 46.8809 6.02916C47.1198 5.51526 47.4682 5.0598 47.9018 4.6947C48.3235 4.33625 48.8185 4.07422 49.3521 3.92691C49.8857 3.7796 50.445 3.75057 50.991 3.84186C58.9804 5.18788 66.2627 9.2427 71.614 15.3248C76.9653 21.4068 80.0592 29.1453 80.3757 37.2395H78.4767V35.0506C78.4767 34.6556 78.3197 34.2768 78.0404 33.9975C77.761 33.7182 77.3821 33.5613 76.9871 33.5613C76.592 33.5613 76.2131 33.7182 75.9338 33.9975C75.6544 34.2768 75.4975 34.6556 75.4975 35.0506V37.2395H73.6165C73.7461 34.1673 74.2759 31.1251 75.1927 28.19C75.4848 27.2543 75.8203 26.3149 76.1936 25.3989L76.2351 25.2998L74.3487 22.0219L74.1684 22.4203C73.5859 23.7365 72.7653 25.9254 72.3343 27.3029C71.1832 31.0048 70.5989 34.8594 70.6012 38.736C70.6022 38.9328 70.6419 39.1275 70.7183 39.309C70.7946 39.4904 70.906 39.655 71.046 39.7933C71.186 39.9317 71.352 40.0411 71.5344 40.1152C71.7168 40.1893 71.912 40.2267 72.1089 40.2253H81.8725C82.0703 40.2256 82.2662 40.1863 82.4486 40.1098C82.631 40.0333 82.7963 39.9212 82.9347 39.7799C83.2175 39.4978 83.3776 39.1156 83.3801 38.7161C83.4005 29.6559 80.2029 20.8827 74.3571 13.9597C68.5113 7.03666 60.397 2.41343 51.4599 0.913738C50.4871 0.748551 49.4899 0.79838 48.5384 1.05972C47.5869 1.32107 46.7042 1.78758 45.9523 2.42648C45.1902 3.07096 44.5781 3.87411 44.1588 4.77977C43.7395 5.68543 43.5232 6.67174 43.5249 7.66971V21.9137C43.543 25.7872 44.7813 29.5565 47.0639 32.6863C49.3466 35.8162 52.5575 38.1474 56.2407 39.349C55.3226 40.1453 54.5868 41.13 54.0833 42.2361C53.5798 43.3421 53.3204 44.5436 53.3228 45.7588V59.7287C53.32 60.7839 53.5597 61.8256 54.0234 62.7734C54.4871 63.7213 55.1624 64.55 55.9973 65.1955C56.809 65.8345 57.7568 66.2785 58.7674 66.4929C59.7781 66.7074 60.8245 66.6867 61.8259 66.4324C67.7915 64.9116 73.11 61.5133 76.9961 56.7393C80.8428 61.4612 86.0897 64.8401 91.9806 66.3891C93.0107 66.6608 94.0897 66.6916 95.1337 66.479C96.1777 66.2663 97.1586 65.816 98.0003 65.163C98.8328 64.5233 99.5065 63.7001 99.9688 62.7575C100.431 61.815 100.67 60.7785 100.666 59.7287V45.7606C100.669 44.5455 100.41 43.3441 99.9063 42.238C99.4031 41.132 98.6675 40.1472 97.7497 39.3508C101.433 38.1494 104.645 35.8181 106.928 32.6878C109.211 29.5576 110.449 25.7877 110.467 21.9137V7.66971C110.469 6.66953 110.251 5.68121 109.829 4.77416C109.408 3.86711 108.793 3.06333 108.027 2.41927" fill="#482680"/>
<path d="M5.09987 103.026C3.55204 102.145 2.26477 100.871 1.36862 99.3319C0.471763 97.773 -0.000244141 96.0061 -0.000244141 94.2077C-0.000244141 92.4093 0.471763 90.6424 1.36862 89.0835C2.28213 87.5344 3.58685 86.2525 5.15203 85.3665C6.7172 84.4804 8.48784 84.0212 10.2865 84.035C11.7067 84.0329 13.1124 84.32 14.4181 84.8788C15.7452 85.4463 16.9153 86.3266 17.8283 87.4445C18.807 88.6542 19.4468 90.1021 19.6822 91.6402H16.0411C15.6684 90.1977 14.9615 89.1159 13.9203 88.3947C12.8791 87.6735 11.633 87.3129 10.1819 87.3129C9.01304 87.2968 7.86097 87.5918 6.84375 88.1675C5.83536 88.7447 5.00643 89.5896 4.44883 90.6088C3.87171 91.7272 3.57058 92.9673 3.57058 94.2257C3.57058 95.4841 3.87171 96.7243 4.44883 97.8426C5.00271 98.8541 5.82935 99.6899 6.83474 100.255C7.86072 100.828 9.01922 101.122 10.1945 101.108C11.6444 101.108 12.8906 100.747 13.9329 100.026C14.9753 99.3049 15.6774 98.223 16.0393 96.7806H19.684C19.3979 98.4418 18.7823 99.8452 17.8373 100.991C16.9294 102.109 15.7608 102.986 14.4343 103.547C13.1225 104.104 11.7115 104.389 10.2865 104.386C8.4671 104.403 6.67635 103.933 5.09987 103.025" fill="#4B008C"/>
<path d="M29.1681 89.2479C30.0666 89.2267 30.9597 89.3931 31.7902 89.7365C32.483 90.0247 33.0739 90.5132 33.4872 91.1393C33.8976 91.8001 34.1045 92.5669 34.0824 93.3444C34.0802 93.9532 33.8955 94.5473 33.5522 95.0501C33.2531 95.537 32.8128 95.9213 32.2898 96.1517C33.0263 96.4143 33.6743 96.8785 34.1599 97.4914C34.6485 98.0814 34.9147 98.8241 34.9119 99.5901C34.9119 100.584 34.6757 101.41 34.2032 102.067C33.7379 102.718 33.0931 103.219 32.3475 103.51C31.5582 103.821 30.7162 103.977 29.8678 103.97H22.6794V89.2479H29.1681ZM30.288 94.8265C30.4368 94.6753 30.5524 94.4947 30.6276 94.2964C30.7027 94.098 30.7357 93.8862 30.7244 93.6743C30.7324 93.4707 30.6948 93.2679 30.6143 93.0808C30.5338 92.8936 30.4125 92.7268 30.2592 92.5925C29.909 92.3121 29.4683 92.1697 29.0202 92.1923H26.1402V95.2574H29.105C29.3182 95.268 29.5313 95.236 29.732 95.1633C29.9326 95.0905 30.1168 94.9785 30.2736 94.8337L30.288 94.8265ZM30.9535 100.614C31.1261 100.457 31.2618 100.264 31.351 100.049C31.4402 99.8337 31.4806 99.6012 31.4692 99.3683C31.4807 99.135 31.4426 98.9019 31.3575 98.6843C31.2723 98.4668 31.142 98.2697 30.9751 98.1062C30.6445 97.7961 30.184 97.641 29.5937 97.641H26.1402V101.067H29.5504C30.059 101.095 30.5597 100.932 30.9535 100.609" fill="#4B008C"/>
<path d="M51.8749 97.5272H40.371C40.4656 98.2531 40.7226 98.9482 41.123 99.561C41.4856 100.113 41.9819 100.564 42.5658 100.872C43.1471 101.174 43.7935 101.328 44.4485 101.323C45.3093 101.323 46.0139 101.153 46.5621 100.814C47.115 100.47 47.5401 99.9548 47.7722 99.3465H51.5593C51.2912 100.275 50.8276 101.136 50.1996 101.871C49.5295 102.659 48.6956 103.292 47.7559 103.726C46.0131 104.552 44.0208 104.682 42.1854 104.089C40.3499 103.497 38.8097 102.227 37.8787 100.538C37.2306 99.3317 36.8914 97.9835 36.8914 96.614C36.8914 95.2444 37.2306 93.8962 37.8787 92.6897C38.5294 91.4978 39.4933 90.5061 40.6663 89.8217C41.8393 89.1373 43.177 88.7861 44.5351 88.8059C45.8592 88.7812 47.1647 89.1215 48.3082 89.7893C49.4518 90.4572 50.3894 91.427 51.0183 92.5923C51.6436 93.7461 51.9662 95.0394 51.9561 96.3516C51.9524 96.7445 51.9283 97.1369 51.8839 97.5272H51.8749ZM48.4178 94.8479C48.3651 94.2946 48.1506 93.7691 47.801 93.337C47.4246 92.8635 46.9413 92.4859 46.3908 92.2353C45.8058 91.961 45.1668 91.8212 44.5206 91.826C43.6293 91.8126 42.7565 92.0808 42.0265 92.5923C41.2944 93.1044 40.7906 93.8562 40.5153 94.8479H48.4178Z" fill="#4B008C"/>
<path d="M59.985 92.1418V98.6021C59.985 99.4507 60.1305 100.078 60.4215 100.484C60.7118 100.89 61.2168 101.094 61.9327 101.094H62.5351V103.979H61.2727C59.6989 103.979 58.5123 103.532 57.7128 102.639C56.9132 101.746 56.5147 100.412 56.5171 98.6364V92.1455H52.3693V89.2354H63.9453V92.1418H59.985Z" fill="#4B008C"/>
<path d="M67.3482 100.792C67.9193 100.23 68.4447 99.4234 68.9244 98.3728C69.4565 97.1449 69.8526 95.8626 70.1056 94.5486C70.4344 92.8952 70.6334 91.2187 70.7008 89.5343L70.9298 84.4858H83.779V100.785H85.7628V107.173H82.2263V103.973H69.4221V107.181H65.8568V100.792H67.3482ZM80.2263 87.6736H74.2535L74.0515 90.7892C73.9 93.4577 73.5592 95.5613 73.029 97.0999C72.4988 98.6385 71.8135 99.8675 70.9731 100.787H80.2281L80.2263 87.6736Z" fill="#4B008C"/>
<path d="M103.234 97.5272H91.7298C91.8243 98.253 92.0814 98.9482 92.4818 99.561C92.8444 100.113 93.3407 100.564 93.9245 100.872C94.5058 101.174 95.1523 101.328 95.8073 101.323C96.6669 101.323 97.3714 101.153 97.9209 100.814C98.4738 100.47 98.8989 99.9547 99.1309 99.3465H102.918C102.65 100.275 102.186 101.136 101.558 101.871C100.888 102.659 100.054 103.292 99.1147 103.726C97.3719 104.552 95.3796 104.682 93.5441 104.089C91.7087 103.497 90.1684 102.227 89.2375 100.538C88.5893 99.3317 88.2501 97.9835 88.2501 96.6139C88.2501 95.2444 88.5893 93.8962 89.2375 92.6896C89.8875 91.4991 90.8499 90.5083 92.0212 89.824C93.1925 89.1397 94.5283 88.7877 95.8848 88.8059C97.2087 88.7815 98.5137 89.1219 99.657 89.7898C100.8 90.4576 101.738 91.4272 102.366 92.5923C102.993 93.7457 103.316 95.0392 103.306 96.3516C103.306 96.678 103.281 97.0728 103.234 97.5272ZM99.7676 94.8479C99.7149 94.2946 99.5004 93.7691 99.1508 93.3369C98.7733 92.8614 98.288 92.4826 97.7351 92.2317C97.1501 91.9574 96.5111 91.8175 95.865 91.8224C94.9767 91.8109 94.1073 92.0789 93.3799 92.5887C92.6477 93.1007 92.144 93.8526 91.8686 94.8443L99.7676 94.8479Z" fill="#4B008C"/>
<path d="M106.128 89.248H109.594V94.7058H111.457L115.039 89.248H119.122L114.251 96.1663L119.551 103.973H115.412L111.686 98.1586H109.594V103.973H106.128V89.248Z" fill="#4B008C"/>
<path d="M123.684 103.371C122.524 102.693 121.566 101.716 120.912 100.542C120.255 99.3374 119.91 97.9868 119.91 96.6142C119.91 95.2416 120.255 93.891 120.912 92.6863C121.565 91.5094 122.523 90.5298 123.684 89.8501C124.901 89.1641 126.274 88.8037 127.671 88.8037C129.067 88.8037 130.441 89.1641 131.657 89.8501C132.822 90.5285 133.782 91.5082 134.436 92.6863C135.094 93.8923 135.439 95.2441 135.439 96.6178C135.439 97.9915 135.094 99.3433 134.436 100.549C133.782 101.728 132.819 102.706 131.65 103.378C130.433 104.078 129.05 104.437 127.646 104.417C126.253 104.437 124.881 104.075 123.679 103.371H123.684ZM129.883 100.607C130.538 100.215 131.074 99.6495 131.43 98.9734C131.802 98.2427 131.996 97.4342 131.996 96.6142C131.996 95.7941 131.802 94.9856 131.43 94.2549C131.068 93.5711 130.527 92.9988 129.864 92.5996C129.202 92.2004 128.443 91.9894 127.669 91.9894C126.895 91.9894 126.136 92.2004 125.473 92.5996C124.811 92.9988 124.269 93.5711 123.908 94.2549C123.536 94.9856 123.342 95.7941 123.342 96.6142C123.342 97.4342 123.536 98.2427 123.908 98.9734C124.264 99.6495 124.799 100.215 125.455 100.607C126.129 100.992 126.892 101.195 127.669 101.195C128.445 101.195 129.208 100.992 129.883 100.607Z" fill="#4B008C"/>
<path d="M141.757 89.2481V91.7272C142.277 90.8452 143.016 90.1124 143.903 89.5996C144.786 89.0814 145.793 88.8117 146.817 88.8189C148.122 88.802 149.404 89.1653 150.507 89.8647C151.599 90.5617 152.484 91.5386 153.071 92.6936C153.682 93.9117 154 95.2554 154 96.618C154 97.9805 153.682 99.3242 153.071 100.542C152.484 101.695 151.601 102.671 150.514 103.371C149.427 104.07 148.159 104.433 146.867 104.417C145.843 104.425 144.834 104.161 143.946 103.651C143.081 103.165 142.364 102.455 141.868 101.595L141.94 103.299V109H138.473V89.2481H141.757ZM148.389 100.658C149.054 100.276 149.599 99.7182 149.966 99.0457C150.369 98.2991 150.572 97.4602 150.554 96.6116C150.569 95.7774 150.369 94.9532 149.973 94.219C149.606 93.544 149.061 92.9827 148.397 92.5963C147.734 92.2105 146.98 92.0106 146.213 92.0175C145.449 92.0138 144.699 92.2243 144.049 92.6251C143.385 93.0316 142.841 93.608 142.474 94.2947C142.091 95.0166 141.89 95.8214 141.89 96.6387C141.89 97.456 142.091 98.2608 142.474 98.9826C142.844 99.6636 143.391 100.233 144.056 100.631C144.709 101.023 145.458 101.229 146.22 101.224C146.979 101.231 147.726 101.036 148.384 100.659" fill="#4B008C"/>
</svg>
