<svg width="149" height="98" viewBox="0 0 149 98" fill="none" xmlns="http://www.w3.org/2000/svg">
<path d="M72.7651 18.3885C73.2682 17.4649 73.8099 16.5669 74.3901 15.6943C74.968 16.568 75.5091 17.4666 76.0133 18.3902C76.3091 18.9329 76.5924 19.4825 76.8632 20.0389C77.1408 20.6157 77.4015 21.2044 77.6451 21.805C78.07 22.8843 78.5069 24.0963 78.7788 24.9665C78.831 25.1365 78.882 25.3065 78.9318 25.4765C79.0219 25.7756 79.1018 26.0782 79.1868 26.3807C79.2361 26.5643 79.2837 26.7496 79.3296 26.9349C79.3755 27.1201 79.4112 27.2646 79.4503 27.4312C79.4825 27.5689 79.5148 27.7065 79.5437 27.8442C79.5551 27.8884 79.5653 27.9326 79.5743 27.9768L79.6661 28.412C79.6967 28.5564 79.7239 28.7026 79.7528 28.8488C79.7817 28.995 79.8089 29.1394 79.8344 29.2856C79.8599 29.4318 79.8803 29.5389 79.9007 29.6647C79.9301 29.829 79.9573 29.9956 79.9823 30.1644C79.9976 30.2562 80.0112 30.3497 80.0248 30.4432C80.0333 30.4976 80.0418 30.5519 80.0486 30.6131L80.069 30.7627C80.0699 30.7808 80.0699 30.799 80.069 30.8171C80.0809 30.897 80.0911 30.9752 80.1013 31.0551C80.1064 31.0826 80.1098 31.1104 80.1115 31.1384C80.1234 31.2166 80.1319 31.2947 80.1404 31.3746C80.1404 31.3746 80.1404 31.3899 80.1404 31.3984C80.1404 31.4069 80.1404 31.4443 80.1489 31.4664C80.1498 31.4772 80.1498 31.488 80.1489 31.4987C80.1624 31.6126 80.1743 31.7248 80.1862 31.8387C80.1981 31.9526 80.21 32.0664 80.2202 32.1786C80.2304 32.2908 80.2423 32.3928 80.2525 32.4999C80.2534 32.5072 80.2534 32.5146 80.2525 32.522C80.2678 32.6801 80.2814 32.8381 80.2933 32.9979C80.3273 33.4512 80.3528 33.9084 80.3698 34.3696C80.3783 34.5906 80.3851 34.8116 80.3902 35.0342V35.0784C80.3902 35.296 80.3902 35.5136 80.3902 35.7311V35.7481C80.3902 35.7651 80.3902 35.7821 80.3902 35.7991C80.3699 36.1509 80.2211 36.483 79.9721 36.7323C79.7916 36.9152 79.5648 37.0456 79.316 37.1096C79.2937 37.1163 79.271 37.1214 79.248 37.1249C79.2055 37.1334 79.1613 37.1402 79.1171 37.1453C79.0684 37.1479 79.0196 37.1479 78.9709 37.1453H69.7888C69.7401 37.1479 69.6913 37.1479 69.6426 37.1453C69.5984 37.1453 69.5542 37.1334 69.5117 37.1249L69.4438 37.1096C69.1949 37.0456 68.9681 36.9152 68.7876 36.7323C68.5386 36.483 68.3898 36.1509 68.3695 35.7991C68.3695 35.777 68.3695 35.7549 68.3695 35.7311C68.3695 35.5136 68.3695 35.296 68.3695 35.0784V35.0342C68.3695 34.8116 68.3814 34.5906 68.3899 34.3696C68.4069 33.9107 68.4324 33.4534 68.4664 32.9979C68.4834 32.7684 68.5021 32.5424 68.5242 32.318C68.5667 31.8625 68.6177 31.4103 68.6772 30.9582C68.6976 30.7984 68.7214 30.6403 68.7451 30.4823C68.7689 30.3225 68.7927 30.1644 68.8182 30.0063C68.8437 29.8482 68.8692 29.6936 68.8964 29.5372C68.9134 29.4352 68.9321 29.3332 68.9525 29.2329L68.9729 29.119C68.9814 29.0766 68.9882 29.0358 68.9967 28.9933C69.0137 28.9015 69.0307 28.8097 69.0494 28.7179C69.0494 28.6873 69.0613 28.655 69.0681 28.6244C69.0868 28.5258 69.1072 28.4272 69.1276 28.3287C69.148 28.2301 69.1599 28.1757 69.1769 28.0975C69.2517 27.7473 69.3333 27.3989 69.4183 27.0504L69.5508 26.5286L69.5712 26.4504C69.6103 26.3025 69.6511 26.1564 69.6919 26.0102C69.7327 25.864 69.7837 25.6872 69.8296 25.5258C69.8755 25.3643 69.9401 25.1586 69.9996 24.9767C70.2647 24.1269 70.6897 22.937 71.1061 21.8781C71.1052 21.8736 71.1052 21.8689 71.1061 21.8645C71.3599 21.2492 71.6302 20.6435 71.9169 20.0474C72.1832 19.4899 72.4665 18.9403 72.7668 18.3987L72.7651 18.3885ZM72.9963 32.2806C72.9962 31.9206 73.1345 31.5743 73.3825 31.3133C73.6305 31.0523 73.9693 30.8966 74.3289 30.8783H74.4547C74.8141 30.897 75.1526 31.0529 75.4005 31.3138C75.6485 31.5747 75.7869 31.9207 75.7873 32.2806V34.3322H77.5771C77.5618 33.96 77.5397 33.586 77.5125 33.2155C77.5006 33.0693 77.4887 32.9214 77.4751 32.7752C77.4479 32.4568 77.4156 32.1395 77.3782 31.8234C77.3663 31.718 77.3527 31.6109 77.3391 31.5055C77.3187 31.3401 77.2967 31.1752 77.2729 31.0109C77.2593 30.9072 77.244 30.8052 77.2287 30.7032C77.2134 30.6012 77.2032 30.5333 77.1896 30.4551C77.1726 30.3395 77.1539 30.2222 77.1318 30.1066C77.1097 29.991 77.0927 29.8754 77.0706 29.7667C77.0315 29.5338 76.9856 29.3026 76.938 29.0732C76.9159 28.9576 76.8921 28.842 76.8666 28.7332C76.8207 28.5122 76.7714 28.293 76.7187 28.0737C76.6847 27.9292 76.6507 27.7864 76.6133 27.6437C76.5641 27.4346 76.5097 27.2289 76.4434 27.0215C76.4145 26.9077 76.3839 26.7955 76.3499 26.6816C76.2683 26.3892 76.1822 26.0974 76.0915 25.8062C76.0575 25.6957 76.0218 25.5852 75.9861 25.4748C75.9164 25.2538 75.8417 25.0328 75.7652 24.8136C75.67 24.5382 75.5708 24.2634 75.4677 23.9892C75.3555 23.6832 75.2348 23.379 75.1108 23.0781C74.8841 22.5115 74.6416 21.958 74.3833 21.4174C74.1249 21.9625 73.8824 22.516 73.6558 23.0781C73.5317 23.379 73.411 23.6832 73.2988 23.9892C73.1946 24.2634 73.0954 24.5382 73.0014 24.8136C72.9249 25.0328 72.8501 25.2538 72.7804 25.4748C72.6512 25.8759 72.5305 26.277 72.4166 26.6816C72.3826 26.7955 72.352 26.9077 72.3232 27.0215C72.2654 27.2289 72.211 27.4346 72.1532 27.6437C72.1175 27.7864 72.0835 27.9292 72.0478 28.0737C71.9951 28.293 71.9458 28.5122 71.8999 28.7332C71.8744 28.8471 71.8506 28.9627 71.8285 29.0732C71.7809 29.3026 71.735 29.5338 71.6959 29.7667C71.6744 29.88 71.654 29.9933 71.6347 30.1066C71.6143 30.2239 71.5957 30.3395 71.577 30.4551C71.5634 30.5384 71.5498 30.625 71.5379 30.7032C71.526 30.7814 71.5073 30.9072 71.4937 31.0109C71.4699 31.1763 71.4478 31.3412 71.4274 31.5055C71.4138 31.6109 71.4002 31.718 71.3883 31.8234C71.3509 32.1395 71.3186 32.4568 71.2914 32.7752C71.2778 32.9214 71.2659 33.0693 71.254 33.2155C71.2268 33.5872 71.2053 33.9594 71.1894 34.3322H72.9793L72.9963 32.2806Z" fill="#0F5D66"/>
<path d="M48.433 0.052912C48.9752 -0.0176373 49.5243 -0.0176373 50.0665 0.052912C50.1549 0.0648103 50.245 0.0767079 50.3334 0.0920058C50.8399 0.176994 51.343 0.273313 51.8428 0.380965C52.0773 0.431958 52.3119 0.484652 52.5448 0.539044C52.7776 0.593436 52.9901 0.646129 53.2111 0.70902C60.0591 2.47387 66.2433 6.19838 71.0059 11.426L71.0314 11.4549C71.8413 12.3463 72.606 13.2778 73.3226 14.2459L73.4093 14.3615L71.7912 16.8687L71.6127 16.6222L71.5719 16.5661L71.4716 16.4267C70.8269 15.5107 70.1347 14.629 69.3979 13.7853C65.022 8.78898 59.2544 5.21245 52.8337 3.51363C52.6354 3.46037 52.4365 3.40938 52.2371 3.36065C52.0348 3.30966 51.8309 3.26206 51.6269 3.21617L51.564 3.20257L51.224 3.12778L50.8841 3.05809C50.5441 2.9884 50.2042 2.92551 49.8642 2.86772C49.3498 2.78049 48.8224 2.80712 48.3194 2.94574C47.8163 3.08435 47.3497 3.33158 46.9525 3.67C46.5439 4.01453 46.2155 4.44421 45.9903 4.92895C45.7651 5.4137 45.6485 5.94181 45.6488 6.47631V19.9044C45.6547 23.7345 47.1787 27.406 49.887 30.1142C52.5952 32.8225 56.2667 34.3466 60.0968 34.3524C60.4692 34.3524 60.8263 34.5003 61.0896 34.7636C61.3529 35.0269 61.5008 35.384 61.5008 35.7564C61.5008 36.1288 61.3529 36.4859 61.0896 36.7492C60.8263 37.0125 60.4692 37.1604 60.0968 37.1604C58.7132 37.1618 57.3867 37.712 56.4084 38.6903C55.4301 39.6686 54.8799 40.9951 54.8785 42.3787V55.5467C54.8787 55.6904 54.8867 55.834 54.9023 55.9768C54.9108 56.0448 54.921 56.1144 54.9329 56.1824C54.9448 56.2487 54.9584 56.3167 54.9737 56.383C54.9737 56.383 54.9737 56.383 54.9737 56.3932C54.9856 56.4442 54.9992 56.4952 55.0128 56.5462C55.0264 56.5972 55.04 56.6397 55.0553 56.6873C55.289 57.3952 55.7309 58.016 56.3233 58.4686C56.7524 58.8068 57.2534 59.0419 57.7876 59.156C58.3219 59.27 58.8752 59.2599 59.405 59.1264L59.5053 59.0992L59.558 59.0873L59.7738 59.0295L59.9744 58.9751L60.2532 58.8953L60.5744 58.7984L60.6305 58.7814C60.7665 58.7406 60.9025 58.6964 61.0368 58.6522L61.2203 58.5893C61.3359 58.5519 61.4515 58.5111 61.5603 58.4703L61.6963 58.421C61.8187 58.3785 61.9393 58.3326 62.06 58.2867L62.1501 58.251C62.2946 58.1966 62.4408 58.1389 62.5835 58.0811C62.7263 58.0233 62.9116 57.9468 63.0731 57.8754C63.2346 57.804 63.3892 57.736 63.5473 57.6646L63.5966 57.6408C63.7428 57.5751 63.889 57.5054 64.0351 57.4318C64.1949 57.357 64.3513 57.2771 64.5094 57.1955C64.6675 57.1139 64.8221 57.0255 64.9768 56.9473C65.1315 56.8691 65.2862 56.7774 65.4392 56.689C65.5921 56.6006 65.7451 56.519 65.8947 56.4221L66.2618 56.1977C66.6273 55.9683 66.9842 55.7303 67.3361 55.4838C67.6001 55.2991 67.8602 55.1082 68.1163 54.911L68.3729 54.7138C68.5429 54.5813 68.7129 54.447 68.8727 54.3076C69.0426 54.1699 69.2024 54.0305 69.3639 53.8878C69.5254 53.745 69.6869 53.6022 69.8449 53.4543C70.003 53.3064 70.1594 53.1603 70.3141 53.009C70.3668 52.958 70.4194 52.907 70.4687 52.856L70.6217 52.703C70.8234 52.4991 71.0223 52.2906 71.2183 52.0775C71.3084 51.9789 71.3985 51.8803 71.4869 51.7801C72.113 51.0786 72.697 50.3408 73.236 49.5704C73.292 49.4912 73.3558 49.4177 73.4263 49.3511C73.4963 49.2869 73.5726 49.23 73.6541 49.1811C73.7518 49.1208 73.8569 49.0733 73.9669 49.04C74.2087 48.9649 74.4664 48.9569 74.7125 49.0167C74.9585 49.0766 75.1837 49.2022 75.3641 49.38C75.4266 49.4391 75.4835 49.504 75.534 49.5738L75.6904 49.793C75.7431 49.8661 75.7941 49.9375 75.8485 50.0106C75.9539 50.1551 76.0627 50.2979 76.1714 50.4389C76.2802 50.58 76.3907 50.7211 76.5114 50.8605C76.8513 51.2769 77.1913 51.6832 77.5584 52.0741C77.6485 52.1727 77.7386 52.2696 77.8304 52.3665C77.9222 52.4634 78.0157 52.5585 78.1092 52.6537C78.2944 52.8441 78.4848 53.0294 78.6769 53.2113C78.933 53.4583 79.1948 53.6968 79.4622 53.9269C79.5948 54.0441 79.7307 54.1597 79.8667 54.2668C80.0027 54.3739 80.1387 54.4929 80.2764 54.6068L80.5364 54.8107C80.9733 55.1507 81.4203 55.4736 81.8792 55.7796C82.0611 55.902 82.2464 56.0227 82.4334 56.1399C82.5693 56.2283 82.707 56.3099 82.8464 56.3966L82.894 56.4238C83.0402 56.5139 83.1898 56.6023 83.3393 56.6856C83.4889 56.7689 83.647 56.8555 83.8017 56.9439C83.9563 57.0323 84.1127 57.1139 84.2708 57.1921C84.4289 57.2703 84.5717 57.3468 84.7246 57.4182C84.7328 57.4244 84.742 57.429 84.7518 57.4318C84.8912 57.5015 85.0306 57.5677 85.1717 57.6323L85.2346 57.6612C85.3807 57.7292 85.5269 57.7955 85.6765 57.8601L85.7139 57.8754C85.8737 57.9451 86.0334 58.0131 86.1949 58.0777C86.3564 58.1423 86.4822 58.195 86.6284 58.2476C86.6573 58.2612 86.6879 58.2714 86.7185 58.2833C86.8238 58.3241 86.9292 58.3632 87.0363 58.4006C87.1043 58.4278 87.174 58.4516 87.2437 58.4771C87.3134 58.5026 87.4137 58.5349 87.4901 58.5604L87.7791 58.659C87.9321 58.71 88.0868 58.7593 88.2431 58.8052C88.3236 58.8312 88.4035 58.855 88.4828 58.8766C88.5961 58.9117 88.7134 58.9457 88.8347 58.9785L88.9349 59.0057L89.2256 59.0839L89.2953 59.1009L89.3803 59.123C89.9098 59.2562 90.4628 59.2662 90.9967 59.1522C91.5307 59.0381 92.0314 58.8031 92.4603 58.4652C93.0536 58.0071 93.4935 57.3793 93.7215 56.6652C93.7368 56.6193 93.7504 56.5717 93.764 56.5241C93.7776 56.4765 93.7912 56.4221 93.8031 56.3711C93.8039 56.3678 93.8039 56.3643 93.8031 56.3609C93.8184 56.2946 93.832 56.2283 93.8439 56.1603C93.8558 56.0923 93.866 56.0244 93.8745 55.9547C93.8901 55.8124 93.898 55.6694 93.8983 55.5263V42.3651C93.8965 40.9817 93.3461 39.6554 92.3679 38.6772C91.3896 37.699 90.0634 37.1486 88.68 37.1468C88.3076 37.1468 87.9505 36.9989 87.6872 36.7356C87.4239 36.4723 87.276 36.1152 87.276 35.7428C87.276 35.3704 87.4239 35.0133 87.6872 34.75C87.9505 34.4867 88.3076 34.3388 88.68 34.3388C92.51 34.333 96.1815 32.8089 98.8898 30.1006C101.598 27.3924 103.122 23.7209 103.128 19.8908V6.46271C103.128 5.92821 103.012 5.4001 102.787 4.91535C102.561 4.43061 102.233 4.00093 101.824 3.65641C101.427 3.31774 100.96 3.07038 100.457 2.93176C99.9533 2.79314 99.4256 2.76663 98.9109 2.85412C98.5709 2.91191 98.2309 2.97537 97.891 3.04449L97.551 3.11418L97.2111 3.18897L97.1482 3.20257C96.9442 3.24846 96.7403 3.29606 96.538 3.34705L95.9414 3.50003C89.5213 5.19925 83.7544 8.77575 79.3789 13.7717C78.6421 14.6154 77.9499 15.4971 77.3052 16.4131C77.2695 16.459 77.2372 16.5049 77.2049 16.5525L77.1641 16.6086L76.9856 16.8551L75.3675 14.3479L75.4524 14.2323C76.168 13.2686 76.938 12.3286 77.7454 11.4413L77.7709 11.4124C82.5334 6.18479 88.7177 2.46027 95.5657 0.695422C95.7867 0.639329 96.0094 0.584937 96.232 0.525445C96.4547 0.465954 96.6978 0.418359 96.9323 0.367366C97.4304 0.260281 97.9335 0.165095 98.4417 0.0784074C98.5301 0.0631095 98.6117 0.0512119 98.7086 0.0393136L98.9074 0.0172158C98.9743 0.0104168 99.0406 0.00531814 99.1063 0.00191862H99.227C99.329 0.00191862 99.4293 0.00191862 99.5296 0.00191862H99.5772C99.6299 0.00191862 99.6825 0.00191862 99.7352 0.00191862C99.7879 0.00191862 99.8712 0.0019182 99.9392 0.0121168C100.073 0.0121168 100.209 0.0342146 100.344 0.052912C100.413 0.052912 100.481 0.0716081 100.551 0.0835064C100.721 0.112402 100.891 0.148098 101.061 0.190592C101.231 0.233086 101.401 0.282379 101.561 0.338471C101.693 0.384364 101.823 0.431959 101.952 0.486352C102.122 0.559441 102.292 0.637629 102.462 0.724317C102.881 0.942767 103.275 1.2073 103.636 1.51301C104.358 2.12036 104.938 2.87838 105.335 3.73379C105.732 4.5892 105.937 5.52124 105.936 6.46441V19.8925C105.919 23.5441 104.752 27.0976 102.6 30.0482C100.449 32.9987 97.4225 35.1965 93.9509 36.3292C94.8161 37.08 95.5094 38.0084 95.9836 39.0511C96.4579 40.0938 96.7021 41.2264 96.6995 42.3719V55.5416C96.6997 55.855 96.6776 56.168 96.6332 56.4782C96.606 56.6601 96.5737 56.8402 96.5329 57.0187C96.5193 57.0816 96.5023 57.1445 96.487 57.2057C96.4411 57.3757 96.3884 57.5456 96.3272 57.7156C96.328 57.7196 96.328 57.7236 96.3272 57.7275C96.2762 57.8703 96.2201 58.0114 96.1572 58.1491C95.5408 59.5336 94.4629 60.6613 93.1076 61.3395C91.7523 62.0178 90.2036 62.2046 88.7259 61.8681L88.6885 61.8596H88.6783L88.4216 61.795L88.1667 61.7254C87.9967 61.6778 87.8267 61.6285 87.6567 61.5775C87.4868 61.5265 87.3168 61.4738 87.1468 61.4194L86.6369 61.2494H86.6233C86.4533 61.1916 86.2833 61.135 86.1133 61.0794C85.957 61.0234 85.8006 60.9639 85.6459 60.9095L85.5915 60.8891C85.4215 60.8262 85.2686 60.7616 85.1088 60.6953C84.9949 60.6494 84.881 60.6018 84.7688 60.5525C84.6821 60.5168 84.5989 60.4794 84.5105 60.4403L84.4561 60.4165C84.3065 60.352 84.1586 60.284 84.0107 60.216H83.9954L83.5263 59.9916C83.3665 59.9151 83.2085 59.8352 83.0504 59.7536C82.8923 59.672 82.7342 59.5837 82.5778 59.5055C82.4215 59.4273 82.2651 59.3355 82.1104 59.2488C81.2982 58.7896 80.5097 58.2898 79.7477 57.7513C79.4939 57.5711 79.2429 57.387 78.9947 57.1989C78.8877 57.1173 78.7823 57.0289 78.6786 56.9541C78.4678 56.7842 78.2604 56.6227 78.0548 56.4442L77.7488 56.1858C77.3681 55.8572 76.997 55.5173 76.6355 55.166C76.5148 55.0504 76.3958 54.9331 76.2768 54.8158C76.1578 54.6985 76.0865 54.6272 75.9947 54.5303C75.4349 53.9557 74.9006 53.3557 74.3918 52.7302C73.883 53.3557 73.3487 53.9557 72.7889 54.5303L72.5068 54.8158C72.3878 54.9331 72.2688 55.0504 72.1481 55.166C71.7866 55.5127 71.4155 55.8527 71.0348 56.1858L70.7288 56.4442C70.5231 56.6142 70.3158 56.7842 70.105 56.9541C70.0013 57.0374 69.8959 57.1241 69.7888 57.1989C69.3639 57.5219 68.9299 57.8323 68.4868 58.1304L68.0415 58.4227C67.8919 58.5196 67.7423 58.6131 67.591 58.7066C67.4398 58.8001 67.2868 58.8919 67.1338 58.9819C66.9808 59.072 66.8262 59.1621 66.6715 59.2488L66.2958 59.4562C66.1089 59.5582 65.9219 59.6567 65.7332 59.7536C65.5802 59.8318 65.4255 59.91 65.2709 59.9848L65.2505 59.995C65.1111 60.0647 64.97 60.131 64.8289 60.1956L64.7643 60.2262C64.6199 60.2942 64.4737 60.3604 64.3275 60.4233L64.2731 60.4471C64.1881 60.4862 64.1031 60.5236 64.0148 60.5593C63.9026 60.6086 63.7887 60.6562 63.6748 60.7021C63.515 60.7684 63.3535 60.833 63.1921 60.8959L63.1377 60.9163C62.983 60.9758 62.8266 61.0353 62.6702 61.0863C62.5139 61.1372 62.3405 61.2052 62.1739 61.2562L62.1263 61.2732L61.6521 61.4296C61.4821 61.484 61.3121 61.535 61.1422 61.586C60.9722 61.637 60.8022 61.6863 60.6322 61.7339C60.4622 61.7815 60.3059 61.8222 60.141 61.863L60.073 61.88C59.1299 62.0965 58.1504 62.1005 57.2056 61.8918C56.2607 61.6831 55.3741 61.2668 54.61 60.6732C53.5258 59.8383 52.7348 58.6807 52.351 57.3672C52.3272 57.2805 52.3034 57.1972 52.2813 57.1037C52.232 56.9014 52.1929 56.6958 52.1623 56.4884C52.1179 56.1776 52.0957 55.8641 52.096 55.5501V42.3651C52.0938 41.2195 52.3382 40.0868 52.8128 39.0441C53.2873 38.0014 53.9809 37.0731 54.8462 36.3224C51.3708 35.1929 48.3399 32.9963 46.1846 30.0452C44.0292 27.094 42.8592 23.5384 42.8408 19.884V6.45591C42.8403 5.51272 43.046 4.58082 43.4436 3.72551C43.8411 2.87019 44.4209 2.11216 45.1423 1.50451C45.5033 1.1988 45.8972 0.934268 46.3168 0.715818C46.4868 0.62913 46.6568 0.545843 46.8268 0.477852C46.9559 0.42346 47.0851 0.375867 47.2177 0.329974C47.3832 0.274448 47.5497 0.225154 47.7174 0.182093C47.8851 0.139032 48.0551 0.103339 48.2274 0.0750097C48.2971 0.0648111 48.365 0.0529115 48.4347 0.0444127L48.433 0.052912Z" fill="#9B2571"/>
<path d="M2.9168 90.5942C0.972269 88.7041 0 86.3341 0 83.4841C0 80.6342 0.972269 78.2647 2.9168 76.3757C4.86132 74.4833 7.33901 73.5377 10.3498 73.5388C13.7358 73.5388 16.3341 74.7287 18.145 77.1083C18.2996 77.3072 18.4458 77.5095 18.5852 77.7185C18.7736 78.0038 18.8813 78.3347 18.8968 78.6761C18.9124 79.0176 18.8352 79.3569 18.6734 79.6581C18.5117 79.9592 18.2715 80.211 17.9782 80.3866C17.685 80.5623 17.3496 80.6553 17.0078 80.6557H16.8225C16.5131 80.6513 16.2098 80.5689 15.9406 80.4162C15.6714 80.2635 15.4451 80.0454 15.2826 79.7821C15.0972 79.4982 14.8855 79.2324 14.6502 78.9883C13.5171 77.8551 12.0836 77.2885 10.3498 77.2885C8.5923 77.2885 7.14524 77.8664 6.00866 79.0223C4.87209 80.1781 4.3055 81.6609 4.3089 83.4705C4.3089 85.3527 4.85962 86.8536 5.96106 87.9732C7.06251 89.0928 8.52771 89.6531 10.3567 89.6543C12.1845 89.6543 13.6536 89.0271 14.7641 87.7726C15.0043 87.4913 15.2198 87.1899 15.4083 86.8717C15.5712 86.582 15.8074 86.3402 16.0932 86.1704C16.379 86.0007 16.7043 85.909 17.0367 85.9046H17.1574C17.4904 85.9031 17.8179 85.9899 18.1066 86.156C18.3953 86.3221 18.6348 86.5617 18.8009 86.8504C18.967 87.1391 19.0537 87.4666 19.0523 87.7996C19.0508 88.1327 18.9612 88.4594 18.7926 88.7466C18.5988 89.0661 18.3914 89.3721 18.1705 89.6679C16.2339 92.1767 13.6276 93.4306 10.3516 93.4294C7.34071 93.4294 4.86302 92.4844 2.9185 90.5942" fill="#9B2571"/>
<path d="M22.311 91.444V80.6301C22.311 80.2465 22.4634 79.8785 22.7347 79.6073C23.006 79.336 23.3739 79.1836 23.7575 79.1836H29.8376C31.2541 79.1836 32.347 79.4975 33.1164 80.1253C33.4846 80.4101 33.781 80.7773 33.9817 81.1973C34.1824 81.6174 34.2819 82.0786 34.2723 82.544C34.2723 83.5831 33.887 84.3985 33.1164 84.99C32.7855 85.2462 32.3988 85.4209 31.9878 85.4999V85.6359C32.5081 85.7425 33.0075 85.9331 33.4666 86.2002C34.4502 86.8994 34.9431 87.8309 34.9454 88.9946C34.9565 89.536 34.8402 90.0724 34.6057 90.5605C34.3713 91.0485 34.0253 91.4746 33.5958 91.8043C32.7005 92.5296 31.4461 92.8922 29.8325 92.8922H23.7575C23.3739 92.8922 23.006 92.7398 22.7347 92.4685C22.4634 92.1972 22.311 91.8293 22.311 91.4457V91.444ZM26.0743 84.4257H29.3039C29.4823 84.4346 29.6608 84.4083 29.8291 84.3482C29.9974 84.2881 30.1522 84.1955 30.2846 84.0755C30.3991 83.9634 30.4901 83.8296 30.5522 83.6819C30.6143 83.5343 30.6463 83.3757 30.6463 83.2154C30.6463 83.0552 30.6143 82.8966 30.5522 82.7489C30.4901 82.6012 30.3991 82.4674 30.2846 82.3554C30.0155 82.1168 29.6629 81.9946 29.3039 82.0154H26.0743V84.4257ZM26.0743 90.0706H29.569C29.9959 90.0852 30.4113 89.9307 30.7249 89.6405C30.8691 89.5066 30.9842 89.3443 31.0629 89.1638C31.1416 88.9834 31.1822 88.7886 31.1822 88.5918C31.1822 88.3949 31.1416 88.2002 31.0629 88.0197C30.9842 87.8393 30.8691 87.677 30.7249 87.543C30.411 87.2535 29.9958 87.0991 29.569 87.113H26.0743V90.0706Z" fill="#9B2571"/>
<path d="M38.5591 91.1856C37.8818 90.5103 37.3445 89.708 36.9779 88.8246C36.6113 87.9413 36.4226 86.9943 36.4226 86.0379C36.4226 85.0815 36.6113 84.1345 36.9779 83.2512C37.3445 82.3678 37.8818 81.5655 38.5591 80.8902C39.9835 79.485 41.7353 78.7819 43.8147 78.7808C45.9292 78.7808 47.6494 79.4981 49.0296 80.8766C50.3673 82.216 50.8449 83.9548 51.0081 85.2093C51.0347 85.4135 51.0174 85.6211 50.9574 85.8182C50.8974 86.0152 50.796 86.1972 50.6601 86.352C50.5241 86.5067 50.3568 86.6307 50.1691 86.7156C49.9814 86.8006 49.7778 86.8445 49.5718 86.8444H40.32C40.4527 87.7211 40.8794 88.5267 41.5302 89.1289C42.1368 89.7332 42.9585 90.0719 43.8147 90.0706C44.6989 90.0926 45.5634 89.8073 46.2607 89.2632C46.8596 88.7431 47.6262 88.457 48.4194 88.4575H48.4687C48.7491 88.4572 49.0237 88.537 49.2602 88.6876C49.4968 88.8383 49.6853 89.0534 49.8035 89.3076C49.9218 89.5619 49.9649 89.8446 49.9278 90.1226C49.8906 90.4005 49.7748 90.662 49.5939 90.8763C48.1593 92.4899 46.2329 93.2962 43.8147 93.295C41.7353 93.295 39.9835 92.5919 38.5591 91.1856ZM40.4543 84.5565H47.0409C46.8994 83.8438 46.5142 83.2025 45.9513 82.7429C45.3531 82.2442 44.5933 81.9812 43.8147 82.0035C43.0348 81.9822 42.2727 82.2388 41.6645 82.7276C41.0826 83.1982 40.6599 83.8369 40.4543 84.5565Z" fill="#9B2571"/>
<path d="M88.7157 91.1856C88.0385 90.5103 87.5012 89.708 87.1346 88.8246C86.7679 87.9413 86.5792 86.9943 86.5792 86.0379C86.5792 85.0815 86.7679 84.1345 87.1346 83.2512C87.5012 82.3678 88.0385 81.5655 88.7157 80.8902C90.1401 79.485 91.892 78.7819 93.9713 78.7808C96.0858 78.7808 97.806 79.4981 99.1862 80.8766C100.524 82.216 101.002 83.9548 101.165 85.2093C101.191 85.4135 101.174 85.6211 101.114 85.8182C101.054 86.0152 100.953 86.1972 100.817 86.352C100.681 86.5067 100.513 86.6307 100.326 86.7156C100.138 86.8006 99.9344 86.8445 99.7284 86.8444H90.4766C90.6093 87.7211 91.0361 88.5267 91.6869 89.1289C92.2934 89.7332 93.1151 90.0719 93.9713 90.0706C94.8555 90.0926 95.72 89.8073 96.4173 89.2632C97.0162 88.7431 97.7828 88.457 98.576 88.4575H98.6253C98.9057 88.4572 99.1803 88.537 99.4169 88.6876C99.6534 88.8383 99.8419 89.0534 99.9602 89.3076C100.078 89.5619 100.122 89.8446 100.084 90.1226C100.047 90.4005 99.9314 90.662 99.7505 90.8763C98.3159 92.4899 96.3895 93.2962 93.9713 93.295C91.892 93.295 90.1401 92.5919 88.7157 91.1856ZM90.6109 84.5565H97.1975C97.056 83.8438 96.6708 83.2025 96.108 82.7429C95.5096 82.2444 94.7498 81.9815 93.9713 82.0035C93.1914 81.9822 92.4293 82.2388 91.8212 82.7276C91.2392 83.1982 90.8166 83.8369 90.6109 84.5565Z" fill="#0F5D66"/>
<path d="M52.0127 80.931V80.6624C52.0131 80.27 52.1693 79.8939 52.4469 79.6166C52.7245 79.3393 53.1008 79.1836 53.4932 79.1836H63.4368C63.8289 79.184 64.2047 79.34 64.482 79.6172C64.7592 79.8944 64.9151 80.2703 64.9156 80.6624V80.931C64.9151 81.323 64.7592 81.6989 64.482 81.9761C64.2047 82.2533 63.8289 82.4093 63.4368 82.4097H60.3449V91.4185C60.3452 91.6127 60.3071 91.8051 60.2328 91.9847C60.1586 92.1642 60.0497 92.3273 59.9123 92.4646C59.7749 92.602 59.6118 92.7109 59.4323 92.7852C59.2528 92.8594 59.0604 92.8975 58.8661 92.8973H58.0622C57.8679 92.8975 57.6755 92.8594 57.496 92.7852C57.3165 92.7109 57.1533 92.602 57.016 92.4646C56.8786 92.3273 56.7697 92.1642 56.6955 91.9847C56.6212 91.8051 56.5831 91.6127 56.5834 91.4185V82.4097H53.4932C53.1008 82.4097 52.7245 82.254 52.4469 81.9767C52.1693 81.6994 52.0131 81.3233 52.0127 80.931Z" fill="#9B2571"/>
<path d="M65.1842 94.774V90.5755C65.1842 90.1919 65.3366 89.824 65.6079 89.5527C65.8791 89.2814 66.2471 89.129 66.6307 89.129H67.3344L70.9447 75.191C71.0271 74.8735 71.2124 74.5923 71.4717 74.3915C71.731 74.1906 72.0496 74.0815 72.3776 74.0811H78.5545C78.8823 74.0815 79.2006 74.1908 79.4596 74.3916C79.7187 74.5925 79.9037 74.8737 79.9857 75.191L83.596 89.129H84.2997C84.6835 89.129 85.0516 89.2814 85.3232 89.5526C85.5947 89.8238 85.7475 90.1918 85.7479 90.5755V94.774C85.7475 95.1663 85.5913 95.5424 85.3137 95.8197C85.0361 96.097 84.6598 96.2527 84.2674 96.2527H83.3292C83.135 96.2527 82.9427 96.2145 82.7633 96.1402C82.5838 96.0659 82.4208 95.9569 82.2835 95.8196C82.1462 95.6823 82.0372 95.5193 81.9629 95.3399C81.8886 95.1605 81.8504 94.9682 81.8504 94.774V92.8923H69.0818V94.774C69.0813 95.166 68.9254 95.5419 68.6481 95.8191C68.3709 96.0963 67.995 96.2523 67.603 96.2527H66.663C66.2709 96.2523 65.8951 96.0963 65.6178 95.8191C65.3406 95.5419 65.1847 95.166 65.1842 94.774ZM71.2319 89.129H79.6985L76.7426 77.846H74.1929L71.2319 89.129Z" fill="#0F5D66"/>
<path d="M103.487 91.4134V80.6624C103.487 80.27 103.643 79.8939 103.921 79.6166C104.198 79.3393 104.575 79.1836 104.967 79.1836H105.771C105.965 79.1836 106.158 79.2218 106.337 79.2962C106.516 79.3705 106.679 79.4794 106.817 79.6167C106.954 79.754 107.063 79.9171 107.137 80.0965C107.212 80.2759 107.25 80.4682 107.25 80.6624V84.2914H108.863L112.05 79.8057C112.187 79.6133 112.367 79.4564 112.577 79.3482C112.787 79.2399 113.019 79.1835 113.255 79.1836H113.813C114.083 79.1836 114.349 79.2579 114.58 79.3984C114.812 79.5389 115 79.7402 115.125 79.9804C115.25 80.2206 115.306 80.4905 115.288 80.7606C115.27 81.0307 115.178 81.2907 115.023 81.5123L112.223 85.4948L115.563 90.5941C115.71 90.8172 115.793 91.0757 115.804 91.3422C115.815 91.6087 115.754 91.8733 115.628 92.108C115.501 92.3427 115.313 92.5387 115.084 92.6752C114.855 92.8118 114.593 92.8838 114.326 92.8837H113.564C113.317 92.8829 113.074 92.8203 112.858 92.7015C112.641 92.5828 112.457 92.4117 112.324 92.2038L109.264 87.5005H107.248V91.3981C107.248 91.5923 107.21 91.7847 107.136 91.9643C107.062 92.1438 106.953 92.3069 106.815 92.4442C106.678 92.5816 106.515 92.6905 106.336 92.7648C106.156 92.839 105.964 92.8771 105.769 92.8769H104.965C104.771 92.8771 104.579 92.839 104.399 92.7648C104.219 92.6906 104.056 92.5817 103.919 92.4443C103.781 92.307 103.672 92.1439 103.598 91.9644C103.523 91.7849 103.485 91.5924 103.485 91.3981" fill="#0F5D66"/>
<path d="M119.213 91.1856C118.532 90.5125 117.991 89.7109 117.622 88.8272C117.253 87.9436 117.063 86.9955 117.063 86.0379C117.063 85.0803 117.253 84.1322 117.622 83.2486C117.991 82.3649 118.532 81.5633 119.213 80.8902C120.646 79.485 122.438 78.7819 124.587 78.7808C126.737 78.7796 128.525 79.4828 129.95 80.8902C130.635 81.5611 131.179 82.362 131.551 83.2459C131.923 84.1298 132.114 85.079 132.114 86.0379C132.114 86.9967 131.923 87.9459 131.551 88.8299C131.179 89.7138 130.635 90.5147 129.95 91.1856C128.509 92.593 126.721 93.2962 124.587 93.295C122.454 93.2939 120.662 92.5908 119.213 91.1856ZM122.007 83.1356C121.308 83.888 120.959 84.8557 120.96 86.0387C120.961 87.2218 121.31 88.1889 122.007 88.9402C122.336 89.2967 122.735 89.5812 123.179 89.7757C123.624 89.9703 124.103 90.0708 124.588 90.0708C125.073 90.0708 125.553 89.9703 125.997 89.7757C126.441 89.5812 126.84 89.2967 127.169 88.9402C127.867 88.1889 128.216 87.2218 128.216 86.0387C128.216 84.8557 127.867 83.888 127.169 83.1356C126.84 82.7796 126.441 82.4955 125.997 82.3012C125.553 82.1069 125.073 82.0066 124.588 82.0066C124.103 82.0066 123.624 82.1069 123.18 82.3012C122.735 82.4955 122.336 82.7796 122.007 83.1356Z" fill="#0F5D66"/>
<path d="M134.264 96.5212V80.6624C134.265 80.2701 134.421 79.8939 134.698 79.6167C134.976 79.3394 135.352 79.1836 135.745 79.1836H136.549C136.941 79.1841 137.317 79.34 137.594 79.6173C137.871 79.8945 138.027 80.2704 138.027 80.6624V80.931H138.162C138.469 80.5344 138.821 80.174 139.21 79.8567C140.147 79.1496 141.29 78.7713 142.464 78.7808C143.316 78.7649 144.16 78.936 144.939 79.282C145.718 79.6279 146.411 80.1403 146.97 80.7831C148.18 82.118 148.785 83.8699 148.785 86.0388C148.785 88.2077 148.18 89.959 146.97 91.2927C146.412 91.9351 145.719 92.4473 144.942 92.7933C144.164 93.1392 143.32 93.3105 142.469 93.2951C141.296 93.3042 140.152 92.9267 139.216 92.2208C138.826 91.9035 138.474 91.5425 138.167 91.1449H138.033V96.5212C138.032 96.9133 137.876 97.2891 137.599 97.5664C137.322 97.8436 136.946 97.9995 136.554 98H135.751C135.359 98 134.983 97.8443 134.705 97.567C134.428 97.2897 134.271 96.9136 134.271 96.5212H134.264ZM139.003 83.0676C138.357 83.7758 138.034 84.7662 138.034 86.0388C138.034 87.3113 138.357 88.3012 139.003 89.0083C139.648 89.7176 140.49 90.0717 141.529 90.0706C141.987 90.0838 142.442 89.994 142.861 89.8078C143.279 89.6216 143.651 89.3437 143.948 88.9947C144.574 88.2785 144.888 87.2932 144.889 86.0388C144.891 84.7844 144.577 83.7985 143.948 83.0812C143.65 82.7331 143.279 82.4559 142.86 82.27C142.442 82.0841 141.987 81.9942 141.529 82.0069C140.489 82.0069 139.647 82.3605 139.003 83.0676Z" fill="#0F5D66"/>
</svg>
