<svg width="164" height="102" viewBox="0 0 164 102" fill="none" xmlns="http://www.w3.org/2000/svg">
<path d="M36.395 28.3107C36.395 32.0285 37.1273 35.7099 38.55 39.1448C39.9728 42.5796 42.0581 45.7005 44.687 48.3294C49.9963 53.6387 57.1973 56.6214 64.7057 56.6214H81.6922C81.6922 49.113 78.7094 41.912 73.4001 36.6027C68.0909 31.2934 60.8899 28.3107 53.3815 28.3107C60.8899 28.3107 68.0909 25.328 73.4001 20.0187C78.7094 14.7094 81.6922 7.50847 81.6922 0H64.7057C57.1973 0 49.9963 2.98273 44.687 8.29202C39.3778 13.6013 36.395 20.8022 36.395 28.3107Z" fill="#4B008C"/>
<path d="M100.283 0H83.297C83.297 3.71782 84.0293 7.39923 85.452 10.834C86.8748 14.2689 88.9601 17.3898 91.589 20.0187C94.2179 22.6476 97.3389 24.7329 100.774 26.1557C104.208 27.5784 107.89 28.3107 111.608 28.3107C104.099 28.3107 96.8983 31.2934 91.589 36.6027C86.2797 41.912 83.297 49.113 83.297 56.6214H100.283C104.001 56.6214 107.683 55.8891 111.117 54.4664C114.552 53.0437 117.673 50.9583 120.302 48.3294C122.931 45.7005 125.016 42.5796 126.439 39.1448C127.862 35.7099 128.594 32.0285 128.594 28.3107C128.594 20.8022 125.611 13.6013 120.302 8.29202C114.993 2.98273 107.792 0 100.283 0Z" fill="#4B008C"/>
<path d="M6.38536 95.6224C4.74641 94.6897 3.38346 93.3398 2.4349 91.71C1.48705 90.0591 0.988281 88.1887 0.988281 86.2851C0.988281 84.3815 1.48705 82.5111 2.4349 80.8603C3.38552 79.2333 4.7489 77.8861 6.38717 76.9551C8.0563 75.9947 9.95163 75.4976 11.8772 75.5151C13.3811 75.512 14.8697 75.8165 16.2515 76.4099C17.657 77.01 18.8958 77.9423 19.8615 79.1268C20.8944 80.4076 21.5688 81.9396 21.8159 83.5664H17.9723C17.5774 82.0388 16.8287 80.8917 15.7263 80.1249C14.6238 79.3581 13.3046 78.9741 11.7686 78.9729C10.5292 78.9593 9.30848 79.2749 8.23108 79.8876C7.16314 80.499 6.28541 81.3943 5.69525 82.4741C5.08461 83.6581 4.76599 84.971 4.76599 86.3032C4.76599 87.6354 5.08461 88.9483 5.69525 90.1323C6.27902 91.2029 7.15127 92.0883 8.21297 92.6881C9.29848 93.296 10.5245 93.6082 11.7686 93.5937C13.3046 93.5937 14.6238 93.2122 15.7263 92.449C16.8287 91.6858 17.572 90.5387 17.956 89.0075H21.8159C21.514 90.7669 20.8619 92.2528 19.8597 93.4651C18.899 94.6488 17.6625 95.5786 16.2588 96.173C14.8699 96.7615 13.3766 97.0634 11.8682 97.0606C9.94165 97.0761 8.04605 96.5758 6.37812 95.6115" fill="#4B008C"/>
<path d="M31.8631 81.0416C32.814 81.0184 33.7592 81.1942 34.6381 81.5578C35.3719 81.8632 35.9977 82.3811 36.4349 83.0449C36.8697 83.7444 37.089 84.5564 37.0652 85.3797C37.065 86.0262 36.8692 86.6576 36.5037 87.191C36.188 87.7072 35.7223 88.1148 35.1688 88.3593C35.9487 88.6368 36.6348 89.1283 37.1485 89.7775C37.6592 90.3992 37.9378 91.1791 37.9365 91.9837C37.9365 93.0342 37.6865 93.9085 37.1866 94.6065C36.6947 95.297 36.0125 95.8294 35.2231 96.1388C34.3894 96.4649 33.5009 96.6278 32.6058 96.6188H24.9983V81.0416H31.8631ZM33.0459 86.941C33.2029 86.7803 33.3249 86.5889 33.4044 86.3788C33.4839 86.1688 33.5191 85.9445 33.5078 85.7202C33.5174 85.5032 33.4781 85.2869 33.3928 85.0872C33.3075 84.8875 33.1785 84.7095 33.0151 84.5664C32.6445 84.2695 32.178 84.1187 31.7038 84.1425H28.6626V87.3812H31.8034C32.0286 87.3919 32.2538 87.3579 32.4658 87.2811C32.6778 87.2043 32.8726 87.0863 33.0387 86.9338L33.0459 86.941ZM33.7632 93.0524C33.9454 92.8862 34.0886 92.6819 34.1826 92.4539C34.2765 92.2259 34.3189 91.98 34.3066 91.7337C34.3196 91.4857 34.2797 91.2377 34.1894 91.0063C34.0991 90.7748 33.9607 90.5653 33.7831 90.3915C33.4354 90.0619 32.9463 89.8989 32.3196 89.8989H28.6626V93.5396H32.2725C32.8992 93.5396 33.3949 93.3778 33.7596 93.0542" fill="#4B008C"/>
<path d="M55.9011 89.7993H43.7327C43.8312 90.5681 44.1031 91.3045 44.5279 91.9529C44.9131 92.5376 45.4403 93.0149 46.0603 93.3404C46.6754 93.6602 47.3595 93.8244 48.0527 93.8186C48.962 93.8186 49.7076 93.6374 50.2897 93.2752C50.8759 92.9114 51.326 92.3645 51.5703 91.7193H55.5751C55.2884 92.7025 54.7942 93.6129 54.126 94.3891C53.4182 95.2245 52.5359 95.8947 51.5413 96.3526C49.6962 97.2262 47.5874 97.3635 45.6445 96.7365C43.7017 96.1096 42.071 94.7655 41.0846 92.9781C40.3973 91.701 40.0376 90.2733 40.0376 88.823C40.0376 87.3727 40.3973 85.945 41.0846 84.6678C41.7728 83.4075 42.7917 82.3588 44.0317 81.6346C45.2717 80.9104 46.6857 80.5382 48.1215 80.558C49.5234 80.5317 50.9055 80.8922 52.1159 81.5999C53.3263 82.3077 54.3182 83.3354 54.9828 84.57C55.6473 85.7923 55.9896 87.1637 55.9772 88.5549C55.9729 88.9707 55.9476 89.386 55.9011 89.7993ZM52.2314 86.9628C52.1766 86.377 51.9497 85.8205 51.5793 85.3634C51.1808 84.861 50.6686 84.4606 50.085 84.1951C49.4659 83.9038 48.7894 83.7547 48.1052 83.7586C47.1651 83.746 46.2448 84.0299 45.4752 84.57C44.7024 85.1098 44.1687 85.9056 43.874 86.9573L52.2314 86.9628Z" fill="#4B008C"/>
<path d="M64.4848 84.0973V90.9368C64.4848 91.8376 64.6387 92.5017 64.9466 92.9292C65.2546 93.3567 65.7907 93.5722 66.5551 93.5759H67.1927V96.6188H65.8577C64.1889 96.6188 62.9325 96.1461 62.0884 95.2006C61.2443 94.2551 60.8217 92.8423 60.8205 90.9621V84.0973H56.4371V81.0181H68.6906V84.0973H64.4848Z" fill="#4B008C"/>
<path d="M72.2805 93.2567C72.8843 92.6601 73.4404 91.8058 73.9487 90.6937C74.5128 89.3935 74.9325 88.0353 75.2003 86.6436C75.5481 84.8937 75.7583 83.1192 75.8289 81.3365L76.0716 75.9985H89.6745V93.2567H91.7829V100.02H88.0226V96.6185H74.4631V100.015H70.7029V93.2567H72.2805ZM85.9142 79.3658H79.5964L79.3845 82.6551C79.2227 85.4868 78.8604 87.7207 78.2977 89.3569C77.735 90.9931 77.0105 92.2949 76.1241 93.2621H85.9215L85.9142 79.3658Z" fill="#4B008C"/>
<path d="M110.271 89.7988H98.0919C98.191 90.5678 98.4635 91.3042 98.8888 91.9525C99.2741 92.5371 99.8013 93.0145 100.421 93.3399C101.036 93.6598 101.72 93.824 102.414 93.8181C103.324 93.8181 104.07 93.637 104.652 93.2747C105.238 92.9099 105.688 92.3634 105.933 91.7188H109.938C109.651 92.7021 109.157 93.6125 108.489 94.3887C107.781 95.2237 106.898 95.8938 105.904 96.3521C104.059 97.2254 101.95 97.3625 100.007 96.7356C98.0637 96.1087 96.4326 94.7648 95.4456 92.9777C94.7595 91.7001 94.4005 90.2726 94.4005 88.8225C94.4005 87.3724 94.7595 85.9449 95.4456 84.6674C96.1342 83.4075 97.1532 82.3591 98.3931 81.635C99.633 80.9108 101.047 80.5383 102.482 80.5575C103.885 80.5309 105.267 80.8912 106.478 81.599C107.689 82.3068 108.681 83.3346 109.346 84.5696C110.01 85.7918 110.352 87.1632 110.34 88.5544C110.34 88.8986 110.313 89.3134 110.264 89.7988H110.271ZM106.592 86.9623C106.538 86.3763 106.311 85.8196 105.94 85.3629C105.542 84.8611 105.031 84.4607 104.448 84.1946C103.828 83.9052 103.152 83.758 102.468 83.7635C101.527 83.7509 100.606 84.0348 99.8362 84.575C99.0633 85.1148 98.5302 85.9105 98.2368 86.9623H106.592Z" fill="#4B008C"/>
<path d="M113.334 81.0342H117.004V86.8122H118.976L122.767 81.0342H127.089L121.932 88.3573L127.544 96.6241H123.162L119.219 90.4657H117.004V96.6241H113.334V81.0342Z" fill="#4B008C"/>
<path d="M131.92 95.9863C130.691 95.2683 129.678 94.2337 128.985 92.9904C128.289 91.7149 127.924 90.2849 127.924 88.8316C127.924 87.3784 128.289 85.9484 128.985 84.6729C129.676 83.4267 130.69 82.3894 131.92 81.6697C133.208 80.9442 134.662 80.563 136.14 80.563C137.619 80.563 139.072 80.9442 140.36 81.6697C141.593 82.3876 142.61 83.4252 143.302 84.6729C143.999 85.9506 144.365 87.3831 144.365 88.8389C144.365 90.2947 143.999 91.7271 143.302 93.0049C142.609 94.2527 141.589 95.2879 140.351 95.999C139.063 96.7403 137.599 97.1201 136.113 97.0984C134.64 97.118 133.191 96.7353 131.92 95.9917V95.9863ZM138.487 93.0647C139.178 92.6474 139.741 92.0501 140.118 91.3367C140.512 90.5627 140.717 89.7065 140.717 88.838C140.717 87.9694 140.512 87.1132 140.118 86.3393C139.735 85.6138 139.162 85.0065 138.46 84.5829C137.757 84.1592 136.953 83.9353 136.133 83.9353C135.313 83.9353 134.508 84.1592 133.806 84.5829C133.104 85.0065 132.53 85.6138 132.148 86.3393C131.754 87.1132 131.548 87.9694 131.548 88.838C131.548 89.7065 131.754 90.5627 132.148 91.3367C132.447 91.8686 132.848 92.3358 133.329 92.7113C133.81 93.0867 134.361 93.3628 134.949 93.5236C135.538 93.6844 136.152 93.7266 136.757 93.6478C137.362 93.569 137.945 93.3708 138.473 93.0647" fill="#4B008C"/>
<path d="M151.053 81.0413V83.6641C151.599 82.7273 152.379 81.9484 153.317 81.4036C154.25 80.8554 155.314 80.5695 156.396 80.5758C157.778 80.5576 159.135 80.9428 160.301 81.6843C161.459 82.4206 162.397 83.4548 163.018 84.6784C163.664 85.9684 164 87.3911 164 88.8336C164 90.2761 163.664 91.6987 163.018 92.9887C162.394 94.2103 161.456 95.2442 160.301 95.9846C159.151 96.724 157.809 97.1088 156.441 97.0913C155.356 97.1013 154.288 96.8211 153.348 96.2798C152.433 95.7654 151.674 95.0147 151.149 94.1063L151.225 95.9176V101.955H147.555V81.0413H151.053ZM158.073 93.1191C158.776 92.7153 159.353 92.1255 159.741 91.4147C160.147 90.6239 160.359 89.7478 160.359 88.8589C160.359 87.97 160.147 87.094 159.741 86.3032C159.353 85.5877 158.776 84.9924 158.073 84.5824C157.372 84.1734 156.574 83.9613 155.762 83.9684C154.951 83.963 154.154 84.1858 153.463 84.6114C152.76 85.0423 152.185 85.6525 151.795 86.3792C151.39 87.1441 151.177 87.9967 151.177 88.8625C151.177 89.7283 151.39 90.581 151.795 91.3458C152.188 92.0662 152.767 92.6684 153.471 93.0901C154.164 93.5073 154.96 93.7248 155.769 93.7186C156.572 93.7253 157.362 93.5184 158.059 93.1191" fill="#4B008C"/>
</svg>
