<svg width="380" height="250" viewBox="0 0 380 250" fill="none" xmlns="http://www.w3.org/2000/svg">
<path d="M185.85 46.9132C187.135 44.5577 188.518 42.2668 190 40.0404C191.474 42.2693 192.856 44.5615 194.146 46.917C194.906 48.2983 195.616 49.6987 196.3 51.1218C196.984 52.545 197.684 54.1047 198.314 55.6265C199.397 58.3779 200.515 61.4709 201.21 63.691C201.343 64.1236 201.476 64.5562 201.59 64.9926C201.818 65.7517 202.035 66.5208 202.24 67.3C202.366 67.7656 202.493 68.2361 202.62 68.7118C202.73 69.133 202.829 69.5543 202.928 69.9793C203.011 70.3285 203.095 70.6814 203.167 71.0305C203.197 71.1444 203.224 71.2582 203.247 71.3683L203.479 72.4802C203.558 72.8597 203.627 73.2203 203.703 73.5922C203.779 73.9641 203.843 74.3512 203.908 74.7079C203.973 75.0646 204.026 75.3531 204.079 75.6756C204.151 76.0969 204.223 76.5219 204.288 76.9508C204.326 77.1823 204.36 77.4213 204.394 77.6604C204.417 77.8009 204.44 77.9375 204.455 78.0779C204.47 78.2183 204.489 78.3284 204.508 78.4574C204.508 78.5029 204.508 78.5485 204.527 78.5978C204.558 78.8027 204.581 79.0001 204.607 79.205C204.622 79.275 204.631 79.3461 204.634 79.4175C204.664 79.6149 204.687 79.797 204.71 80.0209C204.71 80.0209 204.71 80.0589 204.71 80.0817L204.733 80.2524C204.735 80.2802 204.735 80.3081 204.733 80.3359C204.767 80.6281 204.797 80.9128 204.828 81.2012C204.858 81.4896 204.888 81.7856 204.915 82.0741C204.942 82.3625 204.972 82.6205 204.999 82.8938C205 82.9127 205 82.9318 204.999 82.9507C205.037 83.353 205.071 83.7552 205.101 84.1651C205.19 85.3264 205.256 86.4927 205.299 87.6641C205.318 88.2258 205.337 88.8026 205.348 89.3567V89.4705C205.348 90.0246 205.367 90.5825 205.367 91.1366V91.1783C205.367 91.2238 205.367 91.2656 205.367 91.3111C205.322 92.0858 205.032 92.8263 204.539 93.4262C204.046 94.0262 203.375 94.4549 202.624 94.6507C202.566 94.6682 202.508 94.6822 202.449 94.6925C202.339 94.6925 202.228 94.7305 202.114 94.7418C201.988 94.7498 201.861 94.7498 201.734 94.7418H178.247C178.12 94.7498 177.993 94.7498 177.867 94.7418C177.753 94.7418 177.642 94.7115 177.532 94.6925L177.357 94.6507C176.605 94.4549 175.935 94.0262 175.442 93.4262C174.949 92.8263 174.659 92.0858 174.614 91.3111C174.614 91.2542 174.614 91.1973 174.614 91.1366C174.614 90.5825 174.614 90.0246 174.633 89.4705V89.3567C174.633 88.7912 174.663 88.2182 174.682 87.6641C174.728 86.4927 174.794 85.3264 174.88 84.1651C174.922 83.5807 174.971 83.0038 175.028 82.4194C175.134 81.2581 175.267 80.1044 175.408 78.9545C175.457 78.5447 175.518 78.1424 175.579 77.7401C175.64 77.3341 175.701 76.9318 175.765 76.5295C175.83 76.1272 175.898 75.7288 175.967 75.3303C176.008 75.0722 176.058 74.8104 176.111 74.5713C176.111 74.4764 176.145 74.3739 176.16 74.2791C176.176 74.1842 176.202 74.0666 176.221 73.9603C176.267 73.725 176.309 73.4897 176.358 73.2582L176.404 73.0191C176.453 72.7649 176.506 72.5144 176.556 72.2601C176.601 72.0666 176.639 71.8806 176.681 71.6719C176.875 70.7763 177.084 69.8882 177.3 69.0154C177.411 68.5676 177.525 68.1273 177.639 67.6833C177.639 67.6188 177.673 67.5505 177.692 67.486C177.791 67.1065 177.893 66.727 178 66.3475C178.106 65.968 178.231 65.524 178.349 65.1103C178.467 64.6966 178.63 64.1729 178.775 63.7099C179.451 61.5316 180.538 58.5183 181.602 55.8049C181.6 55.7936 181.6 55.782 181.602 55.7707C182.251 54.2047 182.941 52.6601 183.673 51.137C184.375 49.7025 185.101 48.2946 185.85 46.9132ZM186.436 82.3207C186.436 81.3999 186.791 80.5144 187.428 79.8486C188.065 79.1828 188.934 78.7878 189.856 78.7458H190.175C191.096 78.7887 191.964 79.184 192.601 79.8496C193.238 80.5152 193.594 81.4001 193.595 82.3207V87.5996H198.155C198.117 86.6471 198.06 85.7021 197.991 84.7495C197.961 84.37 197.931 83.9905 197.893 83.611C197.824 82.7989 197.742 81.9893 197.646 81.1822C197.615 80.9128 197.581 80.6395 197.547 80.3739C197.494 79.9514 197.437 79.5301 197.376 79.1101C197.342 78.8483 197.304 78.5864 197.266 78.3246C197.228 78.0627 197.201 77.9071 197.167 77.6946C197.121 77.3986 197.076 77.0988 197.019 76.8028C196.962 76.5067 196.916 76.2145 196.863 75.9185C196.76 75.3265 196.642 74.7345 196.521 74.15C196.468 73.8578 196.407 73.5618 196.338 73.2696C196.224 72.7079 196.095 72.1311 195.958 71.5884C195.871 71.2089 195.784 70.856 195.689 70.4916C195.563 69.9565 195.426 69.4328 195.278 68.9053C195.202 68.6131 195.126 68.3285 195.039 68.0363C194.83 67.2773 194.609 66.5448 194.378 65.8048C194.29 65.524 194.199 65.2393 194.108 64.9585C193.933 64.3968 193.728 63.82 193.545 63.2735C193.302 62.5714 193.051 61.8693 192.785 61.1711C192.497 60.3893 192.189 59.6151 191.873 58.8447C191.296 57.4153 190.676 56.0035 190.015 54.6095C189.354 56.0035 188.735 57.4153 188.157 58.8447C187.842 59.6037 187.534 60.3893 187.245 61.1711C186.979 61.8693 186.728 62.5714 186.485 63.2735C186.291 63.8314 186.105 64.412 185.923 64.9585C185.592 65.9832 185.284 67.004 184.992 68.0363C184.904 68.3285 184.828 68.6131 184.752 68.9053C184.604 69.4328 184.467 69.9565 184.342 70.4916C184.251 70.8711 184.163 71.2203 184.072 71.5884C183.939 72.1463 183.81 72.7079 183.692 73.2696C183.624 73.5618 183.563 73.8578 183.51 74.15C183.388 74.7345 183.27 75.3265 183.168 75.9185C183.114 76.2145 183.061 76.5105 183.012 76.8028L182.864 77.6946C182.829 77.9071 182.795 78.112 182.765 78.3246C182.734 78.5371 182.689 78.8483 182.655 79.1101C182.594 79.5326 182.537 79.9539 182.484 80.3739C182.449 80.6395 182.415 80.9128 182.385 81.1822C182.291 81.9893 182.209 82.7989 182.138 83.611C182.1 83.9905 182.069 84.37 182.039 84.7495C181.971 85.6983 181.914 86.6471 181.876 87.5996H186.436V82.3207Z" fill="#00A887"/>
<path d="M123.701 0.135725C125.089 -0.0452417 126.494 -0.0452417 127.881 0.135725C128.109 0.166085 128.337 0.196447 128.565 0.238192C129.857 0.453243 131.141 0.698656 132.418 0.974427C133.019 1.10346 133.615 1.24008 134.212 1.3767C134.808 1.51332 135.352 1.64994 135.914 1.79415C153.403 6.29237 169.197 15.7884 181.362 29.1183L181.427 29.1904C183.49 31.4674 185.459 33.8545 187.283 36.3099L187.503 36.6059L183.361 43.0195L182.905 42.3933L182.802 42.2491L182.544 41.8924C180.899 39.5559 179.132 37.3074 177.251 35.1562C166.072 22.4166 151.34 13.299 134.941 8.97054C134.432 8.83391 133.927 8.70488 133.421 8.59103C132.916 8.47718 132.384 8.34056 131.864 8.21153C131.807 8.21153 131.753 8.18876 131.704 8.17738C131.411 8.11286 131.126 8.05214 130.837 7.98383L129.971 7.80926C129.109 7.63089 128.234 7.4715 127.36 7.3235C126.047 7.10112 124.7 7.16902 123.415 7.52243C122.13 7.87583 120.939 8.50614 119.924 9.36901C118.881 10.2481 118.042 11.3441 117.467 12.5803C116.893 13.8166 116.595 15.1633 116.595 16.5264V50.7613C116.614 60.5321 120.512 69.8968 127.433 76.8022C134.355 83.7077 143.736 87.5906 153.52 87.5996C154.45 87.6299 155.333 88.0204 155.98 88.6885C156.628 89.3567 156.99 90.2503 156.99 91.1802C156.99 92.1102 156.628 93.0037 155.98 93.6719C155.333 94.34 154.45 94.7305 153.52 94.7608C149.986 94.7638 146.598 96.1669 144.098 98.6621C141.599 101.157 140.193 104.541 140.189 108.07V141.66C140.19 142.026 140.211 142.392 140.25 142.756C140.273 142.931 140.299 143.109 140.33 143.28C140.36 143.447 140.394 143.622 140.432 143.789C140.432 143.789 140.432 143.808 140.432 143.815C140.463 143.944 140.497 144.077 140.535 144.195C140.573 144.312 140.603 144.434 140.641 144.574C141.225 146.395 142.347 147.996 143.86 149.166C144.955 150.03 146.235 150.63 147.599 150.921C148.964 151.212 150.377 151.186 151.73 150.844L151.985 150.775L152.121 150.745L152.672 150.597L153.185 150.457C153.425 150.392 153.656 150.324 153.896 150.252C154.135 150.18 154.443 150.092 154.717 150.005C154.766 149.995 154.814 149.981 154.861 149.963C155.207 149.861 155.553 149.747 155.898 149.633L156.366 149.474C156.662 149.379 156.955 149.273 157.247 149.17C157.365 149.132 157.483 149.087 157.593 149.045C157.909 148.935 158.216 148.817 158.524 148.699C158.6 148.669 158.676 148.646 158.752 148.608C159.132 148.472 159.512 148.324 159.862 148.172C160.284 148.005 160.698 147.83 161.112 147.648C161.526 147.466 161.918 147.292 162.324 147.109L162.45 147.049C162.83 146.882 163.21 146.703 163.567 146.517C163.924 146.331 164.376 146.138 164.779 145.914C165.182 145.69 165.577 145.496 165.972 145.28C166.368 145.064 166.763 144.851 167.154 144.62C167.545 144.388 167.937 144.172 168.317 143.94C168.632 143.755 168.944 143.561 169.255 143.367C170.19 142.783 171.105 142.176 171.999 141.546C172.67 141.075 173.335 140.588 173.994 140.085L174.648 139.584C175.078 139.245 175.504 138.899 175.924 138.548C176.35 138.195 176.768 137.842 177.178 137.478C177.589 137.113 178.003 136.749 178.41 136.369C178.816 135.99 179.212 135.61 179.607 135.231C179.74 135.102 179.877 134.969 179.987 134.851L180.367 134.472C180.883 133.952 181.389 133.421 181.887 132.878C182.115 132.628 182.346 132.373 182.571 132.119C184.172 130.337 185.664 128.46 187.039 126.499C187.183 126.297 187.346 126.11 187.526 125.941C187.705 125.775 187.9 125.626 188.107 125.497C188.356 125.343 188.624 125.223 188.905 125.14C189.247 125.032 189.603 124.977 189.962 124.977C190.902 124.975 191.805 125.345 192.473 126.005C192.629 126.156 192.77 126.321 192.895 126.499C193.032 126.685 193.161 126.878 193.275 127.06C193.389 127.242 193.541 127.44 193.682 127.614C193.948 127.994 194.225 128.347 194.506 128.707C194.788 129.068 195.065 129.425 195.35 129.781C196.205 130.844 197.098 131.88 198.01 132.878C198.242 133.128 198.47 133.375 198.705 133.637C198.941 133.899 199.177 134.127 199.416 134.369C199.891 134.855 200.377 135.33 200.868 135.793C201.521 136.423 202.19 137.031 202.874 137.618C203.212 137.918 203.558 138.214 203.908 138.498C204.257 138.783 204.599 139.075 204.953 139.352C205.173 139.531 205.393 139.705 205.618 139.872C206.731 140.738 207.875 141.565 209.038 142.343C209.506 142.659 209.979 142.966 210.455 143.265C210.801 143.489 211.154 143.705 211.508 143.918C211.547 143.943 211.587 143.966 211.629 143.986C212.009 144.218 212.389 144.441 212.769 144.654C213.149 144.866 213.552 145.102 213.947 145.314C214.342 145.527 214.745 145.743 215.148 145.948C215.551 146.153 215.908 146.328 216.288 146.525C216.309 146.54 216.332 146.552 216.356 146.559C216.714 146.737 217.067 146.904 217.428 147.071L217.591 147.143C217.971 147.318 218.351 147.485 218.731 147.652L218.826 147.69C219.233 147.868 219.643 148.043 220.054 148.206C220.464 148.369 220.787 148.506 221.16 148.643C221.235 148.677 221.313 148.707 221.391 148.734C221.661 148.84 221.931 148.939 222.205 149.033C222.376 149.106 222.554 149.166 222.733 149.231C222.911 149.295 223.151 149.379 223.364 149.443C223.577 149.508 223.854 149.61 224.101 149.694C224.481 149.823 224.887 149.948 225.286 150.073C225.488 150.138 225.693 150.198 225.898 150.255C226.195 150.346 226.491 150.434 226.795 150.517L227.053 150.586L227.813 150.787L227.992 150.828L228.209 150.885C229.561 151.228 230.974 151.254 232.338 150.963C233.702 150.672 234.98 150.072 236.075 149.208C237.59 148.039 238.714 146.437 239.297 144.616C239.335 144.498 239.369 144.377 239.403 144.237C239.438 144.096 239.476 143.975 239.506 143.857C239.508 143.848 239.508 143.839 239.506 143.83C239.544 143.663 239.578 143.493 239.609 143.322C239.639 143.15 239.666 142.975 239.688 142.798C239.728 142.435 239.748 142.07 239.749 141.705V108.07C239.744 104.552 238.346 101.178 235.861 98.6845C233.375 96.1913 230.003 94.7808 226.48 94.7608C225.549 94.7305 224.667 94.34 224.019 93.6719C223.371 93.0037 223.009 92.1102 223.009 91.1802C223.009 90.2503 223.371 89.3567 224.019 88.6885C224.667 88.0204 225.549 87.6299 226.48 87.5996C236.268 87.5896 245.652 83.7021 252.574 76.7902C259.496 69.8782 263.389 60.5064 263.4 50.731V16.4961C263.401 15.133 263.103 13.7862 262.528 12.55C261.953 11.3137 261.115 10.2177 260.072 9.33865C259.057 8.47525 257.864 7.84462 256.579 7.49121C255.293 7.13779 253.946 7.07018 252.631 7.29314C251.757 7.44114 250.887 7.60053 250.021 7.7789L249.15 7.95347L248.288 8.14702C248.234 8.15515 248.181 8.16655 248.128 8.18117C247.608 8.29882 247.087 8.42026 246.57 8.56067C246.053 8.70109 245.552 8.81494 245.05 8.94018C228.653 13.2697 213.923 22.3873 202.745 35.1258C200.864 37.2833 199.099 39.5381 197.455 41.881C197.364 41.9986 197.28 42.1163 197.197 42.2377L197.094 42.3819L196.638 43.0081L192.504 36.6135L192.72 36.3175C194.548 33.8621 196.52 31.4636 198.58 29.198L198.645 29.1259C210.81 15.796 226.604 6.29996 244.093 1.80174C244.659 1.65753 245.233 1.51711 245.795 1.38428C246.357 1.25146 246.984 1.11104 247.585 0.982013C248.852 0.708772 250.136 0.463359 251.438 0.245778C251.666 0.204033 251.894 0.173677 252.122 0.143317L252.628 0.0863879C252.799 0.0863879 252.966 0.0560312 253.137 0.0484411H253.444C253.707 0.0484411 253.961 0.0294649 254.204 0.0294649H254.326C254.463 0.0294649 254.596 0.0294649 254.733 0.0294649L255.253 0.056027C255.595 0.0787971 255.941 0.112958 256.287 0.162293C256.465 0.162293 256.636 0.207832 256.815 0.238192C257.252 0.314093 257.689 0.405174 258.122 0.511434C258.555 0.617695 258.977 0.746726 259.399 0.890936C259.737 1.00858 260.068 1.13002 260.398 1.27044C260.835 1.45639 261.265 1.64994 261.687 1.87764C262.759 2.4346 263.766 3.10922 264.689 3.889C266.527 5.43731 268.004 7.36754 269.018 9.54498C270.032 11.7224 270.558 14.0946 270.56 16.4961V50.731C270.56 69.7478 258.02 86.8482 239.951 92.6584C242.165 94.5705 243.942 96.9369 245.158 99.5965C246.374 102.256 247.003 105.146 247 108.07V141.663C247 142.463 246.944 143.262 246.833 144.054C246.76 144.517 246.68 144.977 246.574 145.432C246.54 145.591 246.498 145.755 246.456 145.91C246.338 146.354 246.205 146.794 246.05 147.227C246.051 147.237 246.051 147.247 246.05 147.257C245.917 147.637 245.776 147.982 245.62 148.331C244.041 151.856 241.287 154.725 237.828 156.45C234.368 158.175 230.417 158.65 226.647 157.792L226.548 157.77H226.525L225.868 157.603L225.218 157.424C224.774 157.303 224.333 157.178 223.892 157.045C223.451 156.912 223.01 156.779 222.577 156.642C222.144 156.506 221.722 156.365 221.296 156.221H221.262C220.829 156.072 220.4 155.92 219.974 155.766C219.594 155.622 219.172 155.47 218.777 155.318L218.64 155.265C218.226 155.105 217.816 154.942 217.405 154.771C217.116 154.654 216.824 154.532 216.539 154.392C216.318 154.301 216.094 154.206 215.878 154.107L215.741 154.047C215.361 153.88 214.981 153.705 214.601 153.534H214.563C214.183 153.348 213.765 153.155 213.366 152.961C212.967 152.768 212.553 152.563 212.15 152.354C211.747 152.145 211.34 151.94 210.941 151.724C210.542 151.508 210.143 151.288 209.748 151.068C207.662 149.897 205.637 148.621 203.68 147.246C203.034 146.786 202.393 146.315 201.757 145.834C201.483 145.625 201.213 145.424 200.947 145.212C200.412 144.791 199.88 144.366 199.355 143.929L198.595 143.269C197.622 142.431 196.674 141.571 195.749 140.688C195.441 140.396 195.137 140.096 194.833 139.796C194.586 139.557 194.347 139.314 194.111 139.068C192.677 137.603 191.307 136.073 190 134.48C188.7 136.073 187.336 137.604 185.907 139.071L185.185 139.8C184.881 140.1 184.577 140.4 184.269 140.692C183.342 141.577 182.393 142.438 181.423 143.273L180.663 143.933C180.139 144.369 179.607 144.794 179.071 145.216C178.805 145.428 178.535 145.629 178.261 145.838C177.175 146.663 176.066 147.455 174.936 148.214C174.556 148.468 174.176 148.715 173.796 148.973C173.416 149.231 173.036 149.458 172.656 149.698C172.276 149.937 171.897 150.168 171.486 150.4C171.076 150.631 170.703 150.859 170.308 151.079C169.989 151.257 169.67 151.436 169.347 151.61C168.872 151.868 168.393 152.119 167.91 152.369C167.53 152.57 167.124 152.772 166.728 152.961L166.679 152.988C166.322 153.166 165.961 153.333 165.6 153.496L165.436 153.576C165.056 153.751 164.695 153.918 164.319 154.081L164.182 154.142C163.966 154.24 163.742 154.335 163.521 154.426C163.236 154.551 162.944 154.673 162.655 154.806C162.244 154.976 161.834 155.14 161.42 155.299L161.283 155.352C160.903 155.504 160.485 155.656 160.086 155.8C159.687 155.944 159.246 156.104 158.821 156.244L158.699 156.289C158.319 156.422 157.893 156.559 157.487 156.669H157.468C157.039 156.806 156.601 156.938 156.168 157.048C155.735 157.159 155.287 157.303 154.842 157.428C154.397 157.553 154.01 157.656 153.588 157.758C153.531 157.758 153.474 157.789 153.413 157.804C149.276 158.75 144.933 158.086 141.269 155.947C137.605 153.808 134.895 150.354 133.691 146.29C133.631 146.07 133.57 145.846 133.513 145.618C133.387 145.102 133.288 144.578 133.209 144.051C133.097 143.257 133.041 142.457 133.041 141.656V108.07C133.036 105.148 133.66 102.259 134.871 99.6001C136.083 96.9407 137.854 94.5731 140.064 92.6584C121.98 86.8482 109.44 69.7478 109.44 50.731V16.4961C109.438 14.0905 109.964 11.7138 110.978 9.5322C111.993 7.35059 113.473 5.41682 115.315 3.86623C116.237 3.08645 117.244 2.41183 118.316 1.85487C118.738 1.63476 119.168 1.43362 119.605 1.24766C119.935 1.11104 120.266 0.989602 120.604 0.868161C121.026 0.723951 121.451 0.598715 121.881 0.488659C122.31 0.378604 122.751 0.291323 123.184 0.215423C123.363 0.188858 123.534 0.158493 123.712 0.139518L123.701 0.135725Z" fill="#951BC4"/>
<path d="M7.448 231.093C2.48267 226.274 0 220.229 0 212.961C0 205.692 2.48267 199.645 7.448 194.82C12.4159 189.996 18.7492 187.585 26.448 187.587C35.0968 187.587 41.7329 190.623 46.3562 196.695C46.7362 197.204 47.1162 197.72 47.4962 198.251C47.9778 198.979 48.2532 199.823 48.2931 200.694C48.3331 201.566 48.1361 202.431 47.7231 203.2C47.3101 203.968 46.6965 204.611 45.9474 205.059C45.1982 205.508 44.3415 205.745 43.4682 205.746H42.9932C42.2009 205.742 41.4223 205.539 40.7295 205.155C40.0368 204.771 39.4522 204.219 39.0298 203.549C38.5605 202.824 38.0208 202.146 37.4186 201.526C34.5356 198.645 30.8737 197.204 26.4328 197.204C21.9463 197.204 18.2501 198.677 15.3444 201.625C12.4387 204.572 10.9858 208.351 10.9858 212.961C10.9858 217.768 12.3931 221.596 15.2076 224.444C18.0221 227.293 21.7639 228.721 26.4328 228.729C31.0992 228.729 34.8523 227.129 37.6922 223.928C38.3131 223.201 38.8699 222.421 39.3566 221.598C39.7728 220.859 40.3764 220.242 41.1067 219.809C41.837 219.376 42.6684 219.142 43.5176 219.131H43.8254C47.5494 219.131 49.9054 223.196 48.0054 226.38C47.5187 227.191 46.9885 227.975 46.417 228.729C41.4745 235.13 34.8156 238.329 26.4404 238.327C18.7441 238.327 12.4133 235.916 7.448 231.093Z" fill="#951BC4"/>
<path d="M57 233.268V205.678C57 204.7 57.3891 203.761 58.0818 203.069C58.7745 202.378 59.714 201.989 60.6936 201.989H76.2204C79.838 201.989 82.6247 202.789 84.5804 204.388C85.5217 205.114 86.2792 206.05 86.7921 207.122C87.3049 208.194 87.5587 209.371 87.533 210.558C87.533 213.212 86.5488 215.292 84.5804 216.797C83.7363 217.452 82.7495 217.9 81.7 218.103V218.444C83.0268 218.719 84.3008 219.205 85.4734 219.883C87.9941 221.666 89.2531 224.043 89.2506 227.013C89.2827 228.392 88.9899 229.758 88.3958 231.003C87.8017 232.248 86.923 233.335 85.8306 234.178C83.5506 236.03 80.3459 236.956 76.2166 236.956H60.6784C59.7014 236.952 58.7659 236.562 58.0765 235.871C57.387 235.179 57 234.243 57 233.268ZM66.6102 215.359H74.8486C75.3043 215.383 75.7604 215.317 76.1903 215.164C76.6202 215.011 77.0153 214.774 77.3528 214.467C77.646 214.182 77.8791 213.841 78.0382 213.464C78.1974 213.087 78.2793 212.682 78.2793 212.274C78.2793 211.865 78.1974 211.46 78.0382 211.083C77.8791 210.706 77.646 210.365 77.3528 210.08C77.0153 209.773 76.6202 209.536 76.1903 209.383C75.7604 209.23 75.3043 209.164 74.8486 209.188H66.595L66.6102 215.359ZM66.6102 229.757H75.5364C76.627 229.795 77.6883 229.401 78.489 228.66C78.8569 228.319 79.1504 227.905 79.3511 227.445C79.5517 226.985 79.6553 226.489 79.6553 225.987C79.6553 225.485 79.5517 224.989 79.3511 224.529C79.1504 224.069 78.8569 223.655 78.489 223.313C77.6883 222.573 76.627 222.179 75.5364 222.217H66.595L66.6102 229.757Z" fill="#951BC4"/>
<path d="M98.4845 232.604C96.7546 230.881 95.3821 228.834 94.4456 226.581C93.5091 224.328 93.0271 221.912 93.0271 219.473C93.0271 217.033 93.5091 214.617 94.4456 212.364C95.3821 210.111 96.7546 208.065 98.4845 206.342C102.122 202.754 106.596 200.961 111.906 200.961C117.306 200.961 121.699 202.79 125.206 206.308C128.626 209.723 129.846 214.16 130.26 217.359C130.329 217.88 130.285 218.41 130.132 218.913C129.98 219.416 129.721 219.881 129.374 220.276C129.027 220.671 128.599 220.988 128.119 221.205C127.64 221.422 127.12 221.534 126.593 221.533H102.98C103.319 223.77 104.408 225.825 106.069 227.363C107.62 228.902 109.719 229.765 111.906 229.761C114.164 229.816 116.371 229.089 118.153 227.704C119.684 226.379 121.641 225.649 123.667 225.647H123.796C124.512 225.648 125.212 225.853 125.815 226.238C126.418 226.623 126.898 227.172 127.199 227.82C127.5 228.468 127.61 229.188 127.516 229.897C127.421 230.605 127.126 231.271 126.665 231.818C123.005 235.932 118.085 237.989 111.906 237.989C106.599 237.986 102.125 236.191 98.4845 232.604ZM103.326 215.693H120.144C119.784 213.875 118.801 212.239 117.363 211.067C115.836 209.791 113.896 209.116 111.906 209.169C109.906 209.115 107.952 209.778 106.4 211.04C104.919 212.237 103.846 213.863 103.326 215.693Z" fill="#951BC4"/>
<path d="M226.59 232.604C224.86 230.881 223.488 228.834 222.551 226.581C221.615 224.328 221.133 221.912 221.133 219.473C221.133 217.033 221.615 214.617 222.551 212.364C223.488 210.111 224.86 208.065 226.59 206.342C230.228 202.754 234.702 200.961 240.012 200.961C245.412 200.961 249.804 202.79 253.331 206.308C256.751 209.723 257.971 214.16 258.385 217.359C258.454 217.88 258.41 218.41 258.257 218.913C258.104 219.416 257.846 219.881 257.499 220.276C257.151 220.671 256.724 220.988 256.244 221.205C255.765 221.422 255.244 221.534 254.718 221.533H231.086C231.425 223.77 232.514 225.825 234.175 227.363C235.726 228.902 237.825 229.765 240.012 229.761C242.27 229.816 244.477 229.089 246.259 227.704C247.79 226.379 249.747 225.649 251.773 225.647H251.902C252.617 225.648 253.318 225.853 253.921 226.238C254.523 226.623 255.004 227.172 255.305 227.82C255.606 228.468 255.716 229.188 255.621 229.897C255.527 230.605 255.232 231.271 254.771 231.818C251.11 235.932 246.191 237.989 240.012 237.989C234.705 237.986 230.231 236.191 226.59 232.604ZM231.42 215.693H248.239C247.878 213.875 246.895 212.239 245.457 211.067C243.931 209.791 241.99 209.116 240 209.169C238.008 209.113 236.06 209.77 234.509 211.021C233.02 212.221 231.94 213.854 231.42 215.693Z" fill="#00A887"/>
<path d="M132.844 206.444V205.761C132.85 204.762 133.25 203.805 133.958 203.099C134.666 202.393 135.624 201.994 136.625 201.989H162.02C163.024 201.989 163.987 202.386 164.699 203.093C165.411 203.799 165.814 204.759 165.82 205.761V206.444C165.814 207.447 165.411 208.406 164.699 209.113C163.987 209.82 163.024 210.217 162.02 210.217H154.128V233.184C154.128 233.68 154.03 234.17 153.84 234.628C153.65 235.085 153.372 235.501 153.021 235.852C152.671 236.202 152.254 236.48 151.796 236.669C151.338 236.859 150.847 236.956 150.351 236.956H148.295C147.293 236.956 146.332 236.559 145.624 235.852C144.916 235.144 144.518 234.185 144.518 233.184V210.217H136.625C135.624 210.212 134.666 209.813 133.958 209.107C133.25 208.4 132.85 207.444 132.844 206.444Z" fill="#951BC4"/>
<path d="M166.486 241.753V231.048C166.486 230.563 166.581 230.084 166.767 229.636C166.952 229.188 167.224 228.782 167.567 228.439C167.91 228.097 168.318 227.825 168.766 227.64C169.214 227.454 169.694 227.359 170.179 227.359H171.977L181.199 191.784C181.413 190.977 181.887 190.262 182.548 189.75C183.21 189.239 184.022 188.96 184.859 188.957H200.64C201.477 188.957 202.29 189.235 202.952 189.747C203.613 190.259 204.086 190.975 204.296 191.784L213.518 227.355H215.316C215.801 227.355 216.281 227.45 216.729 227.636C217.177 227.821 217.584 228.093 217.927 228.435C218.27 228.778 218.542 229.185 218.728 229.632C218.914 230.08 219.009 230.559 219.009 231.044V241.75C219.009 242.75 218.611 243.71 217.903 244.417C217.194 245.124 216.234 245.522 215.232 245.522H212.834C211.832 245.522 210.872 245.124 210.163 244.417C209.455 243.71 209.057 242.75 209.057 241.75V236.945H176.442V241.742C176.442 242.239 176.343 242.732 176.152 243.191C175.961 243.65 175.68 244.067 175.327 244.417C174.974 244.768 174.555 245.045 174.094 245.234C173.633 245.422 173.14 245.517 172.642 245.514H170.244C169.247 245.509 168.293 245.111 167.589 244.407C166.885 243.702 166.489 242.749 166.486 241.753ZM181.933 227.359H203.558L196.008 198.558H189.487L181.933 227.359Z" fill="#00A887"/>
<path d="M264.317 233.184V205.761C264.317 205.264 264.415 204.772 264.607 204.313C264.798 203.853 265.078 203.437 265.431 203.086C265.784 202.735 266.204 202.458 266.664 202.27C267.125 202.081 267.619 201.986 268.117 201.989H270.169C271.169 201.994 272.128 202.393 272.836 203.099C273.544 203.806 273.944 204.762 273.95 205.761V215.017H278.069L286.209 203.575C286.558 203.085 287.019 202.685 287.555 202.409C288.09 202.133 288.684 201.989 289.287 201.989H290.7C291.392 201.989 292.07 202.178 292.661 202.536C293.252 202.895 293.734 203.408 294.053 204.021C294.372 204.633 294.516 205.322 294.471 206.011C294.425 206.7 294.191 207.363 293.794 207.928L286.642 218.103L295.173 231.116C295.539 231.687 295.745 232.345 295.77 233.022C295.795 233.699 295.638 234.37 295.315 234.966C294.992 235.562 294.516 236.061 293.935 236.411C293.354 236.761 292.69 236.95 292.011 236.956H290.066C289.437 236.955 288.818 236.797 288.265 236.498C287.711 236.199 287.241 235.767 286.897 235.241L279.091 223.245H273.942V233.184C273.936 234.184 273.536 235.14 272.828 235.846C272.12 236.553 271.162 236.952 270.161 236.956H268.109C267.612 236.958 267.119 236.862 266.659 236.674C266.199 236.485 265.781 236.207 265.429 235.857C265.076 235.507 264.797 235.09 264.606 234.631C264.415 234.173 264.317 233.681 264.317 233.184Z" fill="#00A887"/>
<path d="M304.479 232.604C302.739 230.886 301.358 228.842 300.416 226.588C299.473 224.334 298.988 221.915 298.988 219.473C298.988 217.03 299.473 214.612 300.416 212.358C301.358 210.104 302.739 208.059 304.479 206.342C308.142 202.754 312.72 200.961 318.212 200.961C323.656 200.961 328.216 202.754 331.892 206.342C333.643 208.053 335.034 210.096 335.983 212.35C336.933 214.605 337.422 217.027 337.422 219.473C337.422 221.919 336.933 224.34 335.983 226.595C335.034 228.85 333.643 230.893 331.892 232.604C328.209 236.194 323.649 237.987 318.212 237.985C312.717 237.985 308.14 236.191 304.479 232.604ZM311.619 212.069C309.846 213.989 308.959 216.457 308.959 219.473C308.959 222.489 309.846 224.957 311.619 226.877C312.459 227.785 313.478 228.51 314.613 229.006C315.747 229.502 316.972 229.758 318.21 229.758C319.448 229.758 320.673 229.502 321.808 229.006C322.942 228.51 323.961 227.785 324.801 226.877C326.575 224.957 327.461 222.489 327.461 219.473C327.461 216.457 326.575 213.989 324.801 212.069C323.961 211.16 322.942 210.435 321.808 209.939C320.673 209.444 319.448 209.188 318.21 209.188C316.972 209.188 315.747 209.444 314.613 209.939C313.478 210.435 312.459 211.16 311.619 212.069Z" fill="#00A887"/>
<path d="M342.927 246.212V205.761C342.927 204.761 343.325 203.801 344.034 203.094C344.742 202.387 345.703 201.989 346.705 201.989H348.76C349.256 201.989 349.747 202.087 350.206 202.276C350.664 202.466 351.08 202.744 351.431 203.094C351.782 203.444 352.06 203.86 352.25 204.318C352.44 204.775 352.537 205.266 352.537 205.761V206.444H352.88C353.659 205.433 354.551 204.514 355.54 203.704C357.93 201.902 360.85 200.937 363.846 200.961C366.021 200.922 368.177 201.36 370.164 202.242C372.151 203.125 373.921 204.431 375.349 206.069C378.45 209.474 380 213.947 380 219.488C380 225.029 378.456 229.497 375.368 232.892C373.94 234.53 372.17 235.836 370.183 236.718C368.196 237.601 366.04 238.038 363.865 238C360.869 238.024 357.95 237.059 355.559 235.256C354.57 234.448 353.677 233.528 352.899 232.516H352.557V246.228C352.557 247.228 352.159 248.188 351.45 248.895C350.742 249.602 349.781 250 348.779 250H346.724C346.225 250.002 345.73 249.906 345.269 249.717C344.807 249.527 344.388 249.249 344.035 248.896C343.682 248.544 343.402 248.126 343.212 247.665C343.022 247.204 342.925 246.711 342.927 246.212ZM355.011 211.894C353.362 213.703 352.537 216.233 352.537 219.484C352.537 222.735 353.362 225.265 355.011 227.074C356.655 228.881 358.809 229.784 361.471 229.784C362.641 229.816 363.803 229.586 364.872 229.111C365.941 228.637 366.891 227.929 367.65 227.04C369.251 225.213 370.052 222.7 370.052 219.499C370.052 216.299 369.251 213.785 367.65 211.959C366.891 211.07 365.941 210.362 364.872 209.887C363.803 209.412 362.641 209.183 361.471 209.215C358.811 209.197 356.658 210.091 355.011 211.898V211.894Z" fill="#00A887"/>
</svg>
