<svg width="162" height="104" viewBox="0 0 162 104" fill="none" xmlns="http://www.w3.org/2000/svg">
<path d="M9.60909 80.5098C11.8708 80.5098 13.6942 81.0239 14.8001 81.7174V85.7859C13.7978 84.9888 12.0262 84.2177 9.96971 84.2177C6.78332 84.2177 4.21276 86.067 4.21276 89.8969C4.21276 93.468 6.37092 95.5244 9.89203 95.5244C11.8449 95.5244 13.7978 94.9326 14.9018 94.1874V97.9914C13.8995 98.6072 11.819 99.2249 9.5573 99.2249C3.67275 99.2249 0 96.0385 0 89.9783C0 84.0161 4.03337 80.5227 9.61648 80.5227" fill="#FF6000"/>
<path d="M18.3693 98.8551V84.4655C19.9634 84.3897 22.5839 84.3896 24.7679 84.3896C28.1855 84.3896 30.3159 85.5196 30.3159 88.2732C30.3159 89.4808 29.8795 90.5331 28.7236 91.2321C30.1624 91.7204 30.8559 92.6191 30.8559 94.3667C30.8559 97.2184 29.0066 98.9401 24.8697 98.9401C22.1974 98.9401 20.0133 98.9401 18.3674 98.8625L18.3693 98.8551ZM22.1253 87.3449V90.1706H24.5109C26.0532 90.1706 26.6432 89.7841 26.6432 88.7319C26.6432 87.8072 25.9755 87.3449 24.6089 87.3449H22.1253ZM22.1253 92.8928V95.972H24.6681C26.4416 95.972 27.1869 95.5614 27.1869 94.4555C27.1869 93.3496 26.5451 92.8891 24.694 92.8891L22.1253 92.8928Z" fill="#FF6000"/>
<path d="M46.9673 89.0668C46.9673 92.2513 44.3209 93.3055 39.901 93.3055H36.9421C37.5339 95.079 39.0244 95.7466 41.4137 95.7466C43.4702 95.7466 45.3713 95.1307 46.4069 94.4354V97.9824C45.1975 98.6759 43.3999 99.2159 40.9588 99.2159C36.3078 99.2159 32.9938 96.7489 32.9938 91.6614C32.9938 86.9327 36.3078 84.1069 40.8294 84.1069C44.2728 84.1069 46.971 85.9045 46.971 89.0668H46.9673ZM36.7997 90.5056H40.4983C42.4253 90.5056 43.2483 90.1357 43.2483 89.1426C43.2483 88.1921 42.4771 87.4209 40.8072 87.4209C38.8543 87.4209 37.2084 88.4491 36.7978 90.5056" fill="#FF6000"/>
<path d="M53.8522 84.4654V85.8006C54.7528 84.8759 56.088 84.2065 57.8356 84.2065C59.8699 84.2065 61.3308 84.9462 62.2555 86.2888C62.8305 85.6218 63.5453 85.0895 64.3491 84.7296C65.1529 84.3697 66.026 84.1911 66.9065 84.2065C70.914 84.2065 72.7393 86.6217 72.7393 90.6051V98.8531H68.7559V90.9417C68.7559 88.9629 67.9089 87.8071 66.1668 87.8071C64.5468 87.8071 63.3651 88.6541 63.3651 90.5811V98.855H59.3779V90.9417C59.3779 88.9629 58.6567 87.8071 56.8851 87.8071C54.9581 87.8071 53.9816 88.9629 53.9816 90.9417V98.855H49.9982V84.4654H53.8522Z" fill="#FF6000"/>
<path d="M78.5961 102.966H74.9215V95.2582H76.7449C77.5938 94.2041 77.9285 93.0742 78.2096 91.763C78.4291 90.5856 78.5325 89.3896 78.5184 88.192L78.5702 80.8687H92.3995V95.2582H95.02V102.966H91.3213V98.8552H78.5961V102.966ZM88.3088 84.473H82.2966L82.2448 88.6358C82.2294 89.8493 82.1262 91.06 81.936 92.2586C81.7611 93.3004 81.4412 94.3126 80.9854 95.2656H88.3088V84.473Z" fill="#4B008C"/>
<path d="M110.687 89.0668C110.687 92.2513 108.041 93.3055 103.621 93.3055H100.662C101.254 95.079 102.743 95.7466 105.134 95.7466C107.189 95.7466 109.09 95.1307 110.118 94.4354V97.9824C108.91 98.6759 107.113 99.2159 104.67 99.2159C100.021 99.2159 96.7047 96.7489 96.7047 91.6614C96.7047 86.9327 100.021 84.1069 104.542 84.1069C107.986 84.1069 110.684 85.9045 110.684 89.0668H110.687ZM100.512 90.5056H104.211C106.14 90.5056 106.961 90.1357 106.961 89.1426C106.961 88.1921 106.19 87.4209 104.52 87.4209C102.567 87.4209 100.923 88.4491 100.512 90.5056Z" fill="#4B008C"/>
<path d="M117.7 89.9393H119.653L123.278 84.4653H127.773L123.097 91.4558L128.005 98.8549H123.354L119.886 93.3828H117.7V98.8549H113.719V84.4653H117.7V89.9393Z" fill="#4B008C"/>
<path d="M136.559 99.2158C132.319 99.2158 128.722 96.697 128.722 91.6336C128.722 86.6996 132.319 84.105 136.559 84.105C140.8 84.105 144.397 86.694 144.397 91.6077C144.397 96.6009 140.8 99.214 136.559 99.214V99.2158ZM136.559 87.676C134.479 87.676 132.676 89.0131 132.676 91.6336C132.676 94.2541 134.424 95.6411 136.559 95.6411C138.616 95.6411 140.443 94.2541 140.443 91.6077C140.443 88.9613 138.62 87.676 136.559 87.676Z" fill="#4B008C"/>
<path d="M147.016 103.994V91.7186C147.016 86.4757 150.383 84.1123 154.648 84.1123C159.171 84.1123 161.869 87.1193 161.869 91.6668C161.869 96.3937 159.119 99.1177 154.829 99.1177C153.313 99.1177 151.924 98.6554 150.973 97.8583C150.999 98.2966 150.999 98.7589 150.999 99.1695V104L147.016 103.994ZM154.546 87.7555C152.31 87.7555 150.973 89.246 150.973 91.6391C150.973 94.0321 152.464 95.493 154.546 95.493C156.678 95.493 157.912 94.0543 157.912 91.7167C157.912 89.2497 156.678 87.7592 154.546 87.7592" fill="#4B008C"/>
<path d="M110.928 0.894531C111.113 0.972203 111.298 1.05727 111.483 1.15344C111.298 1.05912 111.113 0.968504 110.928 0.894531Z" fill="#4B008C"/>
<path d="M109.4 0.456543C109.585 0.487981 109.77 0.526818 109.955 0.573051C109.77 0.526818 109.585 0.487981 109.4 0.456543Z" fill="#4B008C"/>
<path d="M105.698 3.85156L105.034 4.00876C105.254 3.95328 105.476 3.90149 105.698 3.85156Z" fill="#4B008C"/>
<path d="M105.136 61.8062C105.108 62.004 105.071 62.2001 105.027 62.3942C105.071 62.2093 105.106 62.004 105.136 61.8062Z" fill="#4B008C"/>
<path d="M102.465 66.3959C101.639 67.0467 100.674 67.5 99.6459 67.7212C98.6174 67.9423 97.5519 67.9255 96.5309 67.6719C98.1371 68.0384 99.8206 67.8365 101.295 67.1007C102.769 66.3649 103.942 65.1407 104.614 63.6367C104.14 64.7218 103.401 65.6705 102.465 66.3959Z" fill="#4B008C"/>
<path d="M97.1449 64.6777C97.7403 64.824 98.3612 64.8334 98.9608 64.7053C99.5604 64.5772 100.123 64.3148 100.607 63.938C101.24 63.4502 101.711 62.7833 101.961 62.0239C101.712 62.8009 101.234 63.4839 100.588 63.9824C100.122 64.35 99.577 64.6057 98.996 64.7298C98.4151 64.8538 97.8135 64.843 97.2374 64.6981L97.1449 64.674" fill="#4B008C"/>
<path d="M97.1449 64.6778L97.069 64.6593L96.7528 64.5742L97.1449 64.6778Z" fill="#4B008C"/>
<path d="M96.4792 67.6591L96.2942 67.6166L96.1925 67.5889L96.4718 67.6591" fill="#4B008C"/>
<path d="M93.2076 63.3262C93.0449 63.256 92.8858 63.1838 92.7268 63.1099C92.8858 63.1838 93.0467 63.256 93.2076 63.3262Z" fill="#4B008C"/>
<path d="M91.6781 62.5991C91.8408 62.6823 92.0054 62.7656 92.1719 62.8451C92.0054 62.7674 91.8408 62.6842 91.6781 62.5991Z" fill="#4B008C"/>
<path d="M91.6783 62.5991C91.5063 62.5122 91.3361 62.4142 91.1678 62.3291C91.3361 62.4197 91.5063 62.514 91.6783 62.5991Z" fill="#4B008C"/>
<path d="M91.1677 62.329C90.9994 62.2383 90.8311 62.144 90.6647 62.0479C90.8311 62.144 90.9994 62.2328 91.1677 62.329Z" fill="#4B008C"/>
<path d="M89.6792 61.4546C89.8271 61.5489 89.9769 61.6395 90.1286 61.7338C89.9769 61.6432 89.8271 61.5489 89.6792 61.4546Z" fill="#4B008C"/>
<path d="M87.3323 59.7864C87.1825 59.668 87.0327 59.546 86.8866 59.4165C87.0345 59.5386 87.1825 59.6606 87.3323 59.7864Z" fill="#4B008C"/>
<path d="M86.7628 63.167C87.5918 63.7529 88.4497 64.2966 89.3334 64.7962C88.4483 64.2991 87.5902 63.7552 86.7628 63.167Z" fill="#4B008C"/>
<path d="M86.8866 59.4221C86.7386 59.3001 86.5907 59.1743 86.4464 59.0522C86.5925 59.178 86.7386 59.3038 86.8866 59.4221Z" fill="#4B008C"/>
<path d="M86.8681 14.8459C86.01 15.7909 84.9022 17.1464 84.1089 18.2246C84.8103 17.228 85.5634 16.2687 86.3651 15.3508C91.1256 9.91522 97.3999 6.02403 104.385 4.17529C97.6453 5.98292 91.5658 9.68631 86.8681 14.8459Z" fill="#4B008C"/>
<path d="M85.9435 62.5659C86.2135 62.7718 86.4866 62.9722 86.7627 63.1669C86.4853 62.9728 86.2079 62.7712 85.9435 62.5659Z" fill="#4B008C"/>
<path d="M85.5922 58.2681C85.8708 58.5344 86.1556 58.7939 86.4465 59.0466C86.1568 58.8001 85.872 58.5405 85.5922 58.2681Z" fill="#4B008C"/>
<path d="M83.3766 60.3706C83.7699 60.7479 84.1736 61.1177 84.5879 61.4802C84.1736 61.1251 83.7699 60.7553 83.3766 60.3706Z" fill="#4B008C"/>
<path d="M82.8754 55.252L83.2452 55.7106C83.1232 55.5589 83.003 55.4073 82.8754 55.252Z" fill="#4B008C"/>
<path d="M82.1837 54.3104L82.352 54.549L82.1819 54.3104C82.1269 54.2345 82.065 54.164 81.9969 54.0996C82.0659 54.1632 82.1279 54.2338 82.1819 54.3104" fill="#4B008C"/>
<path d="M80.9336 57.7207C81.4872 58.4013 82.0685 59.0541 82.6775 59.6791C82.0611 59.0541 81.4792 58.4019 80.9318 57.7226L80.9336 57.7207Z" fill="#4B008C"/>
<path d="M79.1658 20.3721C79.7132 19.3673 80.3025 18.3902 80.9337 17.4409C81.5625 18.3915 82.1512 19.3691 82.6998 20.3739C83.0216 20.9645 83.3298 21.5624 83.6245 22.1678C83.9265 22.7953 84.2101 23.4358 84.4752 24.0892C84.9375 25.2636 85.4128 26.5821 85.7087 27.529C85.7654 27.7139 85.8209 27.8988 85.8751 28.0838C85.9731 28.4093 86.06 28.7384 86.1525 29.0676C86.2061 29.2673 86.2579 29.4689 86.3079 29.6705C86.3578 29.8721 86.3966 30.0293 86.4392 30.2105C86.4743 30.3603 86.5094 30.5101 86.5409 30.6599C86.5532 30.708 86.5643 30.756 86.5742 30.8041L86.674 31.2776C86.7073 31.4347 86.7369 31.5938 86.7683 31.7528C86.7998 31.9119 86.8294 32.0691 86.8571 32.2281C86.8849 32.3871 86.907 32.5037 86.9292 32.6405C86.9613 32.8193 86.9909 33.0005 87.018 33.1842C87.0346 33.2841 87.0494 33.3858 87.0642 33.4875C87.0735 33.5467 87.0827 33.6059 87.0901 33.6724L87.1123 33.8352C87.1133 33.8549 87.1133 33.8746 87.1123 33.8943C87.1253 33.9813 87.1363 34.0663 87.1474 34.1533C87.1531 34.1832 87.1568 34.2135 87.1585 34.2439C87.1715 34.3289 87.1807 34.414 87.19 34.5009C87.19 34.5009 87.19 34.5176 87.19 34.5268C87.19 34.5361 87.19 34.5767 87.1992 34.6008C87.2002 34.6125 87.2002 34.6242 87.1992 34.6359C87.214 34.7598 87.227 34.8819 87.2399 35.0058C87.2529 35.1297 87.2658 35.2536 87.2769 35.3757C87.288 35.4977 87.3009 35.6087 87.312 35.7252C87.313 35.7332 87.313 35.7412 87.312 35.7492C87.3287 35.9212 87.3435 36.0932 87.3564 36.267C87.3934 36.7602 87.4211 37.2576 87.4396 37.7594C87.4489 37.9998 87.4563 38.2403 87.4618 38.4825V38.5306C87.4618 38.7673 87.4618 39.004 87.4618 39.2407V39.2592C87.4618 39.2777 87.4618 39.2962 87.4618 39.3147C87.4397 39.6974 87.2778 40.0587 87.0069 40.33C86.8106 40.529 86.5638 40.6709 86.2931 40.7405C86.2688 40.7478 86.2441 40.7534 86.2191 40.7572C86.1729 40.7664 86.1248 40.7738 86.0767 40.7794C86.0237 40.7822 85.9706 40.7822 85.9177 40.7794H75.9276C75.8746 40.7821 75.8215 40.7821 75.7686 40.7794C75.7205 40.7794 75.6724 40.7664 75.6262 40.7572L75.5522 40.7405C75.2814 40.6709 75.0347 40.529 74.8383 40.33C74.5674 40.0587 74.4056 39.6974 74.3834 39.3147C74.3834 39.2907 74.3834 39.2666 74.3834 39.2407C74.3834 39.004 74.3834 38.7673 74.3834 38.5306V38.4825C74.3834 38.2403 74.3964 37.9998 74.4056 37.7594C74.4241 37.2601 74.4518 36.7626 74.4888 36.267C74.5073 36.0174 74.5277 35.7714 74.5517 35.5273C74.5979 35.0317 74.6534 34.5398 74.7181 34.0478C74.7403 33.874 74.7662 33.702 74.7921 33.53C74.818 33.3562 74.8439 33.1842 74.8716 33.0122C74.8994 32.8402 74.9271 32.6719 74.9567 32.5018C74.9752 32.3908 74.9955 32.2799 75.0177 32.1708L75.0399 32.0469C75.0492 32.0006 75.0566 31.9563 75.0658 31.91C75.0843 31.8102 75.1028 31.7103 75.1232 31.6104C75.1232 31.5771 75.1361 31.542 75.1435 31.5087C75.1638 31.4015 75.186 31.2942 75.2082 31.1869C75.2304 31.0797 75.2434 31.0205 75.2619 30.9354C75.3432 30.5545 75.432 30.1754 75.5245 29.7962L75.6687 29.2285L75.6909 29.1434C75.7334 28.9825 75.7778 28.8235 75.8222 28.6645C75.8666 28.5054 75.9221 28.3131 75.972 28.1374C76.0219 27.9617 76.0922 27.7379 76.1569 27.5401C76.4454 26.6154 76.9077 25.3209 77.3608 24.1688C77.3598 24.1639 77.3598 24.1588 77.3608 24.154C77.637 23.4845 77.931 22.8255 78.243 22.177C78.5327 21.5705 78.8409 20.9725 79.1676 20.3832L79.1658 20.3721ZM79.4173 35.4866C79.4172 35.0949 79.5677 34.7182 79.8375 34.4342C80.1073 34.1503 80.476 33.9808 80.8672 33.9609H81.004C81.395 33.9813 81.7634 34.1509 82.0331 34.4347C82.3029 34.7185 82.4534 35.095 82.4539 35.4866V37.7187H84.4012C84.3846 37.3137 84.3605 36.9069 84.3309 36.5037C84.318 36.3447 84.305 36.1838 84.2902 36.0248C84.2607 35.6783 84.2255 35.3331 84.1848 34.9891C84.1719 34.8745 84.1571 34.758 84.1423 34.6433C84.1201 34.4633 84.0961 34.2839 84.0702 34.1052C84.0554 33.9924 84.0387 33.8814 84.0221 33.7704C84.0055 33.6595 83.9943 33.5855 83.9796 33.5004C83.9611 33.3747 83.9407 33.2471 83.9167 33.1213C83.8926 32.9956 83.8742 32.8698 83.8501 32.7515C83.8076 32.4981 83.7576 32.2466 83.7059 31.9969C83.6818 31.8712 83.6559 31.7454 83.6282 31.6271C83.5783 31.3867 83.5246 31.1481 83.4673 30.9095C83.4303 30.7523 83.3933 30.597 83.3526 30.4417C83.299 30.2142 83.2398 29.9904 83.1677 29.7648C83.1363 29.6409 83.103 29.5188 83.066 29.3949C82.9772 29.0769 82.8835 28.7594 82.7849 28.4425C82.7479 28.3223 82.7091 28.2021 82.6702 28.0819C82.5944 27.8415 82.5131 27.6011 82.4298 27.3625C82.3263 27.0629 82.2184 26.764 82.1062 26.4656C81.9841 26.1327 81.8528 25.8017 81.7178 25.4744C81.4713 24.8579 81.2074 24.2557 80.9263 23.6676C80.6452 24.2606 80.3814 24.8629 80.1348 25.4744C79.9998 25.8017 79.8685 26.1327 79.7465 26.4656C79.633 26.764 79.5252 27.0629 79.4228 27.3625C79.3396 27.6011 79.2582 27.8415 79.1824 28.0819C79.0419 28.5184 78.9106 28.9548 78.7867 29.3949C78.7497 29.5188 78.7164 29.6409 78.685 29.7648C78.6221 29.9904 78.5629 30.2142 78.5 30.4417C78.4612 30.597 78.4242 30.7523 78.3854 30.9095C78.328 31.1481 78.2744 31.3867 78.2245 31.6271C78.1967 31.751 78.1708 31.8767 78.1468 31.9969C78.095 32.2466 78.0451 32.4981 78.0026 32.7515C77.9791 32.8748 77.9569 32.998 77.936 33.1213C77.9138 33.2489 77.8934 33.3747 77.8731 33.5004C77.8583 33.5911 77.8435 33.6854 77.8306 33.7704C77.8176 33.8555 77.7973 33.9924 77.7825 34.1052C77.7566 34.2852 77.7325 34.4646 77.7104 34.6433C77.6956 34.758 77.6808 34.8745 77.6678 34.9891C77.6271 35.3331 77.592 35.6783 77.5624 36.0248C77.5476 36.1838 77.5347 36.3447 77.5217 36.5037C77.4921 36.9081 77.4687 37.3131 77.4514 37.7187H79.3988L79.4173 35.4866Z" fill="#FF6000"/>
<path d="M80.9336 57.7206C80.3825 58.3999 79.8006 59.0521 79.1879 59.6772C79.7969 59.0521 80.3782 58.3993 80.9318 57.7188" fill="#4B008C"/>
<path d="M79.8925 54.0721C79.9677 54.0012 80.0509 53.9392 80.1403 53.8872C80.0517 53.9404 79.9686 54.0023 79.8925 54.0721Z" fill="#4B008C"/>
<path d="M79.8924 54.0723C79.8157 54.1447 79.7463 54.2247 79.6853 54.3108C79.0989 55.149 78.4635 55.9518 77.7823 56.7149C78.4612 55.9508 79.0953 55.1481 79.6816 54.3108C79.7429 54.2238 79.8136 54.1438 79.8924 54.0723Z" fill="#4B008C"/>
<path d="M52.6927 0.42329C53.2826 0.346533 53.88 0.346533 54.4699 0.42329C54.566 0.436236 54.664 0.44918 54.7602 0.465824C55.3113 0.55829 55.8587 0.663085 56.4024 0.780208C56.6576 0.835688 56.9128 0.893019 57.1662 0.952197C57.4195 1.01138 57.6507 1.0687 57.8911 1.13713C65.3417 3.05727 72.0701 7.1095 77.2517 12.7971L77.2794 12.8286C78.1606 13.7984 78.9926 14.8119 79.7723 15.8651L79.8666 15.9909L78.1061 18.7186L77.9119 18.4505L77.8675 18.3895L77.7584 18.2378C77.057 17.2412 76.3039 16.2819 75.5022 15.364C70.7413 9.92805 64.4662 6.03681 57.4806 4.18851C57.2648 4.13057 57.0484 4.07509 56.8315 4.02207C56.6114 3.96659 56.3895 3.91481 56.1676 3.86488L56.0991 3.85008L55.7293 3.76872L55.3594 3.6929C54.9895 3.61707 54.6197 3.54865 54.2498 3.48577C53.6901 3.39087 53.1163 3.41984 52.569 3.57065C52.0217 3.72146 51.514 3.99044 51.0819 4.35865C50.6373 4.73349 50.28 5.20098 50.035 5.72838C49.79 6.25577 49.6632 6.83035 49.6635 7.41188V22.0215C49.6698 26.1886 51.328 30.1831 54.2746 33.1297C57.2211 36.0763 61.2157 37.7344 65.3827 37.7408C65.7879 37.7408 66.1764 37.9017 66.4629 38.1882C66.7493 38.4747 66.9103 38.8632 66.9103 39.2683C66.9103 39.6735 66.7493 40.062 66.4629 40.3485C66.1764 40.6349 65.7879 40.7959 65.3827 40.7959C63.8774 40.7973 62.4342 41.396 61.3698 42.4604C60.3054 43.5248 59.7068 44.968 59.7053 46.4733V60.8C59.7055 60.9563 59.7142 61.1125 59.7312 61.2679C59.7404 61.3419 59.7515 61.4177 59.7645 61.4916C59.7774 61.5638 59.7922 61.6377 59.8089 61.7099C59.8089 61.7099 59.8089 61.7099 59.8089 61.721C59.8218 61.7764 59.8366 61.8319 59.8514 61.8874C59.8662 61.9429 59.881 61.9891 59.8976 62.0409C60.1519 62.8111 60.6327 63.4866 61.2772 63.979C61.7441 64.3469 62.2891 64.6027 62.8704 64.7268C63.4517 64.8509 64.0537 64.8399 64.6301 64.6947L64.7392 64.6651L64.7965 64.6521L65.0314 64.5893L65.2496 64.5301L65.5529 64.4432L65.9024 64.3377L65.9634 64.3193C66.1114 64.2749 66.2593 64.2268 66.4054 64.1787L66.6051 64.1103C66.7309 64.0696 66.8566 64.0252 66.975 63.9808L67.1229 63.9272C67.2561 63.881 67.3874 63.831 67.5187 63.7811L67.6167 63.7423C67.7739 63.6831 67.9329 63.6202 68.0883 63.5573C68.2436 63.4945 68.4452 63.4112 68.6209 63.3336C68.7966 63.2559 68.9649 63.1819 69.1369 63.1043L69.1905 63.0784C69.3495 63.0069 69.5086 62.931 69.6676 62.8509C69.8414 62.7695 70.0116 62.6826 70.1836 62.5938C70.3556 62.5051 70.5238 62.4089 70.6921 62.3238C70.8604 62.2388 71.0287 62.1389 71.1952 62.0427C71.3616 61.9466 71.528 61.8578 71.6908 61.7524L72.0902 61.5083C72.4878 61.2586 72.8762 60.9997 73.259 60.7316C73.5463 60.5306 73.8292 60.3229 74.1078 60.1083L74.3871 59.8938C74.572 59.7496 74.7569 59.6035 74.9308 59.4518C75.1157 59.302 75.2895 59.1504 75.4652 58.9951C75.6409 58.8397 75.8166 58.6844 75.9886 58.5235C76.1606 58.3626 76.3307 58.2035 76.499 58.039C76.5563 57.9835 76.6137 57.928 76.6673 57.8725L76.8337 57.7061C77.0532 57.4842 77.2696 57.2573 77.4829 57.0255C77.5809 56.9183 77.6789 56.811 77.775 56.7019C78.4562 55.9387 79.0916 55.136 79.678 54.2978C79.739 54.2116 79.8084 54.1317 79.8851 54.0592C79.9613 53.9894 80.0443 53.9274 80.1329 53.8743C80.2392 53.8086 80.3536 53.757 80.4732 53.7208C80.7363 53.6391 81.0167 53.6303 81.2844 53.6954C81.5522 53.7606 81.7972 53.8972 81.9933 54.0907C82.0614 54.155 82.1233 54.2256 82.1783 54.3015L82.3484 54.54C82.4058 54.6196 82.4612 54.6972 82.5204 54.7767C82.6351 54.9339 82.7534 55.0893 82.8718 55.2428C82.9901 55.3963 83.1103 55.5498 83.2416 55.7014C83.6115 56.1545 83.9814 56.5965 84.3808 57.0218C84.4788 57.1291 84.5768 57.2345 84.6767 57.3399C84.7766 57.4453 84.8783 57.5489 84.98 57.6524C85.1816 57.8596 85.3887 58.0611 85.5977 58.259C85.8763 58.5278 86.1611 58.7873 86.4521 59.0376C86.5963 59.1652 86.7443 59.291 86.8922 59.4075C87.0401 59.524 87.1881 59.6534 87.3379 59.7773L87.6208 59.9992C88.0961 60.3691 88.5825 60.7205 89.0818 61.0534C89.2797 61.1865 89.4813 61.3178 89.6847 61.4454C89.8326 61.5416 89.9824 61.6303 90.1341 61.7247L90.1859 61.7542C90.3449 61.8523 90.5076 61.9484 90.6704 62.039C90.8331 62.1297 91.0051 62.224 91.1734 62.3201C91.3417 62.4163 91.5118 62.5051 91.6838 62.5901C91.8558 62.6752 92.0111 62.7584 92.1776 62.8361C92.1864 62.8428 92.1965 62.8479 92.2072 62.8509C92.3588 62.9267 92.5104 62.9988 92.6639 63.0691L92.7324 63.1006C92.8914 63.1745 93.0505 63.2466 93.2132 63.3169L93.2539 63.3336C93.4277 63.4094 93.6015 63.4834 93.7772 63.5536C93.9529 63.6239 94.0898 63.6812 94.2488 63.7386C94.2803 63.7534 94.3135 63.7645 94.3468 63.7774C94.4615 63.8218 94.5761 63.8643 94.6927 63.905C94.7666 63.9346 94.8424 63.9605 94.9183 63.9882C94.9941 64.016 95.1032 64.0511 95.1864 64.0788L95.5008 64.1861C95.6672 64.2416 95.8355 64.2952 96.0057 64.3451C96.0932 64.3735 96.1801 64.3994 96.2664 64.4228C96.3897 64.461 96.5173 64.498 96.6492 64.5338L96.7583 64.5634L97.0746 64.6484L97.1504 64.6669L97.2429 64.691C97.8189 64.8359 98.4206 64.8468 99.0016 64.7227C99.5825 64.5986 100.127 64.3429 100.594 63.9753C101.239 63.4768 101.718 62.7938 101.966 62.0169C101.983 61.9669 101.997 61.9151 102.012 61.8634C102.027 61.8116 102.042 61.7524 102.055 61.6969C102.056 61.6933 102.056 61.6895 102.055 61.6858C102.071 61.6137 102.086 61.5416 102.099 61.4676C102.112 61.3936 102.123 61.3197 102.132 61.2438C102.149 61.0891 102.158 60.9335 102.158 60.7778V46.4585C102.156 44.9534 101.558 43.5104 100.493 42.4461C99.429 41.3818 97.9861 40.783 96.4809 40.7811C96.0758 40.7811 95.6873 40.6201 95.4008 40.3337C95.1143 40.0472 94.9534 39.6587 94.9534 39.2535C94.9534 38.8484 95.1143 38.4599 95.4008 38.1734C95.6873 37.8869 96.0758 37.726 96.4809 37.726C100.648 37.7196 104.643 36.0615 107.589 33.1149C110.536 30.1684 112.194 26.1738 112.2 22.0067V7.39709C112.2 6.81556 112.074 6.24098 111.829 5.71358C111.584 5.18618 111.226 4.7187 110.782 4.34385C110.349 3.97539 109.841 3.70626 109.294 3.55544C108.746 3.40463 108.172 3.37579 107.612 3.47097C107.242 3.53385 106.872 3.60289 106.502 3.6781L106.133 3.75392L105.763 3.83529L105.694 3.85008C105.472 3.90001 105.25 3.9518 105.03 4.00728L104.381 4.17371C97.3963 6.02246 91.122 9.91365 86.3614 15.3492C85.5598 16.2671 84.8067 17.2264 84.1053 18.223C84.0664 18.273 84.0313 18.3229 83.9962 18.3747L83.9518 18.4357L83.7576 18.7038L81.997 15.9761L82.0895 15.8503C82.8681 14.8018 83.7058 13.7791 84.5842 12.8138L84.612 12.7823C89.7936 7.09471 96.522 3.04247 103.973 1.12233C104.213 1.06131 104.455 1.00213 104.697 0.937402C104.94 0.872676 105.204 0.820893 105.459 0.765413C106.001 0.648906 106.549 0.545345 107.102 0.451029C107.198 0.434385 107.287 0.421441 107.392 0.408495L107.608 0.384453C107.681 0.377056 107.753 0.371509 107.825 0.36781H107.956C108.067 0.36781 108.176 0.36781 108.285 0.36781H108.337C108.394 0.36781 108.452 0.36781 108.509 0.36781C108.566 0.36781 108.657 0.36781 108.731 0.378906C108.877 0.378906 109.025 0.402948 109.171 0.42329C109.247 0.42329 109.321 0.443632 109.397 0.456577C109.582 0.488015 109.766 0.526852 109.951 0.573085C110.136 0.619318 110.321 0.672948 110.495 0.733975C110.639 0.783907 110.78 0.83569 110.92 0.894868C111.105 0.974389 111.29 1.05946 111.475 1.15377C111.932 1.39144 112.36 1.67925 112.753 2.01186C113.538 2.67265 114.169 3.49737 114.601 4.42805C115.034 5.35872 115.257 6.37277 115.255 7.39893V22.0086C115.237 25.9815 113.967 29.8476 111.626 33.0578C109.285 36.268 105.993 38.6591 102.216 39.8915C103.157 40.7084 103.911 41.7184 104.427 42.8529C104.943 43.9873 105.209 45.2196 105.206 46.4659V60.7945C105.206 61.1354 105.182 61.4759 105.134 61.8134C105.104 62.0113 105.069 62.2073 105.025 62.4015C105.01 62.4699 104.992 62.5384 104.975 62.6049C104.925 62.7899 104.868 62.9748 104.801 63.1597C104.802 63.164 104.802 63.1684 104.801 63.1727C104.746 63.328 104.685 63.4815 104.616 63.6313C103.945 65.1377 102.773 66.3646 101.298 67.1025C99.8236 67.8405 98.1386 68.0437 96.5309 67.6776L96.4902 67.6684H96.4791L96.1999 67.5981L95.9225 67.5223C95.7375 67.4705 95.5526 67.4169 95.3677 67.3614C95.1827 67.3059 94.9978 67.2486 94.8129 67.1894L94.2581 67.0045H94.2433C94.0583 66.9416 93.8734 66.88 93.6885 66.8195C93.5183 66.7585 93.3482 66.6938 93.1799 66.6346L93.1207 66.6124C92.9358 66.544 92.7694 66.4737 92.5955 66.4016C92.4716 66.3517 92.3477 66.2999 92.2257 66.2463C92.1313 66.2074 92.0407 66.1667 91.9445 66.1242L91.8854 66.0983C91.7226 66.028 91.5617 65.9541 91.4008 65.8801H91.3842L90.8738 65.636C90.7 65.5528 90.528 65.4658 90.356 65.3771C90.184 65.2883 90.012 65.1921 89.8419 65.1071C89.6717 65.022 89.5016 64.9221 89.3333 64.8278C88.4497 64.3282 87.5917 63.7844 86.7628 63.1986C86.4866 63.0025 86.2135 62.8022 85.9435 62.5975C85.827 62.5088 85.7123 62.4126 85.5995 62.3312C85.3702 62.1463 85.1446 61.9706 84.9208 61.7764L84.5879 61.4953C84.1737 61.1378 83.7699 60.7679 83.3766 60.3857C83.2453 60.26 83.1159 60.1324 82.9864 60.0048C82.857 59.8772 82.7793 59.7995 82.6794 59.6941C82.0704 59.069 81.4891 58.4162 80.9355 57.7357C80.382 58.4162 79.8007 59.069 79.1916 59.6941L78.8846 60.0048C78.7552 60.1324 78.6257 60.26 78.4944 60.3857C78.1011 60.763 77.6974 61.1329 77.2831 61.4953L76.9502 61.7764C76.7265 61.9614 76.5009 62.1463 76.2715 62.3312C76.1587 62.4219 76.0441 62.5162 75.9276 62.5975C75.4652 62.9489 74.993 63.2867 74.511 63.611L74.0265 63.929C73.8637 64.0345 73.701 64.1362 73.5364 64.2379C73.3718 64.3396 73.2054 64.4395 73.0389 64.5375C72.8725 64.6355 72.7042 64.7335 72.5359 64.8278L72.1272 65.0534C71.9238 65.1644 71.7204 65.2717 71.5151 65.3771C71.3486 65.4621 71.1803 65.5472 71.0121 65.6286L70.9899 65.6397C70.8382 65.7155 70.6847 65.7876 70.5312 65.8579L70.461 65.8912C70.3038 65.9652 70.1447 66.0373 69.9857 66.1057L69.9265 66.1316C69.834 66.1741 69.7416 66.2148 69.6454 66.2536C69.5234 66.3073 69.3995 66.3591 69.2756 66.409C69.1017 66.4811 68.926 66.5514 68.7503 66.6198L68.6912 66.642C68.5229 66.7067 68.3527 66.7715 68.1826 66.8269C68.0125 66.8824 67.8238 66.9564 67.6426 67.0119L67.5908 67.0304L67.0749 67.2005C66.8899 67.2597 66.705 67.3152 66.5201 67.3706C66.3351 67.4261 66.1502 67.4798 65.9653 67.5315C65.7803 67.5833 65.6102 67.6277 65.4308 67.6721L65.3568 67.6906C64.3307 67.9261 63.2651 67.9305 62.2371 67.7034C61.2091 67.4763 60.2445 67.0234 59.4131 66.3775C58.2335 65.4692 57.3729 64.2097 56.9554 62.7806C56.9295 62.6863 56.9036 62.5957 56.8795 62.494C56.8259 62.2739 56.7834 62.0501 56.7501 61.8245C56.7018 61.4864 56.6777 61.1453 56.678 60.8037V46.4585C56.6755 45.2121 56.9415 43.9798 57.4578 42.8453C57.9741 41.7109 58.7287 40.7009 59.6702 39.8841C55.8889 38.6552 52.5913 36.2654 50.2463 33.0545C47.9014 29.8437 46.6284 25.9753 46.6084 21.9993V7.38969C46.6078 6.36351 46.8317 5.34961 47.2642 4.41903C47.6967 3.48846 48.3275 2.66373 49.1124 2.00261C49.5051 1.67 49.9338 1.3822 50.3903 1.14453C50.5752 1.05021 50.7601 0.959594 50.9451 0.885621C51.0856 0.826443 51.2262 0.774663 51.3704 0.724731C51.5504 0.66432 51.7316 0.610687 51.9141 0.563838C52.0966 0.516988 52.2815 0.478155 52.4689 0.447332C52.5447 0.436237 52.6187 0.42329 52.6945 0.414043L52.6927 0.42329Z" fill="#4B008C"/>
<path d="M77.2794 61.4714C77.6937 61.1139 78.0974 60.744 78.4907 60.3618C78.0987 60.7403 77.6949 61.1102 77.2794 61.4714Z" fill="#4B008C"/>
<path d="M76.5063 58.0444L76.6746 57.8779C76.621 57.9334 76.5637 57.9889 76.5063 58.0444Z" fill="#4B008C"/>
<path d="M75.9958 58.529C76.1678 58.3699 76.338 58.209 76.5063 58.0444C76.338 58.209 76.1678 58.3699 75.9958 58.529Z" fill="#4B008C"/>
<path d="M75.4725 59.0004C75.6482 58.845 75.8221 58.6879 75.9959 58.5288C75.8239 58.6897 75.6482 58.8469 75.4725 59.0004Z" fill="#4B008C"/>
<path d="M74.9381 59.4573C75.123 59.3056 75.2969 59.154 75.4726 59.0005C75.2876 59.1558 75.1193 59.3075 74.9381 59.4573Z" fill="#4B008C"/>
<path d="M74.3927 59.899C74.5776 59.7529 74.7626 59.605 74.9364 59.457C74.7515 59.6087 74.5665 59.7548 74.3927 59.899Z" fill="#4B008C"/>
<path d="M74.5072 63.5794C74.9893 63.2539 75.4614 62.9161 75.9238 62.5659C75.4614 62.9185 74.9893 63.2563 74.5072 63.5794Z" fill="#4B008C"/>
<path d="M73.2645 60.737C73.5518 60.5336 73.8347 60.3258 74.1134 60.1138C73.8347 60.3283 73.5518 60.536 73.2645 60.737Z" fill="#4B008C"/>
<path d="M70.1891 62.5991L70.6977 62.3291C70.5294 62.4216 70.3592 62.514 70.1891 62.5991Z" fill="#4B008C"/>
<path d="M69.6731 62.8562C69.8469 62.773 70.0189 62.686 70.1891 62.5991C70.0171 62.6879 69.8469 62.7841 69.6731 62.8562Z" fill="#4B008C"/>
<path d="M69.196 63.0839C69.3576 63.0099 69.5166 62.9341 69.6732 62.8564C69.5141 62.9366 69.3551 63.0124 69.196 63.0839Z" fill="#4B008C"/>
<path d="M57.4806 4.17529C64.4663 6.02359 70.7413 9.91483 75.5022 15.3508C76.3039 16.2687 77.057 17.228 77.7584 18.2246C76.9651 17.1464 75.8573 15.7909 74.9992 14.8459C70.3008 9.68625 64.2207 5.98289 57.4806 4.17529Z" fill="#4B008C"/>
<path d="M65.9541 67.5132C65.8284 67.5502 65.7008 67.5835 65.5732 67.6167L65.4197 67.6537C65.6046 67.6094 65.7766 67.5631 65.9541 67.5132Z" fill="#4B008C"/>
<path d="M65.0294 64.5967L64.7945 64.6596L64.7372 64.6725L65.0294 64.5967Z" fill="#4B008C"/>
<path d="M61.2604 63.942C61.7455 64.3223 62.3111 64.5867 62.914 64.7149C63.5169 64.8431 64.1412 64.8317 64.739 64.6817L64.6299 64.7113C64.0523 64.8542 63.4496 64.8625 62.8682 64.7356C62.2869 64.6086 61.7425 64.3497 61.2771 63.9789C60.6327 63.4798 60.1548 62.7969 59.9067 62.0205C60.1558 62.7799 60.6274 63.4468 61.2604 63.9346" fill="#4B008C"/>
<path d="M59.3927 66.3591C60.2241 67.005 61.1887 67.4579 62.2167 67.685C63.2447 67.9121 64.3103 67.9077 65.3364 67.6722C64.7921 67.8081 64.2331 67.8764 63.672 67.8756C62.1217 67.8766 60.6162 67.3554 59.3983 66.3961C58.2122 65.4766 57.349 64.2041 56.9331 62.7622C57.3507 64.1913 58.2113 65.4508 59.3909 66.3591" fill="#4B008C"/>
<path d="M51.9104 0.573051C52.0953 0.527435 52.2803 0.488598 52.4652 0.456543C52.2803 0.488598 52.0953 0.527435 51.9104 0.573051Z" fill="#4B008C"/>
<path d="M50.9394 0.894531C50.7545 0.974052 50.5696 1.05912 50.3846 1.15344C50.5696 1.05727 50.7545 0.968504 50.9394 0.894531Z" fill="#4B008C"/>
</svg>
