<svg width="164" height="107" viewBox="0 0 164 107" fill="none" xmlns="http://www.w3.org/2000/svg">
<path d="M80.4191 20.0768C80.9685 19.0684 81.5599 18.0879 82.1933 17.1353C82.8243 18.0892 83.4151 19.0703 83.9657 20.0786C84.2886 20.6713 84.5979 21.2714 84.8936 21.8788C85.1967 22.5086 85.4813 23.1513 85.7473 23.8071C86.2113 24.9855 86.6882 26.3088 86.9852 27.259C87.0421 27.4446 87.0978 27.6302 87.1522 27.8157C87.2506 28.1424 87.3378 28.4727 87.4306 28.8031C87.4844 29.0035 87.5364 29.2058 87.5865 29.4081C87.6366 29.6104 87.6756 29.7681 87.7182 29.95C87.7535 30.1003 87.7888 30.2506 87.8203 30.401C87.8327 30.4492 87.8438 30.4975 87.8537 30.5457L87.9539 31.0208C87.9873 31.1786 88.017 31.3382 88.0486 31.4978C88.0801 31.6574 88.1098 31.8151 88.1377 31.9747C88.1655 32.1343 88.1878 32.2512 88.21 32.3886C88.2422 32.568 88.2719 32.7499 88.2991 32.9342C88.3158 33.0344 88.3307 33.1365 88.3455 33.2386C88.3548 33.298 88.3641 33.3573 88.3715 33.4242L88.3938 33.5875C88.3948 33.6073 88.3948 33.6271 88.3938 33.6469C88.4068 33.7341 88.4179 33.8195 88.429 33.9067C88.4347 33.9367 88.4384 33.9671 88.4402 33.9976C88.4531 34.083 88.4624 34.1684 88.4717 34.2556C88.4717 34.2556 88.4717 34.2723 88.4717 34.2816C88.4717 34.2908 88.4717 34.3317 88.481 34.3558C88.482 34.3675 88.482 34.3793 88.481 34.3911C88.4958 34.5154 88.5088 34.6379 88.5218 34.7622C88.5348 34.8866 88.5478 35.0109 88.5589 35.1334C88.5701 35.2559 88.5831 35.3672 88.5942 35.4842C88.5951 35.4922 88.5951 35.5003 88.5942 35.5083C88.6109 35.6809 88.6257 35.8535 88.6387 36.0279C88.6759 36.5228 88.7037 37.022 88.7223 37.5256C88.7315 37.7669 88.739 38.0081 88.7445 38.2512V38.2995C88.7445 38.5371 88.7445 38.7746 88.7445 39.0122V39.0307C88.7445 39.0493 88.7445 39.0678 88.7445 39.0864C88.7223 39.4705 88.5599 39.833 88.288 40.1053C88.091 40.305 87.8433 40.4474 87.5716 40.5173C87.5473 40.5246 87.5225 40.5302 87.4974 40.534C87.451 40.5432 87.4027 40.5507 87.3545 40.5562C87.3013 40.559 87.248 40.559 87.1949 40.5562H77.1695C77.1163 40.559 77.0631 40.559 77.0099 40.5562C76.9617 40.5562 76.9134 40.5432 76.867 40.534L76.7928 40.5173C76.5211 40.4474 76.2734 40.305 76.0764 40.1053C75.8045 39.833 75.6421 39.4705 75.6199 39.0864C75.6199 39.0623 75.6199 39.0381 75.6199 39.0122C75.6199 38.7746 75.6199 38.5371 75.6199 38.2995V38.2512C75.6199 38.0081 75.6329 37.7669 75.6421 37.5256C75.6607 37.0245 75.6885 36.5253 75.7257 36.0279C75.7442 35.7774 75.7646 35.5306 75.7888 35.2856C75.8351 34.7882 75.8908 34.2945 75.9558 33.8009C75.9781 33.6264 76.004 33.4538 76.03 33.2813C76.056 33.1068 76.082 32.9342 76.1098 32.7616C76.1376 32.589 76.1655 32.4201 76.1952 32.2494C76.2137 32.138 76.2342 32.0267 76.2564 31.9172L76.2787 31.7928C76.288 31.7465 76.2954 31.7019 76.3047 31.6555C76.3232 31.5553 76.3418 31.4551 76.3622 31.3549C76.3622 31.3215 76.3752 31.2862 76.3826 31.2528C76.403 31.1452 76.4253 31.0375 76.4476 30.9299C76.4699 30.8222 76.4828 30.7628 76.5014 30.6775C76.5831 30.2952 76.6721 29.9147 76.7649 29.5343L76.9097 28.9645L76.932 28.8791C76.9747 28.7177 77.0192 28.5581 77.0637 28.3985C77.1083 28.2389 77.1639 28.0459 77.2141 27.8696C77.2642 27.6933 77.3347 27.4687 77.3996 27.2701C77.6892 26.3422 78.1531 25.0431 78.6078 23.8869C78.6068 23.882 78.6068 23.8769 78.6078 23.872C78.8849 23.2002 79.18 22.5389 79.4931 21.8881C79.7838 21.2794 80.0931 20.6793 80.421 20.0879L80.4191 20.0768ZM80.6715 35.2448C80.6715 34.8517 80.8225 34.4736 81.0932 34.1886C81.364 33.9037 81.7339 33.7337 82.1265 33.7137H82.2639C82.6563 33.7341 83.0259 33.9043 83.2966 34.1891C83.5673 34.474 83.7184 34.8518 83.7188 35.2448V37.4848H85.6731C85.6564 37.0783 85.6322 36.6701 85.6025 36.2655C85.5896 36.1059 85.5766 35.9444 85.5617 35.7848C85.532 35.4371 85.4968 35.0907 85.4559 34.7455C85.443 34.6305 85.4281 34.5135 85.4132 34.3985C85.391 34.2178 85.3669 34.0378 85.3409 33.8584C85.326 33.7452 85.3093 33.6339 85.2926 33.5225C85.2759 33.4112 85.2648 33.3369 85.2499 33.2516C85.2314 33.1254 85.211 32.9973 85.1868 32.8711C85.1627 32.7449 85.1442 32.6187 85.12 32.4999C85.0773 32.2457 85.0272 31.9933 84.9753 31.7427C84.9511 31.6165 84.9252 31.4903 84.8973 31.3716C84.8472 31.1303 84.7934 30.8909 84.7359 30.6515C84.6987 30.4937 84.6616 30.3379 84.6208 30.182C84.567 29.9537 84.5076 29.7291 84.4352 29.5027C84.4037 29.3784 84.3703 29.2559 84.3331 29.1315C84.2441 28.8123 84.15 28.4937 84.0511 28.1758C84.0139 28.0551 83.975 27.9345 83.936 27.8139C83.8599 27.5726 83.7782 27.3314 83.6947 27.092C83.5908 26.7913 83.4825 26.4913 83.37 26.1919C83.2475 25.8578 83.1157 25.5256 82.9802 25.1971C82.7328 24.5785 82.468 23.9741 82.1859 23.3839C81.9038 23.9791 81.639 24.5834 81.3916 25.1971C81.2561 25.5256 81.1244 25.8578 81.0019 26.1919C80.888 26.4913 80.7798 26.7913 80.6771 27.092C80.5936 27.3314 80.5119 27.5726 80.4358 27.8139C80.2948 28.2519 80.163 28.6898 80.0387 29.1315C80.0016 29.2559 79.9682 29.3784 79.9366 29.5027C79.8735 29.7291 79.8141 29.9537 79.751 30.182C79.7121 30.3379 79.6749 30.4937 79.6359 30.6515C79.5784 30.8909 79.5246 31.1303 79.4745 31.3716C79.4467 31.4959 79.4207 31.6221 79.3965 31.7427C79.3446 31.9933 79.2945 32.2457 79.2518 32.4999C79.2283 32.6237 79.206 32.7474 79.185 32.8711C79.1627 32.9992 79.1423 33.1254 79.1219 33.2516C79.107 33.3425 79.0922 33.4371 79.0792 33.5225C79.0662 33.6079 79.0458 33.7452 79.0309 33.8584C79.005 34.0391 78.9808 34.2191 78.9586 34.3985C78.9437 34.5135 78.9289 34.6305 78.9159 34.7455C78.8751 35.0907 78.8398 35.4371 78.8101 35.7848C78.7953 35.9444 78.7823 36.1059 78.7693 36.2655C78.7396 36.6713 78.7161 37.0777 78.6987 37.4848H80.653L80.6715 35.2448Z" fill="#099DBA"/>
<path d="M53.8524 0.0577712C54.4444 -0.0192571 55.0439 -0.0192571 55.6359 0.0577712C55.7324 0.0707623 55.8307 0.0837525 55.9272 0.100455C56.4803 0.193248 57.0296 0.298413 57.5752 0.415951C57.8313 0.471627 58.0874 0.52916 58.3417 0.588548C58.5959 0.647935 58.8279 0.705467 59.0692 0.774134C66.5461 2.70106 73.2983 6.76762 78.4982 12.4753L78.526 12.5069C79.4104 13.4802 80.2453 14.4972 81.0277 15.5542L81.1224 15.6804L79.3556 18.4178L79.1607 18.1487L79.1162 18.0875L79.0067 17.9353C78.3028 16.9351 77.5471 15.9725 76.7426 15.0513C71.9648 9.59613 65.6676 5.69114 58.6572 3.83631C58.4407 3.77816 58.2235 3.72248 58.0058 3.66928C57.7849 3.6136 57.5622 3.56164 57.3395 3.51153L57.2709 3.49668L56.8997 3.41503L56.5285 3.33894C56.1573 3.26285 55.7862 3.19418 55.415 3.13108C54.8533 3.03584 54.2775 3.06492 53.7282 3.21626C53.179 3.36761 52.6696 3.63754 52.2359 4.00704C51.7897 4.38321 51.4312 4.85235 51.1853 5.38161C50.9394 5.91088 50.8122 6.48748 50.8125 7.07107V21.7324C50.8188 25.9142 52.4829 29.9228 55.4398 32.8798C58.3968 35.8368 62.4055 37.5008 66.5873 37.5072C66.9938 37.5072 67.3838 37.6687 67.6712 37.9562C67.9587 38.2437 68.1202 38.6336 68.1202 39.0401C68.1202 39.4467 67.9587 39.8366 67.6712 40.1241C67.3838 40.4116 66.9938 40.5731 66.5873 40.5731C65.0767 40.5746 63.6283 41.1753 62.5602 42.2435C61.492 43.3116 60.8913 44.76 60.8898 46.2706V60.6479C60.89 60.8048 60.8987 60.9616 60.9158 61.1175C60.925 61.1917 60.9362 61.2678 60.9492 61.342C60.9622 61.4144 60.977 61.4886 60.9937 61.561C60.9937 61.561 60.9937 61.561 60.9937 61.5722C61.0067 61.6278 61.0216 61.6835 61.0364 61.7392C61.0513 61.7949 61.0661 61.8413 61.0828 61.8932C61.3379 62.6662 61.8205 63.344 62.4673 63.8382C62.9358 64.2074 63.4827 64.4641 64.0661 64.5887C64.6494 64.7132 65.2536 64.7021 65.832 64.5564L65.9414 64.5267L65.999 64.5137L66.2347 64.4506L66.4537 64.3912L66.758 64.304L67.1088 64.1982L67.17 64.1797C67.3185 64.1351 67.467 64.0869 67.6136 64.0386L67.814 63.9699C67.9402 63.9291 68.0664 63.8846 68.1852 63.84L68.3337 63.7862C68.4673 63.7398 68.599 63.6897 68.7308 63.6396L68.8292 63.6006C68.9869 63.5412 69.1465 63.4781 69.3024 63.415C69.4583 63.3519 69.6606 63.2684 69.8369 63.1905C70.0132 63.1125 70.1821 63.0383 70.3547 62.9604L70.4085 62.9344C70.5681 62.8626 70.7277 62.7865 70.8873 62.7061C71.0618 62.6244 71.2325 62.5372 71.4051 62.4481C71.5777 62.3591 71.7466 62.2625 71.9155 62.1772C72.0843 62.0918 72.2532 61.9916 72.4203 61.8951C72.5873 61.7986 72.7543 61.7095 72.9176 61.6037L73.3185 61.3587C73.7175 61.1082 74.1072 60.8484 74.4914 60.5793C74.7797 60.3776 75.0636 60.1691 75.3432 59.9539L75.6235 59.7386C75.8091 59.5938 75.9946 59.4472 76.1691 59.295C76.3547 59.1447 76.5291 58.9925 76.7054 58.8366C76.8818 58.6807 77.0581 58.5248 77.2307 58.3634C77.4033 58.2019 77.574 58.0423 77.7429 57.8771C77.8004 57.8215 77.8579 57.7658 77.9118 57.7101L78.0788 57.5431C78.299 57.3204 78.5162 57.0927 78.7302 56.8601C78.8286 56.7525 78.9269 56.6449 79.0234 56.5354C79.707 55.7695 80.3447 54.9639 80.9331 54.1227C80.9943 54.0363 81.0639 53.9561 81.141 53.8833C81.2174 53.8133 81.3007 53.7511 81.3896 53.6977C81.4963 53.6318 81.6111 53.5801 81.7311 53.5437C81.9952 53.4617 82.2766 53.4529 82.5452 53.5183C82.8139 53.5836 83.0598 53.7207 83.2566 53.9149C83.325 53.9795 83.3871 54.0503 83.4422 54.1264L83.613 54.3659C83.6705 54.4457 83.7262 54.5236 83.7856 54.6034C83.9006 54.7612 84.0194 54.917 84.1382 55.0711C84.2569 55.2251 84.3776 55.3792 84.5093 55.5313C84.8805 55.986 85.2517 56.4296 85.6526 56.8564C85.7509 56.9641 85.8493 57.0698 85.9495 57.1756C86.0497 57.2814 86.1518 57.3853 86.2539 57.4893C86.4561 57.6971 86.664 57.8994 86.8737 58.098C87.1533 58.3677 87.4391 58.6282 87.7311 58.8793C87.8759 59.0074 88.0243 59.1336 88.1728 59.2505C88.3213 59.3674 88.4698 59.4973 88.6201 59.6217L88.904 59.8444C89.381 60.2155 89.8691 60.5681 90.3702 60.9022C90.5687 61.0358 90.771 61.1676 90.9752 61.2956C91.1236 61.3921 91.274 61.4812 91.4261 61.5759L91.4781 61.6056C91.6377 61.7039 91.801 61.8004 91.9643 61.8914C92.1277 61.9823 92.3003 62.077 92.4691 62.1735C92.638 62.27 92.8088 62.359 92.9814 62.4444C93.1539 62.5298 93.3098 62.6133 93.4769 62.6912C93.4857 62.698 93.4958 62.7031 93.5066 62.7061C93.6587 62.7822 93.8109 62.8546 93.965 62.9251L94.0336 62.9566C94.1932 63.0309 94.3528 63.1032 94.5162 63.1738L94.557 63.1905C94.7314 63.2666 94.9059 63.3408 95.0822 63.4113C95.2585 63.4818 95.3958 63.5394 95.5554 63.5969C95.587 63.6118 95.6204 63.6229 95.6538 63.6359C95.7689 63.6804 95.8839 63.7231 96.0008 63.7639C96.0751 63.7936 96.1512 63.8196 96.2273 63.8474C96.3033 63.8753 96.4128 63.9105 96.4963 63.9384L96.8119 64.046C96.9789 64.1017 97.1478 64.1555 97.3185 64.2056C97.4063 64.2341 97.4936 64.2601 97.5802 64.2836C97.7039 64.3219 97.832 64.359 97.9643 64.3949L98.0738 64.4246L98.3912 64.51L98.4673 64.5285L98.5601 64.5527C99.1382 64.6981 99.742 64.709 100.325 64.5845C100.908 64.46 101.455 64.2034 101.923 63.8345C102.571 63.3343 103.051 62.6488 103.3 61.8691C103.317 61.819 103.331 61.767 103.346 61.7151C103.361 61.6631 103.376 61.6037 103.389 61.548C103.39 61.5444 103.39 61.5406 103.389 61.5369C103.406 61.4645 103.421 61.3921 103.434 61.3179C103.447 61.2437 103.458 61.1694 103.467 61.0934C103.484 60.938 103.493 60.7819 103.493 60.6257V46.2557C103.491 44.7453 102.89 43.2972 101.822 42.2292C100.754 41.1611 99.3059 40.5602 97.7954 40.5582C97.3889 40.5582 96.999 40.3967 96.7115 40.1093C96.424 39.8218 96.2625 39.4319 96.2625 39.0253C96.2625 38.6187 96.424 38.2288 96.7115 37.9413C96.999 37.6539 97.3889 37.4924 97.7954 37.4924C101.977 37.486 105.986 35.8219 108.943 32.865C111.9 29.908 113.564 25.8993 113.57 21.7175V7.05623C113.571 6.47264 113.443 5.89603 113.197 5.36676C112.952 4.8375 112.593 4.36837 112.147 3.9922C111.713 3.62243 111.203 3.35235 110.654 3.201C110.104 3.04965 109.528 3.02071 108.966 3.11623C108.595 3.17933 108.224 3.24861 107.852 3.32409L107.481 3.40018L107.11 3.48184L107.041 3.49668C106.819 3.54679 106.596 3.59875 106.375 3.65443L105.724 3.82146C98.7141 5.67673 92.4175 9.58169 87.6402 15.0364C86.8357 15.9576 86.0799 16.9203 85.376 17.9204C85.3371 17.9705 85.3018 18.0207 85.2665 18.0726L85.222 18.1339L85.0271 18.403L83.2603 15.6656L83.3531 15.5394C84.1345 14.4871 84.9752 13.4608 85.8567 12.492L85.8845 12.4605C91.0844 6.75278 97.8367 2.68622 105.314 0.759287C105.555 0.698043 105.798 0.638656 106.041 0.573701C106.284 0.508745 106.55 0.45678 106.806 0.401104C107.349 0.284185 107.899 0.180257 108.454 0.085608C108.55 0.0689053 108.639 0.055915 108.745 0.042924L108.962 0.0187969C109.035 0.0113734 109.108 0.00580654 109.179 0.00209482H109.311C109.422 0.00209482 109.532 0.00209482 109.641 0.00209482H109.693C109.751 0.00209482 109.808 0.00209482 109.866 0.00209482C109.924 0.00209482 110.014 0.00209437 110.089 0.0132295C110.235 0.0132295 110.384 0.0373568 110.53 0.0577712C110.606 0.0577712 110.681 0.0781844 110.757 0.0911754C110.942 0.122725 111.128 0.161699 111.314 0.208096C111.499 0.254492 111.685 0.308311 111.859 0.369555C112.004 0.419663 112.145 0.471629 112.286 0.531017C112.472 0.610819 112.657 0.696187 112.843 0.790836C113.301 1.02935 113.731 1.31817 114.125 1.65196C114.913 2.31509 115.546 3.14272 115.98 4.07669C116.414 5.01065 116.638 6.02829 116.636 7.05808V21.7194C116.618 25.7064 115.343 29.5861 112.994 32.8077C110.645 36.0292 107.341 38.4288 103.55 39.6656C104.495 40.4853 105.252 41.4989 105.77 42.6374C106.288 43.7758 106.554 45.0125 106.551 46.2632V60.6424C106.552 60.9845 106.528 61.3263 106.479 61.665C106.449 61.8635 106.414 62.0602 106.37 62.2551C106.355 62.3238 106.336 62.3925 106.319 62.4593C106.269 62.6449 106.212 62.8304 106.145 63.016C106.146 63.0203 106.146 63.0247 106.145 63.029C106.089 63.1849 106.028 63.3389 105.959 63.4893C105.286 65.001 104.11 66.2322 102.63 66.9727C101.15 67.7133 99.459 67.9173 97.8456 67.5499L97.8047 67.5406H97.7936L97.5134 67.4701L97.235 67.394C97.0494 67.342 96.8638 67.2882 96.6782 67.2325C96.4927 67.1769 96.3071 67.1193 96.1215 67.0599L95.5647 66.8744H95.5499C95.3643 66.8113 95.1787 66.7494 94.9931 66.6888C94.8224 66.6275 94.6516 66.5626 94.4827 66.5032L94.4234 66.4809C94.2378 66.4122 94.0707 66.3417 93.8963 66.2693C93.7719 66.2192 93.6476 66.1673 93.5251 66.1135C93.4305 66.0745 93.3395 66.0337 93.243 65.991L93.1836 65.965C93.0203 65.8945 92.8589 65.8202 92.6974 65.746H92.6807L92.1685 65.501C91.994 65.4175 91.8214 65.3303 91.6488 65.2412C91.4762 65.1521 91.3036 65.0556 91.1329 64.9702C90.9622 64.8849 90.7914 64.7847 90.6225 64.69C89.7358 64.1886 88.8748 63.6429 88.0429 63.055C87.7658 62.8583 87.4917 62.6572 87.2208 62.4518C87.1038 62.3628 86.9888 62.2663 86.8756 62.1846C86.6454 61.999 86.419 61.8227 86.1945 61.6278L85.8604 61.3457C85.4447 60.9869 85.0395 60.6158 84.6448 60.2322C84.5131 60.106 84.3831 59.978 84.2532 59.8499C84.1233 59.7219 84.0454 59.6439 83.9452 59.5381C83.334 58.9109 82.7506 58.2557 82.1951 57.5728C81.6396 58.2557 81.0562 58.9109 80.445 59.5381L80.1369 59.8499C80.007 59.978 79.8771 60.106 79.7453 60.2322C79.3507 60.6108 78.9455 60.982 78.5298 61.3457L78.1957 61.6278C77.9711 61.8134 77.7447 61.999 77.5146 62.1846C77.4014 62.2755 77.2863 62.3702 77.1694 62.4518C76.7054 62.8045 76.2316 63.1435 75.7478 63.4689L75.2616 63.7881C75.0983 63.8938 74.935 63.9959 74.7698 64.098C74.6046 64.2001 74.4376 64.3003 74.2706 64.3986C74.1035 64.497 73.9346 64.5954 73.7658 64.69L73.3556 64.9164C73.1515 65.0278 72.9473 65.1354 72.7413 65.2412C72.5743 65.3266 72.4054 65.4119 72.2365 65.4936L72.2143 65.5047C72.0621 65.5808 71.908 65.6532 71.754 65.7237L71.6835 65.7571C71.5257 65.8314 71.3661 65.9037 71.2065 65.9724L71.1471 65.9984C71.0543 66.0411 70.9616 66.0819 70.8651 66.1209C70.7426 66.1747 70.6182 66.2267 70.4939 66.2768C70.3194 66.3492 70.1431 66.4197 69.9668 66.4883L69.9074 66.5106C69.7385 66.5756 69.5678 66.6405 69.3971 66.6962C69.2263 66.7519 69.037 66.8261 68.8552 66.8818L68.8032 66.9003L68.2854 67.0711C68.0998 67.1305 67.9142 67.1861 67.7286 67.2418C67.5431 67.2975 67.3575 67.3513 67.1719 67.4033C66.9863 67.4552 66.8156 67.4998 66.6355 67.5443L66.5613 67.5629C65.5316 67.7992 64.4622 67.8036 63.4306 67.5757C62.3989 67.3478 61.4309 66.8934 60.5966 66.2452C59.4128 65.3336 58.5492 64.0697 58.1301 62.6356C58.1041 62.5409 58.0782 62.45 58.054 62.3479C58.0002 62.1271 57.9575 61.9025 57.9241 61.6761C57.8756 61.3368 57.8514 60.9944 57.8518 60.6517V46.2557C57.8493 45.0049 58.1162 43.7682 58.6343 42.6298C59.1525 41.4913 59.9097 40.4778 60.8545 39.6581C57.0599 38.4249 53.7506 36.0266 51.3974 32.8044C49.0441 29.5822 47.7666 25.7001 47.7466 21.7101V7.0488C47.746 6.01899 47.9706 5.0015 48.4047 4.06764C48.8388 3.13378 49.4718 2.30613 50.2594 1.64268C50.6536 1.30889 51.0837 1.02007 51.5418 0.781556C51.7274 0.686907 51.913 0.595971 52.0986 0.521737C52.2396 0.462349 52.3807 0.410386 52.5254 0.360278C52.7061 0.299653 52.8879 0.245831 53.0711 0.198816C53.2542 0.151801 53.4397 0.112829 53.6278 0.0818983C53.7039 0.0707632 53.7781 0.0577707 53.8542 0.0484914L53.8524 0.0577712Z" fill="#9B2571"/>
<path d="M4.1561 98.9137C2.03299 96.85 0.971436 94.2623 0.971436 91.1506C0.971436 88.039 2.03299 85.4519 4.1561 83.3894C6.27921 81.3232 8.98443 80.2908 12.2718 80.292C15.9687 80.292 18.8056 81.5911 20.7828 84.1893C20.9516 84.4064 21.1113 84.6273 21.2634 84.8556C21.4691 85.167 21.5867 85.5283 21.6037 85.9011C21.6206 86.2739 21.5364 86.6444 21.3598 86.9732C21.1832 87.302 20.9209 87.5769 20.6007 87.7687C20.2805 87.9605 19.9144 88.062 19.5412 88.0625H19.3389C19.001 88.0576 18.6699 87.9677 18.376 87.801C18.0821 87.6342 17.835 87.3961 17.6575 87.1086C17.4551 86.7986 17.2239 86.5085 16.9671 86.2419C15.7299 85.0046 14.1648 84.386 12.2718 84.386C10.3528 84.386 8.77287 85.017 7.53191 86.279C6.29096 87.541 5.67234 89.1599 5.67605 91.1358C5.67605 93.1909 6.27735 94.8296 7.47994 96.052C8.68254 97.2744 10.2823 97.8862 12.2792 97.8874C14.2749 97.8874 15.879 97.2026 17.0915 95.833C17.3536 95.5259 17.589 95.1968 17.7948 94.8494C17.9727 94.533 18.2305 94.269 18.5426 94.0836C18.8546 93.8983 19.2099 93.7982 19.5727 93.7934H19.7045C20.0681 93.7918 20.4257 93.8865 20.7409 94.0679C21.0561 94.2493 21.3176 94.5108 21.499 94.826C21.6803 95.1412 21.775 95.4988 21.7734 95.8625C21.7718 96.2261 21.674 96.5828 21.4898 96.8964C21.2783 97.2453 21.0519 97.5793 20.8106 97.9023C18.6962 100.642 15.8505 102.011 12.2736 102.009C8.98629 102.009 6.28106 100.977 4.15796 98.9137" fill="#9B2571"/>
<path d="M25.3313 99.8419V88.0349C25.3313 87.616 25.4977 87.2143 25.7939 86.9181C26.0901 86.622 26.4918 86.4556 26.9106 86.4556H33.5491C35.0956 86.4556 36.2889 86.7983 37.129 87.4837C37.531 87.7947 37.8546 88.1956 38.0738 88.6542C38.2929 89.1128 38.4016 89.6164 38.391 90.1246C38.391 91.2592 37.9703 92.1494 37.129 92.7952C36.7677 93.075 36.3455 93.2657 35.8967 93.352V93.5004C36.4648 93.6168 37.0101 93.8249 37.5113 94.1166C38.5852 94.8799 39.1234 95.897 39.1259 97.1676C39.1381 97.7587 39.0111 98.3443 38.7551 98.8772C38.4991 99.4102 38.1214 99.8754 37.6524 100.235C36.6749 101.027 35.3053 101.423 33.5435 101.423H26.9106C26.4918 101.423 26.0901 101.257 25.7939 100.961C25.4977 100.664 25.3313 100.263 25.3313 99.8438V99.8419ZM29.4402 92.179H32.9663C33.1612 92.1888 33.356 92.1601 33.5398 92.0945C33.7235 92.0289 33.8925 91.9277 34.0372 91.7967C34.1622 91.6744 34.2615 91.5283 34.3293 91.367C34.3971 91.2058 34.4321 91.0326 34.4321 90.8577C34.4321 90.6827 34.3971 90.5096 34.3293 90.3483C34.2615 90.1871 34.1622 90.041 34.0372 89.9186C33.7433 89.6582 33.3583 89.5247 32.9663 89.5474H29.4402V92.179ZM29.4402 98.3424H33.2558C33.7219 98.3584 34.1755 98.1896 34.5178 97.8728C34.6753 97.7266 34.801 97.5494 34.8869 97.3524C34.9728 97.1553 35.0171 96.9427 35.0171 96.7278C35.0171 96.5128 34.9728 96.3002 34.8869 96.1032C34.801 95.9061 34.6753 95.729 34.5178 95.5827C34.1751 95.2666 33.7218 95.098 33.2558 95.1132H29.4402V98.3424Z" fill="#9B2571"/>
<path d="M43.0717 99.5597C42.3323 98.8223 41.7456 97.9463 41.3453 96.9819C40.9451 96.0174 40.739 94.9835 40.739 93.9392C40.739 92.895 40.9451 91.861 41.3453 90.8966C41.7456 89.9321 42.3323 89.0561 43.0717 88.3187C44.6269 86.7846 46.5397 86.0169 48.81 86.0156C51.1187 86.0156 52.9968 86.7988 54.5038 88.3039C55.9643 89.7663 56.4858 91.6649 56.664 93.0345C56.693 93.2575 56.6742 93.4842 56.6086 93.6993C56.5431 93.9145 56.4324 94.1132 56.284 94.2821C56.1356 94.4511 55.9528 94.5865 55.7479 94.6792C55.543 94.7719 55.3207 94.8199 55.0958 94.8198H44.9943C45.1392 95.7771 45.6051 96.6566 46.3157 97.3141C46.978 97.9739 47.8752 98.3437 48.81 98.3423C49.7754 98.3663 50.7192 98.0548 51.4806 97.4607C52.1345 96.8929 52.9715 96.5805 53.8375 96.581H53.8913C54.1975 96.5807 54.4974 96.6679 54.7556 96.8323C55.0139 96.9968 55.2197 97.2316 55.3488 97.5092C55.478 97.7868 55.525 98.0955 55.4845 98.399C55.4439 98.7025 55.3174 98.988 55.1199 99.2219C53.5536 100.984 51.4503 101.864 48.81 101.863C46.5397 101.863 44.6269 101.095 43.0717 99.5597ZM45.141 92.3218H52.3324C52.178 91.5436 51.7574 90.8435 51.1428 90.3416C50.4897 89.7971 49.66 89.51 48.81 89.5343C47.9584 89.5111 47.1263 89.7913 46.4623 90.3249C45.8269 90.8388 45.3655 91.5361 45.141 92.3218Z" fill="#9B2571"/>
<path d="M97.8345 99.5597C97.0951 98.8223 96.5084 97.9463 96.1082 96.9819C95.7079 96.0174 95.5018 94.9835 95.5018 93.9392C95.5018 92.895 95.7079 91.861 96.1082 90.8966C96.5084 89.9321 97.0951 89.0561 97.8345 88.3187C99.3897 86.7846 101.302 86.0169 103.573 86.0156C105.882 86.0156 107.76 86.7988 109.267 88.3039C110.727 89.7663 111.249 91.6649 111.427 93.0345C111.456 93.2575 111.437 93.4842 111.371 93.6993C111.306 93.9145 111.195 94.1132 111.047 94.2821C110.898 94.4511 110.716 94.5865 110.511 94.6792C110.306 94.7719 110.084 94.8199 109.859 94.8198H99.7572C99.902 95.7771 100.368 96.6566 101.079 97.3141C101.741 97.9739 102.638 98.3437 103.573 98.3423C104.538 98.3663 105.482 98.0548 106.243 97.4607C106.897 96.8929 107.734 96.5805 108.6 96.581H108.654C108.96 96.5807 109.26 96.6679 109.518 96.8323C109.777 96.9968 109.983 97.2316 110.112 97.5092C110.241 97.7868 110.288 98.0955 110.247 98.399C110.207 98.7025 110.08 98.988 109.883 99.2219C108.316 100.984 106.213 101.864 103.573 101.863C101.302 101.863 99.3897 101.095 97.8345 99.5597ZM99.9038 92.3218H107.095C106.941 91.5436 106.52 90.8435 105.906 90.3416C105.252 89.7974 104.423 89.5103 103.573 89.5343C102.721 89.5111 101.889 89.7913 101.225 90.3249C100.59 90.8388 100.128 91.5361 99.9038 92.3218Z" fill="#099DBA"/>
<path d="M57.7609 88.3634V88.0702C57.7614 87.6418 57.9319 87.2311 58.235 86.9284C58.5381 86.6256 58.9489 86.4556 59.3773 86.4556H70.2341C70.6622 86.4561 71.0726 86.6263 71.3753 86.929C71.678 87.2317 71.8482 87.6421 71.8487 88.0702V88.3634C71.8482 88.7915 71.678 89.2019 71.3753 89.5045C71.0726 89.8072 70.6622 89.9775 70.2341 89.978H66.8583V99.8141C66.8585 100.026 66.817 100.236 66.7359 100.432C66.6548 100.628 66.5359 100.806 66.3859 100.956C66.236 101.106 66.0579 101.225 65.8619 101.306C65.6659 101.387 65.4558 101.429 65.2437 101.429H64.3659C64.1538 101.429 63.9437 101.387 63.7477 101.306C63.5517 101.225 63.3736 101.106 63.2236 100.956C63.0737 100.806 62.9547 100.628 62.8737 100.432C62.7926 100.236 62.751 100.026 62.7513 99.8141V89.978H59.3773C58.9489 89.978 58.5381 89.8079 58.235 89.5052C57.9319 89.2025 57.7614 88.7918 57.7609 88.3634Z" fill="#9B2571"/>
<path d="M72.142 103.478V98.8936C72.142 98.4747 72.3084 98.073 72.6045 97.7768C72.9007 97.4806 73.3024 97.3142 73.7213 97.3142H74.4896L78.4315 82.0962C78.5214 81.7495 78.7238 81.4425 79.0069 81.2232C79.29 81.0039 79.6379 80.8847 79.996 80.8843H86.7402C87.098 80.8848 87.4456 81.0041 87.7284 81.2234C88.0112 81.4427 88.2132 81.7497 88.3028 82.0962L92.2447 97.3142H93.013C93.432 97.3142 93.8339 97.4806 94.1304 97.7767C94.4269 98.0728 94.5937 98.4745 94.5942 98.8936V103.478C94.5937 103.906 94.4232 104.317 94.1201 104.619C93.817 104.922 93.4061 105.092 92.9777 105.092H91.9533C91.7413 105.092 91.5313 105.05 91.3354 104.969C91.1395 104.888 90.9615 104.769 90.8116 104.619C90.6617 104.469 90.5427 104.291 90.4616 104.095C90.3804 103.9 90.3387 103.69 90.3387 103.478V101.423H76.3975V103.478C76.397 103.906 76.2267 104.316 75.924 104.619C75.6213 104.921 75.2109 105.092 74.7829 105.092H73.7566C73.3285 105.092 72.9181 104.921 72.6154 104.619C72.3127 104.316 72.1425 103.906 72.142 103.478ZM78.7451 97.3142H87.9892L84.7618 84.995H81.978L78.7451 97.3142Z" fill="#099DBA"/>
<path d="M113.962 99.8085V88.0702C113.962 87.6418 114.133 87.2311 114.436 86.9284C114.739 86.6256 115.15 86.4556 115.578 86.4556H116.456C116.668 86.4556 116.878 86.4973 117.074 86.5785C117.27 86.6596 117.448 86.7785 117.598 86.9285C117.748 87.0784 117.867 87.2564 117.948 87.4523C118.029 87.6482 118.071 87.8581 118.071 88.0702V92.0324H119.832L123.312 87.1348C123.461 86.9247 123.658 86.7534 123.887 86.6353C124.116 86.5171 124.37 86.4555 124.627 86.4556H125.236C125.532 86.4556 125.822 86.5367 126.074 86.6901C126.327 86.8435 126.533 87.0633 126.669 87.3256C126.805 87.5879 126.867 87.8825 126.847 88.1774C126.828 88.4723 126.727 88.7562 126.558 88.9981L123.501 93.3464L127.148 98.914C127.307 99.1575 127.398 99.4398 127.411 99.7308C127.423 100.022 127.356 100.311 127.218 100.567C127.079 100.823 126.874 101.037 126.624 101.186C126.374 101.335 126.088 101.414 125.797 101.414H124.965C124.695 101.413 124.43 101.345 124.193 101.215C123.957 101.085 123.756 100.898 123.61 100.671L120.27 95.5363H118.069V99.7918C118.069 100.004 118.027 100.214 117.946 100.41C117.865 100.606 117.746 100.784 117.596 100.934C117.446 101.084 117.268 101.203 117.072 101.284C116.876 101.365 116.666 101.407 116.454 101.406H115.576C115.364 101.407 115.154 101.365 114.958 101.284C114.762 101.203 114.584 101.084 114.434 100.934C114.283 100.784 114.164 100.606 114.083 100.41C114.002 100.214 113.96 100.004 113.96 99.7918" fill="#099DBA"/>
<path d="M131.132 99.5597C130.389 98.8247 129.798 97.9495 129.395 96.9847C128.992 96.0199 128.785 94.9848 128.785 93.9392C128.785 92.8937 128.992 91.8585 129.395 90.8937C129.798 89.9289 130.389 89.0537 131.132 88.3187C132.697 86.7846 134.654 86.0169 137.001 86.0156C139.348 86.0144 141.299 86.7821 142.856 88.3187C143.604 89.0513 144.198 89.9257 144.604 90.8908C145.009 91.8559 145.218 92.8923 145.218 93.9392C145.218 94.9861 145.009 96.0225 144.604 96.9876C144.198 97.9527 143.604 98.8272 142.856 99.5597C141.282 101.096 139.33 101.864 137.001 101.863C134.671 101.862 132.715 101.094 131.132 99.5597ZM134.183 90.7703C133.42 91.5919 133.039 92.6485 133.04 93.9402C133.041 95.2318 133.422 96.2878 134.183 97.1081C134.542 97.4973 134.978 97.8079 135.463 98.0203C135.948 98.2328 136.472 98.3424 137.002 98.3424C137.531 98.3424 138.055 98.2328 138.54 98.0203C139.025 97.8079 139.461 97.4973 139.82 97.1081C140.582 96.2878 140.963 95.2318 140.963 93.9402C140.963 92.6485 140.582 91.5919 139.82 90.7703C139.46 90.3817 139.024 90.0715 138.539 89.8594C138.054 89.6473 137.531 89.5378 137.002 89.5378C136.472 89.5378 135.949 89.6473 135.464 89.8594C134.979 90.0715 134.543 90.3817 134.183 90.7703Z" fill="#099DBA"/>
<path d="M147.566 105.385V88.0702C147.567 87.6418 147.737 87.2311 148.04 86.9284C148.343 86.6256 148.754 86.4556 149.182 86.4556H150.06C150.488 86.4561 150.899 86.6263 151.201 86.929C151.504 87.2317 151.674 87.6421 151.675 88.0702V88.3634H151.822C152.158 87.9304 152.542 87.5369 152.967 87.1905C153.989 86.4184 155.238 86.0054 156.519 86.0157C157.449 85.9984 158.371 86.1852 159.221 86.5629C160.071 86.9407 160.828 87.5001 161.439 88.202C162.76 89.6594 163.421 91.5722 163.421 93.9403C163.421 96.3084 162.76 98.2205 161.439 99.6767C160.829 100.378 160.073 100.937 159.224 101.315C158.375 101.693 157.453 101.88 156.524 101.863C155.244 101.873 153.995 101.461 152.972 100.69C152.547 100.344 152.163 99.9494 151.827 99.5153H151.68V105.385C151.68 105.813 151.51 106.224 151.207 106.527C150.904 106.829 150.494 106.999 150.066 107H149.19C148.762 107 148.351 106.83 148.048 106.527C147.744 106.224 147.574 105.814 147.573 105.385H147.566ZM152.74 90.6962C152.035 91.4695 151.682 92.5509 151.682 93.9403C151.682 95.3297 152.035 96.4104 152.74 97.1825C153.444 97.957 154.363 98.3436 155.498 98.3424C155.998 98.3568 156.495 98.2587 156.952 98.0554C157.409 97.8521 157.815 97.5487 158.139 97.1676C158.823 96.3857 159.166 95.3099 159.167 93.9403C159.168 92.5707 158.826 91.4943 158.139 90.7111C157.814 90.331 157.408 90.0284 156.951 89.8254C156.494 89.6225 155.998 89.5243 155.498 89.5382C154.362 89.5382 153.443 89.9242 152.74 90.6962Z" fill="#099DBA"/>
</svg>
