<svg width="160" height="100" viewBox="0 0 160 100" fill="none" xmlns="http://www.w3.org/2000/svg">
<g clip-path="url(#clip0_1_49)">
<path d="M9.49063 76.1562C11.7245 76.1562 13.5254 76.664 14.6177 77.349V81.3673C13.6277 80.5801 11.8779 79.8184 9.84681 79.8184C6.6997 79.8184 4.16083 81.645 4.16083 85.4277C4.16083 88.9547 6.29238 90.9858 9.77009 90.9858C11.6989 90.9858 13.6277 90.4013 14.7182 89.6652V93.4224C13.7282 94.0306 11.6733 94.6407 9.43949 94.6407C3.62748 94.6407 0 91.4936 0 85.5081C0 79.6193 3.98365 76.169 9.49794 76.169" fill="#4B008C"/>
<path d="M18.1429 94.2759V80.0637C19.7174 79.9888 22.3056 79.9888 24.4627 79.9888C27.8381 79.9888 29.9423 81.1048 29.9423 83.8245C29.9423 85.0172 29.5112 86.0565 28.3697 86.7469C29.7907 87.2291 30.4757 88.1168 30.4757 89.8429C30.4757 92.6594 28.6491 94.3599 24.5632 94.3599C21.9239 94.3599 19.7667 94.3599 18.1411 94.2832L18.1429 94.2759ZM21.8526 82.9075V85.6985H24.2088C25.7322 85.6985 26.3148 85.3167 26.3148 84.2774C26.3148 83.3642 25.6554 82.9075 24.3056 82.9075H21.8526ZM21.8526 88.3871V91.4283H24.3641C26.1157 91.4283 26.8518 91.0228 26.8518 89.9306C26.8518 88.8383 26.218 88.3835 24.3897 88.3835L21.8526 88.3871Z" fill="#4B008C"/>
<path d="M46.3884 84.6077C46.3884 87.753 43.7746 88.7941 39.4092 88.7941H36.4868C37.0713 90.5458 38.5435 91.2051 40.9033 91.2051C42.9344 91.2051 44.8121 90.5969 45.8349 89.9101V93.4134C44.6404 94.0984 42.865 94.6317 40.454 94.6317C35.8603 94.6317 32.5872 92.1951 32.5872 87.1703C32.5872 82.4999 35.8603 79.709 40.3261 79.709C43.7271 79.709 46.392 81.4844 46.392 84.6077H46.3884ZM36.3461 86.0288H39.9992C41.9024 86.0288 42.7152 85.6635 42.7152 84.6826C42.7152 83.7438 41.9536 82.9821 40.3042 82.9821C38.3754 82.9821 36.7498 83.9977 36.3443 86.0288" fill="#4B008C"/>
<path d="M53.1883 80.0633V81.382C54.0778 80.4687 55.3966 79.8075 57.1227 79.8075C59.1318 79.8075 60.5748 80.5381 61.4881 81.8642C62.056 81.2054 62.762 80.6797 63.5558 80.3242C64.3497 79.9688 65.2121 79.7924 66.0818 79.8075C70.0399 79.8075 71.8426 82.193 71.8426 86.1273V94.2736H67.9083V86.4597C67.9083 84.5054 67.0718 83.3638 65.3512 83.3638C63.7511 83.3638 62.584 84.2003 62.584 86.1036V94.2755H58.646V86.4597C58.646 84.5054 57.9336 83.3638 56.1838 83.3638C54.2806 83.3638 53.3162 84.5054 53.3162 86.4597V94.2755H49.3818V80.0633H53.1883Z" fill="#4B008C"/>
<path d="M77.6271 98.3359H73.9978V90.7229H75.7988C76.6371 89.6818 76.9677 88.5658 77.2454 87.2708C77.4622 86.1079 77.5643 84.9266 77.5504 83.7438L77.6015 76.5107H91.2603V90.7229H93.8485V98.3359H90.1954V94.2755H77.6271V98.3359ZM87.22 80.0706H81.282L81.2309 84.1821C81.2156 85.3807 81.1137 86.5765 80.9258 87.7603C80.7531 88.7893 80.4371 89.789 79.987 90.7302H87.22V80.0706Z" fill="#4B008C"/>
<path d="M109.323 84.6077C109.323 87.753 106.709 88.7941 102.344 88.7941H99.4215C100.006 90.5458 101.476 91.2051 103.838 91.2051C105.867 91.2051 107.745 90.5969 108.76 89.9101V93.4134C107.568 94.0984 105.792 94.6317 103.38 94.6317C98.7876 94.6317 95.5127 92.1951 95.5127 87.1703C95.5127 82.4999 98.7877 79.709 103.254 79.709C106.655 79.709 109.319 81.4844 109.319 84.6077H109.323ZM99.2735 86.0288H102.927C104.832 86.0288 105.643 85.6635 105.643 84.6826C105.643 83.7438 104.881 82.9821 103.232 82.9821C101.303 82.9821 99.679 83.9977 99.2735 86.0288Z" fill="#4B008C"/>
<path d="M116.249 85.47H118.178L121.758 80.0635H126.198L121.579 86.9677L126.427 94.2757H121.833L118.408 88.871H116.249V94.2757H112.317V80.0635H116.249V85.47Z" fill="#4B008C"/>
<path d="M134.876 94.6316C130.688 94.6316 127.135 92.1438 127.135 87.1428C127.135 82.2696 130.688 79.707 134.876 79.707C139.065 79.707 142.617 82.2642 142.617 87.1172C142.617 92.0489 139.065 94.6298 134.876 94.6298V94.6316ZM134.876 83.2341C132.821 83.2341 131.041 84.5546 131.041 87.1428C131.041 89.731 132.767 91.1009 134.876 91.1009C136.907 91.1009 138.712 89.731 138.712 87.1172C138.712 84.5035 136.911 83.2341 134.876 83.2341Z" fill="#4B008C"/>
<path d="M145.203 99.3518V87.2273C145.203 82.0491 148.529 79.7148 152.741 79.7148C157.209 79.7148 159.874 82.6848 159.874 87.1762C159.874 91.8448 157.158 94.5353 152.92 94.5353C151.422 94.5353 150.051 94.0786 149.112 93.2914C149.137 93.7243 149.137 94.1809 149.137 94.5864V99.3573L145.203 99.3518ZM152.641 83.3131C150.432 83.3131 149.112 84.7853 149.112 87.1488C149.112 89.5123 150.584 90.9553 152.641 90.9553C154.747 90.9553 155.965 89.5342 155.965 87.2255C155.965 84.7889 154.747 83.3168 152.641 83.3168" fill="#4B008C"/>
</g>
<g clip-path="url(#clip1_1_49)">
<path d="M95.29 66.4639L95.1073 66.4219L95.0068 66.3945L95.2826 66.4639" fill="#4B008C"/>
<path d="M78.1904 19.7598C78.7311 18.7674 79.3131 17.8024 79.9366 16.8647C80.5576 17.8036 81.1391 18.7692 81.6809 19.7616C81.9987 20.3449 82.3032 20.9355 82.5942 21.5333C82.8925 22.1531 83.1726 22.7857 83.4344 23.4311C83.891 24.5909 84.3604 25.8933 84.6527 26.8284C84.7087 27.0111 84.7635 27.1937 84.8171 27.3764C84.9139 27.6979 84.9997 28.023 85.091 28.3481C85.144 28.5454 85.1952 28.7445 85.2445 28.9436C85.2938 29.1427 85.3322 29.2979 85.3742 29.4769C85.4089 29.6249 85.4436 29.7728 85.4746 29.9208C85.4868 29.9682 85.4978 30.0157 85.5075 30.0632L85.6061 30.5308C85.639 30.6861 85.6682 30.8431 85.6993 31.0002C85.7303 31.1573 85.7596 31.3126 85.787 31.4696C85.8144 31.6267 85.8363 31.7418 85.8582 31.877C85.8898 32.0535 85.9191 32.2325 85.9459 32.414C85.9623 32.5126 85.9769 32.6131 85.9915 32.7135C86.0007 32.772 86.0098 32.8304 86.0171 32.8962L86.039 33.0569C86.04 33.0764 86.04 33.0959 86.039 33.1154C86.0518 33.2012 86.0628 33.2852 86.0737 33.3711C86.0793 33.4006 86.0829 33.4305 86.0847 33.4606C86.0975 33.5446 86.1066 33.6286 86.1157 33.7145C86.1157 33.7145 86.1157 33.7309 86.1157 33.74C86.1157 33.7492 86.1157 33.7893 86.1249 33.8131C86.1259 33.8246 86.1259 33.8362 86.1249 33.8478C86.1395 33.9702 86.1523 34.0907 86.165 34.2131C86.1778 34.3355 86.1906 34.4578 86.2016 34.5784C86.2125 34.6989 86.2253 34.8085 86.2363 34.9236C86.2372 34.9315 86.2372 34.9395 86.2363 34.9474C86.2527 35.1172 86.2673 35.2871 86.2801 35.4588C86.3166 35.9459 86.344 36.4372 86.3623 36.9328C86.3714 37.1702 86.3787 37.4077 86.3842 37.647V37.6945C86.3842 37.9282 86.3842 38.162 86.3842 38.3958V38.4141C86.3842 38.4324 86.3842 38.4506 86.3842 38.4689C86.3624 38.8469 86.2025 39.2037 85.9349 39.4717C85.741 39.6682 85.4973 39.8084 85.2299 39.8771C85.2059 39.8844 85.1815 39.8898 85.1568 39.8936C85.1111 39.9027 85.0637 39.91 85.0162 39.9155C84.9638 39.9183 84.9114 39.9183 84.8591 39.9155H74.9922C74.9399 39.9182 74.8874 39.9182 74.8351 39.9155C74.7876 39.9155 74.7401 39.9027 74.6945 39.8936L74.6214 39.8771C74.354 39.8084 74.1103 39.6682 73.9164 39.4717C73.6488 39.2037 73.4889 38.8469 73.467 38.4689C73.467 38.4452 73.467 38.4214 73.467 38.3958C73.467 38.162 73.467 37.9282 73.467 37.6945V37.647C73.467 37.4077 73.4798 37.1702 73.489 36.9328C73.5072 36.4396 73.5346 35.9483 73.5712 35.4588C73.5894 35.2122 73.6095 34.9693 73.6332 34.7282C73.6789 34.2387 73.7337 33.7528 73.7976 33.2669C73.8196 33.0953 73.8451 32.9254 73.8707 32.7555C73.8963 32.5838 73.9218 32.414 73.9492 32.2441C73.9766 32.0742 74.004 31.908 74.0333 31.74C74.0515 31.6304 74.0716 31.5208 74.0935 31.413L74.1155 31.2906C74.1246 31.245 74.1319 31.2011 74.141 31.1555C74.1593 31.0569 74.1776 30.9582 74.1977 30.8596C74.1977 30.8267 74.2104 30.792 74.2177 30.7591C74.2378 30.6532 74.2597 30.5473 74.2817 30.4413C74.3036 30.3354 74.3164 30.2769 74.3346 30.1929C74.415 29.8166 74.5027 29.4422 74.594 29.0678L74.7365 28.507L74.7584 28.423C74.8004 28.2641 74.8442 28.107 74.8881 27.9499C74.9319 27.7929 74.9867 27.6029 75.036 27.4294C75.0853 27.2559 75.1547 27.0348 75.2187 26.8394C75.5036 25.9261 75.9602 24.6476 76.4077 23.5096C76.4067 23.5048 76.4067 23.4998 76.4077 23.495C76.6805 22.8338 76.9709 22.183 77.279 21.5425C77.5652 20.9434 77.8696 20.3528 78.1923 19.7707L78.1904 19.7598ZM78.4388 34.688C78.4388 34.3011 78.5874 33.929 78.8539 33.6486C79.1204 33.3681 79.4845 33.2008 79.8708 33.1811H80.006C80.3922 33.2012 80.756 33.3687 81.0224 33.649C81.2888 33.9294 81.4376 34.3012 81.438 34.688V36.8926H83.3613C83.3449 36.4926 83.3211 36.0908 83.2919 35.6926C83.2791 35.5355 83.2664 35.3766 83.2517 35.2195C83.2225 34.8773 83.1878 34.5364 83.1476 34.1967C83.1348 34.0834 83.1202 33.9683 83.1056 33.8551C83.0837 33.6773 83.06 33.5001 83.0344 33.3236C83.0198 33.2122 83.0033 33.1026 82.9869 32.993C82.9705 32.8834 82.9595 32.8103 82.9449 32.7263C82.9266 32.6021 82.9065 32.4761 82.8828 32.3519C82.859 32.2277 82.8408 32.1035 82.817 31.9866C82.775 31.7363 82.7257 31.4879 82.6746 31.2413C82.6508 31.1171 82.6252 30.9929 82.5978 30.876C82.5485 30.6386 82.4956 30.403 82.4389 30.1673C82.4024 30.0121 82.3659 29.8587 82.3257 29.7052C82.2727 29.4806 82.2143 29.2596 82.143 29.0367C82.112 28.9143 82.0791 28.7938 82.0426 28.6714C81.9549 28.3572 81.8624 28.0437 81.7649 27.7307C81.7284 27.612 81.6901 27.4933 81.6517 27.3746C81.5768 27.1371 81.4965 26.8997 81.4143 26.6641C81.312 26.3682 81.2054 26.0729 81.0946 25.7782C80.9741 25.4494 80.8444 25.1225 80.711 24.7992C80.4675 24.1903 80.2069 23.5955 79.9293 23.0147C79.6517 23.6004 79.3911 24.1952 79.1475 24.7992C79.0142 25.1225 78.8845 25.4494 78.764 25.7782C78.6519 26.0729 78.5454 26.3682 78.4443 26.6641C78.3621 26.8997 78.2818 27.1371 78.2069 27.3746C78.0681 27.8056 77.9384 28.2367 77.816 28.6714C77.7795 28.7938 77.7466 28.9143 77.7155 29.0367C77.6534 29.2596 77.595 29.4806 77.5329 29.7052C77.4945 29.8587 77.458 30.0121 77.4196 30.1673C77.363 30.403 77.31 30.6386 77.2607 30.876C77.2333 30.9984 77.2078 31.1226 77.184 31.2413C77.1329 31.4879 77.0836 31.7363 77.0416 31.9866C77.0184 32.1083 76.9965 32.2301 76.9758 32.3519C76.9539 32.4779 76.9338 32.6021 76.9137 32.7263C76.8991 32.8158 76.8845 32.909 76.8717 32.993C76.8589 33.077 76.8388 33.2122 76.8242 33.3236C76.7986 33.5014 76.7749 33.6785 76.753 33.8551C76.7383 33.9683 76.7237 34.0834 76.711 34.1967C76.6708 34.5364 76.6361 34.8773 76.6068 35.2195C76.5922 35.3766 76.5794 35.5355 76.5667 35.6926C76.5374 36.092 76.5143 36.492 76.4972 36.8926H78.4206L78.4388 34.688Z" fill="#00AD8E"/>
<path d="M52.0434 0.056858C52.6261 -0.0189527 53.2161 -0.0189527 53.7987 0.056858C53.8937 0.0696437 53.9905 0.0824286 54.0855 0.0988674C54.6298 0.190194 55.1705 0.293696 55.7075 0.409376C55.9595 0.464172 56.2116 0.520796 56.4618 0.579245C56.712 0.637694 56.9404 0.694316 57.1778 0.761897C64.5365 2.65837 71.182 6.66065 76.2997 12.2781L76.3271 12.3092C77.1975 13.2671 78.0192 14.2681 78.7893 15.3083L78.8824 15.4326L77.1436 18.1267L76.9518 17.8618L76.9079 17.8016L76.8002 17.6518C76.1074 16.6674 75.3636 15.72 74.5718 14.8134C69.8696 9.44445 63.6719 5.60118 56.7723 3.77567C56.5592 3.71843 56.3455 3.66364 56.1312 3.61128C55.9139 3.55648 55.6947 3.50534 55.4755 3.45602L55.4079 3.44141L55.0426 3.36105L54.6773 3.28616C54.312 3.21127 53.9467 3.14369 53.5814 3.08159C53.0285 2.98786 52.4619 3.01647 51.9213 3.16542C51.3807 3.31438 50.8794 3.58004 50.4525 3.9437C50.0134 4.31393 49.6605 4.77565 49.4185 5.29655C49.1765 5.81744 49.0513 6.38493 49.0516 6.9593V21.3889C49.0579 25.5045 50.6956 29.4499 53.6058 32.3601C56.5161 35.2703 60.4614 36.9081 64.5771 36.9143C64.9772 36.9143 65.361 37.0733 65.6439 37.3562C65.9268 37.6392 66.0858 38.0229 66.0858 38.423C66.0858 38.8232 65.9268 39.2069 65.6439 39.4899C65.361 39.7728 64.9772 39.9318 64.5771 39.9318C63.0903 39.9332 61.6649 40.5245 60.6136 41.5757C59.5623 42.627 58.9711 44.0524 58.9696 45.5392V59.6893C58.9699 59.8437 58.9784 59.9979 58.9952 60.1514C59.0043 60.2245 59.0153 60.2993 59.0281 60.3724C59.0409 60.4436 59.0555 60.5167 59.0719 60.5879C59.0719 60.5879 59.0719 60.5879 59.0719 60.5989C59.0847 60.6537 59.0993 60.7085 59.1139 60.7633C59.1285 60.8181 59.1432 60.8637 59.1596 60.9149C59.4107 61.6756 59.8856 62.3428 60.5222 62.8291C60.9833 63.1925 61.5216 63.4452 62.0957 63.5677C62.6698 63.6903 63.2644 63.6794 63.8337 63.5359L63.9414 63.5067L63.9981 63.4939L64.23 63.4318L64.4456 63.3734L64.7451 63.2875L65.0903 63.1834L65.1506 63.1652C65.2967 63.1213 65.4428 63.0738 65.5871 63.0264L65.7844 62.9588C65.9086 62.9186 66.0328 62.8748 66.1497 62.8309L66.2958 62.7779C66.4273 62.7323 66.557 62.683 66.6867 62.6336L66.7835 62.5953C66.9388 62.5368 67.0959 62.4747 67.2493 62.4126C67.4027 62.3505 67.6018 62.2683 67.7753 62.1916C67.9488 62.1149 68.1151 62.0419 68.2849 61.9651L68.3379 61.9396C68.495 61.8689 68.6521 61.7941 68.8091 61.7149C68.9808 61.6345 69.1489 61.5487 69.3187 61.461C69.4886 61.3733 69.6548 61.2784 69.821 61.1943C69.9872 61.1103 70.1535 61.0117 70.3179 60.9167C70.4822 60.8217 70.6466 60.7341 70.8074 60.63L71.2019 60.3888C71.5946 60.1423 71.9782 59.8866 72.3562 59.6217C72.64 59.4232 72.9194 59.218 73.1946 59.0062L73.4704 58.7943C73.6531 58.6518 73.8357 58.5075 74.0074 58.3578C74.1901 58.2098 74.3618 58.06 74.5353 57.9066C74.7088 57.7532 74.8823 57.5997 75.0522 57.4408C75.2221 57.2819 75.3901 57.1248 75.5563 56.9623C75.6129 56.9075 75.6696 56.8527 75.7225 56.7979L75.8869 56.6335C76.1037 56.4143 76.3174 56.1903 76.528 55.9614C76.6248 55.8554 76.7216 55.7495 76.8166 55.6417C77.4894 54.888 78.117 54.0951 78.6961 53.2672C78.7564 53.1821 78.8249 53.1032 78.9007 53.0316C78.9759 52.9626 79.0579 52.9014 79.1454 52.8489C79.2504 52.7841 79.3634 52.7331 79.4815 52.6973C79.7414 52.6166 80.0183 52.608 80.2828 52.6723C80.5472 52.7366 80.7892 52.8716 80.9829 53.0627C81.0502 53.1262 81.1113 53.1959 81.1656 53.2709L81.3336 53.5065C81.3903 53.585 81.445 53.6617 81.5035 53.7403C81.6167 53.8955 81.7336 54.049 81.8505 54.2006C81.9674 54.3522 82.0862 54.5038 82.2158 54.6536C82.5811 55.1011 82.9465 55.5376 83.341 55.9577C83.4378 56.0636 83.5346 56.1677 83.6332 56.2719C83.7319 56.376 83.8323 56.4782 83.9328 56.5805C84.1319 56.7851 84.3364 56.9842 84.5428 57.1796C84.818 57.4451 85.0993 57.7014 85.3867 57.9486C85.5292 58.0746 85.6753 58.1988 85.8214 58.3139C85.9675 58.429 86.1136 58.5568 86.2616 58.6792L86.541 58.8984C87.0105 59.2637 87.4908 59.6107 87.984 59.9395C88.1794 60.071 88.3785 60.2007 88.5795 60.3267C88.7256 60.4217 88.8735 60.5094 89.0233 60.6025L89.0744 60.6318C89.2315 60.7286 89.3923 60.8236 89.553 60.9131C89.7137 61.0026 89.8836 61.0957 90.0498 61.1907C90.216 61.2857 90.3841 61.3733 90.5539 61.4574C90.7238 61.5414 90.8772 61.6236 91.0416 61.7003C91.0504 61.707 91.0603 61.7119 91.0708 61.7149C91.2206 61.7898 91.3704 61.861 91.522 61.9304L91.5896 61.9615C91.7467 62.0345 91.9037 62.1058 92.0645 62.1752L92.1047 62.1916C92.2763 62.2665 92.448 62.3396 92.6215 62.409C92.7951 62.4784 92.9302 62.535 93.0873 62.5916C93.1184 62.6063 93.1513 62.6172 93.1841 62.63C93.2974 62.6738 93.4106 62.7158 93.5257 62.756C93.5988 62.7852 93.6736 62.8108 93.7485 62.8382C93.8234 62.8656 93.9312 62.9003 94.0134 62.9277L94.3239 63.0337C94.4883 63.0885 94.6545 63.1414 94.8225 63.1907C94.909 63.2187 94.9948 63.2443 95.0801 63.2675C95.2018 63.3052 95.3279 63.3417 95.4582 63.377L95.5659 63.4063L95.8783 63.4903L95.9531 63.5085L96.0445 63.5323C96.6134 63.6754 97.2077 63.6862 97.7815 63.5636C98.3553 63.4411 98.8933 63.1885 99.3541 62.8254C99.9917 62.3331 100.464 61.6585 100.709 60.8911C100.726 60.8418 100.741 60.7907 100.755 60.7395C100.77 60.6884 100.784 60.6299 100.797 60.5751C100.798 60.5715 100.798 60.5678 100.797 60.5642C100.814 60.493 100.828 60.4217 100.841 60.3487C100.854 60.2756 100.865 60.2025 100.874 60.1277C100.891 59.9748 100.899 59.8211 100.899 59.6674V45.5246C100.897 44.038 100.306 42.6128 99.2549 41.5617C98.2037 40.5105 96.7785 39.9191 95.2919 39.9171C94.8918 39.9171 94.508 39.7582 94.2251 39.4753C93.9422 39.1923 93.7832 38.8086 93.7832 38.4084C93.7832 38.0083 93.9422 37.6245 94.2251 37.3416C94.508 37.0587 94.8918 36.8997 95.2919 36.8997C99.4076 36.8934 103.353 35.2557 106.263 32.3455C109.173 29.4352 110.811 25.4899 110.817 21.3742V6.94469C110.818 6.37032 110.693 5.80283 110.451 5.28193C110.209 4.76103 109.856 4.29932 109.417 3.92909C108.99 3.56517 108.488 3.29936 107.947 3.1504C107.406 3.00144 106.839 2.97296 106.286 3.06697C105.921 3.12907 105.555 3.19726 105.19 3.27154L104.825 3.34643L104.459 3.4268L104.392 3.44141C104.173 3.49072 103.953 3.54187 103.736 3.59666L103.095 3.76105C96.196 5.587 89.999 9.43023 85.2972 14.7988C84.5054 15.7054 83.7616 16.6528 83.0688 17.6372C83.0305 17.6865 82.9958 17.7358 82.9611 17.7869L82.9172 17.8472L82.7254 18.1121L80.9866 15.4179L81.0779 15.2937C81.8469 14.2581 82.6743 13.248 83.5419 12.2946L83.5693 12.2635C88.687 6.64604 95.3325 2.64376 102.691 0.747285C102.929 0.687009 103.168 0.628561 103.407 0.564632C103.646 0.500704 103.908 0.44956 104.16 0.394764C104.695 0.279693 105.236 0.177408 105.782 0.0842548C105.877 0.0678161 105.964 0.0550312 106.068 0.0422455L106.282 0.0184998C106.354 0.0111937 106.425 0.00571479 106.496 0.00206174H106.625C106.735 0.00206174 106.843 0.00206174 106.951 0.00206174H107.002C107.058 0.00206174 107.115 0.00206174 107.172 0.00206174C107.228 0.00206174 107.318 0.00206129 107.391 0.0130204C107.535 0.0130204 107.681 0.0367663 107.826 0.056858C107.9 0.056858 107.974 0.0769485 108.048 0.0897342C108.231 0.120785 108.414 0.159143 108.596 0.204806C108.779 0.250469 108.962 0.303438 109.133 0.363713C109.276 0.413029 109.415 0.464174 109.554 0.522623C109.736 0.601163 109.919 0.685183 110.101 0.778335C110.552 1.01308 110.976 1.29733 111.364 1.62584C112.139 2.27849 112.762 3.09304 113.189 4.01225C113.616 4.93145 113.836 5.933 113.835 6.94651V21.3761C113.817 25.3 112.562 29.1185 110.25 32.2891C107.938 35.4597 104.686 37.8213 100.956 39.0386C101.886 39.8454 102.631 40.8429 103.14 41.9634C103.65 43.0839 103.912 44.301 103.91 45.5319V59.6838C103.91 60.0206 103.886 60.3569 103.838 60.6902C103.809 60.8857 103.774 61.0793 103.73 61.2711C103.716 61.3386 103.698 61.4062 103.681 61.472C103.632 61.6546 103.575 61.8373 103.509 62.0199C103.51 62.0242 103.51 62.0285 103.509 62.0327C103.455 62.1862 103.394 62.3377 103.327 62.4857C102.664 63.9735 101.506 65.1853 100.05 65.9141C98.5934 66.643 96.9292 66.8437 95.3413 66.4821L95.3011 66.473H95.2901L95.0143 66.4036L94.7403 66.3287C94.5577 66.2776 94.375 66.2246 94.1924 66.1698C94.0097 66.115 93.8271 66.0584 93.6444 65.9999L93.0965 65.8173H93.0818C92.8992 65.7552 92.7165 65.6943 92.5339 65.6346C92.3658 65.5744 92.1978 65.5104 92.0316 65.452L91.9731 65.4301C91.7905 65.3625 91.6261 65.2931 91.4544 65.2218C91.332 65.1725 91.2097 65.1214 91.0891 65.0684C90.9959 65.0301 90.9064 64.9899 90.8115 64.9479L90.753 64.9223C90.5923 64.8529 90.4334 64.7798 90.2745 64.7068H90.258L89.7539 64.4657C89.5822 64.3835 89.4124 64.2976 89.2425 64.2099C89.0726 64.1223 88.9027 64.0273 88.7347 63.9433C88.5667 63.8592 88.3986 63.7606 88.2324 63.6675C87.3597 63.174 86.5123 62.6369 85.6935 62.0583C85.4208 61.8647 85.1511 61.6668 84.8844 61.4647C84.7693 61.377 84.6561 61.282 84.5447 61.2017C84.3182 61.019 84.0953 60.8455 83.8743 60.6537L83.5456 60.3761C83.1364 60.0229 82.7376 59.6576 82.3492 59.2801C82.2195 59.1559 82.0916 59.0299 81.9638 58.9039C81.8359 58.7779 81.7592 58.7011 81.6606 58.597C81.059 57.9797 80.4849 57.3349 79.9382 56.6627C79.3914 57.3349 78.8173 57.9797 78.2157 58.597L77.9125 58.9039C77.7847 59.0299 77.6568 59.1559 77.5271 59.2801C77.1387 59.6528 76.7399 60.0181 76.3308 60.3761L76.002 60.6537C75.781 60.8363 75.5581 61.019 75.3317 61.2017C75.2202 61.2912 75.107 61.3843 74.9919 61.4647C74.5353 61.8117 74.0689 62.1454 73.5928 62.4656L73.1143 62.7798C72.9535 62.8839 72.7928 62.9843 72.6302 63.0848C72.4677 63.1853 72.3033 63.2839 72.1389 63.3807C71.9745 63.4775 71.8083 63.5743 71.6421 63.6675L71.2384 63.8903C71.0375 63.9999 70.8366 64.1058 70.6338 64.2099C70.4694 64.294 70.3032 64.378 70.137 64.4583L70.1151 64.4693C69.9653 64.5442 69.8137 64.6154 69.6621 64.6848L69.5927 64.7177C69.4375 64.7908 69.2804 64.862 69.1233 64.9296L69.0648 64.9552C68.9735 64.9972 68.8822 65.0374 68.7872 65.0757C68.6667 65.1287 68.5443 65.1798 68.4219 65.2291C68.2502 65.3004 68.0767 65.3698 67.9032 65.4374L67.8447 65.4593C67.6785 65.5232 67.5105 65.5871 67.3424 65.6419C67.1744 65.6967 66.9881 65.7698 66.8091 65.8246L66.7579 65.8429L66.2483 66.0109C66.0657 66.0693 65.883 66.1241 65.7004 66.1789C65.5177 66.2337 65.3351 66.2867 65.1524 66.3378C64.9698 66.389 64.8017 66.4328 64.6246 66.4767L64.5515 66.4949C63.5381 66.7275 62.4856 66.7319 61.4702 66.5076C60.4549 66.2833 59.5022 65.836 58.681 65.1981C57.516 64.3009 56.666 63.0569 56.2536 61.6455C56.228 61.5523 56.2024 61.4628 56.1787 61.3624C56.1257 61.145 56.0837 60.924 56.0508 60.7012C56.0031 60.3672 55.9793 60.0303 55.9796 59.6929V45.5246C55.9772 44.2935 56.2399 43.0764 56.7498 41.9559C57.2598 40.8355 58.005 39.838 58.9349 39.0313C55.2003 37.8175 51.9433 35.4571 49.6273 32.2859C47.3112 29.1146 46.0539 25.2939 46.0342 21.3669V6.93738C46.0336 5.92385 46.2547 4.92245 46.6819 4.00335C47.1091 3.08425 47.7321 2.26968 48.5073 1.61671C48.8952 1.2882 49.3185 1.00394 49.7694 0.769202C49.9521 0.676049 50.1347 0.586551 50.3174 0.51349C50.4562 0.455041 50.595 0.403899 50.7375 0.354583C50.9153 0.294916 51.0943 0.241945 51.2745 0.195673C51.4547 0.149401 51.6374 0.111046 51.8224 0.0806038C51.8973 0.0696446 51.9704 0.0568575 52.0453 0.0477249L52.0434 0.056858Z" fill="#FF6000"/>
<path d="M65.1414 66.3193C65.0172 66.3559 64.8912 66.3887 64.7651 66.4216L64.6135 66.4582C64.7962 66.4143 64.966 66.3687 65.1414 66.3193Z" fill="#4B008C"/>
</g>
<defs>
<clipPath id="clip0_1_49">
<rect width="160" height="24" fill="white" transform="translate(0 76)"/>
</clipPath>
<clipPath id="clip1_1_49">
<rect width="68" height="67" fill="white" transform="translate(46)"/>
</clipPath>
</defs>
</svg>
