<svg width="139" height="96" viewBox="0 0 139 96" fill="none" xmlns="http://www.w3.org/2000/svg">
<path d="M69.4991 55.507C71.9396 55.507 74.3252 54.7783 76.3544 53.413C78.3835 52.0477 79.9651 50.1072 80.899 47.8368C81.8329 45.5664 82.0773 43.0681 81.6011 40.6579C81.125 38.2476 79.9499 36.0337 78.2242 34.296C76.4985 32.5583 74.2999 31.3749 71.9064 30.8955C69.5128 30.4161 67.0318 30.6621 64.7772 31.6026C62.5225 32.543 60.5954 34.1355 59.2396 36.1788C57.8837 38.2221 57.16 40.6244 57.16 43.0819C57.1638 46.3761 58.465 49.5342 60.7783 51.8636C63.0915 54.1929 66.2278 55.5032 69.4991 55.507ZM69.4991 33.2793C71.4257 33.2793 73.3091 33.8546 74.911 34.9324C76.5129 36.0102 77.7614 37.5422 78.4987 39.3345C79.236 41.1269 79.4289 43.0992 79.053 45.0019C78.6772 46.9047 77.7494 48.6525 76.3871 50.0243C75.0248 51.3961 73.2891 52.3303 71.3995 52.7088C69.5099 53.0873 67.5513 52.893 65.7714 52.1506C63.9914 51.4082 62.4701 50.1509 61.3997 48.5379C60.3294 46.9248 59.7581 45.0283 59.7581 43.0883C59.7593 40.4866 60.7858 37.9917 62.6122 36.1514C64.4385 34.3111 66.9155 33.2759 69.4991 33.2729" fill="#EB611C"/>
<path d="M79.0945 54.5703L77.2573 56.4202L83.1887 62.3926L85.0259 60.5428L79.0945 54.5703Z" fill="#EB611C"/>
<path d="M60.1383 54.334L53.9725 60.5431L55.8096 62.393L61.9754 56.184L60.1383 54.334Z" fill="#EB611C"/>
<path d="M70.7982 57.541H68.2002V64.2317H70.7982V57.541Z" fill="#EB611C"/>
<path d="M95.3926 1.06981C89.7271 2.04856 84.4407 4.58579 80.1177 8.401C75.7947 12.2162 72.6036 17.1608 70.8971 22.6883C71.2147 18.6989 72.3226 14.814 74.1555 11.2628C75.9883 7.71156 78.509 4.566 81.5687 2.01169L79.914 0C74.9384 4.15503 71.3113 9.71428 69.4996 15.9624C67.6884 9.71399 64.0613 4.15457 59.0852 0L57.4305 2.01169C60.4896 4.56618 63.0099 7.71157 64.8427 11.2624C66.6755 14.8133 67.7838 18.6977 68.1021 22.6867C66.3958 17.1607 63.2057 12.2172 58.8843 8.40241C54.5629 4.58761 49.2783 2.04996 43.6145 1.06981C42.9674 0.963966 42.3052 1.00123 41.6739 1.17902C41.0426 1.3568 40.4573 1.67085 39.9586 2.09934C39.46 2.52783 39.0599 3.06049 38.7862 3.66033C38.5126 4.26017 38.3719 4.91282 38.3739 5.57292V21.0844C38.3743 23.9734 39.5138 26.7442 41.542 28.7877C43.5701 30.8312 46.321 31.9802 49.1901 31.9823H56.2537C54.9906 31.9817 53.7398 32.2316 52.5726 32.7178C51.4055 33.204 50.3449 33.917 49.4514 34.816C48.5579 35.7149 47.849 36.7824 47.3652 37.9573C46.8814 39.1321 46.6322 40.3915 46.6318 41.6634V51.3716C46.6318 53.4217 48.4516 55.0224 50.4589 54.6818C55.7836 53.7716 60.6165 50.993 64.1016 46.8383C67.5866 42.6836 69.4989 37.4208 69.4996 31.9823H69.4837C69.4857 31.9826 69.4877 31.9824 69.4897 31.9817C69.4916 31.9811 69.4934 31.9801 69.4949 31.9787C69.4964 31.9774 69.4975 31.9757 69.4984 31.9738C69.4992 31.972 69.4996 31.97 69.4996 31.9679C69.4996 31.4893 69.4885 31.0138 69.4662 30.5415H69.5329C69.5107 31.0149 69.4996 31.4903 69.4996 31.9679C69.4996 31.97 69.5 31.972 69.5008 31.9738C69.5016 31.9757 69.5028 31.9774 69.5043 31.9787C69.5058 31.9801 69.5076 31.9811 69.5095 31.9817C69.5114 31.9824 69.5135 31.9826 69.5155 31.9823H69.4996C69.4982 37.4215 71.409 42.6856 74.8932 46.8419C78.3775 50.9982 83.2103 53.7783 88.5355 54.6898C90.5427 55.0304 92.3626 53.4297 92.3626 51.3796V41.6634C92.3618 39.0955 91.3482 36.6331 89.5447 34.8176C87.7412 33.0022 85.2955 31.9823 82.7455 31.9823H89.8091C91.2307 31.9825 92.6383 31.7008 93.9518 31.1531C95.2652 30.6055 96.4586 29.8026 97.4639 28.7905C98.4692 27.7783 99.2666 26.5767 99.8107 25.2542C100.355 23.9317 100.635 22.5142 100.635 21.0828V5.57132C100.637 4.91121 100.496 4.25858 100.222 3.65874C99.9488 3.05889 99.5487 2.52623 99.0501 2.09774C98.5514 1.66925 97.9661 1.3552 97.3348 1.17742C96.7035 0.99963 96.0413 0.962365 95.3942 1.06821" fill="#482680"/>
<path d="M8.25148 75.6382C10.1937 75.6382 11.7595 76.0811 12.7091 76.6824V80.2005C11.8484 79.5112 10.3271 78.8444 8.56115 78.8444C5.82495 78.8444 3.61757 80.4435 3.61757 83.7553C3.61757 86.8432 5.47081 88.6214 8.49444 88.6214C10.1714 88.6214 11.8484 88.1097 12.7965 87.4653V90.7546C11.9357 91.2871 10.1492 91.8212 8.20701 91.8212C3.15385 91.8212 0 89.066 0 83.8257C0 78.6701 3.46352 75.6494 8.25783 75.6494" fill="#4B008C"/>
<path d="M15.7741 91.5031V79.0603C17.1429 78.9932 19.3932 78.9932 21.2687 78.9932C24.2034 78.9932 26.0328 79.9718 26.0328 82.3513C26.0328 83.3955 25.658 84.307 24.6655 84.9099C25.901 85.3321 26.4965 86.1108 26.4965 87.6284C26.4965 90.0942 24.9085 91.583 21.356 91.583C19.0613 91.583 17.1858 91.583 15.7725 91.5158L15.7741 91.5031ZM18.9994 81.555V84H21.0479C22.3724 84 22.879 83.6658 22.879 82.7559C22.879 81.9563 22.3057 81.555 21.1321 81.555H18.9994ZM18.9994 86.3523V89.018H21.1829C22.7059 89.018 23.3458 88.663 23.3458 87.7067C23.3458 86.7505 22.7916 86.3523 21.202 86.3523H18.9994Z" fill="#4B008C"/>
<path d="M40.3318 83.0372C40.3318 85.7925 38.0593 86.704 34.2639 86.704H31.723C32.2312 88.2376 33.5111 88.8148 35.5629 88.8148C37.3288 88.8148 38.9613 88.2807 39.8506 87.6811V90.7482C38.812 91.3478 37.2684 91.8148 35.1722 91.8148C31.1783 91.8148 28.3325 89.6816 28.3325 85.2824C28.3325 81.1934 31.1783 78.75 35.0611 78.75C38.018 78.75 40.3349 80.3043 40.3349 83.0372H40.3318ZM31.6007 84.2813H34.7768C36.4315 84.2813 37.1382 83.9711 37.1382 83.1044C37.1382 82.2824 36.476 81.6156 35.042 81.6156C33.365 81.6156 31.9517 82.5047 31.5991 84.2813" fill="#4B008C"/>
<path d="M46.2436 79.0601V80.2163C47.0169 79.4167 48.1635 78.8378 49.6642 78.8378C51.4111 78.8378 52.6656 79.4775 53.4596 80.6384C53.9533 80.0614 54.567 79.6008 55.2572 79.2893C55.9475 78.9778 56.6973 78.8232 57.4536 78.8362C60.8949 78.8362 62.4623 80.9247 62.4623 84.3692V91.5012H59.0416V84.6602C59.0416 82.9491 58.3143 81.9417 56.8184 81.9417C55.4272 81.9417 54.4125 82.6757 54.4125 84.3404V91.4948H50.9886V84.6602C50.9886 82.9491 50.3693 81.9417 48.848 81.9417C47.1932 81.9417 46.3547 82.9427 46.3547 84.6602V91.5028H42.9341V79.0601H46.2436Z" fill="#4B008C"/>
<path d="M67.4919 95.058H64.3364V88.3929H65.9022C66.6311 87.4814 66.9186 86.5044 67.16 85.3706C67.3483 84.3525 67.4372 83.3182 67.4252 82.2827L67.4696 75.9502H79.345V88.3929H81.5953V95.058H78.4192V91.5032H67.4919V95.058ZM75.8323 79.0669H70.6695L70.6251 82.6665C70.6118 83.7158 70.5232 84.7627 70.3599 85.7991C70.2097 86.7 69.935 87.5752 69.5436 88.3993H75.8323V79.0669Z" fill="#4B008C"/>
<path d="M95.0492 83.0372C95.0492 85.7925 92.7767 86.704 88.9813 86.704H86.4404C86.9486 88.2376 88.2269 88.8148 90.2803 88.8148C92.0446 88.8148 93.6771 88.2807 94.5601 87.6811V90.7482C93.5231 91.3478 91.9795 91.8148 89.8817 91.8148C85.8893 91.8148 83.042 89.6816 83.042 85.2824C83.042 81.1934 85.8894 78.75 89.7721 78.75C92.7291 78.75 95.046 80.3043 95.046 83.0372H95.0492ZM86.3118 84.2813H89.4879C91.1442 84.2813 91.8493 83.9711 91.8493 83.1044C91.8493 82.2824 91.1871 81.6156 89.7531 81.6156C88.0761 81.6156 86.6643 82.5047 86.3118 84.2813Z" fill="#4B008C"/>
<path d="M101.071 83.7934H102.748L105.86 79.0601H109.721L105.705 85.1047L109.919 91.5028H105.925L102.948 86.771H101.071V91.5028H97.6517V79.0601H101.071V83.7934Z" fill="#4B008C"/>
<path d="M117.266 91.8149C113.625 91.8149 110.536 89.6369 110.536 85.2585C110.536 80.9921 113.625 78.7485 117.266 78.7485C120.907 78.7485 123.996 80.9873 123.996 85.2362C123.996 89.5538 120.907 91.8133 117.266 91.8133V91.8149ZM117.266 81.8364C115.479 81.8364 113.931 82.9926 113.931 85.2585C113.931 87.5245 115.432 88.7238 117.266 88.7238C119.032 88.7238 120.601 87.5245 120.601 85.2362C120.601 82.9478 119.035 81.8364 117.266 81.8364Z" fill="#4B008C"/>
<path d="M126.245 95.9469V85.3256C126.245 80.7937 129.136 78.75 132.798 78.75C136.683 78.75 139 81.3486 139 85.2824C139 89.3697 136.638 91.7252 132.954 91.7252C131.652 91.7252 130.459 91.3254 129.643 90.6362C129.665 91.0136 129.665 91.415 129.665 91.77V95.9469H126.245ZM132.711 81.9051C130.791 81.9051 129.643 83.1939 129.643 85.2632C129.643 87.3325 130.923 88.5958 132.711 88.5958C134.542 88.5958 135.601 87.3516 135.601 85.3288C135.601 83.1971 134.542 81.9083 132.711 81.9083" fill="#4B008C"/>
</svg>
