<svg width="156" height="99" viewBox="0 0 156 99" fill="none" xmlns="http://www.w3.org/2000/svg">
<g clip-path="url(#clip0_1_33)">
<path d="M9.21321 76.4771C11.3818 76.4771 13.1302 76.97 14.1905 77.6349V81.5359C13.2295 80.7717 11.5308 80.0323 9.55898 80.0323C6.50379 80.0323 4.03907 81.8055 4.03907 85.4777C4.03907 88.9017 6.10836 90.8735 9.4845 90.8735C11.357 90.8735 13.2295 90.3061 14.2881 89.5915V93.2389C13.327 93.8294 11.3322 94.4216 9.16355 94.4216C3.52129 94.4216 -0.000244141 91.3665 -0.000244141 85.5557C-0.000244141 79.839 3.86706 76.4895 9.2203 76.4895" fill="#4B008C"/>
<path d="M17.6126 94.0671V80.27C19.1411 80.1973 21.6537 80.1973 23.7478 80.1973C27.0247 80.1973 29.0674 81.2807 29.0674 83.921C29.0674 85.0788 28.6489 86.0878 27.5407 86.758C28.9202 87.2262 29.5851 88.0879 29.5851 89.7636C29.5851 92.4978 27.812 94.1487 23.8454 94.1487C21.2831 94.1487 19.189 94.1487 17.6108 94.0742L17.6126 94.0671ZM21.2139 83.0308V85.7402H23.5014C24.9802 85.7402 25.5458 85.3696 25.5458 84.3607C25.5458 83.4741 24.9057 83.0308 23.5953 83.0308H21.2139ZM21.2139 88.3503V91.3027H23.6521C25.3525 91.3027 26.0671 90.9091 26.0671 89.8487C26.0671 88.7883 25.4519 88.3468 23.6769 88.3468L21.2139 88.3503Z" fill="#4B008C"/>
<path d="M45.0334 84.6814C45.0334 87.7349 42.496 88.7456 38.2581 88.7456H35.421C35.9884 90.4461 37.4176 91.0862 39.7085 91.0862C41.6803 91.0862 43.5032 90.4957 44.4961 89.829V93.23C43.3365 93.8949 41.6129 94.4127 39.2723 94.4127C34.8128 94.4127 31.6353 92.0472 31.6353 87.1692C31.6353 82.6352 34.8128 79.9258 39.1482 79.9258C42.4499 79.9258 45.037 81.6493 45.037 84.6814H45.0334ZM35.2845 86.061H38.8308C40.6785 86.061 41.4675 85.7064 41.4675 84.7542C41.4675 83.8427 40.7281 83.1033 39.1269 83.1033C37.2545 83.1033 35.6763 84.0892 35.2827 86.061" fill="#4B008C"/>
<path d="M51.6348 80.2696V81.5499C52.4983 80.6633 53.7785 80.0214 55.4542 80.0214C57.4047 80.0214 58.8055 80.7307 59.6921 82.018C60.2435 81.3784 60.9288 80.868 61.6995 80.523C62.4702 80.1779 63.3074 80.0067 64.1517 80.0214C67.9941 80.0214 69.7443 82.3372 69.7443 86.1566V94.065H65.9248V86.4793C65.9248 84.582 65.1127 83.4738 63.4424 83.4738C61.8891 83.4738 60.756 84.2859 60.756 86.1335V94.0668H56.933V86.4793C56.933 84.582 56.2415 83.4738 54.5428 83.4738C52.6951 83.4738 51.7589 84.582 51.7589 86.4793V94.0668H47.9395V80.2696H51.6348Z" fill="#4B008C"/>
<path d="M75.36 98.009H71.8367V90.6184H73.585C74.3989 89.6077 74.7199 88.5243 74.9894 87.2671C75.1999 86.1382 75.299 84.9914 75.2855 83.8431L75.3352 76.8213H88.595V90.6184H91.1076V98.009H87.5612V94.0672H75.36V98.009ZM84.6727 80.2772H78.9081L78.8585 84.2687C78.8437 85.4322 78.7447 86.5931 78.5623 87.7423C78.3947 88.7412 78.0879 89.7117 77.6509 90.6255H84.6727V80.2772Z" fill="#4B008C"/>
<path d="M106.13 84.6814C106.13 87.7349 103.592 88.7456 99.3544 88.7456H96.5173C97.0847 90.4461 98.5121 91.0862 100.805 91.0862C102.775 91.0862 104.598 90.4957 105.584 89.829V93.23C104.426 93.8949 102.702 94.4127 100.36 94.4127C95.902 94.4127 92.7227 92.0472 92.7227 87.1692C92.7227 82.6352 95.902 79.9258 100.237 79.9258C103.539 79.9258 106.126 81.6493 106.126 84.6814H106.13ZM96.3736 86.061H99.92C101.769 86.061 102.557 85.7064 102.557 84.7542C102.557 83.8427 101.817 83.1033 100.216 83.1033C98.3436 83.1033 96.7673 84.0892 96.3736 86.061Z" fill="#4B008C"/>
<path d="M112.854 85.5186H114.726L118.202 80.27H122.512L118.028 86.9726L122.734 94.0671H118.274L114.95 88.8203H112.854V94.0671H109.036V80.27H112.854V85.5186Z" fill="#4B008C"/>
<path d="M130.937 94.413C126.871 94.413 123.422 91.9979 123.422 87.1429C123.422 82.4121 126.871 79.9243 130.937 79.9243C135.003 79.9243 138.452 82.4068 138.452 87.1181C138.452 91.9057 135.003 94.4112 130.937 94.4112V94.413ZM130.937 83.3483C128.942 83.3483 127.213 84.6303 127.213 87.1429C127.213 89.6555 128.889 90.9854 130.937 90.9854C132.909 90.9854 134.661 89.6555 134.661 87.1181C134.661 84.5807 132.912 83.3483 130.937 83.3483Z" fill="#4B008C"/>
<path d="M140.962 98.9946V87.2242C140.962 82.1973 144.191 79.9312 148.28 79.9312C152.618 79.9312 155.205 82.8143 155.205 87.1746C155.205 91.7068 152.568 94.3187 148.454 94.3187C147 94.3187 145.668 93.8755 144.757 93.1112C144.782 93.5315 144.782 93.9747 144.782 94.3684V98.9999L140.962 98.9946ZM148.183 83.4243C146.039 83.4243 144.757 84.8535 144.757 87.148C144.757 89.4425 146.186 90.8433 148.183 90.8433C150.227 90.8433 151.41 89.4638 151.41 87.2225C151.41 84.8571 150.227 83.4279 148.183 83.4279" fill="#4B008C"/>
</g>
<g clip-path="url(#clip1_1_33)">
<path d="M93.5068 65.1553L93.3295 65.1145L93.2319 65.0879L93.4997 65.1553" fill="#4B008C"/>
<path d="M76.9062 19.8154C77.4311 18.8519 77.9962 17.9151 78.6014 17.0049C79.2043 17.9163 79.7687 18.8537 80.2948 19.8171C80.6033 20.3834 80.8989 20.9567 81.1814 21.5371C81.471 22.1388 81.7429 22.7529 81.9971 23.3795C82.4403 24.5054 82.8961 25.7697 83.1798 26.6776C83.2341 26.8549 83.2873 27.0322 83.3393 27.2095C83.4333 27.5216 83.5167 27.8372 83.6053 28.1529C83.6567 28.3444 83.7064 28.5377 83.7543 28.7309C83.8021 28.9242 83.8394 29.0749 83.8802 29.2487C83.9139 29.3923 83.9475 29.536 83.9777 29.6796C83.9895 29.7257 84.0002 29.7718 84.0096 29.8179L84.1054 30.2718C84.1373 30.4225 84.1656 30.575 84.1958 30.7275C84.2259 30.88 84.2543 31.0307 84.2809 31.1832C84.3075 31.3357 84.3288 31.4474 84.3501 31.5787C84.3808 31.7501 84.4092 31.9238 84.4352 32.1C84.4511 32.1957 84.4653 32.2932 84.4795 32.3908C84.4884 32.4475 84.4972 32.5043 84.5043 32.5681L84.5256 32.7241C84.5266 32.743 84.5266 32.762 84.5256 32.7809C84.538 32.8642 84.5487 32.9458 84.5593 33.0291C84.5647 33.0578 84.5682 33.0868 84.5699 33.116C84.5823 33.1976 84.5912 33.2791 84.6001 33.3625C84.6001 33.3625 84.6001 33.3784 84.6001 33.3873C84.6001 33.3962 84.6001 33.4352 84.6089 33.4582C84.6099 33.4694 84.6099 33.4807 84.6089 33.4919C84.6231 33.6107 84.6355 33.7278 84.6479 33.8466C84.6604 33.9654 84.6728 34.0842 84.6834 34.2012C84.6941 34.3182 84.7065 34.4246 84.7171 34.5363C84.718 34.544 84.718 34.5517 84.7171 34.5594C84.7331 34.7243 84.7472 34.8892 84.7597 35.0559C84.7951 35.5287 84.8217 36.0057 84.8395 36.4868C84.8483 36.7173 84.8554 36.9479 84.8607 37.1801V37.2262C84.8607 37.4532 84.8607 37.6802 84.8607 37.9071V37.9249C84.8607 37.9426 84.8607 37.9603 84.8607 37.9781C84.8395 38.345 84.6843 38.6915 84.4245 38.9515C84.2363 39.1424 83.9997 39.2784 83.7401 39.3452C83.7168 39.3522 83.6932 39.3575 83.6692 39.3611C83.6248 39.37 83.5787 39.3771 83.5326 39.3824C83.4818 39.3851 83.4309 39.3851 83.3801 39.3824H73.8014C73.7506 39.3851 73.6997 39.3851 73.6489 39.3824C73.6028 39.3824 73.5567 39.37 73.5124 39.3611L73.4415 39.3452C73.1818 39.2784 72.9453 39.1424 72.757 38.9515C72.4972 38.6915 72.342 38.345 72.3208 37.9781C72.3208 37.955 72.3208 37.932 72.3208 37.9071C72.3208 37.6802 72.3208 37.4532 72.3208 37.2262V37.1801C72.3208 36.9479 72.3332 36.7173 72.3421 36.4868C72.3598 36.0081 72.3864 35.5311 72.4219 35.0559C72.4396 34.8165 72.4591 34.5807 72.4822 34.3466C72.5265 33.8714 72.5797 33.3997 72.6417 32.928C72.663 32.7614 72.6878 32.5965 72.7127 32.4316C72.7375 32.2649 72.7623 32.1 72.7889 31.9351C72.8155 31.7702 72.8421 31.6088 72.8705 31.4457C72.8882 31.3393 72.9077 31.2329 72.929 31.1283L72.9503 31.0095C72.9591 30.9651 72.9662 30.9226 72.9751 30.8783C72.9928 30.7825 73.0106 30.6867 73.0301 30.591C73.0301 30.5591 73.0425 30.5254 73.0496 30.4935C73.0691 30.3906 73.0904 30.2878 73.1116 30.1849C73.1329 30.0821 73.1453 30.0254 73.1631 29.9438C73.2411 29.5785 73.3262 29.215 73.4149 28.8515L73.5532 28.3071L73.5744 28.2256C73.6152 28.0713 73.6578 27.9188 73.7003 27.7663C73.7429 27.6138 73.7961 27.4294 73.844 27.261C73.8918 27.0925 73.9592 26.878 74.0213 26.6882C74.2979 25.8016 74.7412 24.5604 75.1756 23.4557C75.1746 23.451 75.1746 23.4462 75.1756 23.4415C75.4404 22.7996 75.7224 22.1678 76.0214 21.546C76.2992 20.9644 76.5948 20.3911 76.908 19.826L76.9062 19.8154ZM77.1474 34.3076C77.1474 33.932 77.2916 33.5708 77.5503 33.2985C77.8091 33.0263 78.1625 32.8638 78.5376 32.8447H78.6688C79.0437 32.8642 79.3969 33.0268 79.6555 33.299C79.9142 33.5711 80.0586 33.9321 80.059 34.3076V36.4478H81.9261C81.9102 36.0595 81.8871 35.6694 81.8587 35.2828C81.8463 35.1303 81.8339 34.9761 81.8197 34.8236C81.7914 34.4914 81.7577 34.1604 81.7187 33.8306C81.7062 33.7207 81.6921 33.609 81.6779 33.499C81.6566 33.3264 81.6335 33.1544 81.6087 32.983C81.5945 32.8749 81.5786 32.7685 81.5626 32.6621C81.5467 32.5557 81.536 32.4848 81.5218 32.4032C81.5041 32.2826 81.4846 32.1603 81.4615 32.0397C81.4385 31.9191 81.4208 31.7985 81.3977 31.6851C81.3569 31.4421 81.3091 31.201 81.2594 30.9616C81.2364 30.841 81.2115 30.7204 81.1849 30.607C81.1371 30.3764 81.0856 30.1477 81.0307 29.919C80.9952 29.7682 80.9597 29.6193 80.9207 29.4703C80.8693 29.2522 80.8126 29.0377 80.7434 28.8214C80.7133 28.7026 80.6814 28.5855 80.6459 28.4667C80.5608 28.1617 80.4709 27.8573 80.3764 27.5535C80.3409 27.4383 80.3037 27.323 80.2664 27.2078C80.1937 26.9773 80.1157 26.7467 80.0359 26.518C79.9366 26.2307 79.8332 25.9441 79.7256 25.658C79.6086 25.3388 79.4827 25.0214 79.3532 24.7076C79.1168 24.1165 78.8638 23.5391 78.5943 22.9752C78.3248 23.5438 78.0718 24.1213 77.8354 24.7076C77.7059 25.0214 77.5801 25.3388 77.463 25.658C77.3543 25.9441 77.2508 26.2307 77.1527 26.518C77.0729 26.7467 76.9949 26.9773 76.9222 27.2078C76.7874 27.6262 76.6615 28.0447 76.5427 28.4667C76.5073 28.5855 76.4754 28.7026 76.4452 28.8214C76.3849 29.0377 76.3282 29.2522 76.2679 29.4703C76.2307 29.6193 76.1952 29.7682 76.158 29.919C76.103 30.1477 76.0516 30.3764 76.0037 30.607C75.9771 30.7258 75.9523 30.8463 75.9292 30.9616C75.8796 31.201 75.8317 31.4421 75.7909 31.6851C75.7685 31.8033 75.7472 31.9215 75.7271 32.0397C75.7058 32.162 75.6863 32.2826 75.6668 32.4032C75.6526 32.4901 75.6384 32.5805 75.626 32.6621C75.6136 32.7436 75.5941 32.8749 75.5799 32.983C75.5551 33.1556 75.532 33.3276 75.5108 33.499C75.4966 33.609 75.4824 33.7207 75.47 33.8306C75.431 34.1604 75.3973 34.4914 75.3689 34.8236C75.3547 34.9761 75.3423 35.1303 75.3299 35.2828C75.3015 35.6706 75.2791 36.0589 75.2625 36.4478H77.1297L77.1474 34.3076Z" fill="#4B008C"/>
<path d="M51.523 0.68801C52.0886 0.614413 52.6614 0.614413 53.227 0.68801C53.3192 0.700422 53.4132 0.712834 53.5054 0.728792C54.0338 0.817451 54.5586 0.917931 55.08 1.03023C55.3247 1.08343 55.5694 1.1384 55.8123 1.19514C56.0552 1.25188 56.2769 1.30685 56.5074 1.37246C63.6512 3.21354 70.1026 7.09893 75.0708 12.5524L75.0974 12.5825C75.9424 13.5124 76.7401 14.4842 77.4877 15.4941L77.5781 15.6146L75.89 18.2301L75.7038 17.973L75.6613 17.9145L75.5567 17.7691C74.8841 16.8135 74.162 15.8937 73.3934 15.0135C68.8285 9.80143 62.8118 6.07041 56.1137 4.29821C55.9069 4.24265 55.6994 4.18945 55.4913 4.13862C55.2803 4.08543 55.0676 4.03578 54.8548 3.9879L54.7892 3.97371L54.4345 3.8957L54.0799 3.823C53.7253 3.7503 53.3706 3.68469 53.016 3.6244C52.4793 3.53341 51.9292 3.56118 51.4044 3.70579C50.8796 3.85039 50.3929 4.10829 49.9785 4.46134C49.5522 4.82075 49.2096 5.26898 48.9747 5.77467C48.7398 6.28035 48.6182 6.83127 48.6185 7.38886V21.397C48.6246 25.3925 50.2145 29.2226 53.0397 32.0478C55.865 34.873 59.6951 36.4629 63.6905 36.469C64.079 36.469 64.4515 36.6233 64.7262 36.898C65.0009 37.1727 65.1552 37.5452 65.1552 37.9337C65.1552 38.3221 65.0009 38.6947 64.7262 38.9693C64.4515 39.244 64.079 39.3983 63.6905 39.3983C62.2472 39.3997 60.8634 39.9737 59.8428 40.9943C58.8223 42.0149 58.2483 43.3987 58.2469 44.842V58.5788C58.2471 58.7287 58.2554 58.8785 58.2717 59.0274C58.2806 59.0984 58.2912 59.1711 58.3036 59.242C58.316 59.3111 58.3302 59.3821 58.3462 59.4512C58.3462 59.4512 58.3462 59.4512 58.3462 59.4619C58.3586 59.5151 58.3728 59.5683 58.387 59.6215C58.4011 59.6747 58.4153 59.719 58.4313 59.7686C58.6751 60.5071 59.1361 61.1548 59.7541 61.6269C60.2017 61.9797 60.7243 62.225 61.2816 62.344C61.839 62.463 62.4162 62.4524 62.9689 62.3131L63.0735 62.2848L63.1284 62.2724L63.3536 62.2121L63.5629 62.1553L63.8537 62.072L64.1888 61.9709L64.2473 61.9532C64.3892 61.9106 64.531 61.8645 64.6711 61.8184L64.8626 61.7528C64.9832 61.7138 65.1038 61.6713 65.2173 61.6287L65.3591 61.5773C65.4868 61.5329 65.6127 61.4851 65.7386 61.4372L65.8325 61.4C65.9833 61.3432 66.1358 61.2829 66.2847 61.2226C66.4336 61.1623 66.6269 61.0826 66.7954 61.0081C66.9638 60.9336 67.1252 60.8627 67.2901 60.7882L67.3415 60.7634C67.494 60.6948 67.6465 60.6221 67.799 60.5453C67.9657 60.4673 68.1288 60.3839 68.2937 60.2988C68.4586 60.2137 68.62 60.1215 68.7813 60.0399C68.9427 59.9584 69.1041 59.8626 69.2637 59.7704C69.4232 59.6782 69.5828 59.5931 69.7389 59.492L70.1219 59.258C70.5031 59.0186 70.8755 58.7703 71.2425 58.5132C71.518 58.3205 71.7893 58.1213 72.0564 57.9157L72.3242 57.71C72.5015 57.5717 72.6788 57.4316 72.8455 57.2862C73.0228 57.1426 73.1895 56.9971 73.3579 56.8482C73.5264 56.6993 73.6948 56.5503 73.8597 56.396C74.0246 56.2418 74.1878 56.0893 74.3491 55.9315C74.4041 55.8783 74.4591 55.8251 74.5105 55.7719L74.6701 55.6123C74.8805 55.3995 75.088 55.182 75.2925 54.9598C75.3864 54.8569 75.4804 54.7541 75.5726 54.6495C76.2257 53.9177 76.835 53.148 77.3972 52.3443C77.4557 52.2617 77.5222 52.1851 77.5958 52.1156C77.6689 52.0486 77.7485 51.9892 77.8334 51.9383C77.9354 51.8753 78.045 51.8258 78.1597 51.7911C78.412 51.7127 78.6808 51.7043 78.9375 51.7668C79.1942 51.8292 79.4291 51.9602 79.6172 52.1457C79.6825 52.2074 79.7419 52.2751 79.7946 52.3479L79.9577 52.5766C80.0127 52.6529 80.0659 52.7273 80.1226 52.8036C80.2325 52.9543 80.346 53.1032 80.4595 53.2504C80.573 53.3976 80.6882 53.5448 80.8141 53.6902C81.1688 54.1246 81.5234 54.5484 81.9064 54.9562C82.0004 55.0591 82.0944 55.1601 82.1901 55.2612C82.2859 55.3623 82.3834 55.4616 82.4809 55.5609C82.6742 55.7595 82.8728 55.9527 83.0732 56.1425C83.3403 56.4002 83.6134 56.649 83.8924 56.889C84.0307 57.0113 84.1725 57.1319 84.3144 57.2436C84.4563 57.3553 84.5981 57.4795 84.7417 57.5983L85.013 57.811C85.4687 58.1657 85.9351 58.5026 86.4139 58.8218C86.6036 58.9494 86.7969 59.0753 86.9919 59.1977C87.1338 59.2899 87.2774 59.375 87.4228 59.4654L87.4724 59.4938C87.6249 59.5878 87.781 59.68 87.937 59.7669C88.0931 59.8537 88.258 59.9442 88.4193 60.0364C88.5807 60.1286 88.7438 60.2137 88.9087 60.2953C89.0736 60.3768 89.2226 60.4566 89.3822 60.5311C89.3906 60.5376 89.4003 60.5424 89.4105 60.5453C89.5559 60.618 89.7013 60.6871 89.8485 60.7545L89.9141 60.7847C90.0666 60.8556 90.2191 60.9247 90.3751 60.9921L90.4141 61.0081C90.5808 61.0808 90.7475 61.1517 90.916 61.2191C91.0844 61.2865 91.2156 61.3414 91.3681 61.3964C91.3983 61.4106 91.4302 61.4212 91.4621 61.4336C91.572 61.4762 91.682 61.517 91.7937 61.556C91.8646 61.5844 91.9373 61.6092 92.01 61.6358C92.0827 61.6624 92.1873 61.6961 92.2671 61.7227L92.5686 61.8255C92.7282 61.8787 92.8895 61.9301 93.0526 61.978C93.1366 62.0052 93.2199 62.03 93.3027 62.0525C93.4209 62.0891 93.5432 62.1246 93.6697 62.1589L93.7743 62.1872L94.0775 62.2688L94.1502 62.2865L94.2389 62.3096C94.7913 62.4486 95.3682 62.459 95.9252 62.34C96.4822 62.221 97.0045 61.9759 97.4519 61.6234C98.0709 61.1455 98.5297 60.4905 98.7676 59.7456C98.7836 59.6977 98.7977 59.6481 98.8119 59.5984C98.8261 59.5488 98.8403 59.492 98.8527 59.4388C98.8535 59.4353 98.8535 59.4317 98.8527 59.4282C98.8687 59.359 98.8829 59.2899 98.8953 59.2189C98.9077 59.148 98.9183 59.0771 98.9272 59.0044C98.9435 58.856 98.9518 58.7068 98.952 58.5575V44.8278C98.9501 43.3846 98.376 42.0011 97.3555 40.9806C96.3351 39.9601 94.9515 39.386 93.5083 39.3841C93.1199 39.3841 92.7474 39.2298 92.4727 38.9552C92.198 38.6805 92.0437 38.3079 92.0437 37.9195C92.0437 37.531 92.198 37.1585 92.4727 36.8838C92.7474 36.6092 93.1199 36.4548 93.5083 36.4548C97.5038 36.4488 101.334 34.8589 104.159 32.0336C106.984 29.2084 108.574 25.3783 108.58 21.3828V7.37468C108.581 6.81709 108.459 6.26617 108.224 5.76048C107.989 5.2548 107.647 4.80656 107.22 4.44715C106.806 4.09386 106.319 3.83581 105.794 3.6912C105.269 3.54659 104.718 3.51895 104.181 3.61021C103.826 3.6705 103.472 3.7367 103.117 3.80881L102.763 3.88151L102.408 3.95953L102.342 3.97371C102.13 4.02159 101.917 4.07124 101.706 4.12443L101.083 4.28402C94.386 6.05664 88.37 9.78762 83.8055 14.9994C83.0368 15.8795 82.3148 16.7993 81.6422 17.7549C81.605 17.8028 81.5713 17.8506 81.5376 17.9003L81.4951 17.9588L81.3089 18.2159L79.6208 15.6005L79.7095 15.4799C80.456 14.4745 81.2592 13.4939 82.1015 12.5683L82.1281 12.5382C87.0963 7.08475 93.5477 3.19935 100.692 1.35827C100.922 1.29976 101.154 1.24302 101.387 1.18095C101.619 1.11889 101.872 1.06924 102.117 1.01605C102.637 0.904336 103.161 0.805039 103.692 0.714607C103.784 0.698648 103.869 0.686236 103.97 0.673824L104.178 0.650772C104.247 0.643679 104.316 0.63836 104.385 0.634814H104.511C104.617 0.634814 104.722 0.634814 104.827 0.634814H104.876C104.931 0.634814 104.986 0.634814 105.041 0.634814C105.096 0.634814 105.183 0.634814 105.254 0.645453C105.394 0.645453 105.536 0.668505 105.676 0.68801C105.749 0.68801 105.82 0.707514 105.892 0.719926C106.07 0.75007 106.247 0.787308 106.424 0.831637C106.601 0.875967 106.779 0.927388 106.945 0.985903C107.084 1.03378 107.219 1.08343 107.353 1.14017C107.531 1.21642 107.708 1.29798 107.885 1.38842C108.323 1.6163 108.734 1.89226 109.111 2.21117C109.863 2.84476 110.468 3.63552 110.883 4.52788C111.297 5.42024 111.511 6.39253 111.51 7.37645V21.3846C111.492 25.1939 110.274 28.9008 108.03 31.9789C105.786 35.0569 102.628 37.3496 99.007 38.5312C99.9095 39.3145 100.633 40.2829 101.127 41.3706C101.622 42.4584 101.877 43.6399 101.874 44.8349V58.5735C101.874 58.9004 101.851 59.2269 101.805 59.5505C101.777 59.7403 101.743 59.9282 101.701 60.1144C101.686 60.18 101.668 60.2456 101.653 60.3095C101.605 60.4868 101.55 60.6641 101.486 60.8414C101.487 60.8455 101.487 60.8497 101.486 60.8538C101.433 61.0028 101.374 61.1499 101.309 61.2936C100.666 62.7379 99.5411 63.9143 98.1272 64.6219C96.7134 65.3294 95.0978 65.5243 93.5562 65.1733L93.5172 65.1644H93.5066L93.2388 65.097L92.9729 65.0243C92.7955 64.9747 92.6182 64.9233 92.4409 64.8701C92.2636 64.8169 92.0863 64.7619 91.9089 64.7052L91.377 64.5278H91.3628C91.1855 64.4676 91.0082 64.4085 90.8308 64.3505C90.6677 64.292 90.5046 64.23 90.3432 64.1732L90.2865 64.1519C90.1092 64.0863 89.9496 64.0189 89.7829 63.9498C89.6641 63.9019 89.5453 63.8523 89.4283 63.8008C89.3378 63.7636 89.2509 63.7246 89.1587 63.6838L89.102 63.659C88.946 63.5916 88.7917 63.5207 88.6374 63.4498H88.6215L88.1321 63.2157C87.9654 63.1359 87.8005 63.0526 87.6356 62.9675C87.4707 62.8823 87.3058 62.7901 87.1426 62.7086C86.9795 62.627 86.8164 62.5313 86.655 62.4408C85.8077 61.9618 84.9851 61.4404 84.1903 60.8786C83.9255 60.6907 83.6637 60.4986 83.4048 60.3024C83.2931 60.2173 83.1831 60.125 83.075 60.047C82.8551 59.8697 82.6388 59.7013 82.4242 59.5151L82.105 59.2455C81.7078 58.9027 81.3207 58.5481 80.9436 58.1816C80.8177 58.0611 80.6936 57.9387 80.5694 57.8164C80.4453 57.694 80.3709 57.6195 80.2751 57.5185C79.6911 56.9191 79.1338 56.2932 78.603 55.6407C78.0722 56.2932 77.5149 56.9191 76.9309 57.5185L76.6365 57.8164C76.5124 57.9387 76.3883 58.0611 76.2624 58.1816C75.8853 58.5434 75.4982 58.898 75.101 59.2455L74.7818 59.5151C74.5672 59.6924 74.3509 59.8697 74.131 60.047C74.0229 60.1339 73.9129 60.2243 73.8012 60.3024C73.3579 60.6393 72.9052 60.9632 72.443 61.2741L71.9784 61.579C71.8224 61.6801 71.6663 61.7777 71.5085 61.8752C71.3507 61.9727 71.1911 62.0685 71.0315 62.1624C70.8719 62.2564 70.7106 62.3504 70.5492 62.4408L70.1573 62.6571C69.9623 62.7635 69.7672 62.8664 69.5704 62.9675C69.4108 63.049 69.2495 63.1306 69.0881 63.2086L69.0668 63.2192C68.9214 63.2919 68.7742 63.3611 68.6271 63.4285L68.5597 63.4604C68.409 63.5313 68.2565 63.6005 68.104 63.6661L68.0472 63.6909C67.9586 63.7317 67.8699 63.7707 67.7777 63.8079C67.6607 63.8594 67.5419 63.909 67.4231 63.9569C67.2564 64.026 67.088 64.0934 66.9195 64.159L66.8628 64.1803C66.7014 64.2424 66.5383 64.3044 66.3751 64.3576C66.212 64.4108 66.0311 64.4818 65.8574 64.5349L65.8077 64.5527L65.313 64.7158C65.1357 64.7725 64.9584 64.8257 64.781 64.8789C64.6037 64.9321 64.4264 64.9836 64.2491 65.0332C64.0718 65.0829 63.9086 65.1254 63.7366 65.168L63.6657 65.1857C62.6819 65.4115 61.6601 65.4157 60.6744 65.198C59.6888 64.9802 58.7639 64.546 57.9667 63.9267C56.8357 63.0558 56.0105 61.8481 55.6102 60.4779C55.5853 60.3875 55.5605 60.3006 55.5375 60.2031C55.486 59.992 55.4452 59.7775 55.4133 59.5612C55.367 59.237 55.3439 58.9099 55.3442 58.5824V44.8278C55.3418 43.6327 55.5968 42.4511 56.0919 41.3634C56.5869 40.2757 57.3105 39.3073 58.2132 38.5241C54.5876 37.3458 51.4258 35.0544 49.1774 31.9757C46.929 28.8971 45.7084 25.1879 45.6892 21.3757V7.36758C45.6887 6.38365 45.9033 5.4115 46.318 4.51924C46.7327 3.62698 47.3376 2.8362 48.0901 2.20231C48.4667 1.88339 48.8777 1.60743 49.3154 1.37955C49.4927 1.28912 49.67 1.20223 49.8473 1.13131C49.9821 1.07456 50.1168 1.02492 50.2551 0.977039C50.4277 0.919115 50.6015 0.867691 50.7765 0.822771C50.9514 0.77785 51.1287 0.740615 51.3084 0.711062C51.3811 0.700423 51.452 0.688009 51.5247 0.679144L51.523 0.68801Z" fill="#00AD8E"/>
<path d="M64.2383 65.0151C64.1177 65.0506 63.9954 65.0825 63.873 65.1144L63.7258 65.1499C63.9031 65.1073 64.0681 65.063 64.2383 65.0151Z" fill="#4B008C"/>
</g>
<defs>
<clipPath id="clip0_1_33">
<rect width="156" height="23" fill="white" transform="translate(0 76)"/>
</clipPath>
<clipPath id="clip1_1_33">
<rect width="67" height="66" fill="white" transform="translate(45)"/>
</clipPath>
</defs>
</svg>
