<svg width="150" height="90" viewBox="0 0 150 90" fill="none" xmlns="http://www.w3.org/2000/svg">
<g opacity="0.75">
<g opacity="0.75">
<path opacity="0.75" d="M77.6426 50.9257C73.4302 47.4714 67.47 41.052 74.5853 34.1461C81.7006 27.2403 88.3778 32.9709 91.8702 37.1141C97.5303 43.8262 99.212 54.4369 97.3488 56.2441C95.6986 57.8461 84.3499 56.4276 77.6426 50.9257Z" fill="#00AD8E"/>
</g>
</g>
<g opacity="0.75">
<g opacity="0.75">
<path opacity="0.75" d="M72.3409 50.9257C76.5534 47.4714 82.5136 41.052 75.3983 34.1461C68.283 27.2403 61.6057 32.9709 58.1134 37.1141C52.4532 43.8262 50.7715 54.4369 52.6393 56.2441C54.2894 57.8461 65.6382 56.4276 72.3454 50.9257" fill="#FF6000"/>
</g>
</g>
<g opacity="0.75">
<g opacity="0.75">
<path opacity="0.75" d="M71.07 8.78322C77.3017 13.8949 86.1167 23.39 75.5946 33.606C65.0724 43.822 55.1893 35.3433 50.0242 29.2137C41.6533 19.2861 39.166 3.59149 41.9233 0.917707C44.3701 -1.45753 61.1509 0.645376 71.073 8.78176" fill="#3F0099"/>
</g>
</g>
<g opacity="0.75">
<g opacity="0.75">
<path opacity="0.75" d="M78.9131 8.78322C72.6814 13.8949 63.8664 23.39 74.3886 33.606C84.9108 43.822 94.7909 35.3433 99.9589 29.2137C108.33 19.2861 110.817 3.59149 108.06 0.917707C105.613 -1.45753 88.8322 0.645376 78.9101 8.78176" fill="#3F0099"/>
</g>
</g>
<path d="M8.88998 68.8721C10.9902 68.8721 12.6764 69.3337 13.701 69.9585V73.6109C12.7709 72.8944 11.1282 72.1997 9.22303 72.1997C6.2707 72.1997 3.88843 73.8643 3.88843 77.3099C3.88843 80.5225 5.88965 82.372 9.15101 82.372C10.9617 82.372 12.7709 81.8405 13.8015 81.1706V84.5914C12.8729 85.1463 10.9437 85.7011 8.85098 85.7011C3.39788 85.7011 0 82.8337 0 77.3784C0 72.0148 3.73841 68.8721 8.90648 68.8721" fill="#4B008C"/>
<path d="M17.0093 85.3778V72.4312C18.4855 72.3613 20.9098 72.3613 22.9395 72.3613C26.1063 72.3613 28.0835 73.3807 28.0835 75.8565C28.0835 76.9429 27.6785 77.8953 26.6059 78.5157C27.9395 78.9526 28.5831 79.7637 28.5831 81.3366C28.5831 83.9026 26.8684 85.4506 23.0325 85.4506C20.5557 85.4506 18.532 85.4506 17.0078 85.3822L17.0093 85.3778ZM20.4852 75.0249V77.5633H22.6994C24.1291 77.5633 24.6767 77.2167 24.6767 76.2686C24.6767 75.4371 24.0571 75.0205 22.7955 75.0205L20.4852 75.0249ZM20.4852 80.0186V82.7929H22.842C24.4921 82.7929 25.1762 82.423 25.1762 81.4283C25.1762 80.4336 24.5762 80.0186 22.866 80.0186H20.4852Z" fill="#4B008C"/>
<path d="M43.5123 76.57C43.5123 79.436 41.0595 80.3841 36.9641 80.3841H34.2248C34.7738 81.9788 36.154 82.5802 38.3697 82.5802C40.2734 82.5802 42.0361 82.0254 42.9887 81.4006V84.5914C41.8696 85.2161 40.2029 85.7011 37.9407 85.7011C33.6307 85.7011 30.5583 83.4817 30.5583 78.9045C30.5583 74.6506 33.6307 72.1079 37.8206 72.1079C41.013 72.1079 43.5123 73.7259 43.5123 76.57ZM34.0822 77.8647H37.5116C39.2983 77.8647 40.0619 77.5399 40.0619 76.6385C40.0619 75.7836 39.3463 75.0904 37.7997 75.0904C35.989 75.0904 34.4648 76.0152 34.0837 77.8574" fill="#4B008C"/>
<path d="M49.8941 72.4313V73.6327C50.7267 72.8012 51.9659 72.1997 53.5845 72.1997C55.4657 72.1997 56.8234 72.8711 57.6815 74.0725C58.7046 72.8944 60.2528 72.1997 61.9915 72.1997C65.7059 72.1997 67.3921 74.3725 67.3921 77.9565V85.3836H63.7017V78.2623C63.7017 76.4827 62.9156 75.4429 61.3014 75.4429C59.8012 75.4429 58.7061 76.2045 58.7061 77.939V85.3836H55.0157V78.2623C55.0157 76.4827 54.3481 75.4429 52.7054 75.4429C50.9187 75.4429 50.0141 76.4827 50.0141 78.2623V85.3836H46.3237V72.4371L49.8941 72.4313Z" fill="#4B008C"/>
<path d="M72.8254 89.0768H69.42V82.136H71.1107C71.8953 81.188 72.2059 80.1715 72.4609 78.9919C72.6645 77.9327 72.7605 76.8566 72.7474 75.7792L72.7954 69.1909H85.6069V82.136H88.0431V89.0724H84.6137V85.3734H72.8254V89.0768ZM81.8264 72.4312H76.2548L76.2068 76.1768C76.1924 77.2685 76.0966 78.3578 75.9203 79.436C75.7581 80.3715 75.4617 81.2804 75.0397 82.136H81.8264V72.4312Z" fill="#4B008C"/>
<path d="M102.566 76.57C102.566 79.436 100.114 80.3841 96.0182 80.3841H93.2789C93.8264 81.9788 95.2081 82.5802 97.4223 82.5802C99.3275 82.5802 101.09 82.0254 102.043 81.4006V84.5914C100.924 85.2161 99.257 85.7011 96.9948 85.7011C92.6833 85.7011 89.611 83.4817 89.611 78.9045C89.611 74.6506 92.6833 72.1079 96.8748 72.1079C100.066 72.1079 102.566 73.7259 102.566 76.57ZM93.1439 77.8647H96.5732C98.3584 77.8647 99.1235 77.5399 99.1235 76.6385C99.1235 75.7836 98.4079 75.0904 96.8598 75.0904C95.0506 75.0904 93.5264 76.0152 93.1454 77.8574" fill="#4B008C"/>
<path d="M109.067 77.3549H110.876L114.235 72.4312H118.402L114.068 78.7195L118.617 85.3777H114.307L111.09 80.4525H109.067V85.3777H105.376V72.4312H109.067V77.3549Z" fill="#4B008C"/>
<path d="M126.545 85.7011C122.615 85.7011 119.281 83.4351 119.281 78.8812C119.281 74.4424 122.615 72.1079 126.545 72.1079C130.475 72.1079 133.807 74.438 133.807 78.8579C133.807 83.3433 130.474 85.7025 126.545 85.7025V85.7011ZM126.545 75.322C124.616 75.322 122.945 76.5249 122.945 78.8826C122.945 81.2127 124.563 82.4885 126.545 82.4885C128.45 82.4885 130.145 81.2404 130.145 78.8593C130.145 76.455 128.455 75.322 126.545 75.322Z" fill="#4B008C"/>
<path d="M136.236 90.0001V78.9511C136.236 74.2341 139.355 72.1064 143.308 72.1064C147.499 72.1064 150 74.8108 150 78.903C150 83.1569 147.45 85.602 143.476 85.602C142.07 85.602 140.784 85.187 139.902 84.4705C139.926 84.8622 139.926 85.2787 139.926 85.6486V90.0001H136.236ZM143.213 75.3904C141.141 75.3904 139.902 76.7317 139.902 78.8856C139.902 81.0118 141.284 82.353 143.213 82.353C145.189 82.353 146.333 81.0584 146.333 78.9555C146.333 76.736 145.189 75.3948 143.213 75.3948" fill="#4B008C"/>
</svg>
