<svg width="143" height="96" viewBox="0 0 143 96" fill="none" xmlns="http://www.w3.org/2000/svg">
<path d="M89.6752 55.8975C86.4128 55.8936 83.2334 54.8635 80.5824 52.9515C77.9314 51.0394 75.9418 48.3413 74.8922 45.2351C74.2892 46.5403 73.5981 47.8025 72.8237 49.0127L71.4999 51.0735L70.1809 49.0127C69.407 47.8027 68.7159 46.5411 68.1124 45.2367C66.9279 48.7624 64.5359 51.7499 61.3635 53.6662C58.1911 55.5824 54.4447 56.3026 50.7931 55.6982C47.1415 55.0937 43.8223 53.204 41.4281 50.3663C39.0338 47.5287 37.7204 43.9278 37.7221 40.2063C37.7221 35.1584 39.6108 30.9632 43.2115 27.9488L46.408 29.4848C42.7278 31.9568 40.863 35.5648 40.863 40.2047C40.8444 41.8626 41.153 43.5077 41.771 45.0448C42.389 46.5818 43.3041 47.9803 44.4634 49.1593C45.6226 50.3383 47.0029 51.2742 48.5244 51.913C50.0459 52.5518 51.6782 52.8807 53.327 52.8807C54.9757 52.8807 56.6081 52.5518 58.1296 51.913C59.651 51.2742 61.0313 50.3383 62.1906 49.1593C63.3498 47.9803 64.2649 46.5818 64.883 45.0448C65.501 43.5077 65.8096 41.8626 65.791 40.2047V38.8495C65.791 36.9584 65.0845 34.4608 61.7177 33.304C54.5386 30.8368 45.4056 27.344 38.3824 22.2064C30.5637 16.4832 26.6002 9.54239 26.6002 1.5792V7.27843e-07H46.2091C51.1189 -0.00105577 55.9613 1.14806 60.3526 3.35624C64.7439 5.56442 68.5633 8.77094 71.5079 12.7216C74.4517 8.77202 78.2697 5.56616 82.6595 3.35803C87.0494 1.1499 91.8902 0.000186775 96.7986 7.27843e-07H116.408V1.5792C116.408 9.54239 112.444 16.4832 104.633 22.2064C97.6165 27.344 88.4771 30.8368 81.2996 33.3056C77.9328 34.4624 77.2263 36.96 77.2263 38.8512V40.2063C77.2077 41.8642 77.5163 43.5093 78.1343 45.0464C78.7524 46.5834 79.6675 47.9819 80.8267 49.1609C81.986 50.3399 83.3663 51.2758 84.8877 51.9146C86.4092 52.5534 88.0416 52.8823 89.6903 52.8823C91.3391 52.8823 92.9715 52.5534 94.4929 51.9146C96.0144 51.2758 97.3947 50.3399 98.5539 49.1609C99.7132 47.9819 100.628 46.5834 101.246 45.0464C101.864 43.5093 102.173 41.8642 102.154 40.2063C102.154 35.5664 100.29 31.9552 96.6093 29.4864L99.8058 27.9504C103.407 30.9664 105.295 35.1616 105.295 40.2095C105.291 44.3697 103.645 48.3581 100.72 51.2997C97.7944 54.2414 93.8281 55.8961 89.6911 55.9007L89.6752 55.8975ZM71.4999 18.6192C69.3955 22.6974 68.2969 27.2246 68.2969 31.8192C68.2969 36.4137 69.3955 40.9409 71.4999 45.0191C73.6059 40.9414 74.7053 36.414 74.7053 31.8192C74.7053 27.2243 73.6059 22.6969 71.4999 18.6192ZM73.3663 15.52C76.2513 20.3561 77.7967 25.8806 77.8421 31.52C78.596 31.0202 79.4111 30.6206 80.2669 30.3312C96.019 24.9152 112.089 17.4608 113.203 3.1712H96.7986C92.1908 3.1699 87.6514 4.29286 83.5701 6.44371C79.4888 8.59456 75.9873 11.7091 73.3663 15.52ZM29.8 3.15839C30.9042 17.448 46.984 24.9024 62.736 30.3184C63.5919 30.6078 64.407 31.0074 65.1609 31.5072C65.2063 25.8678 66.7517 20.3433 69.6367 15.5072C67.0169 11.6965 63.517 8.58174 59.4371 6.43009C55.3573 4.27844 50.8192 3.15413 46.2123 3.15359L29.8 3.15839Z" fill="#482680"/>
<path d="M0 79.6607C0 76.6666 0.939292 74.2804 2.81787 72.5023C4.69644 70.7242 6.98712 69.8351 9.68989 69.8351C10.9417 69.8285 12.1834 70.0603 13.3495 70.5183C14.5322 70.9931 15.5917 71.7329 16.4474 72.6815C17.3636 73.6835 18.0018 74.9101 18.2978 76.2383H15.2413C14.3174 73.9386 12.4579 72.7711 9.66284 72.7359C7.71956 72.7359 6.15443 73.3791 4.96746 74.6655C3.78048 75.9519 3.18594 77.617 3.18382 79.6607C3.18382 81.5956 3.78739 83.2196 4.99451 84.5327C6.20164 85.8458 7.75774 86.5023 9.66284 86.5023C10.9085 86.53 12.1346 86.1871 13.1872 85.5167C14.2056 84.8452 14.9609 83.8392 15.324 82.6703H18.3997C17.9446 84.8783 16.8966 86.5524 15.2556 87.6927C13.6133 88.8333 11.6585 89.4311 9.66284 89.4031C6.95794 89.4031 4.67151 88.5231 2.80354 86.7631C0.935575 85.0031 0.00106074 82.6356 0 79.6607Z" fill="#4B008C"/>
<path d="M32.0896 79.4688C32.0896 80.8192 31.4908 81.704 30.2932 82.1232C31.0341 82.3042 31.6887 82.74 32.1437 83.3552C32.5832 83.9677 32.8127 84.7073 32.7976 85.4624C32.8124 86.0483 32.6909 86.6296 32.4428 87.16C32.2394 87.5944 31.9362 87.9739 31.5582 88.2672C31.155 88.5562 30.7033 88.7698 30.2248 88.8976C29.7366 89.0439 29.235 89.1404 28.7276 89.1856C28.2661 89.2208 27.7347 89.24 27.1365 89.24H21.3655V76H26.4014C26.9996 76 27.512 76.0139 27.9384 76.0416C28.4427 76.0809 28.9432 76.159 29.4356 76.2752C29.9241 76.3687 30.3906 76.5544 30.8103 76.8224C31.1835 77.0908 31.4904 77.4417 31.7077 77.848C31.975 78.3478 32.1067 78.9096 32.0896 79.4768V79.4688ZM24.2438 81.3296H26.5573C28.299 81.3296 29.1704 80.8096 29.1715 79.7696C29.1715 78.7125 28.3001 78.1835 26.5573 78.1824H24.2438V81.3296ZM24.2438 86.9408H26.8294C27.2834 86.9408 27.6377 86.9317 27.8922 86.9136C28.2053 86.884 28.5148 86.8245 28.8167 86.736C29.1457 86.658 29.4359 86.4638 29.6345 86.1888C29.8268 85.8821 29.9217 85.5238 29.9066 85.1616C29.9203 84.8065 29.8199 84.4564 29.6202 84.1632C29.4157 83.8885 29.1217 83.6948 28.7896 83.616C28.4641 83.5229 28.1323 83.4539 27.7968 83.4096C27.4306 83.3704 27.0624 83.3522 26.6941 83.3552H24.2438V86.9408Z" fill="#4B008C"/>
<path d="M41.8336 75.718C44.1014 75.718 45.7456 76.4022 46.766 77.7708C47.7865 79.1393 48.0766 80.9366 47.6364 83.1628H37.9417C37.9417 84.3361 38.3453 85.2667 39.1526 85.9547C39.9598 86.6427 40.9802 86.9894 42.2139 86.9947C43.8441 87.1055 45.4771 86.8242 46.9777 86.174L47.3579 88.3899C45.8043 89.1115 44.116 89.4933 42.4048 89.5099C40.2091 89.5473 38.4127 88.9073 37.0157 87.5899C35.6187 86.2726 34.9563 84.5206 35.0284 82.334C35.0655 80.2358 35.737 78.6076 37.0427 77.4492C38.3485 76.2908 39.9455 75.711 41.8336 75.71V75.718ZM41.8065 78.0092C39.6649 78.0092 38.392 79.0225 37.9879 81.0492H45.2274C45.2646 80.0998 44.9516 79.3564 44.2887 78.8188C43.6257 78.2812 42.7957 78.0145 41.7986 78.0188" fill="#4B008C"/>
<path d="M56.6391 89.1853H53.7544V78.6205H49.5364V76.0205H60.8858V78.6205H56.6391V89.1853Z" fill="#4B008C"/>
<path d="M62.1648 86.4752H62.8171C63.653 86.4752 64.22 86.256 64.5181 85.8176C64.8161 85.3792 65.0283 84.6325 65.1545 83.5776L66.7345 70.0576H78.5453V86.4752H80.5867V92.0592H77.6511V89.2128H65.1354V92.0592H62.1648V86.4752ZM69.4839 72.8176L68.3415 83.712C68.1782 85.1712 67.7878 86.1195 67.1704 86.5568H75.4777V72.8176H69.4839Z" fill="#4B008C"/>
<path d="M89.5717 75.718C91.8396 75.718 93.4837 76.4022 94.5041 77.7708C95.5246 79.1393 95.8152 80.9366 95.3761 83.1628H85.6862C85.6862 84.3361 86.0898 85.2667 86.897 85.9547C87.7043 86.6427 88.7252 86.9894 89.9599 86.9947C91.5896 87.1054 93.2221 86.8241 94.7221 86.174L95.104 88.3899C93.5499 89.1117 91.8611 89.4935 90.1493 89.5099C87.9556 89.5473 86.1593 88.9073 84.7602 87.5899C83.361 86.2726 82.6991 84.5206 82.7744 82.334C82.8095 80.2358 83.4804 78.6076 84.7872 77.4492C86.094 76.2908 87.691 75.711 89.5781 75.71L89.5717 75.718ZM89.551 78.0092C87.4094 78.0092 86.1365 79.0225 85.7323 81.0492H92.9799C93.017 80.0998 92.7041 79.3564 92.0411 78.8188C91.3781 78.2812 90.5481 78.0145 89.551 78.0188" fill="#4B008C"/>
<path d="M101.521 81.28H102.882C105.857 81.28 107.342 79.52 107.337 76H110.167C110.204 79.376 109.061 81.6021 106.738 82.6784L110.957 88.9184V89.2192H107.854L104.207 83.6352C103.752 83.7384 103.286 83.7847 102.82 83.7728H101.513V89.2128H98.5808V76.0208H101.521V81.28Z" fill="#4B008C"/>
<path d="M126.561 82.56C126.561 84.7317 125.871 86.424 124.492 87.6368C123.14 88.8114 121.414 89.4578 119.627 89.4578C117.841 89.4578 116.114 88.8114 114.762 87.6368C113.394 86.4251 112.71 84.7328 112.71 82.56C112.71 80.4064 113.381 78.7323 114.724 77.5376C116.042 76.3519 117.747 75.6942 119.515 75.6896C120.682 75.6623 121.84 75.9014 122.903 76.3888C123.978 76.9004 124.885 77.7125 125.515 78.728C126.213 79.8053 126.563 81.0853 126.564 82.568L126.561 82.56ZM115.65 82.568C115.65 83.9184 116.049 84.9723 116.847 85.7296C117.22 86.0958 117.664 86.3826 118.15 86.5728C118.636 86.7631 119.156 86.8528 119.677 86.8368C120.713 86.8343 121.705 86.4215 122.44 85.688C123.211 84.9413 123.596 83.9013 123.596 82.568C123.596 81.2176 123.188 80.1637 122.373 79.4064C121.993 79.0407 121.543 78.7563 121.051 78.5703C120.559 78.3844 120.034 78.3009 119.509 78.3248C118.481 78.3443 117.501 78.7615 116.772 79.4896C116.019 80.2267 115.643 81.2528 115.644 82.568" fill="#4B008C"/>
<path d="M132.575 78.1553C133.265 76.4945 134.763 75.6641 137.067 75.6641C138.918 75.6641 140.369 76.3302 141.422 77.6625C142.474 78.9947 143 80.6187 143 82.5345C143 84.6145 142.356 86.2928 141.068 87.5696C140.471 88.1856 139.748 88.6638 138.949 88.971C138.149 89.2782 137.293 89.4071 136.44 89.3488C135.263 89.2894 134.121 88.9316 133.119 88.3088V96H130.153V80.2352C130.153 79.2496 130.1 78.6566 129.994 78.4561C129.835 78.1281 129.423 77.9633 128.771 77.9633L128.744 75.9105C131.3 75.3995 132.579 76.1462 132.58 78.1505L132.575 78.1553ZM133.07 81.9825V85.6768C134.159 86.4427 135.273 86.7984 136.411 86.744C136.896 86.7383 137.375 86.6321 137.818 86.4319C138.261 86.2318 138.658 85.9421 138.984 85.5808C139.663 84.8416 140.003 83.8246 140.004 82.5296C140.004 81.3563 139.696 80.3616 139.079 79.5456C138.463 78.7297 137.592 78.319 136.467 78.3137C136.005 78.2998 135.547 78.3884 135.123 78.5731C134.7 78.7578 134.322 79.0342 134.016 79.3825C133.38 80.095 133.039 81.0251 133.062 81.9825" fill="#4B008C"/>
</svg>
