<svg width="152" height="107" viewBox="0 0 152 107" fill="none" xmlns="http://www.w3.org/2000/svg">
<path d="M106.625 1.58757C105.882 0.957004 105.011 0.496575 104.071 0.238588C103.132 -0.0193995 102.147 -0.0686948 101.187 0.0941596C92.8521 1.52836 85.2344 5.70276 79.5404 11.956L79.5137 11.9862C78.6682 12.9154 77.8619 13.8997 77.1125 14.909L77.0235 15.03L78.7181 17.6555L78.905 17.3974C79.6739 16.3294 80.8274 14.9054 81.7084 13.9407C86.9611 8.1696 93.9895 4.31652 101.68 2.99197C102.219 2.90185 102.771 2.9305 103.297 3.07593C103.824 3.22135 104.313 3.48004 104.729 3.83391C105.157 4.19434 105.501 4.64398 105.737 5.15131C105.972 5.65865 106.094 6.21141 106.094 6.77088V20.8328C106.088 24.8434 104.491 28.6879 101.656 31.5239C98.8195 34.3599 94.975 35.956 90.9643 35.9626C90.5744 35.9626 90.2004 36.1175 89.9247 36.3932C89.649 36.669 89.4941 37.0429 89.4941 37.4329C89.4941 37.8228 89.649 38.1968 89.9247 38.4725C90.2004 38.7482 90.5744 38.9031 90.9643 38.9031C92.4132 38.9046 93.8023 39.4807 94.8268 40.5052C95.8513 41.5297 96.4275 42.9188 96.4289 44.3677V58.1572C96.4311 58.7442 96.2978 59.3237 96.0394 59.8507C95.781 60.3777 95.4044 60.838 94.9391 61.1957C94.4631 61.5648 93.9084 61.8191 93.3181 61.9389C92.7279 62.0587 92.1179 62.0407 91.5357 61.8863C85.7289 60.3682 80.6508 56.8352 77.2086 51.9184C77.0733 51.7249 76.8932 51.5668 76.6837 51.4578C76.4742 51.3487 76.2415 51.2917 76.0054 51.2917C75.7692 51.2917 75.5365 51.3487 75.327 51.4578C75.1175 51.5668 74.9375 51.7249 74.8021 51.9184C71.3267 56.8813 66.1842 60.4308 60.3113 61.9201C59.7554 62.0611 59.1747 62.0722 58.6138 61.9528C58.053 61.8333 57.5272 61.5865 57.077 61.2313C56.6072 60.8678 56.2271 60.4013 55.966 59.8677C55.7049 59.3341 55.5698 58.7477 55.5712 58.1537V44.3677C55.5726 42.9188 56.1488 41.5297 57.1732 40.5052C58.1977 39.4807 59.5869 38.9046 61.0357 38.9031C61.4266 38.9043 61.8019 38.7502 62.0792 38.4746C62.3564 38.1991 62.5128 37.8247 62.514 37.4338C62.5152 37.0429 62.361 36.6675 62.0855 36.3903C61.8099 36.1131 61.4355 35.9567 61.0446 35.9555C57.0339 35.9489 53.1894 34.3528 50.3535 31.5168C47.5175 28.6808 45.9213 24.8363 45.9147 20.8256V6.76376C45.9145 6.20429 46.0365 5.65153 46.2724 5.14419C46.5082 4.63686 46.8521 4.18722 47.28 3.82679C47.6963 3.47292 48.1848 3.21423 48.7115 3.06881C49.2382 2.92339 49.7902 2.89473 50.3291 2.98485C58.2147 4.31366 65.4025 8.31664 70.6843 14.3209C75.966 20.3252 79.0198 27.9648 79.3322 35.9555H77.4578V33.7946C77.4578 33.4047 77.3029 33.0307 77.0272 32.755C76.7515 32.4792 76.3775 32.3243 75.9876 32.3243C75.5976 32.3243 75.2237 32.4792 74.9479 32.755C74.6722 33.0307 74.5173 33.4047 74.5173 33.7946V35.9555H72.6608C72.7886 32.9226 73.3116 29.9193 74.2165 27.0218C74.5048 26.0979 74.8359 25.1706 75.2044 24.2663L75.2453 24.1684L73.3835 20.9324L73.2055 21.3258C72.6305 22.6252 71.8206 24.7861 71.3952 26.146C70.2591 29.8005 69.6824 33.6059 69.6846 37.4329C69.6856 37.6272 69.7248 37.8194 69.8002 37.9985C69.8755 38.1777 69.9854 38.3402 70.1237 38.4767C70.2619 38.6133 70.4257 38.7213 70.6057 38.7944C70.7857 38.8676 70.9784 38.9046 71.1727 38.9031H80.8095C81.0048 38.9034 81.1981 38.8647 81.3781 38.7892C81.5582 38.7137 81.7213 38.6029 81.858 38.4635C82.1371 38.185 82.2951 37.8076 82.2976 37.4133C82.3177 28.4689 79.1616 19.8079 73.3917 12.9733C67.6219 6.1388 59.6129 1.57468 50.7919 0.0941596C49.8317 -0.0689158 48.8475 -0.0197243 47.9083 0.238278C46.9692 0.496281 46.0979 0.956833 45.3558 1.58757C44.6036 2.2238 43.9994 3.01669 43.5856 3.91077C43.1718 4.80485 42.9583 5.77855 42.96 6.76376V20.8256C42.9778 24.6496 44.2 28.3707 46.453 31.4606C48.706 34.5504 51.8753 36.8519 55.5106 38.0381C54.6044 38.8242 53.8782 39.7963 53.3812 40.8882C52.8842 41.9801 52.6282 43.1662 52.6306 44.3659V58.1572C52.6278 59.1989 52.8644 60.2273 53.3221 61.1631C53.7798 62.0988 54.4463 62.9169 55.2703 63.5541C56.0715 64.185 57.007 64.6233 58.0045 64.835C59.002 65.0467 60.0349 65.0263 61.0232 64.7752C66.9114 63.2738 72.1608 59.919 75.9965 55.206C79.7932 59.8676 84.972 63.2033 90.7864 64.7325C91.8031 65.0008 92.8681 65.0311 93.8985 64.8212C94.9289 64.6113 95.8971 64.1668 96.7279 63.5221C97.5496 62.8905 98.2145 62.0779 98.6708 61.1474C99.1271 60.2169 99.3625 59.1936 99.3588 58.1572V44.3677C99.3615 43.1681 99.1058 41.9821 98.6092 40.8902C98.1125 39.7982 97.3865 38.8261 96.4805 38.0399C100.117 36.8539 103.286 34.5523 105.54 31.462C107.793 28.3718 109.015 24.6501 109.033 20.8256V6.76376C109.034 5.77637 108.819 4.80068 108.403 3.90523C107.987 3.00978 107.38 2.21627 106.625 1.58045" fill="#482680"/>
<path d="M5.03388 100.902C3.50615 100.032 2.2356 98.7737 1.35109 97.2545C0.465877 95.7155 0 93.9712 0 92.1958C0 90.4204 0.465877 88.6761 1.35109 87.1371C2.25273 85.6078 3.54051 84.3423 5.08536 83.4676C6.63021 82.5929 8.37785 82.1396 10.1531 82.1531C11.5549 82.1511 12.9424 82.4345 14.231 82.9862C15.541 83.5464 16.6959 84.4155 17.597 85.5191C18.563 86.7133 19.1945 88.1427 19.4268 89.6611H15.833C15.4652 88.2371 14.7674 87.1691 13.7398 86.4571C12.7121 85.7451 11.4822 85.3891 10.0499 85.3891C8.89623 85.3733 7.75913 85.6645 6.75512 86.2329C5.75981 86.8026 4.94166 87.6368 4.39129 88.643C3.82167 89.747 3.52445 90.9713 3.52445 92.2136C3.52445 93.4559 3.82167 94.6802 4.39129 95.7842C4.93799 96.7828 5.75389 97.608 6.74622 98.1659C7.75887 98.7319 8.90233 99.0222 10.0623 99.0078C11.4934 99.0078 12.7234 98.6518 13.7522 97.9398C14.7811 97.2278 15.4741 96.1598 15.8313 94.7358H19.4286C19.1462 96.3758 18.5386 97.7612 17.6059 98.8921C16.7097 99.9957 15.5564 100.862 14.2471 101.416C12.9523 101.966 11.5597 102.247 10.1531 102.244C8.35738 102.26 6.58989 101.796 5.03388 100.9" fill="#4B008C"/>
<path d="M28.7896 87.2991C29.6765 87.2782 30.558 87.4425 31.3777 87.7815C32.0615 88.066 32.6447 88.5482 33.0527 89.1663C33.4577 89.8187 33.662 90.5757 33.6401 91.3433C33.638 91.9443 33.4557 92.5308 33.1168 93.0271C32.8216 93.5079 32.387 93.8872 31.8708 94.1147C32.5978 94.374 33.2374 94.8322 33.7166 95.4372C34.1989 96.0197 34.4616 96.7529 34.4589 97.5091C34.4589 98.4905 34.2257 99.3057 33.7594 99.9548C33.3001 100.597 32.6636 101.092 31.9277 101.379C31.1487 101.686 30.3177 101.84 29.4803 101.833H22.3853V87.2991H28.7896ZM29.895 92.8064C30.0419 92.6571 30.156 92.4789 30.2302 92.2831C30.3043 92.0872 30.3369 91.8781 30.3258 91.669C30.3337 91.468 30.2965 91.2678 30.2171 91.083C30.1376 90.8982 30.0178 90.7335 29.8665 90.601C29.521 90.3242 29.0859 90.1836 28.6437 90.2059H25.801V93.2318H28.7273C28.9378 93.2423 29.1481 93.2107 29.3462 93.1389C29.5442 93.0671 29.726 92.9564 29.8808 92.8135L29.895 92.8064ZM30.5518 98.5202C30.7222 98.3654 30.8562 98.1749 30.9442 97.9622C31.0322 97.7496 31.0721 97.5201 31.0609 97.2902C31.0722 97.0598 31.0346 96.8297 30.9506 96.6149C30.8665 96.4002 30.7379 96.2056 30.5732 96.0442C30.2468 95.738 29.7924 95.585 29.2097 95.585H25.801V98.9669H29.167C29.6689 98.9951 30.1632 98.8337 30.5518 98.5148" fill="#4B008C"/>
<path d="M51.2013 95.4728H39.8468C39.9401 96.1894 40.1939 96.8757 40.5891 97.4807C40.947 98.0252 41.4368 98.4704 42.0131 98.7747C42.5868 99.0727 43.2249 99.2255 43.8714 99.2197C44.721 99.2197 45.4164 99.0524 45.9575 98.7177C46.5033 98.3783 46.9228 97.8694 47.1519 97.2688H50.8898C50.6252 98.1857 50.1676 99.0353 49.5477 99.7608C48.8863 100.539 48.0633 101.164 47.1358 101.592C45.4156 102.408 43.4492 102.536 41.6376 101.951C39.826 101.366 38.3058 100.113 37.3869 98.4454C36.7472 97.2543 36.4124 95.9233 36.4124 94.5713C36.4124 93.2192 36.7472 91.8883 37.3869 90.6971C38.0291 89.5205 38.9805 88.5415 40.1383 87.8658C41.2961 87.1901 42.6164 86.8434 43.9568 86.8631C45.2638 86.8387 46.5522 87.1745 47.681 87.8339C48.8097 88.4932 49.7351 89.4506 50.3558 90.601C50.973 91.74 51.2914 93.0169 51.2814 94.3123C51.2778 94.7001 51.2541 95.0875 51.2102 95.4728H51.2013ZM47.7891 92.8278C47.7371 92.2816 47.5254 91.7628 47.1803 91.3362C46.8088 90.8687 46.3318 90.496 45.7884 90.2486C45.211 89.9778 44.5803 89.8397 43.9426 89.8445C43.0628 89.8313 42.2013 90.096 41.4808 90.601C40.7582 91.1065 40.261 91.8488 39.9892 92.8278H47.7891Z" fill="#4B008C"/>
<path d="M59.2058 90.156V96.5336C59.2058 97.3714 59.3494 97.9909 59.6366 98.3919C59.9232 98.7924 60.4216 98.9936 61.1282 98.9936H61.7227V101.842H60.4767C58.9234 101.842 57.7522 101.401 56.9631 100.519C56.1739 99.6373 55.7806 98.3202 55.7829 96.5675V90.1595H51.689V87.2866H63.1147V90.156H59.2058Z" fill="#4B008C"/>
<path d="M66.4735 98.6963C67.0372 98.141 67.5557 97.3447 68.0292 96.3076C68.5544 95.0954 68.9453 93.8294 69.1951 92.5322C69.5196 90.9 69.716 89.2449 69.7825 87.5821L70.0086 82.5981H82.6909V98.6892H84.6489V104.996H81.1584V101.836H68.5205V105.003H65.0015V98.6963H66.4735ZM79.1844 85.7452H73.2891L73.0897 88.821C72.9402 91.4553 72.6038 93.532 72.0805 95.0509C71.5571 96.5698 70.8808 97.7832 70.0513 98.691H79.1862L79.1844 85.7452Z" fill="#4B008C"/>
<path d="M101.893 95.4728H90.5389C90.6323 96.1894 90.886 96.8757 91.2812 97.4806C91.6391 98.0252 92.129 98.4704 92.7052 98.7747C93.2789 99.0727 93.917 99.2255 94.5635 99.2197C95.412 99.2197 96.1073 99.0524 96.6496 98.7177C97.1954 98.3783 97.6149 97.8693 97.844 97.2688H101.582C101.317 98.1857 100.86 99.0353 100.24 99.7608C99.5785 100.539 98.7554 101.164 97.828 101.592C96.1078 102.408 94.1413 102.536 92.3298 101.951C90.5182 101.366 88.9979 100.113 88.079 98.4454C87.4393 97.2543 87.1045 95.9233 87.1045 94.5712C87.1045 93.2192 87.4393 91.8882 88.079 90.6971C88.7206 89.5218 89.6705 88.5437 90.8266 87.8681C91.9827 87.1925 93.3011 86.845 94.64 86.863C95.9467 86.8389 97.2348 87.175 98.3632 87.8343C99.4916 88.4936 100.417 89.4508 101.037 90.601C101.656 91.7396 101.975 93.0166 101.965 94.3123C101.965 94.6344 101.94 95.0243 101.893 95.4728ZM98.4723 92.8278C98.4204 92.2815 98.2086 91.7627 97.8636 91.3361C97.491 90.8667 97.012 90.4927 96.4663 90.245C95.8889 89.9742 95.2582 89.8362 94.6205 89.8409C93.7437 89.8296 92.8856 90.0942 92.1676 90.5974C91.445 91.1029 90.9478 91.8452 90.676 92.8242L98.4723 92.8278Z" fill="#4B008C"/>
<path d="M104.75 87.2993H108.172V92.6873H110.01L113.545 87.2993H117.575L112.768 94.1291L117.999 101.836H113.914L110.236 96.096H108.172V101.836H104.75V87.2993Z" fill="#4B008C"/>
<path d="M122.079 101.242C120.933 100.573 119.988 99.6082 119.343 98.4492C118.693 97.2598 118.353 95.9265 118.353 94.5714C118.353 93.2164 118.693 91.8831 119.343 90.6938C119.987 89.5319 120.932 88.5648 122.079 87.8938C123.279 87.2166 124.635 86.8608 126.013 86.8608C127.392 86.8608 128.747 87.2166 129.948 87.8938C131.097 88.5635 132.045 89.5308 132.691 90.6938C133.34 91.8844 133.68 93.2188 133.68 94.575C133.68 95.9312 133.34 97.2657 132.691 98.4563C132.045 99.6198 131.094 100.585 129.941 101.249C128.74 101.94 127.375 102.294 125.989 102.274C124.614 102.294 123.26 101.937 122.073 101.242H122.079ZM128.196 98.5132C128.844 98.1258 129.372 97.5679 129.724 96.9006C130.091 96.1792 130.283 95.381 130.283 94.5714C130.283 93.7619 130.091 92.9637 129.724 92.2423C129.367 91.5672 128.832 91.0023 128.178 90.6082C127.524 90.2141 126.775 90.0058 126.011 90.0058C125.248 90.0058 124.499 90.2141 123.844 90.6082C123.19 91.0023 122.656 91.5672 122.299 92.2423C121.932 92.9637 121.74 93.7619 121.74 94.5714C121.74 95.381 121.932 96.1792 122.299 96.9006C122.651 97.5679 123.179 98.1258 123.826 98.5132C124.492 98.8935 125.245 99.0935 126.011 99.0935C126.778 99.0935 127.531 98.8935 128.196 98.5132Z" fill="#4B008C"/>
<path d="M139.916 87.2992V89.7467C140.429 88.8759 141.159 88.1525 142.034 87.6463C142.906 87.1347 143.9 86.8684 144.91 86.8756C146.199 86.8588 147.464 87.2175 148.552 87.9079C149.63 88.5961 150.504 89.5604 151.083 90.7007C151.686 91.9032 152 93.2298 152 94.5749C152 95.92 151.686 97.2465 151.083 98.449C150.503 99.5866 149.633 100.55 148.559 101.242C147.487 101.931 146.235 102.29 144.96 102.274C143.949 102.283 142.954 102.021 142.077 101.518C141.223 101.038 140.515 100.337 140.026 99.4885L140.097 101.171V106.799H136.674V87.2992H139.916ZM146.462 98.5629C147.118 98.1863 147.656 97.6355 148.018 96.9716C148.417 96.2345 148.617 95.4064 148.598 94.5686C148.614 93.7451 148.417 92.9314 148.025 92.2066C147.663 91.5402 147.125 90.9861 146.47 90.6046C145.816 90.2238 145.071 90.0264 144.314 90.0333C143.56 90.0296 142.82 90.2374 142.178 90.6331C141.523 91.0344 140.986 91.6034 140.624 92.2814C140.246 92.994 140.048 93.7885 140.048 94.5954C140.048 95.4022 140.246 96.1967 140.624 96.9093C140.989 97.5816 141.528 98.1435 142.185 98.5362C142.83 98.924 143.569 99.1266 144.321 99.1218C145.07 99.1289 145.807 98.9366 146.457 98.5647" fill="#4B008C"/>
</svg>
