<svg width="139" height="105" viewBox="0 0 139 105" fill="none" xmlns="http://www.w3.org/2000/svg">
<path d="M82.1071 51.6072V42.6826H57.269V51.6072C57.269 54.9009 58.5775 58.0597 60.9065 60.3887C63.2355 62.7178 66.3943 64.0262 69.6881 64.0262C72.9818 64.0262 76.1406 62.7178 78.4696 60.3887C80.7986 58.0597 82.1071 54.9009 82.1071 51.6072Z" fill="#FF6000"/>
<path d="M72.7577 14.3587V0.360352H66.6218V14.3587C61.9404 15.0903 57.6744 17.4707 54.5934 21.0705C51.5125 24.6704 49.8193 29.2527 49.8193 33.991V42.6826H57.2707V34.0544C57.2707 30.7607 58.5792 27.6019 60.9082 25.2728C63.2372 22.9438 66.396 21.6354 69.6898 21.6354C72.9835 21.6354 76.1423 22.9438 78.4713 25.2728C80.8003 27.6019 82.1088 30.7607 82.1088 34.0544V42.6826H89.5602V33.991C89.5603 29.2532 87.8676 24.6713 84.7874 21.0715C81.7071 17.4717 77.4419 15.091 72.7611 14.3587" fill="#4B008C"/>
<path d="M0.379639 88.6332C0.379639 85.7509 1.2898 83.4515 3.11011 81.7351C4.93042 80.0187 7.151 79.1623 9.77184 79.1657C10.986 79.1589 12.1904 79.3827 13.3211 79.8252C14.4648 80.2832 15.4889 80.9962 16.3154 81.9099C17.2037 82.8748 17.8228 84.0562 18.1106 85.3358H15.1557C14.2581 83.1192 12.4549 81.9938 9.74614 81.9595C7.86416 81.9595 6.34704 82.5796 5.19479 83.8198C4.04253 85.06 3.46641 86.6645 3.46641 88.6332C3.46641 90.4992 4.0511 92.0649 5.22048 93.3302C6.38987 94.5955 7.89842 95.2287 9.74614 95.2299C10.9567 95.2578 12.1485 94.9277 13.1721 94.2809C14.158 93.6337 14.8897 92.6654 15.2431 91.5402H18.2236C17.7828 93.6677 16.767 95.2813 15.1762 96.381C13.5844 97.481 11.6894 98.0576 9.7547 98.0306C7.13386 98.0306 4.91786 97.1815 3.10668 95.4834C1.2955 93.7853 0.389343 91.5013 0.388201 88.6315" fill="#4B008C"/>
<path d="M31.4905 88.4495C31.4905 89.7513 30.9098 90.6044 29.7484 91.0086C30.4668 91.1821 31.1015 91.6022 31.5419 92.1957C31.968 92.7862 32.1904 93.4993 32.1757 94.2273C32.1901 94.7918 32.0728 95.3519 31.8331 95.8632C31.6358 96.2815 31.3423 96.6472 30.9766 96.9304C30.5856 97.2092 30.1475 97.4151 29.6833 97.5385C29.2101 97.6789 28.7241 97.7718 28.2324 97.816C27.7836 97.8502 27.2697 97.8674 26.6908 97.8674H21.0911V85.0903H25.973C26.552 85.0903 27.0488 85.104 27.4633 85.1314C27.952 85.169 28.437 85.244 28.9142 85.3558C29.3879 85.4453 29.8403 85.6244 30.2469 85.8834C30.6081 86.1427 30.9057 86.4807 31.1171 86.8718C31.3762 87.3538 31.5038 87.8956 31.4871 88.4426L31.4905 88.4495ZM23.8883 90.2361H26.1306C27.8196 90.2361 28.6641 89.7348 28.6641 88.7321C28.6641 87.7294 27.8196 87.2196 26.1306 87.2024H23.8883V90.2361ZM23.8883 95.6456H26.3944C26.8329 95.6456 27.1772 95.6456 27.4222 95.6182C27.7256 95.5897 28.0256 95.5324 28.3181 95.4469C28.6373 95.3734 28.9187 95.1857 29.1095 94.9193C29.297 94.6242 29.3891 94.2785 29.3733 93.9292C29.3836 93.5878 29.2853 93.2519 29.0923 92.97C28.8933 92.7061 28.6087 92.5196 28.2872 92.4424C27.9716 92.3534 27.6498 92.2875 27.3246 92.2454C26.9696 92.2064 26.6127 92.1886 26.2557 92.1923H23.8883V95.6456Z" fill="#4B008C"/>
<path d="M40.9325 84.8335C43.1308 84.8335 44.7222 85.4936 45.7066 86.8137C46.691 88.1338 46.9725 89.8662 46.5511 92.0108H37.1589C37.1589 93.1368 37.55 94.0338 38.3323 94.7019C39.1145 95.37 40.104 95.7063 41.3008 95.7108C42.8836 95.8201 44.4695 95.5487 45.9258 94.9194L46.2941 97.0572C44.7897 97.7524 43.155 98.1208 41.4978 98.1381C39.368 98.1746 37.6265 97.5591 36.2733 96.2915C34.92 95.0239 34.2782 93.3355 34.3479 91.2263C34.3821 89.2038 35.0331 87.6342 36.3007 86.5173C37.5683 85.4005 39.1162 84.8415 40.9445 84.8403L40.9325 84.8335ZM40.912 87.0501C38.8359 87.0501 37.6048 88.0265 37.2188 89.9792H44.242C44.2762 89.0657 43.9725 88.3491 43.3307 87.8295C42.6889 87.3099 41.8827 87.0501 40.912 87.0501Z" fill="#4B008C"/>
<path d="M55.2836 97.8164H52.488V87.6311H48.3975V85.125H59.3998V87.6311H55.2836V97.8164Z" fill="#4B008C"/>
<path d="M60.6401 95.197H61.2739C62.0825 95.197 62.6317 94.9857 62.9218 94.5632C63.2119 94.1406 63.4186 93.4195 63.5419 92.3997L65.0733 79.3657H76.5228V95.197H78.5012V100.579H75.6526V97.8384H63.5231V100.579H60.6401V95.197ZM67.737 82.0311L66.6304 92.5316C66.4717 93.9396 66.0931 94.8532 65.4947 95.2723H73.5456V82.0379L67.737 82.0311Z" fill="#4B008C"/>
<path d="M87.2082 84.8335C89.4053 84.8335 90.9972 85.4936 91.9839 86.8137C92.9706 88.1338 93.2521 89.8662 92.8284 92.0108H83.4345C83.4345 93.1368 83.8262 94.0338 84.6096 94.7019C85.393 95.37 86.3825 95.704 87.5782 95.704C89.1609 95.8132 90.7468 95.5419 92.2032 94.9126L92.5732 97.0504C91.0687 97.7455 89.434 98.1139 87.7769 98.1313C85.6494 98.1678 83.9084 97.5523 82.554 96.2847C81.1996 95.0171 80.5573 93.3287 80.6269 91.2194C80.6635 89.197 81.3144 87.6273 82.5797 86.5105C83.845 85.3936 85.393 84.8346 87.2236 84.8335H87.2082ZM87.1979 87.0501C85.1218 87.0501 83.8901 88.0265 83.503 89.9792H90.5262C90.5627 89.0657 90.2595 88.3491 89.6166 87.8295C88.9736 87.3099 88.1691 87.0501 87.203 87.0501" fill="#4B008C"/>
<path d="M98.7913 90.1898H100.11C102.995 90.1898 104.437 88.4923 104.437 85.0972H107.178C107.212 88.3518 106.104 90.4982 103.853 91.5362L107.942 97.5522V97.8416H104.934L101.404 92.4561C100.962 92.555 100.51 92.5993 100.057 92.588H98.7913V97.8382H95.9409V85.1246H98.7913V90.1898Z" fill="#4B008C"/>
<path d="M123.064 91.4286C123.064 93.5218 122.395 95.1532 121.058 96.3225C119.748 97.455 118.074 98.0781 116.342 98.0781C114.611 98.0781 112.937 97.455 111.626 96.3225C110.299 95.152 109.635 93.5207 109.634 91.4286C109.634 89.3548 110.285 87.7412 111.587 86.5878C112.865 85.4454 114.517 84.8115 116.231 84.8063C117.362 84.7796 118.485 85.0098 119.515 85.4795C120.558 85.9733 121.437 86.7563 122.048 87.7354C122.724 88.7735 123.063 90.0046 123.064 91.4286ZM112.485 91.4286C112.485 92.7305 112.871 93.7462 113.644 94.476C114.006 94.8288 114.435 95.1053 114.906 95.2889C115.377 95.4725 115.88 95.5596 116.385 95.5449C117.389 95.5418 118.35 95.1436 119.062 94.4366C119.81 93.7148 120.184 92.7122 120.184 91.4286C120.184 90.1267 119.789 89.111 118.997 88.3812C118.63 88.0291 118.195 87.7553 117.719 87.5763C117.243 87.3972 116.736 87.3168 116.228 87.3398C115.232 87.3566 114.281 87.7588 113.576 88.4617C112.845 89.1721 112.48 90.161 112.481 91.4286" fill="#4B008C"/>
<path d="M128.895 87.1818C129.563 85.5831 131.014 84.7837 133.248 84.7837C135.043 84.7837 136.45 85.4255 137.47 86.7091C138.49 87.9926 139 89.5583 139 91.406C139 93.4102 138.375 95.0284 137.126 96.2606C136.547 96.8538 135.846 97.3142 135.072 97.61C134.297 97.9058 133.468 98.0298 132.641 97.9735C131.501 97.9161 130.394 97.5714 129.422 96.9714V104.385H126.546V89.1877C126.546 88.237 126.493 87.6666 126.387 87.4748C126.229 87.1584 125.834 86.9997 125.2 86.9986L125.174 85.0201C127.655 84.529 128.895 85.2502 128.895 87.1835V87.1818ZM129.369 90.8784V94.4397C130.425 95.1774 131.506 95.52 132.614 95.4675C133.085 95.4611 133.549 95.3577 133.978 95.1638C134.407 94.9698 134.792 94.6895 135.108 94.3403C135.767 93.6277 136.097 92.6473 136.098 91.3992C136.127 90.3673 135.811 89.3551 135.2 88.5231C134.602 87.7317 133.757 87.336 132.667 87.336C132.22 87.3225 131.776 87.4077 131.365 87.5853C130.955 87.7629 130.589 88.0287 130.293 88.3638C129.676 89.0513 129.346 89.9485 129.369 90.8716" fill="#4B008C"/>
</svg>
