<svg width="159" height="106" viewBox="0 0 159 106" fill="none" xmlns="http://www.w3.org/2000/svg">
<path d="M77.6442 19.387C78.1796 18.4042 78.756 17.4485 79.3734 16.52C79.9884 17.4497 80.5642 18.406 81.1008 19.3888C81.4155 19.9664 81.717 20.5512 82.0052 21.1433C82.3006 21.7571 82.578 22.3835 82.8373 23.0226C83.2895 24.1712 83.7543 25.4609 84.0437 26.387C84.0992 26.5679 84.1534 26.7487 84.2065 26.9296C84.3024 27.248 84.3874 27.5699 84.4778 27.8919C84.5303 28.0872 84.5809 28.2844 84.6298 28.4816C84.6786 28.6787 84.7166 28.8325 84.7582 29.0097C84.7926 29.1562 84.8269 29.3027 84.8577 29.4493C84.8697 29.4963 84.8806 29.5433 84.8902 29.5903L84.9879 30.0534C85.0205 30.2071 85.0494 30.3627 85.0801 30.5183C85.1109 30.6738 85.1398 30.8276 85.167 30.9831C85.1941 31.1387 85.2158 31.2526 85.2375 31.3865C85.2689 31.5613 85.2978 31.7386 85.3243 31.9183C85.3406 32.0159 85.3551 32.1154 85.3696 32.2149C85.3786 32.2728 85.3876 32.3307 85.3949 32.3958L85.4166 32.555C85.4176 32.5742 85.4176 32.5936 85.4166 32.6128C85.4292 32.6979 85.4401 32.7811 85.4509 32.8661C85.4565 32.8954 85.4601 32.925 85.4618 32.9547C85.4745 33.0379 85.4835 33.1211 85.4926 33.2061C85.4926 33.2061 85.4926 33.2224 85.4926 33.2314C85.4926 33.2405 85.4926 33.2803 85.5016 33.3038C85.5026 33.3152 85.5026 33.3267 85.5016 33.3382C85.5161 33.4594 85.5287 33.5787 85.5414 33.6999C85.554 33.8211 85.5667 33.9423 85.5776 34.0617C85.5884 34.1811 85.6011 34.2896 85.6119 34.4035C85.6128 34.4114 85.6128 34.4192 85.6119 34.4271C85.6282 34.5953 85.6427 34.7635 85.6553 34.9335C85.6915 35.4159 85.7187 35.9024 85.7367 36.3932C85.7458 36.6284 85.753 36.8635 85.7584 37.1005V37.1475C85.7584 37.379 85.7584 37.6105 85.7584 37.8421V37.8601C85.7584 37.8782 85.7584 37.8963 85.7584 37.9144C85.7368 38.2888 85.5785 38.6421 85.3135 38.9074C85.1215 39.1021 84.8801 39.2409 84.6153 39.309C84.5916 39.3161 84.5674 39.3216 84.5429 39.3253C84.4977 39.3343 84.4507 39.3415 84.4037 39.347C84.3518 39.3497 84.2999 39.3497 84.2481 39.347H74.477C74.4252 39.3497 74.3733 39.3497 74.3215 39.347C74.2744 39.347 74.2274 39.3343 74.1822 39.3253L74.1098 39.309C73.845 39.2409 73.6037 39.1021 73.4116 38.9074C73.1467 38.6421 72.9883 38.2888 72.9667 37.9144C72.9667 37.8909 72.9667 37.8674 72.9667 37.8421C72.9667 37.6105 72.9667 37.379 72.9667 37.1475V37.1005C72.9667 36.8635 72.9793 36.6284 72.9884 36.3932C73.0065 35.9048 73.0336 35.4183 73.0698 34.9335C73.0879 34.6893 73.1078 34.4488 73.1313 34.21C73.1765 33.7252 73.2308 33.2441 73.2941 32.763C73.3158 32.5929 73.3411 32.4247 73.3664 32.2565C73.3917 32.0865 73.4171 31.9183 73.4442 31.75C73.4713 31.5818 73.4985 31.4172 73.5274 31.2508C73.5455 31.1423 73.5654 31.0338 73.5871 30.927L73.6088 30.8059C73.6178 30.7606 73.6251 30.7172 73.6341 30.672C73.6522 30.5743 73.6703 30.4767 73.6902 30.379C73.6902 30.3464 73.7029 30.3121 73.7101 30.2795C73.73 30.1746 73.7517 30.0697 73.7734 29.9648C73.7951 29.8599 73.8078 29.802 73.8259 29.7188C73.9054 29.3462 73.9923 28.9754 74.0827 28.6046L74.2238 28.0493L74.2455 27.9661C74.2871 27.8087 74.3305 27.6531 74.3739 27.4976C74.4173 27.342 74.4716 27.1539 74.5204 26.9821C74.5693 26.8102 74.638 26.5914 74.7013 26.3978C74.9835 25.4934 75.4357 24.2273 75.8788 23.1004C75.8778 23.0956 75.8778 23.0907 75.8788 23.0859C76.1489 22.4311 76.4365 21.7866 76.7416 21.1523C77.025 20.559 77.3265 19.9742 77.646 19.3978L77.6442 19.387ZM77.8902 34.1702C77.8902 33.7871 78.0373 33.4186 78.3012 33.1409C78.5651 32.8632 78.9257 32.6974 79.3083 32.678H79.4421C79.8246 32.6979 80.1849 32.8637 80.4487 33.1414C80.7125 33.419 80.8598 33.7872 80.8602 34.1702V36.3534H82.7649C82.7486 35.9573 82.7251 35.5594 82.6962 35.165C82.6835 35.0095 82.6708 34.8521 82.6564 34.6966C82.6274 34.3577 82.5931 34.0201 82.5533 33.6836C82.5406 33.5715 82.5261 33.4575 82.5117 33.3454C82.49 33.1693 82.4664 32.9939 82.4411 32.819C82.4267 32.7087 82.4104 32.6002 82.3941 32.4916C82.3778 32.3831 82.367 32.3108 82.3525 32.2276C82.3344 32.1046 82.3145 31.9798 82.291 31.8568C82.2675 31.7338 82.2494 31.6108 82.2259 31.495C82.1843 31.2472 82.1354 31.0012 82.0848 30.757C82.0613 30.634 82.036 30.511 82.0088 30.3953C81.96 30.1601 81.9075 29.9268 81.8515 29.6934C81.8153 29.5397 81.7791 29.3878 81.7393 29.2358C81.6869 29.0133 81.629 28.7945 81.5584 28.5738C81.5277 28.4526 81.4951 28.3332 81.459 28.212C81.3721 27.9009 81.2805 27.5904 81.184 27.2805C81.1478 27.1629 81.1099 27.0454 81.0719 26.9278C80.9977 26.6927 80.9181 26.4575 80.8367 26.2242C80.7354 25.9312 80.6299 25.6387 80.5202 25.3469C80.4008 25.0213 80.2724 24.6976 80.1403 24.3774C79.8992 23.7745 79.6411 23.1854 79.3662 22.6102C79.0912 23.1902 78.8332 23.7793 78.592 24.3774C78.46 24.6976 78.3316 25.0213 78.2122 25.3469C78.1012 25.6387 77.9957 25.9312 77.8956 26.2242C77.8142 26.4575 77.7347 26.6927 77.6605 26.9278C77.523 27.3547 77.3946 27.7816 77.2734 28.212C77.2372 28.3332 77.2047 28.4526 77.1739 28.5738C77.1124 28.7945 77.0545 29.0133 76.993 29.2358C76.9551 29.3878 76.9189 29.5397 76.8809 29.6934C76.8248 29.9268 76.7724 30.1601 76.7235 30.3953C76.6964 30.5164 76.6711 30.6394 76.6476 30.757C76.5969 31.0012 76.5481 31.2472 76.5065 31.495C76.4836 31.6156 76.4619 31.7362 76.4414 31.8568C76.4197 31.9816 76.3998 32.1046 76.3799 32.2276C76.3654 32.3162 76.3509 32.4084 76.3383 32.4916C76.3256 32.5749 76.3057 32.7087 76.2912 32.819C76.2659 32.9951 76.2424 33.1705 76.2207 33.3454C76.2062 33.4575 76.1918 33.5715 76.1791 33.6836C76.1393 34.0201 76.1049 34.3577 76.076 34.6966C76.0615 34.8521 76.0489 35.0095 76.0362 35.165C76.0072 35.5606 75.9843 35.9567 75.9675 36.3534H77.8721L77.8902 34.1702Z" fill="#FF6000"/>
<path d="M51.7512 0.056306C52.3282 -0.0187687 52.9125 -0.0187687 53.4895 0.056306C53.5835 0.0689675 53.6794 0.0816283 53.7734 0.0979074C54.3125 0.188347 54.8479 0.290845 55.3796 0.405401C55.6293 0.459665 55.8789 0.515739 56.1267 0.573621C56.3745 0.631502 56.6006 0.687574 56.8357 0.7545C64.123 2.63256 70.704 6.59598 75.772 12.1589L75.7991 12.1897C76.661 13.1383 77.4748 14.1295 78.2373 15.1597L78.3296 15.2827L76.6076 17.9507L76.4177 17.6884L76.3743 17.6287L76.2676 17.4804C75.5815 16.5056 74.8449 15.5674 74.0609 14.6695C69.4043 9.35275 63.2667 5.5468 56.4342 3.73901C56.2232 3.68233 56.0115 3.62807 55.7993 3.57622C55.584 3.52195 55.367 3.4713 55.1499 3.42247L55.083 3.40799L54.7213 3.32841L54.3595 3.25425C53.9977 3.18009 53.636 3.11317 53.2742 3.05167C52.7267 2.95885 52.1656 2.98718 51.6302 3.13469C51.0949 3.28219 50.5984 3.54528 50.1758 3.90541C49.7409 4.27204 49.3914 4.72928 49.1518 5.24512C48.9121 5.76096 48.7881 6.32294 48.7884 6.89173V21.1812C48.7946 25.2569 50.4165 29.1639 53.2984 32.0459C56.1804 34.9279 60.0874 36.5497 64.1631 36.5559C64.5594 36.5559 64.9394 36.7133 65.2196 36.9935C65.4998 37.2737 65.6572 37.6537 65.6572 38.05C65.6572 38.4462 65.4998 38.8262 65.2196 39.1064C64.9394 39.3866 64.5594 39.544 64.1631 39.544C62.6908 39.5455 61.2792 40.131 60.2382 41.1721C59.1971 42.2131 58.6116 43.6247 58.6102 45.097V59.1097C58.6104 59.2626 58.6188 59.4154 58.6355 59.5674C58.6445 59.6397 58.6554 59.7139 58.668 59.7862C58.6807 59.8568 58.6952 59.9291 58.7114 59.9997C58.7114 59.9997 58.7114 59.9997 58.7114 60.0105C58.7241 60.0648 58.7386 60.119 58.753 60.1733C58.7675 60.2276 58.782 60.2728 58.7983 60.3234C59.0469 61.0768 59.5172 61.7375 60.1476 62.2191C60.6042 62.5789 61.1373 62.8291 61.7059 62.9505C62.2744 63.0719 62.8632 63.0611 63.427 62.9191L63.5337 62.8901L63.5898 62.8775L63.8195 62.816L64.0329 62.7581L64.3296 62.6731L64.6714 62.57L64.7311 62.5519C64.8758 62.5085 65.0205 62.4614 65.1634 62.4144L65.3588 62.3475C65.4818 62.3077 65.6048 62.2643 65.7205 62.2209L65.8652 62.1684C65.9955 62.1232 66.1239 62.0743 66.2523 62.0255L66.3482 61.9875C66.5019 61.9296 66.6575 61.8681 66.8094 61.8066C66.9613 61.7451 67.1585 61.6638 67.3303 61.5878C67.5022 61.5118 67.6668 61.4395 67.835 61.3635L67.8874 61.3382C68.043 61.2682 68.1986 61.1941 68.3541 61.1157C68.5241 61.0361 68.6905 60.9511 68.8588 60.8643C69.027 60.7774 69.1916 60.6834 69.3562 60.6002C69.5208 60.517 69.6854 60.4193 69.8482 60.3253C70.011 60.2312 70.1738 60.1444 70.3329 60.0413L70.7236 59.8025C71.1125 59.5583 71.4924 59.3051 71.8668 59.0428C72.1478 58.8463 72.4245 58.6431 72.697 58.4333L72.9701 58.2234C73.151 58.0823 73.3319 57.9395 73.5019 57.7911C73.6828 57.6446 73.8528 57.4963 74.0247 57.3444C74.1965 57.1924 74.3683 57.0405 74.5366 56.8831C74.7048 56.7258 74.8712 56.5702 75.0358 56.4092C75.0919 56.3549 75.1479 56.3007 75.2004 56.2464L75.3632 56.0836C75.5778 55.8666 75.7895 55.6447 75.9981 55.418C76.0939 55.3131 76.1898 55.2082 76.2839 55.1015C76.9501 54.355 77.5716 53.5698 78.1451 52.75C78.2048 52.6658 78.2726 52.5876 78.3477 52.5167C78.4222 52.4484 78.5034 52.3878 78.5901 52.3358C78.694 52.2716 78.8059 52.2211 78.9229 52.1857C79.1802 52.1058 79.4545 52.0972 79.7163 52.1609C79.9782 52.2246 80.2178 52.3582 80.4097 52.5474C80.4763 52.6104 80.5369 52.6794 80.5906 52.7536L80.757 52.987C80.8131 53.0648 80.8673 53.1407 80.9252 53.2185C81.0374 53.3722 81.1531 53.5242 81.2689 53.6743C81.3846 53.8245 81.5022 53.9746 81.6306 54.1229C81.9924 54.5661 82.3542 54.9984 82.7449 55.4144C82.8407 55.5193 82.9366 55.6224 83.0343 55.7255C83.1319 55.8286 83.2314 55.9299 83.3309 56.0312C83.5281 56.2338 83.7306 56.4309 83.935 56.6245C84.2076 56.8873 84.4861 57.1412 84.7707 57.386C84.9118 57.5108 85.0565 57.6338 85.2012 57.7477C85.3459 57.8617 85.4906 57.9883 85.6371 58.1095L85.9139 58.3265C86.3787 58.6883 86.8544 59.032 87.3428 59.3575C87.5363 59.4878 87.7335 59.6162 87.9325 59.741C88.0772 59.8351 88.2237 59.9219 88.372 60.0141L88.4227 60.0431C88.5782 60.1389 88.7374 60.233 88.8966 60.3216C89.0557 60.4103 89.2239 60.5025 89.3885 60.5966C89.5532 60.6906 89.7196 60.7774 89.8878 60.8606C90.056 60.9439 90.2079 61.0253 90.3707 61.1012C90.3794 61.1078 90.3892 61.1127 90.3997 61.1157C90.548 61.1899 90.6963 61.2604 90.8464 61.3291L90.9134 61.3599C91.0689 61.4322 91.2245 61.5028 91.3837 61.5715L91.4234 61.5878C91.5935 61.6619 91.7635 61.7343 91.9353 61.803C92.1072 61.8718 92.241 61.9278 92.3966 61.9839C92.4273 61.9984 92.4599 62.0092 92.4924 62.0219C92.6046 62.0653 92.7167 62.1069 92.8307 62.1467C92.903 62.1756 92.9772 62.201 93.0514 62.2281C93.1255 62.2552 93.2322 62.2896 93.3136 62.3167L93.6211 62.4216C93.7839 62.4759 93.9485 62.5284 94.1149 62.5772C94.2005 62.6049 94.2856 62.6303 94.37 62.6532C94.4906 62.6905 94.6154 62.7267 94.7444 62.7617L94.8511 62.7906L95.1604 62.8738L95.2346 62.8919L95.325 62.9154C95.8885 63.0572 96.477 63.0678 97.0452 62.9465C97.6134 62.8251 98.1462 62.575 98.6025 62.2154C99.2339 61.7279 99.702 61.0598 99.9447 60.2999C99.9609 60.2511 99.9754 60.2004 99.9899 60.1498C100.004 60.0991 100.019 60.0413 100.031 59.987C100.032 59.9834 100.032 59.9797 100.031 59.9761C100.048 59.9056 100.062 59.8351 100.075 59.7627C100.088 59.6904 100.098 59.618 100.107 59.5439C100.124 59.3925 100.133 59.2403 100.133 59.088V45.0826C100.131 43.6104 99.5452 42.1991 98.5042 41.1581C97.4632 40.1171 96.0519 39.5315 94.5798 39.5296C94.1835 39.5296 93.8035 39.3722 93.5233 39.092C93.2431 38.8118 93.0857 38.4318 93.0857 38.0355C93.0857 37.6393 93.2431 37.2592 93.5233 36.979C93.8035 36.6989 94.1835 36.5414 94.5798 36.5414C98.6555 36.5352 102.563 34.9134 105.444 32.0314C108.326 29.1494 109.948 25.2424 109.954 21.1667V6.87726C109.955 6.30847 109.831 5.74649 109.591 5.23065C109.352 4.71481 109.002 4.25757 108.567 3.89094C108.144 3.53056 107.648 3.26732 107.112 3.11981C106.576 2.9723 106.015 2.9441 105.467 3.03719C105.105 3.09869 104.743 3.16622 104.382 3.23978L104.02 3.31394L103.658 3.39353L103.591 3.40799C103.374 3.45683 103.157 3.50748 102.942 3.56174L102.307 3.72453C95.4751 5.53276 89.3383 9.33867 84.6821 14.6551C83.898 15.5529 83.1614 16.4911 82.4754 17.4659C82.4374 17.5148 82.403 17.5636 82.3686 17.6142L82.3252 17.6739L82.1353 17.9362L80.4133 15.2682L80.5038 15.1452C81.2653 14.1197 82.0846 13.1194 82.9438 12.1752L82.971 12.1445C88.039 6.58151 94.6199 2.61809 101.907 0.740029C102.142 0.680339 102.379 0.622458 102.616 0.55915C102.853 0.495842 103.112 0.445195 103.361 0.390931C103.891 0.276977 104.427 0.175685 104.968 0.0834368C105.062 0.0671576 105.149 0.0544969 105.252 0.0418353L105.463 0.0183202C105.534 0.011085 105.605 0.00565927 105.675 0.00204169H105.803C105.912 0.00204169 106.019 0.00204169 106.125 0.00204169H106.176C106.232 0.00204169 106.288 0.00204169 106.344 0.00204169C106.4 0.00204169 106.489 0.00204125 106.561 0.012894C106.704 0.012894 106.849 0.0364093 106.992 0.056306C107.066 0.056306 107.138 0.0762014 107.212 0.0888629C107.393 0.119612 107.574 0.157598 107.755 0.202818C107.936 0.248037 108.117 0.300492 108.287 0.360182C108.428 0.409019 108.565 0.459667 108.703 0.517548C108.884 0.595326 109.065 0.67853 109.245 0.770778C109.692 1.00324 110.111 1.28474 110.495 1.61006C111.263 2.25637 111.88 3.06301 112.303 3.97329C112.726 4.88357 112.944 5.87539 112.943 6.87907V21.1685C112.924 25.0544 111.682 28.8357 109.393 31.9756C107.104 35.1154 103.883 37.4541 100.189 38.6595C101.109 39.4585 101.847 40.4464 102.352 41.556C102.857 42.6656 103.116 43.8708 103.114 45.0898V59.1043C103.114 59.4378 103.09 59.7708 103.043 60.101C103.014 60.2945 102.98 60.4862 102.936 60.6761C102.922 60.7431 102.904 60.81 102.888 60.8751C102.839 61.056 102.783 61.2369 102.718 61.4178C102.718 61.4219 102.718 61.4262 102.718 61.4304C102.663 61.5824 102.604 61.7325 102.537 61.879C101.881 63.3523 100.734 64.5523 99.2914 65.2741C97.8492 65.9959 96.2011 66.1947 94.6286 65.8366L94.5888 65.8276H94.578L94.3049 65.7589L94.0335 65.6847C93.8527 65.634 93.6718 65.5816 93.4909 65.5273C93.31 65.4731 93.1291 65.417 92.9483 65.3591L92.4056 65.1782H92.3911C92.2103 65.1167 92.0294 65.0564 91.8485 64.9974C91.6821 64.9377 91.5157 64.8744 91.3511 64.8165L91.2932 64.7948C91.1123 64.7278 90.9495 64.6591 90.7795 64.5886C90.6583 64.5397 90.5371 64.4891 90.4178 64.4366C90.3255 64.3987 90.2369 64.3588 90.1428 64.3172L90.0849 64.2919C89.9258 64.2232 89.7684 64.1508 89.611 64.0785H89.5948L89.0955 63.8397C88.9255 63.7583 88.7573 63.6733 88.5891 63.5865C88.4208 63.4997 88.2526 63.4056 88.0862 63.3224C87.9198 63.2392 87.7534 63.1415 87.5888 63.0493C86.7245 62.5606 85.8854 62.0288 85.0746 61.4557C84.8045 61.264 84.5374 61.0681 84.2733 60.8679C84.1593 60.7811 84.0472 60.687 83.9368 60.6074C83.7126 60.4265 83.4919 60.2547 83.273 60.0648L82.9474 59.7898C82.5423 59.4401 82.1474 59.0784 81.7627 58.7046C81.6343 58.5816 81.5076 58.4568 81.381 58.332C81.2544 58.2072 81.1784 58.1312 81.0808 58.0281C80.4851 57.4167 79.9165 56.7782 79.3751 56.1126C78.8336 56.7782 78.2651 57.4167 77.6694 58.0281L77.3691 58.332C77.2425 58.4568 77.1159 58.5816 76.9875 58.7046C76.6028 59.0736 76.2079 59.4353 75.8027 59.7898L75.4771 60.0648C75.2583 60.2457 75.0376 60.4265 74.8133 60.6074C74.703 60.6961 74.5908 60.7883 74.4769 60.8679C74.0247 61.2116 73.5628 61.542 73.0913 61.8591L72.6174 62.1702C72.4583 62.2733 72.2991 62.3728 72.1381 62.4723C71.9771 62.5718 71.8143 62.6694 71.6515 62.7653C71.4887 62.8612 71.3242 62.957 71.1596 63.0493L70.7598 63.27C70.5608 63.3785 70.3619 63.4834 70.1611 63.5865C69.9983 63.6697 69.8337 63.7529 69.6691 63.8325L69.6474 63.8433C69.4991 63.9175 69.3489 63.988 69.1988 64.0568L69.1301 64.0893C68.9763 64.1617 68.8208 64.2322 68.6652 64.2992L68.6073 64.3245C68.5169 64.3661 68.4265 64.4059 68.3324 64.4439C68.213 64.4963 68.0918 64.547 67.9707 64.5958C67.8006 64.6664 67.6288 64.7351 67.457 64.802L67.3991 64.8237C67.2345 64.887 67.0681 64.9503 66.9017 65.0046C66.7352 65.0589 66.5508 65.1312 66.3735 65.1855L66.3228 65.2036L65.8182 65.37C65.6373 65.4278 65.4564 65.4821 65.2756 65.5364C65.0947 65.5906 64.9138 65.6431 64.7329 65.6937C64.552 65.7444 64.3856 65.7878 64.2102 65.8312L64.1378 65.8493C63.1342 66.0797 62.0919 66.0839 61.0865 65.8618C60.081 65.6397 59.1375 65.1968 58.3244 64.565C57.1706 63.6766 56.3289 62.4447 55.9205 61.047C55.8952 60.9547 55.8698 60.8661 55.8463 60.7666C55.7939 60.5513 55.7523 60.3325 55.7197 60.1118C55.6724 59.7811 55.6489 59.4474 55.6492 59.1134V45.0826C55.6467 43.8635 55.9069 42.6581 56.4119 41.5486C56.9169 40.439 57.6549 39.4512 58.5758 38.6523C54.8774 37.4503 51.6521 35.1129 49.3585 31.9724C47.0649 28.8319 45.8198 25.0483 45.8003 21.1595V6.87002C45.7997 5.86633 46.0187 4.87465 46.4417 3.96448C46.8648 3.0543 47.4817 2.24764 48.2494 1.60101C48.6335 1.27569 49.0528 0.994196 49.4993 0.761734C49.6802 0.669485 49.861 0.580856 50.0419 0.508504C50.1794 0.450623 50.3168 0.399977 50.4579 0.35114C50.634 0.292053 50.8113 0.239596 50.9897 0.193773C51.1682 0.14795 51.3491 0.109968 51.5324 0.0798212C51.6065 0.0689684 51.6789 0.0563054 51.753 0.0472615L51.7512 0.056306Z" fill="#00AD8E"/>
<path d="M90.7072 96.9912C90.7136 96.5402 90.6882 96.0893 90.6312 95.6418C90.4648 94.3847 89.754 93.6721 88.5005 93.4713C88.24 93.4297 87.9723 93.4206 87.663 93.3917V92.8346C87.663 88.6551 87.663 84.4756 87.663 80.296C87.6642 79.9148 87.6383 79.534 87.5852 79.1565C87.3863 77.7818 86.5 77.0077 85.1072 76.9679C84.6116 76.9534 84.116 76.9679 83.6222 76.9679C80.5653 76.9679 77.5097 76.9679 74.4552 76.9679C73.1312 76.9679 72.4167 77.5105 72.0332 78.7766C71.9659 78.9773 71.9145 79.1829 71.8795 79.3916C71.6443 81.0973 71.4237 82.8048 71.1867 84.5087C70.9172 86.4514 70.6712 88.3976 70.3529 90.333C70.0888 91.9356 69.349 93.1728 67.6397 93.6739C67.1939 93.7896 66.7994 94.0505 66.5183 94.4154C66.2373 94.7802 66.0858 95.2283 66.0877 95.6889C66.0317 97.1702 66.0335 98.6517 66.0262 100.135C66.0181 100.614 66.0416 101.093 66.0968 101.569C66.2578 102.873 67.0301 103.626 68.3397 103.761C68.6771 103.791 69.0168 103.777 69.3508 103.722C70.3836 103.563 71.0438 102.955 71.2735 101.947C71.3723 101.435 71.4231 100.915 71.4255 100.394C71.4508 99.708 71.4255 99.0206 71.4255 98.3116H85.2899V98.7964C85.2899 99.5597 85.2682 100.323 85.3061 101.084C85.3477 101.951 85.5612 102.77 86.3173 103.318C88.0193 104.55 90.4377 103.546 90.6222 101.473C90.7524 99.9865 90.6927 98.4834 90.7018 96.9876L90.7072 96.9912ZM82.2167 93.4025H74.6469C74.8259 92.9429 74.9752 92.4723 75.0937 91.9935C75.3994 90.3656 75.6852 88.7214 75.9366 87.0772C76.188 85.433 76.3888 83.7508 76.6258 82.0885C76.6402 81.9873 76.7741 81.8208 76.8519 81.8208C78.6299 81.8064 80.4097 81.8082 82.2167 81.8082V93.4025Z" fill="#00AD8E"/>
<path d="M16.97 90.458C15.9408 90.2536 15.0726 90.5828 14.5119 91.4764C13.8173 92.5834 12.884 93.2725 11.5798 93.4914C8.96613 93.9273 6.8408 92.6738 6.04131 90.1542C5.58721 88.6875 5.53474 87.126 5.88937 85.6322C6.10824 84.5155 6.67869 83.4982 7.51728 82.7291C9.12168 81.282 13.0214 81.1012 14.4576 83.6769C15.0491 84.7368 16.1145 85.0606 17.2359 84.7278C17.7506 84.559 18.1971 84.2286 18.509 83.7857C18.8208 83.3428 18.9814 82.8111 18.9669 82.2696C18.9573 81.4293 18.6979 80.6107 18.2217 79.9182C17.4916 78.866 16.4754 78.045 15.2933 77.5523C13.3543 76.7004 11.3139 76.4779 9.2284 76.7184C5.33408 77.1688 2.48342 79.1043 0.927856 82.7544C-0.0163331 84.9665 -0.173698 87.2908 0.15912 89.6549C0.455761 91.7567 1.2245 93.6614 2.64983 95.2622C3.57052 96.2991 4.69899 97.1308 5.96198 97.7032C7.22497 98.2756 8.59422 98.576 9.98086 98.5849C11.9054 98.5849 13.1788 98.433 14.4088 98.0224C15.9047 97.5232 17.2106 96.7345 18.1367 95.4268C18.7861 94.5079 19.137 93.486 18.8928 92.3518C18.8097 91.8751 18.5797 91.4363 18.235 91.0967C17.8902 90.7571 17.448 90.5338 16.97 90.458Z" fill="#00AD8E"/>
<path d="M158.886 89.069C158.481 85.8747 156.549 83.6607 153.521 83.0042C151.712 82.6098 149.97 82.7726 148.489 84.0605C148.439 84.0932 148.385 84.1188 148.328 84.1365C148.218 83.8726 148.053 83.635 147.845 83.4389C147.637 83.2429 147.39 83.0929 147.12 82.9987C146.431 82.7627 145.683 82.7627 144.995 82.9987C144.452 83.1796 144.018 83.5179 143.85 84.0533C143.66 84.611 143.554 85.1937 143.535 85.7825C143.511 91.2305 143.52 96.6804 143.522 102.129C143.518 102.34 143.525 102.552 143.544 102.763C143.665 103.8 144.058 104.645 145.159 104.965C147.026 105.507 148.379 104.603 148.572 102.678C148.594 102.454 148.596 102.226 148.596 102.002C148.596 100.674 148.596 99.3466 148.596 98.0226V97.5269C149.023 97.7639 149.366 97.9864 149.735 98.1564C151.924 99.1585 156.151 98.5833 157.944 95.237C158.985 93.2908 159.157 91.2088 158.884 89.0654L158.886 89.069ZM153.563 92.4262C153.141 93.6923 152.175 94.1318 150.992 94.0306C149.507 93.9039 148.768 93.0556 148.625 91.4422C148.603 91.1889 148.625 90.9339 148.625 90.6807L148.495 90.6554C148.654 89.9897 148.751 89.3024 148.986 88.6657C149.242 87.9765 149.809 87.5677 150.547 87.4447C152.378 87.1373 153.442 87.9024 153.738 89.7491C153.895 90.643 153.833 91.5616 153.557 92.4262" fill="#00AD8E"/>
<path d="M32.8729 90.5594C32.827 90.5319 32.7839 90.4998 32.7445 90.4635C32.9988 90.266 33.2404 90.0527 33.468 89.825C33.6835 89.5844 33.866 89.3162 34.0107 89.0273C34.8319 87.309 34.1554 85.0842 32.5112 84.0387C31.6847 83.507 30.7279 83.2129 29.7455 83.1886C27.8101 83.1415 25.8693 83.1216 23.9339 83.1886C22.5068 83.2356 21.7055 84.1382 21.7 85.5508C21.6892 88.996 21.6892 92.4417 21.7 95.8881C21.6972 96.2399 21.7585 96.5893 21.8809 96.9191C22.2933 97.9718 23.2049 98.263 24.2142 98.2757C26.1931 98.3028 28.1737 98.292 30.1543 98.2757C31.0401 98.2723 31.9132 98.0656 32.7065 97.6716C34.1915 96.9354 35.0019 95.7506 35.058 94.0811C35.114 92.4116 34.3688 91.272 32.8874 90.5684L32.8729 90.5594ZM27.2331 87.0793C27.8391 87.0793 28.4468 87.0793 29.051 87.11C29.5556 87.139 29.7962 87.403 29.8052 87.8444C29.8143 88.2857 29.5918 88.5679 29.0817 88.6113C28.5716 88.6547 28.0977 88.6113 27.6039 88.6113V88.6457C27.2096 88.6457 26.8135 88.6348 26.4192 88.6457C26.1533 88.6565 26.0574 88.5788 26.0429 88.2839C26.014 87.0539 26.005 87.0503 27.2313 87.0558L27.2331 87.0793ZM29.798 94.2909C28.5716 94.3199 27.3453 94.3 26.052 94.3C26.052 93.7682 26.0411 93.2762 26.061 92.786C26.061 92.7046 26.1985 92.5563 26.2708 92.5563C27.4701 92.5563 28.6693 92.5672 29.8667 92.6232C30.3189 92.6431 30.5595 93.0121 30.5523 93.486C30.545 93.9599 30.2773 94.2801 29.798 94.2909Z" fill="#00AD8E"/>
<path d="M128.916 83.8017C126.223 85.2976 125.156 87.7304 125.058 90.8723C125.101 91.272 125.128 91.8545 125.239 92.4206C126.129 97.1054 130.303 99.2597 134.597 98.4294C138.11 97.7511 140.228 95.4106 140.693 91.8925C141.002 89.5609 140.545 87.3849 139.02 85.5291C136.737 82.7454 132.223 81.9694 128.92 83.8017H128.916ZM135.375 92.2741C134.995 93.6669 133.944 94.1498 132.662 94.0304C131.267 93.9002 130.586 93.202 130.361 91.8111C130.193 90.7656 130.197 89.7273 130.622 88.7361C130.753 88.3981 130.971 88.101 131.255 87.875C131.538 87.6491 131.876 87.5024 132.235 87.4501C134.225 87.1154 135.431 88.0868 135.552 90.0981C135.565 90.308 135.552 90.5196 135.552 90.7312H135.627C135.568 91.2466 135.482 91.7586 135.37 92.2651" fill="#00AD8E"/>
<path d="M103.682 93.2742C103.261 93.3886 102.849 93.5362 102.452 93.7156C101.308 94.2307 100.018 94.323 98.8124 93.976C98.376 93.8546 97.9742 93.6324 97.6393 93.3274C97.3044 93.0223 97.0458 92.6429 96.8843 92.2197H97.4414C99.0096 92.2197 100.58 92.2342 102.144 92.2197C102.75 92.2186 103.356 92.1665 103.953 92.0641C104.953 91.8833 105.691 91.3153 105.876 90.2843C106.238 88.3127 105.935 86.4496 104.633 84.8579C103.579 83.5664 102.124 83.0111 100.504 82.8881C97.6765 82.6729 95.2328 83.4724 93.4765 85.8039C92.1217 87.6019 91.7961 89.6856 92.0295 91.8742C92.1683 93.3764 92.7679 94.7991 93.746 95.9476C95.052 97.467 96.745 98.2574 98.7093 98.5052C100.606 98.769 102.538 98.5352 104.317 97.8269C104.993 97.5538 105.617 97.183 105.992 96.5246C106.462 95.6998 106.5 94.8551 105.961 94.0466C105.481 93.3231 104.624 93.0445 103.664 93.2851L103.682 93.2742ZM96.9277 88.8825C97.3925 87.459 99.129 86.6143 100.534 87.1261C100.911 87.2623 101.233 87.5199 101.447 87.8584C101.662 88.197 101.758 88.5973 101.721 88.9964H96.944C96.944 88.9584 96.9168 88.915 96.9277 88.8825Z" fill="#00AD8E"/>
<path d="M48.6345 93.2669C48.2237 93.3642 47.8242 93.5043 47.4425 93.6847C46.6052 94.0727 45.6817 94.2372 44.7619 94.1622C43.4632 94.0808 42.4322 93.5545 41.8027 92.2196H42.3453C43.9298 92.2196 45.5125 92.2341 47.097 92.2196C47.7034 92.2188 48.3085 92.1661 48.9058 92.0622C49.9911 91.8578 50.6929 91.2139 50.8539 90.1051C51.1071 88.3614 50.8774 86.6883 49.8482 85.2087C48.8045 83.6893 47.249 83.0201 45.4691 82.8826C42.2911 82.6457 39.6593 83.6477 37.9681 86.4821C36.9533 88.1824 36.7182 90.0653 36.9895 92.0043C37.3621 94.6488 38.6807 96.6801 41.1497 97.7798C43.919 99.0116 46.7353 98.8434 49.5064 97.702C50.1815 97.4591 50.7339 96.96 51.0438 96.3129C51.4056 95.4953 51.4056 94.685 50.8394 93.9615C50.2733 93.2379 49.4919 93.0679 48.6291 93.2741L48.6345 93.2669ZM43.0833 87.3974C43.4261 87.1842 43.8105 87.0467 44.2108 86.9943C44.6111 86.9419 45.0179 86.9757 45.404 87.0935C45.802 87.217 46.1464 87.4715 46.3812 87.8157C46.6161 88.1599 46.7275 88.5735 46.6973 88.9891H41.8317C42.0343 88.3216 42.4813 87.7552 43.0833 87.4028" fill="#00AD8E"/>
<path d="M122.721 94.0846C121.706 93.1205 120.695 92.1546 119.675 91.1906C119.54 91.0881 119.394 91.0002 119.241 90.9283C119.301 90.8667 119.356 90.8008 119.405 90.7311C120.361 89.6911 121.325 88.6583 122.269 87.6073C122.574 87.2748 122.843 86.911 123.072 86.5221C123.403 85.9342 123.584 85.2921 123.407 84.6084C123.014 83.0908 121.093 82.3202 119.751 83.1776C119.297 83.4889 118.89 83.8635 118.543 84.29C117.173 85.8709 115.829 87.4735 114.484 89.0725C114.413 89.1851 114.358 89.3068 114.319 89.4342L114.138 89.2859V88.8229C114.138 87.7213 114.158 86.6197 114.127 85.52C114.098 84.5197 113.84 83.6009 112.861 83.0962C111.212 82.2461 109.443 83.1288 109.124 84.9466C109.085 85.1688 109.066 85.3939 109.066 85.6195C109.066 88.9959 109.066 92.3723 109.066 95.7487C109.071 96.1291 109.122 96.5076 109.218 96.8756C109.499 97.9717 110.343 98.5759 111.546 98.5849C112.794 98.5849 113.661 98.0188 113.952 96.9226C114.067 96.4714 114.127 96.0081 114.133 95.5425C114.158 94.4753 114.133 93.4063 114.133 92.3373L114.24 92.2903C114.343 92.4006 114.448 92.5092 114.549 92.6213C115.996 94.195 117.423 95.774 118.874 97.3386C119.16 97.6695 119.489 97.9603 119.852 98.2032C120.8 98.7803 121.771 98.7242 122.688 98.12C123.54 97.5575 123.877 96.6368 123.653 95.6004C123.52 94.98 123.153 94.5025 122.707 94.0774" fill="#00AD8E"/>
<path d="M67.0627 84.5829C66.7733 83.7056 65.9991 83.1666 64.8723 83.1612C61.4344 83.1455 57.9976 83.1455 54.5621 83.1612C54.181 83.1758 53.8054 83.2585 53.4534 83.4054C52.6304 83.7273 52.2234 84.4671 52.2451 85.4909C52.2632 86.4731 52.6756 87.164 53.5112 87.4353C54.0119 87.577 54.5285 87.6548 55.0487 87.6669C55.7361 87.7049 56.427 87.6669 57.1704 87.6669V88.2204C57.1704 90.6478 57.1704 93.077 57.1704 95.5062C57.1682 95.887 57.1961 96.2674 57.2536 96.6439C57.42 97.7129 58.0169 98.3586 59.0859 98.525C60.7772 98.7891 62.1012 98.1181 62.2079 96.1302C62.2224 95.877 62.2242 95.6219 62.2242 95.3687C62.2242 92.9968 62.2242 90.6248 62.2242 88.2529V87.6687H62.7867C63.5374 87.6687 64.2898 87.6922 65.035 87.6379C66.7118 87.5167 67.5818 86.171 67.0537 84.563" fill="#00AD8E"/>
</svg>
