<svg width="143" height="110" viewBox="0 0 143 110" fill="none" xmlns="http://www.w3.org/2000/svg">
<path d="M71.5431 3.30276e-06C70.8977 -0.000746288 70.2585 0.126106 69.6623 0.373269C69.0661 0.620431 68.5246 0.983027 68.069 1.4402L38.4539 31.057C37.5333 31.9788 37.0161 33.2283 37.0161 34.5312C37.0161 35.834 37.5333 37.0835 38.4539 38.0053L68.0725 67.6221C68.5282 68.079 69.0697 68.4414 69.666 68.6882C70.2622 68.9351 70.9014 69.0616 71.5467 69.0605" fill="#4B008C"/>
<path d="M79.686 26.4519C80.754 27.3377 81.6354 28.4268 82.2791 29.6559C82.9228 30.8851 83.316 32.2299 83.4359 33.6122H105.986C105.804 32.6435 105.332 31.7527 104.634 31.057L88.2866 14.7041L79.686 26.4519Z" fill="#F39322"/>
<path d="M78.1734 43.6565C76.5911 44.5599 74.8002 45.0344 72.9781 45.0331H71.5432V24.0292H72.9781C74.8003 24.027 76.5914 24.5015 78.1734 25.4058L86.9666 13.3894L75.0156 1.4402C74.5603 0.98308 74.0191 0.620505 73.4232 0.373338C72.8273 0.126171 72.1884 -0.000707436 71.5432 2.96674e-06V69.0605C72.1883 69.0616 72.8271 68.935 73.4231 68.6882C74.019 68.4413 74.5602 68.079 75.0156 67.6221L86.9666 55.6729L78.1734 43.6565Z" fill="#F39322"/>
<path d="M83.4359 35.4502C83.316 36.8325 82.9228 38.1773 82.2791 39.4065C81.6354 40.6356 80.754 41.7247 79.686 42.6105L88.2866 54.3565L104.639 38.0054C105.338 37.3097 105.809 36.4189 105.991 35.4502H83.4359Z" fill="#F39322"/>
<path d="M14.068 104.219C12.3009 104.769 10.7105 104.99 7.98381 104.99C2.12053 104.99 0 102.403 0 95.1609C0 87.9193 2.12053 85.334 7.98381 85.334C10.6539 85.334 11.9474 85.5266 13.6828 85.9666L13.3293 89.105C11.541 88.9954 10.3835 88.9672 7.98911 88.9672C5.23595 88.9672 4.41071 90.3809 4.41071 95.1609C4.41071 99.9409 5.23595 101.346 7.98911 101.346C10.5214 101.346 12.0358 101.319 13.7146 101.098L14.068 104.219Z" fill="#4B008C"/>
<path d="M26.0117 97.7212C28.5723 97.9138 29.4805 99.1261 29.4805 101.3C29.4805 104.108 27.8018 104.878 23.8099 104.878C20.5337 104.878 18.7171 104.852 16.5417 104.714V91.0875C18.4962 90.9497 20.1484 90.9214 23.0394 90.9214C27.4431 90.9214 28.9858 91.6936 28.9858 94.5281C28.9858 96.456 28.1322 97.4456 26.0117 97.6117V97.7212ZM23.0394 96.4843C24.6634 96.4843 25.1865 96.1538 25.1865 95.0246C25.1865 93.9803 24.6068 93.7046 22.845 93.7046L20.3711 93.6763V96.4843H23.0394ZM23.1207 102.045C24.856 102.045 25.4339 101.743 25.4339 100.455C25.4339 99.2445 24.8277 98.8645 23.0394 98.8645H20.3676V102.058L23.1207 102.045Z" fill="#4B008C"/>
<path d="M35.9801 99.236C36.2558 101.274 37.1358 101.742 39.1998 101.742C40.4368 101.742 42.4213 101.63 44.2661 101.438L44.6514 103.97C43.061 104.742 40.6595 104.99 38.7315 104.99C33.5839 104.99 31.6631 102.897 31.6631 97.8877C31.6631 92.5192 33.6723 90.7026 38.5725 90.7026C43.197 90.7026 44.9871 92.3266 45.0136 95.4367C45.0136 97.9107 43.8579 99.236 40.8856 99.236H35.9801ZM39.7512 96.785C40.8804 96.785 41.0182 96.1524 41.0182 95.382C41.0182 94.1149 40.4668 93.6749 38.705 93.6749C36.6675 93.6749 36.0067 94.2263 35.8971 96.785H39.7512Z" fill="#4B008C"/>
<path d="M55.1076 94.2258V104.659H51.0892V94.2258H46.5742V91.0874H59.6226V94.2258H55.1076Z" fill="#4B008C"/>
<path d="M76.4949 104.659H63.9148L63.5843 108.815H60.6121V101.63H62.6213C64.1622 97.7759 64.7966 93.7292 65.0952 89.6277C65.2613 87.2598 66.9401 85.6641 69.5271 85.6641H77.3307V101.63H79.8047V108.815H76.8253L76.4949 104.659ZM73.1374 88.6929H70.6881C69.5855 88.6929 69.1454 89.1329 69.0624 90.3169C68.6224 95.4645 68.0163 98.6029 66.5584 101.626H73.1374V88.6929Z" fill="#4B008C"/>
<path d="M85.8817 99.236C86.1574 101.274 87.0374 101.742 89.1031 101.742C90.3401 101.742 92.3228 101.63 94.1677 101.438L94.5529 103.97C92.9625 104.742 90.561 104.99 88.6349 104.99C83.4873 104.99 81.5664 102.897 81.5664 97.8877C81.5664 92.5192 83.5756 90.7026 88.4758 90.7026C93.1021 90.7026 94.8904 92.3266 94.9187 95.4367C94.9187 97.9107 93.763 99.236 90.789 99.236H85.8817ZM89.6527 96.785C90.7819 96.785 90.9197 96.1524 90.9197 95.382C90.9197 94.1149 90.3684 93.6749 88.6066 93.6749C86.5709 93.6749 85.91 94.2263 85.7987 96.785H89.6527Z" fill="#4B008C"/>
<path d="M105.59 97.64C108.729 98.0517 109.033 98.8504 110.876 104.659H106.635C105.066 99.7322 104.818 99.0431 102.809 99.0431H101.572C101.655 99.4229 101.702 99.81 101.71 100.199V104.659H97.6631V91.0875H101.717V94.5564C101.717 95.1113 101.661 95.6648 101.551 96.2086H102.57C104.772 96.2086 105.103 95.2438 106.313 91.084H110.443C108.764 96.2086 108.626 97.1116 105.597 97.5251L105.59 97.64Z" fill="#4B008C"/>
<path d="M126.428 97.8858C126.428 103.088 124.557 105.016 119.464 105.016C114.371 105.016 112.472 103.088 112.472 97.8858C112.472 92.6551 114.371 90.7007 119.464 90.7007C124.557 90.7007 126.428 92.6551 126.428 97.8858ZM116.737 97.8858C116.737 101.134 117.315 101.95 119.462 101.95C121.583 101.95 122.187 101.125 122.187 97.8858C122.187 94.5813 121.583 93.756 119.462 93.756C117.315 93.756 116.737 94.5813 116.737 97.8858Z" fill="#4B008C"/>
<path d="M132.897 93.0687C134.025 91.7204 136.228 90.729 138.292 90.729C141.65 90.729 143 93.3991 143 97.9971C143 103.392 141.21 105.018 137.796 105.018C136.145 105.018 134.521 104.631 133.254 103.696C133.338 104.666 133.365 105.64 133.337 106.614V109.89H129.284V91.0877H132.586L132.897 93.0687ZM133.337 101.438C134.41 101.713 135.264 101.989 136.421 101.989C138.155 101.989 138.815 101.383 138.815 97.9971C138.815 94.7209 138.209 93.9222 136.695 93.9222C135.511 93.9222 134.603 94.3905 133.337 95.2175V101.438Z" fill="#4B008C"/>
</svg>
