<svg width="148" height="97" viewBox="0 0 148 97" fill="none" xmlns="http://www.w3.org/2000/svg">
<path d="M72.0226 18.2003C72.5206 17.2862 73.0567 16.3973 73.631 15.5337C74.203 16.3985 74.7386 17.2879 75.2377 18.202C75.5304 18.7393 75.8108 19.2832 76.0789 19.834C76.3537 20.4049 76.6117 20.9875 76.8528 21.582C77.2734 22.6503 77.7058 23.8499 77.975 24.7113C78.0266 24.8795 78.0771 25.0478 78.1264 25.216C78.2156 25.5121 78.2947 25.8116 78.3788 26.1111C78.4276 26.2928 78.4747 26.4761 78.5201 26.6595C78.5655 26.8429 78.6009 26.9859 78.6396 27.1508C78.6715 27.2871 78.7035 27.4233 78.7321 27.5596C78.7433 27.6034 78.7534 27.6471 78.7624 27.6908L78.8532 28.1215C78.8835 28.2645 78.9104 28.4092 78.939 28.5539C78.9676 28.6986 78.9945 28.8416 79.0198 28.9863C79.045 29.131 79.0652 29.237 79.0854 29.3615C79.1146 29.5241 79.1415 29.689 79.1662 29.8561C79.1813 29.947 79.1948 30.0395 79.2082 30.132C79.2166 30.1859 79.225 30.2397 79.2318 30.3003L79.2519 30.4483C79.2529 30.4663 79.2529 30.4842 79.2519 30.5022C79.2637 30.5812 79.2738 30.6586 79.2839 30.7377C79.289 30.7649 79.2924 30.7925 79.294 30.8201C79.3058 30.8975 79.3142 30.9749 79.3226 31.054C79.3226 31.054 79.3226 31.0691 79.3226 31.0775C79.3226 31.086 79.3226 31.123 79.331 31.1448C79.3319 31.1555 79.3319 31.1662 79.331 31.1768C79.3445 31.2895 79.3563 31.4006 79.368 31.5133C79.3798 31.626 79.3916 31.7387 79.4017 31.8498C79.4118 31.9608 79.4236 32.0618 79.4337 32.1678C79.4345 32.175 79.4345 32.1824 79.4337 32.1896C79.4488 32.3461 79.4623 32.5026 79.474 32.6607C79.5077 33.1093 79.5329 33.5619 79.5497 34.0184C79.5582 34.2371 79.5649 34.4558 79.5699 34.6762V34.72C79.5699 34.9353 79.5699 35.1507 79.5699 35.366V35.3829C79.5699 35.3997 79.5699 35.4165 79.5699 35.4333C79.5498 35.7815 79.4025 36.1102 79.1561 36.357C78.9774 36.538 78.753 36.6671 78.5066 36.7305C78.4846 36.7371 78.4621 36.7422 78.4393 36.7456C78.3973 36.754 78.3535 36.7608 78.3098 36.7658C78.2616 36.7684 78.2133 36.7684 78.1651 36.7658H69.0767C69.0285 36.7683 68.9802 36.7683 68.932 36.7658C68.8883 36.7658 68.8445 36.754 68.8025 36.7456L68.7352 36.7305C68.4888 36.6671 68.2644 36.538 68.0857 36.357C67.8393 36.1102 67.692 35.7815 67.6719 35.4333C67.6719 35.4115 67.6719 35.3896 67.6719 35.366C67.6719 35.1507 67.6719 34.9353 67.6719 34.72V34.6762C67.6719 34.4558 67.6837 34.2371 67.6921 34.0184C67.7089 33.5642 67.7341 33.1116 67.7678 32.6607C67.7846 32.4336 67.8031 32.2098 67.825 31.9877C67.867 31.5368 67.9175 31.0893 67.9764 30.6418C67.9966 30.4837 68.0201 30.3272 68.0437 30.1707C68.0672 30.0126 68.0908 29.8561 68.116 29.6996C68.1413 29.5432 68.1665 29.3901 68.1934 29.2353C68.2102 29.1344 68.2288 29.0334 68.2489 28.9341L68.2691 28.8214C68.2775 28.7794 68.2843 28.739 68.2927 28.6969C68.3095 28.6061 68.3263 28.5152 68.3448 28.4244C68.3448 28.3941 68.3566 28.3621 68.3633 28.3318C68.3819 28.2343 68.402 28.1367 68.4222 28.0391C68.4424 27.9415 68.4542 27.8877 68.471 27.8103C68.545 27.4637 68.6258 27.1188 68.7099 26.7739L68.8412 26.2574L68.8613 26.18C68.9 26.0337 68.9404 25.889 68.9808 25.7443C69.0212 25.5996 69.0716 25.4246 69.1171 25.2648C69.1625 25.105 69.2264 24.9014 69.2853 24.7214C69.5478 23.8802 69.9684 22.7025 70.3806 21.6543C70.3796 21.6499 70.3796 21.6453 70.3806 21.6409C70.6318 21.0318 70.8993 20.4323 71.1831 19.8424C71.4467 19.2905 71.7271 18.7465 72.0243 18.2104L72.0226 18.2003ZM72.2514 31.9507C72.2514 31.5944 72.3882 31.2516 72.6337 30.9933C72.8792 30.735 73.2145 30.5808 73.5704 30.5627H73.6949C74.0507 30.5812 74.3858 30.7355 74.6312 30.9937C74.8766 31.252 75.0136 31.5945 75.0139 31.9507V33.9814H76.7855C76.7704 33.613 76.7485 33.2428 76.7216 32.8761C76.7098 32.7314 76.698 32.585 76.6846 32.4403C76.6577 32.1251 76.6257 31.8111 76.5887 31.4981C76.5769 31.3938 76.5634 31.2878 76.55 31.1835C76.5298 31.0198 76.5079 30.8566 76.4844 30.694C76.4709 30.5913 76.4558 30.4904 76.4406 30.3894C76.4255 30.2885 76.4154 30.2212 76.4019 30.1438C76.3851 30.0294 76.3666 29.9133 76.3447 29.7989C76.3229 29.6845 76.306 29.5701 76.2842 29.4624C76.2455 29.2319 76.2 29.0031 76.1529 28.776C76.1311 28.6616 76.1075 28.5472 76.0823 28.4395C76.0369 28.2208 75.9881 28.0038 75.9359 27.7867C75.9023 27.6437 75.8686 27.5024 75.8316 27.3611C75.7828 27.1541 75.729 26.9506 75.6634 26.7453C75.6348 26.6326 75.6045 26.5216 75.5708 26.4088C75.4901 26.1195 75.4048 25.8306 75.3151 25.5424C75.2814 25.433 75.2461 25.3237 75.2108 25.2143C75.1418 24.9956 75.0678 24.7769 74.9921 24.5599C74.8979 24.2873 74.7997 24.0153 74.6977 23.7439C74.5866 23.4411 74.4672 23.1399 74.3443 22.8421C74.12 22.2813 73.88 21.7334 73.6243 21.1984C73.3685 21.7379 73.1285 22.2858 72.9042 22.8421C72.7814 23.1399 72.6619 23.4411 72.5509 23.7439C72.4477 24.0153 72.3496 24.2873 72.2565 24.5599C72.1808 24.7769 72.1067 24.9956 72.0378 25.2143C71.9099 25.6114 71.7904 26.0084 71.6777 26.4088C71.6441 26.5216 71.6138 26.6326 71.5852 26.7453C71.528 26.9506 71.4741 27.1541 71.4169 27.3611C71.3816 27.5024 71.3479 27.6437 71.3126 27.7867C71.2605 28.0038 71.2117 28.2208 71.1662 28.4395C71.141 28.5522 71.1175 28.6666 71.0956 28.776C71.0485 29.0031 71.0031 29.2319 70.9644 29.4624C70.9431 29.5746 70.9229 29.6868 70.9038 29.7989C70.8836 29.915 70.8651 30.0294 70.8466 30.1438C70.8331 30.2262 70.8197 30.312 70.8079 30.3894C70.7961 30.4668 70.7776 30.5913 70.7642 30.694C70.7406 30.8577 70.7187 31.0209 70.6985 31.1835C70.6851 31.2878 70.6716 31.3938 70.6599 31.4981C70.6228 31.8111 70.5909 32.1251 70.564 32.4403C70.5505 32.585 70.5387 32.7314 70.5269 32.8761C70.5 33.2439 70.4787 33.6124 70.463 33.9814H72.2346L72.2514 31.9507Z" fill="#527262"/>
<path d="M47.9388 0.0523721C48.4755 -0.0174574 49.019 -0.0174574 49.5556 0.0523721C49.6431 0.064149 49.7323 0.0759252 49.8198 0.091067C50.3211 0.175188 50.8191 0.270524 51.3138 0.377077C51.5459 0.42755 51.7781 0.479706 52.0086 0.533544C52.2391 0.587381 52.4494 0.639536 52.6681 0.701785C59.4462 2.44863 65.5674 6.13514 70.2813 11.3094L70.3066 11.338C71.1083 12.2204 71.8652 13.1424 72.5745 14.1006L72.6603 14.215L71.0586 16.6965L70.882 16.4526L70.8416 16.3971L70.7423 16.2591C70.1042 15.3524 69.4191 14.4797 68.6898 13.6446C64.3585 8.6993 58.6498 5.15926 52.2946 3.47777C52.0983 3.42506 51.9015 3.37459 51.7041 3.32636C51.5039 3.27589 51.302 3.22878 51.1001 3.18335L51.0379 3.16989L50.7014 3.09587L50.3649 3.02689C50.0284 2.95791 49.6919 2.89566 49.3554 2.83846C48.8462 2.75212 48.3243 2.77848 47.8263 2.91568C47.3284 3.05288 46.8666 3.29758 46.4735 3.63255C46.069 3.97357 45.7439 4.39886 45.521 4.87866C45.2981 5.35846 45.1828 5.88118 45.183 6.41023V19.7013C45.1888 23.4923 46.6973 27.1263 49.378 29.807C52.0586 32.4876 55.6926 33.9961 59.4836 34.0019C59.8521 34.0019 60.2056 34.1483 60.4662 34.4089C60.7269 34.6695 60.8733 35.023 60.8733 35.3916C60.8733 35.7601 60.7269 36.1136 60.4662 36.3742C60.2056 36.6348 59.8521 36.7812 59.4836 36.7812C58.1141 36.7826 56.8012 37.3272 55.8328 38.2955C54.8645 39.2638 54.3199 40.5768 54.3186 41.9463V54.9799C54.3188 55.1222 54.3266 55.2642 54.3421 55.4056C54.3505 55.4729 54.3606 55.5419 54.3724 55.6092C54.3842 55.6748 54.3976 55.7421 54.4128 55.8077C54.4128 55.8077 54.4128 55.8077 54.4128 55.8178C54.4246 55.8683 54.438 55.9187 54.4515 55.9692C54.4649 56.0197 54.4784 56.0617 54.4935 56.1089C54.7248 56.8095 55.1623 57.4241 55.7486 57.872C56.1733 58.2067 56.6692 58.4395 57.198 58.5524C57.7268 58.6653 58.2745 58.6552 58.7988 58.5231L58.8981 58.4962L58.9503 58.4844L59.1639 58.4272L59.3625 58.3734L59.6384 58.2943L59.9563 58.1984L60.0119 58.1816C60.1465 58.1412 60.2811 58.0975 60.414 58.0537L60.5957 57.9915C60.7101 57.9545 60.8245 57.9141 60.9322 57.8737L61.0667 57.8249C61.1879 57.7828 61.3073 57.7374 61.4268 57.692L61.5159 57.6567C61.659 57.6028 61.8036 57.5456 61.945 57.4884C62.0863 57.4312 62.2697 57.3555 62.4295 57.2849C62.5893 57.2142 62.7424 57.1469 62.8989 57.0762L62.9477 57.0527C63.0924 56.9876 63.2371 56.9187 63.3818 56.8457C63.5399 56.7717 63.6947 56.6926 63.8511 56.6119C64.0076 56.5311 64.1607 56.4436 64.3138 56.3663C64.4669 56.2889 64.62 56.198 64.7714 56.1105C64.9228 56.023 65.0743 55.9423 65.2223 55.8464L65.5857 55.6243C65.9474 55.3972 66.3007 55.1616 66.649 54.9177C66.9103 54.7349 67.1678 54.5459 67.4212 54.3507L67.6753 54.1556C67.8435 54.0243 68.0118 53.8914 68.1699 53.7535C68.3381 53.6172 68.4963 53.4792 68.6561 53.3379C68.816 53.1966 68.9758 53.0553 69.1323 52.9089C69.2887 52.7625 69.4435 52.6178 69.5966 52.4681C69.6488 52.4176 69.7009 52.3671 69.7497 52.3167L69.9011 52.1653C70.1008 51.9634 70.2976 51.757 70.4916 51.5461C70.5808 51.4486 70.67 51.351 70.7575 51.2517C71.3771 50.5574 71.9552 49.8271 72.4887 49.0646C72.5442 48.9862 72.6073 48.9135 72.6771 48.8475C72.7464 48.784 72.8219 48.7276 72.9025 48.6793C72.9993 48.6195 73.1033 48.5726 73.2121 48.5397C73.4515 48.4653 73.7066 48.4573 73.9501 48.5166C74.1937 48.5759 74.4166 48.7001 74.5951 48.8761C74.657 48.9347 74.7133 48.9989 74.7633 49.0679L74.9181 49.285C74.9702 49.3573 75.0207 49.428 75.0746 49.5003C75.1789 49.6433 75.2865 49.7846 75.3942 49.9243C75.5019 50.0639 75.6112 50.2036 75.7307 50.3415C76.0672 50.7537 76.4037 51.1558 76.7671 51.5428C76.8562 51.6403 76.9454 51.7362 77.0362 51.8321C77.1271 51.928 77.2196 52.0223 77.3122 52.1165C77.4955 52.3049 77.684 52.4883 77.8741 52.6683C78.1276 52.9128 78.3867 53.1489 78.6514 53.3766C78.7826 53.4927 78.9172 53.6071 79.0518 53.7131C79.1864 53.8191 79.321 53.9369 79.4572 54.0496L79.7147 54.2515C80.147 54.5879 80.5895 54.9076 81.0438 55.2104C81.2238 55.3316 81.4072 55.451 81.5922 55.5671C81.7268 55.6546 81.8631 55.7354 82.0011 55.8212L82.0482 55.8481C82.1929 55.9372 82.3409 56.0247 82.489 56.1072C82.637 56.1896 82.7935 56.2754 82.9466 56.3629C83.0997 56.4504 83.2545 56.5311 83.4109 56.6085C83.5674 56.6859 83.7087 56.7616 83.8601 56.8323C83.8682 56.8384 83.8773 56.843 83.8871 56.8457C84.025 56.9147 84.163 56.9803 84.3026 57.0443L84.3649 57.0729C84.5095 57.1402 84.6542 57.2058 84.8023 57.2697L84.8393 57.2849C84.9974 57.3538 85.1556 57.4211 85.3154 57.4851C85.4752 57.549 85.5998 57.6012 85.7444 57.6533C85.773 57.6668 85.8033 57.6769 85.8336 57.6886C85.9379 57.729 86.0422 57.7677 86.1482 57.8047C86.2155 57.8316 86.2845 57.8552 86.3535 57.8804C86.4225 57.9057 86.5217 57.9376 86.5974 57.9629L86.8834 58.0605C87.0349 58.1109 87.188 58.1597 87.3427 58.2051C87.4224 58.2309 87.5015 58.2545 87.58 58.2758C87.6921 58.3106 87.8082 58.3442 87.9282 58.3767L88.0275 58.4037L88.3152 58.4811L88.3841 58.4979L88.4683 58.5197C88.9924 58.6516 89.5397 58.6615 90.0682 58.5486C90.5968 58.4357 91.0923 58.2031 91.5168 57.8687C92.1041 57.4152 92.5395 56.7938 92.7652 56.087C92.7803 56.0416 92.7938 55.9944 92.8072 55.9473C92.8207 55.9002 92.8341 55.8464 92.8459 55.7959C92.8467 55.7926 92.8467 55.7891 92.8459 55.7858C92.8611 55.7202 92.8745 55.6546 92.8863 55.5873C92.8981 55.52 92.9082 55.4527 92.9166 55.3837C92.9321 55.2429 92.9399 55.1014 92.9401 54.9598V41.9328C92.9384 40.5635 92.3936 39.2508 91.4254 38.2825C90.4571 37.3143 89.1444 36.7696 87.7751 36.7678C87.4065 36.7678 87.0531 36.6214 86.7925 36.3607C86.5318 36.1001 86.3855 35.7467 86.3855 35.3781C86.3855 35.0095 86.5318 34.6561 86.7925 34.3954C87.0531 34.1348 87.4065 33.9884 87.7751 33.9884C91.5661 33.9826 95.2001 32.4741 97.8807 29.7935C100.561 27.1129 102.07 23.4788 102.076 19.6879V6.39677C102.076 5.86772 101.961 5.345 101.738 4.8652C101.515 4.3854 101.19 3.96011 100.785 3.6191C100.392 3.28389 99.9298 3.03905 99.4316 2.90184C98.9334 2.76463 98.4111 2.7384 97.9016 2.825C97.5651 2.8822 97.2286 2.94501 96.8921 3.01343L96.5557 3.08241L96.2192 3.15643L96.1569 3.16989C95.955 3.21531 95.7532 3.26242 95.5529 3.3129L94.9624 3.46431C88.6079 5.1462 82.8998 8.68621 78.5689 13.6312C77.8396 14.4663 77.1545 15.3389 76.5164 16.2456C76.4811 16.2911 76.4491 16.3365 76.4171 16.3836L76.3767 16.4391L76.2001 16.6831L74.5984 14.2015L74.6825 14.0871C75.3908 13.1332 76.153 12.2028 76.9521 11.3246L76.9774 11.296C81.6913 6.12168 87.8125 2.43517 94.5906 0.688326C94.8093 0.632806 95.0297 0.578969 95.2501 0.520084C95.4705 0.461199 95.7111 0.41409 95.9433 0.363618C96.4362 0.257626 96.9342 0.163411 97.4372 0.0776073C97.5247 0.0624656 97.6055 0.0506894 97.7014 0.0389124L97.8982 0.0170402C97.9644 0.0103105 98.03 0.00526388 98.0951 0.00189904H98.2145C98.3155 0.00189904 98.4147 0.00189904 98.514 0.00189904H98.5611C98.6133 0.00189904 98.6654 0.00189904 98.7176 0.00189904C98.7697 0.00189904 98.8522 0.00189863 98.9195 0.0119931C99.0524 0.0119931 99.1869 0.0338655 99.3199 0.0523721C99.3888 0.0523721 99.4562 0.0708774 99.5251 0.0826544C99.6934 0.111255 99.8616 0.146587 100.03 0.188648C100.198 0.230708 100.366 0.279497 100.524 0.335017C100.656 0.380442 100.784 0.427552 100.911 0.481389C101.08 0.553733 101.248 0.631123 101.416 0.716927C101.831 0.933147 102.221 1.19498 102.579 1.49757C103.293 2.09873 103.867 2.84901 104.26 3.69569C104.653 4.54237 104.856 5.4649 104.855 6.39845V19.6895C104.838 23.3039 103.683 26.8211 101.553 29.7416C99.4239 32.662 96.4284 34.8373 92.9923 35.9585C93.8486 36.7017 94.5348 37.6205 95.0042 38.6526C95.4737 39.6847 95.7153 40.8057 95.7128 41.9395V54.9749C95.713 55.2851 95.6911 55.5949 95.6471 55.9019C95.6202 56.0819 95.5883 56.2603 95.5479 56.4369C95.5344 56.4992 95.5176 56.5614 95.5025 56.622C95.457 56.7902 95.4049 56.9585 95.3443 57.1267C95.3451 57.1306 95.3451 57.1346 95.3443 57.1385C95.2939 57.2798 95.2383 57.4194 95.1761 57.5557C94.566 58.9261 93.4991 60.0423 92.1576 60.7136C90.8161 61.385 89.2832 61.5699 87.8205 61.2369L87.7835 61.2284H87.7734L87.5194 61.1645L87.267 61.0955C87.0988 61.0484 86.9306 60.9996 86.7623 60.9492C86.5941 60.8987 86.4258 60.8465 86.2576 60.7927L85.7529 60.6245H85.7394C85.5711 60.5673 85.4029 60.5112 85.2347 60.4562C85.0799 60.4007 84.9251 60.3418 84.772 60.288L84.7182 60.2678C84.5499 60.2055 84.3985 60.1416 84.2404 60.076C84.1276 60.0306 84.0149 59.9835 83.9039 59.9347C83.8181 59.8993 83.7356 59.8623 83.6481 59.8236L83.5943 59.8001C83.4463 59.7361 83.2999 59.6688 83.1535 59.6016H83.1384L82.674 59.3795C82.5159 59.3038 82.3594 59.2247 82.203 59.1439C82.0465 59.0632 81.89 58.9757 81.7352 58.8983C81.5805 58.8209 81.4257 58.7301 81.2726 58.6443C80.4687 58.1897 79.6882 57.695 78.934 57.162C78.6828 56.9837 78.4343 56.8014 78.1887 56.6153C78.0827 56.5345 77.9784 56.447 77.8758 56.373C77.6672 56.2048 77.4619 56.0449 77.2583 55.8683L76.9555 55.6125C76.5786 55.2873 76.2113 54.9508 75.8535 54.6031C75.7341 54.4887 75.6163 54.3726 75.4985 54.2565C75.3807 54.1404 75.3101 54.0698 75.2192 53.9739C74.6652 53.4052 74.1363 52.8113 73.6327 52.1922C73.1291 52.8113 72.6003 53.4052 72.0462 53.9739L71.7669 54.2565C71.6491 54.3726 71.5314 54.4887 71.4119 54.6031C71.0541 54.9463 70.6868 55.2828 70.3099 55.6125L70.0071 55.8683C69.8035 56.0365 69.5983 56.2048 69.3897 56.373C69.287 56.4554 69.1827 56.5412 69.0767 56.6153C68.6561 56.9349 68.2266 57.2422 67.788 57.5372L67.3472 57.8266C67.1992 57.9225 67.0511 58.015 66.9014 58.1076C66.7516 58.2001 66.6002 58.2909 66.4488 58.3801C66.2974 58.4693 66.1443 58.5585 65.9912 58.6443L65.6194 58.8495C65.4343 58.9505 65.2492 59.048 65.0625 59.1439C64.9111 59.2213 64.758 59.2987 64.6049 59.3727L64.5847 59.3828C64.4467 59.4518 64.3071 59.5174 64.1674 59.5814L64.1035 59.6116C63.9605 59.6789 63.8158 59.7446 63.6711 59.8068L63.6173 59.8304C63.5332 59.8691 63.4491 59.9061 63.3616 59.9414C63.2505 59.9902 63.1378 60.0373 63.0251 60.0827C62.8669 60.1483 62.7071 60.2123 62.5473 60.2745L62.4934 60.2947C62.3403 60.3536 62.1855 60.4125 62.0308 60.4629C61.876 60.5134 61.7044 60.5807 61.5395 60.6312L61.4924 60.648L61.023 60.8028C60.8548 60.8566 60.6865 60.9071 60.5183 60.9576C60.35 61.0081 60.1818 61.0568 60.0135 61.104C59.8453 61.1511 59.6905 61.1914 59.5273 61.2318L59.46 61.2486C58.5266 61.4629 57.5571 61.4669 56.6219 61.2603C55.6867 61.0537 54.8091 60.6417 54.0527 60.0541C52.9796 59.2277 52.1967 58.0819 51.8168 56.7818C51.7933 56.696 51.7697 56.6136 51.7478 56.521C51.699 56.3208 51.6603 56.1173 51.6301 55.912C51.5861 55.6044 51.5642 55.294 51.5645 54.9833V41.9328C51.5622 40.7989 51.8042 39.6778 52.2739 38.6457C52.7436 37.6137 53.4301 36.6949 54.2866 35.9518C50.8466 34.8338 47.8466 32.6596 45.7133 29.7386C43.58 26.8175 42.4219 23.2982 42.4037 19.6811V6.39004C42.4032 5.45647 42.6068 4.53408 43.0003 3.68749C43.3938 2.84091 43.9677 2.0906 44.6817 1.48916C45.039 1.18656 45.4289 0.924735 45.8442 0.708514C46.0125 0.622711 46.1807 0.540273 46.349 0.472977C46.4768 0.419139 46.6047 0.372032 46.7359 0.326607C46.8997 0.271648 47.0645 0.222856 47.2305 0.180235C47.3965 0.137614 47.5648 0.102285 47.7353 0.0742443C47.8042 0.0641498 47.8715 0.0523716 47.9405 0.0439595L47.9388 0.0523721Z" fill="#3E1B3A"/>
<path d="M2.88703 89.67C0.962349 87.7991 0 85.4533 0 82.6324C0 79.8115 0.962349 77.4663 2.88703 75.5965C4.81172 73.7234 7.26412 72.7875 10.2442 72.7886C13.5956 72.7886 16.1675 73.9663 17.9598 76.3217C18.1129 76.5185 18.2576 76.7187 18.3956 76.9256C18.582 77.208 18.6886 77.5355 18.704 77.8735C18.7194 78.2115 18.643 78.5473 18.4829 78.8454C18.3228 79.1435 18.085 79.3927 17.7948 79.5665C17.5045 79.7404 17.1726 79.8324 16.8343 79.8329H16.6509C16.3446 79.8285 16.0444 79.7469 15.778 79.5958C15.5115 79.4446 15.2875 79.2287 15.1266 78.9681C14.9431 78.6871 14.7336 78.4241 14.5008 78.1824C13.3791 77.0608 11.9603 76.5 10.2442 76.5C8.50462 76.5 7.07233 77.072 5.94735 78.2161C4.82238 79.3601 4.26157 80.8277 4.26494 82.6189C4.26494 84.4819 4.81003 85.9675 5.90024 87.0757C6.99045 88.1838 8.4407 88.7385 10.251 88.7396C12.0601 88.7396 13.5143 88.1188 14.6135 86.8771C14.8512 86.5987 15.0645 86.3004 15.2511 85.9855C15.4124 85.6987 15.6461 85.4593 15.929 85.2913C16.2118 85.1233 16.5339 85.0325 16.8629 85.0282H16.9823C17.312 85.0267 17.6361 85.1126 17.9218 85.277C18.2076 85.4414 18.4447 85.6786 18.6091 85.9643C18.7735 86.25 18.8593 86.5742 18.8579 86.9039C18.8564 87.2335 18.7677 87.5569 18.6008 87.8412C18.409 88.1575 18.2038 88.4603 17.985 88.753C16.0682 91.2363 13.4885 92.4774 10.2459 92.4762C7.26581 92.4762 4.8134 91.5408 2.88872 89.67" fill="#3E1B3A"/>
<path d="M22.0834 90.5113V79.8077C22.0834 79.428 22.2342 79.0638 22.5027 78.7953C22.7712 78.5268 23.1354 78.376 23.5151 78.376H29.5331C30.9351 78.376 32.0169 78.6867 32.7785 79.308C33.143 79.59 33.4363 79.9534 33.635 80.3692C33.8336 80.7849 33.9321 81.2414 33.9225 81.7021C33.9225 82.7306 33.5412 83.5376 32.7785 84.1231C32.4509 84.3767 32.0682 84.5497 31.6614 84.6278V84.7624C32.1764 84.8679 32.6707 85.0566 33.1251 85.321C34.0986 86.013 34.5865 86.935 34.5888 88.0869C34.5998 88.6227 34.4847 89.1536 34.2526 89.6368C34.0206 90.1199 33.6781 90.5416 33.2529 90.8679C32.3669 91.5858 31.1252 91.9447 29.5281 91.9447H23.5151C23.1354 91.9447 22.7712 91.7938 22.5027 91.5253C22.2342 91.2568 22.0834 90.8927 22.0834 90.5129V90.5113ZM25.8082 83.5646H29.0048C29.1815 83.5734 29.3581 83.5473 29.5247 83.4879C29.6913 83.4284 29.8445 83.3367 29.9756 83.218C30.0889 83.1071 30.179 82.9746 30.2405 82.8284C30.3019 82.6822 30.3336 82.5253 30.3336 82.3667C30.3336 82.2081 30.3019 82.0511 30.2405 81.9049C30.179 81.7587 30.0889 81.6263 29.9756 81.5154C29.7092 81.2793 29.3602 81.1583 29.0048 81.1789H25.8082V83.5646ZM25.8082 89.1519H29.2673C29.6899 89.1664 30.101 89.0134 30.4113 88.7262C30.5541 88.5936 30.668 88.433 30.7459 88.2544C30.8238 88.0758 30.864 87.883 30.864 87.6882C30.864 87.4933 30.8238 87.3005 30.7459 87.1219C30.668 86.9433 30.5541 86.7827 30.4113 86.6501C30.1006 86.3636 29.6897 86.2107 29.2673 86.2245H25.8082V89.1519Z" fill="#3E1B3A"/>
<path d="M38.1656 90.2551C37.4953 89.5866 36.9634 88.7925 36.6006 87.9182C36.2377 87.0439 36.0509 86.1065 36.0509 85.1599C36.0509 84.2133 36.2377 83.2759 36.6006 82.4016C36.9634 81.5273 37.4953 80.7331 38.1656 80.0647C39.5754 78.6739 41.3094 77.9779 43.3676 77.9768C45.4605 77.9768 47.1631 78.6868 48.5292 80.0512C49.8533 81.377 50.3261 83.0981 50.4876 84.3397C50.5139 84.5419 50.4968 84.7474 50.4374 84.9424C50.378 85.1374 50.2777 85.3176 50.1431 85.4708C50.0086 85.6239 49.8429 85.7467 49.6571 85.8307C49.4714 85.9148 49.2698 85.9582 49.0659 85.9582H39.9085C40.0399 86.826 40.4623 87.6233 41.1064 88.2194C41.7068 88.8175 42.5201 89.1528 43.3676 89.1514C44.2428 89.1733 45.0984 88.8908 45.7886 88.3523C46.3814 87.8375 47.1402 87.5543 47.9253 87.5548H47.9741C48.2516 87.5545 48.5235 87.6335 48.7576 87.7826C48.9917 87.9317 49.1782 88.1446 49.2953 88.3963C49.4124 88.6479 49.455 88.9278 49.4183 89.2029C49.3815 89.478 49.2669 89.7368 49.0878 89.9489C47.6679 91.5461 45.7611 92.3441 43.3676 92.343C41.3094 92.343 39.5754 91.647 38.1656 90.2551ZM40.0414 83.6937H46.5608C46.4208 82.9882 46.0395 82.3534 45.4824 81.8985C44.8903 81.4049 44.1382 81.1446 43.3676 81.1667C42.5956 81.1456 41.8413 81.3996 41.2393 81.8834C40.6633 82.3492 40.245 82.9814 40.0414 83.6937Z" fill="#3E1B3A"/>
<path d="M87.8105 90.2551C87.1402 89.5866 86.6083 88.7925 86.2455 87.9182C85.8826 87.0439 85.6958 86.1065 85.6958 85.1599C85.6958 84.2133 85.8826 83.2759 86.2455 82.4016C86.6083 81.5273 87.1402 80.7331 87.8105 80.0647C89.2203 78.6739 90.9543 77.9779 93.0125 77.9768C95.1054 77.9768 96.808 78.6868 98.1742 80.0512C99.4982 81.377 99.971 83.0981 100.132 84.3397C100.159 84.5419 100.142 84.7474 100.082 84.9424C100.023 85.1374 99.9226 85.3176 99.788 85.4708C99.6535 85.6239 99.4878 85.7467 99.302 85.8307C99.1163 85.9148 98.9147 85.9582 98.7108 85.9582H89.5534C89.6848 86.826 90.1072 87.6233 90.7513 88.2194C91.3517 88.8175 92.165 89.1528 93.0125 89.1514C93.8877 89.1733 94.7433 88.8908 95.4335 88.3523C96.0263 87.8375 96.7851 87.5543 97.5702 87.5548H97.6189C97.8965 87.5545 98.1683 87.6335 98.4024 87.7826C98.6365 87.9317 98.8231 88.1446 98.9402 88.3963C99.0573 88.6479 99.0999 88.9278 99.0632 89.2029C99.0264 89.478 98.9117 89.7368 98.7327 89.9489C97.3127 91.5461 95.406 92.3441 93.0125 92.343C90.9543 92.343 89.2203 91.647 87.8105 90.2551ZM89.6864 83.6937H96.2057C96.0657 82.9882 95.6844 82.3534 95.1273 81.8985C94.535 81.4051 93.783 81.1449 93.0125 81.1667C92.2405 81.1456 91.4862 81.3996 90.8842 81.8834C90.3082 82.3492 89.8899 82.9814 89.6864 83.6937Z" fill="#527262"/>
<path d="M51.4819 80.1053V79.8394C51.4824 79.4511 51.637 79.0788 51.9117 78.8043C52.1865 78.5299 52.559 78.3757 52.9473 78.3757H62.7895C63.1775 78.3762 63.5496 78.5305 63.824 78.8049C64.0984 79.0793 64.2527 79.4514 64.2532 79.8394V80.1053C64.2527 80.4933 64.0984 80.8654 63.824 81.1398C63.5496 81.4142 63.1775 81.5685 62.7895 81.569H59.7291V90.4858C59.7294 90.6781 59.6917 90.8685 59.6182 91.0462C59.5447 91.2239 59.4369 91.3853 59.3009 91.5213C59.165 91.6572 59.0035 91.765 58.8258 91.8385C58.6482 91.912 58.4577 91.9497 58.2654 91.9495H57.4697C57.2774 91.9497 57.0869 91.912 56.9093 91.8385C56.7316 91.765 56.5701 91.6572 56.4342 91.5213C56.2982 91.3853 56.1904 91.2239 56.1169 91.0462C56.0435 90.8685 56.0057 90.6781 56.006 90.4858V81.569H52.9473C52.559 81.569 52.1865 81.4148 51.9117 81.1404C51.637 80.8659 51.4824 80.4936 51.4819 80.1053Z" fill="#3E1B3A"/>
<path d="M64.519 93.8065V89.6509C64.519 89.2712 64.6699 88.907 64.9384 88.6385C65.2069 88.37 65.5711 88.2192 65.9508 88.2192H66.6473L70.2207 74.4233C70.3023 74.1091 70.4857 73.8308 70.7424 73.632C70.999 73.4332 71.3144 73.3251 71.639 73.3247H77.7529C78.0774 73.3252 78.3925 73.4333 78.6488 73.6321C78.9052 73.831 79.0883 74.1092 79.1695 74.4233L82.743 88.2192H83.4395C83.8194 88.2192 84.1837 88.3699 84.4525 88.6384C84.7213 88.9068 84.8725 89.271 84.8729 89.6509V93.8065C84.8725 94.1948 84.7179 94.5671 84.4431 94.8416C84.1684 95.116 83.7959 95.2702 83.4075 95.2702H82.4788C82.2866 95.2702 82.0963 95.2323 81.9187 95.1587C81.7411 95.0852 81.5798 94.9774 81.4439 94.8415C81.3079 94.7055 81.2001 94.5442 81.1266 94.3666C81.053 94.189 81.0151 93.9987 81.0151 93.8065V91.944H68.3768V93.8065C68.3764 94.1945 68.222 94.5666 67.9476 94.841C67.6732 95.1154 67.3012 95.2697 66.9131 95.2702H65.9827C65.5947 95.2697 65.2226 95.1154 64.9482 94.841C64.6738 94.5666 64.5195 94.1945 64.519 93.8065ZM70.5051 88.2192H78.8852L75.9595 77.0513H73.4359L70.5051 88.2192Z" fill="#527262"/>
<path d="M102.431 90.481V79.8397C102.431 79.4513 102.586 79.079 102.86 78.8046C103.135 78.5301 103.508 78.376 103.896 78.376H104.692C104.884 78.376 105.074 78.4138 105.252 78.4874C105.43 78.5609 105.591 78.6688 105.727 78.8047C105.863 78.9406 105.971 79.102 106.044 79.2795C106.118 79.4571 106.155 79.6475 106.155 79.8397V83.4316H107.752L110.907 78.9917C111.042 78.8013 111.221 78.646 111.428 78.5389C111.636 78.4317 111.866 78.3759 112.099 78.376H112.651C112.919 78.376 113.182 78.4495 113.411 78.5886C113.64 78.7277 113.827 78.9269 113.95 79.1647C114.074 79.4024 114.13 79.6696 114.112 79.9369C114.094 80.2043 114.003 80.4616 113.849 80.6809L111.078 84.6228L114.384 89.67C114.529 89.8909 114.611 90.1467 114.622 90.4105C114.634 90.6743 114.573 90.9362 114.448 91.1685C114.322 91.4008 114.136 91.5948 113.909 91.7299C113.683 91.8651 113.423 91.9364 113.159 91.9363H112.406C112.161 91.9355 111.921 91.8735 111.706 91.756C111.491 91.6384 111.31 91.4691 111.178 91.2633L108.149 86.608H106.154V90.4658C106.154 90.6581 106.116 90.8485 106.043 91.0262C105.969 91.2039 105.862 91.3654 105.726 91.5013C105.59 91.6373 105.428 91.7451 105.251 91.8186C105.073 91.892 104.882 91.9298 104.69 91.9295H103.894C103.702 91.9298 103.511 91.8921 103.334 91.8186C103.156 91.7451 102.994 91.6374 102.858 91.5014C102.722 91.3655 102.614 91.204 102.541 91.0264C102.467 90.8487 102.429 90.6582 102.429 90.4658" fill="#527262"/>
<path d="M117.996 90.2551C117.322 89.5888 116.787 88.7954 116.422 87.9208C116.057 87.0461 115.868 86.1077 115.868 85.1599C115.868 84.2121 116.057 83.2736 116.422 82.399C116.787 81.5244 117.322 80.731 117.996 80.0647C119.415 78.6739 121.189 77.9779 123.316 77.9768C125.444 77.9757 127.213 78.6716 128.624 80.0647C129.302 80.7287 129.841 81.5215 130.209 82.3964C130.577 83.2713 130.766 84.2108 130.766 85.1599C130.766 86.109 130.577 87.0485 130.209 87.9234C129.841 88.7983 129.302 89.591 128.624 90.2551C127.198 91.6481 125.428 92.3441 123.316 92.343C121.204 92.3419 119.431 91.6459 117.996 90.2551ZM120.762 82.2872C120.07 83.0319 119.725 83.9898 119.726 85.1607C119.727 86.3317 120.073 87.289 120.762 88.0326C121.088 88.3854 121.483 88.667 121.923 88.8596C122.362 89.0522 122.837 89.1516 123.317 89.1516C123.797 89.1516 124.272 89.0522 124.712 88.8596C125.151 88.667 125.546 88.3854 125.872 88.0326C126.563 87.289 126.908 86.3317 126.908 85.1607C126.908 83.9898 126.563 83.0319 125.872 82.2872C125.546 81.9348 125.151 81.6536 124.711 81.4613C124.272 81.269 123.797 81.1698 123.317 81.1698C122.837 81.1698 122.363 81.269 121.923 81.4613C121.483 81.6536 121.088 81.9348 120.762 82.2872Z" fill="#527262"/>
<path d="M132.894 95.5365V79.8395C132.895 79.4512 133.049 79.0789 133.324 78.8044C133.599 78.53 133.971 78.3758 134.36 78.3758H135.155C135.543 78.3762 135.915 78.5306 136.19 78.805C136.464 79.0794 136.619 79.4514 136.619 79.8395V80.1053H136.752C137.057 79.7127 137.405 79.356 137.79 79.042C138.717 78.3421 139.849 77.9677 141.01 77.9771C141.853 77.9614 142.69 78.1307 143.46 78.4731C144.231 78.8155 144.917 79.3227 145.47 79.959C146.668 81.2802 147.267 83.0142 147.267 85.161C147.267 87.3078 146.668 89.0412 145.47 90.3613C144.918 90.9972 144.232 91.5042 143.463 91.8466C142.693 92.189 141.857 92.3585 141.015 92.3432C139.854 92.3523 138.722 91.9786 137.795 91.2799C137.409 90.9659 137.061 90.6085 136.757 90.215H136.624V95.5365C136.624 95.9245 136.469 96.2966 136.195 96.571C135.92 96.8454 135.548 96.9997 135.16 97.0002H134.366C133.978 97.0002 133.605 96.846 133.331 96.5716C133.056 96.2971 132.901 95.9248 132.901 95.5365H132.894ZM137.585 82.2201C136.945 82.9211 136.626 83.9014 136.626 85.161C136.626 86.4206 136.945 87.4003 137.585 88.1002C138.223 88.8023 139.056 89.1528 140.085 89.1517C140.538 89.1648 140.989 89.0759 141.403 88.8915C141.817 88.7072 142.185 88.4322 142.479 88.0867C143.099 87.3779 143.41 86.4026 143.411 85.161C143.412 83.9194 143.101 82.9436 142.479 82.2336C142.184 81.889 141.817 81.6147 141.402 81.4307C140.988 81.2467 140.538 81.1577 140.085 81.1703C139.055 81.1703 138.222 81.5202 137.585 82.2201Z" fill="#527262"/>
</svg>
