<svg width="1237" height="850" viewBox="0 0 1237 850" fill="none" xmlns="http://www.w3.org/2000/svg">
<path d="M1199.17 217.972C1189.25 219.119 1178.96 217.827 1169.15 214.201C1159.34 210.575 1150.29 204.718 1142.73 197.108C1147.83 206.493 1150.79 216.756 1151.36 227.061C1151.92 237.365 1150.09 247.419 1146 256.404C1155.93 255.257 1166.21 256.549 1176.02 260.175C1185.83 263.801 1194.89 269.658 1202.44 277.268C1197.34 267.883 1194.38 257.62 1193.82 247.315C1193.25 237.011 1195.08 226.957 1199.17 217.972Z" fill="#00A788"/>
<path d="M1110.64 152.962C1114.4 157.997 1116.16 164.148 1115.56 170.063C1114.95 175.978 1112.02 181.172 1107.41 184.502C1109.69 182.853 1112.32 181.71 1115.14 181.141C1117.96 180.571 1120.92 180.584 1123.84 181.181C1126.77 181.777 1129.61 182.944 1132.2 184.616C1134.79 186.288 1137.08 188.432 1138.94 190.924C1137.08 188.432 1135.69 185.639 1134.85 182.705C1134.01 179.771 1133.73 176.753 1134.03 173.825C1134.33 170.897 1135.21 168.114 1136.6 165.638C1138 163.161 1139.9 161.038 1142.18 159.39C1137.57 162.72 1131.66 163.913 1125.74 162.708C1119.83 161.503 1114.4 157.997 1110.64 152.962Z" fill="#00A788"/>
<path d="M1306.76 214.743L1331.72 196.718C1332.79 195.954 1333.65 194.945 1334.26 193.763C1334.86 192.581 1335.19 191.254 1335.22 189.873C1335.25 188.492 1334.99 187.092 1334.44 185.768C1333.89 184.444 1333.08 183.229 1332.05 182.207C1324.43 174.72 1315.36 168.975 1305.57 165.426C1295.77 161.878 1285.52 160.623 1275.62 161.763C1279.7 152.814 1281.56 142.813 1281.06 132.553C1280.56 122.293 1277.71 112.056 1272.74 102.653C1272.06 101.385 1271.12 100.256 1270 99.345C1268.89 98.4339 1267.61 97.7626 1266.26 97.3776C1264.91 96.9925 1263.53 96.903 1262.2 97.1154C1260.87 97.3277 1259.64 97.8367 1258.58 98.6071L1233.61 116.632C1231.31 118.297 1229.4 120.44 1227.98 122.941C1226.57 125.441 1225.69 128.249 1225.39 131.205C1225.08 134.161 1225.37 137.207 1226.22 140.169C1227.07 143.13 1228.47 145.95 1230.35 148.466C1226.56 143.385 1221.08 139.847 1215.11 138.63C1209.14 137.413 1203.17 138.616 1198.52 141.975L1173.55 160.001C1172.49 160.765 1171.62 161.773 1171.02 162.955C1170.41 164.137 1170.08 165.464 1170.05 166.846C1170.02 168.227 1170.29 169.628 1170.83 170.953C1171.38 172.277 1172.2 173.492 1173.22 174.514C1180.84 182.003 1189.91 187.749 1199.71 191.298C1209.5 194.846 1219.76 196.098 1229.65 194.956C1225.58 203.904 1223.72 213.906 1224.22 224.167C1224.72 234.427 1227.56 244.665 1232.53 254.068C1233.22 255.337 1234.15 256.466 1235.27 257.378C1236.39 258.289 1237.67 258.96 1239.02 259.345C1240.36 259.73 1241.75 259.819 1243.08 259.606C1244.4 259.393 1245.64 258.883 1246.7 258.111L1271.66 240.086C1273.97 238.422 1275.88 236.279 1277.29 233.78C1278.7 231.28 1279.59 228.472 1279.89 225.517C1280.19 222.562 1279.91 219.517 1279.06 216.556C1278.21 213.595 1276.8 210.776 1274.93 208.261C1278.72 213.341 1284.2 216.877 1290.17 218.093C1296.14 219.309 1302.11 218.104 1306.76 214.743Z" fill="#FF6000"/>
<path d="M1222.35 100.479C1220.05 102.139 1217.41 103.288 1214.57 103.861C1211.73 104.434 1208.75 104.42 1205.8 103.819C1202.85 103.219 1199.99 102.043 1197.38 100.359C1194.77 98.6761 1192.47 96.518 1190.6 94.0083C1194.38 99.076 1196.16 105.267 1195.55 111.221C1194.94 117.175 1191.99 122.403 1187.35 125.756C1191.99 122.405 1197.94 121.203 1203.89 122.416C1209.84 123.629 1215.31 127.158 1219.09 132.225C1215.31 127.156 1213.53 120.965 1214.14 115.011C1214.76 109.058 1217.71 103.831 1222.35 100.479Z" fill="#00A788"/>
<path d="M1173.33 298.474C1165.71 290.988 1156.64 285.243 1146.85 281.695C1137.05 278.147 1126.8 276.893 1116.9 278.032C1120.98 269.083 1122.84 259.082 1122.34 248.821C1121.84 238.561 1118.99 228.323 1114.02 218.92C1113.34 217.651 1112.41 216.522 1111.29 215.61C1110.17 214.699 1108.89 214.028 1107.54 213.643C1106.19 213.258 1104.81 213.169 1103.48 213.382C1102.15 213.595 1100.91 214.105 1099.85 214.877L1074.89 232.902C1070.24 236.264 1067.28 241.506 1066.67 247.475C1066.06 253.444 1067.84 259.651 1071.63 264.732C1067.84 259.65 1062.36 256.112 1056.39 254.896C1050.42 253.679 1044.45 254.884 1039.79 258.245L1014.83 276.27C1013.77 277.034 1012.9 278.042 1012.3 279.224C1011.69 280.406 1011.36 281.734 1011.33 283.115C1011.3 284.496 1011.56 285.898 1012.11 287.222C1012.66 288.546 1013.47 289.762 1014.5 290.784C1022.12 298.271 1031.19 304.016 1040.99 307.564C1050.78 311.112 1061.04 312.365 1070.93 311.225C1066.86 320.175 1065 330.176 1065.5 340.436C1066 350.697 1068.84 360.934 1073.81 370.338C1074.49 371.607 1075.43 372.736 1076.55 373.647C1077.67 374.558 1078.95 375.23 1080.29 375.614C1081.64 375.999 1083.03 376.088 1084.36 375.875C1085.68 375.662 1086.92 375.152 1087.98 374.381L1112.94 356.356C1117.6 352.995 1120.56 347.754 1121.17 341.785C1121.78 335.817 1120 329.609 1116.21 324.527C1120 329.607 1125.48 333.145 1131.45 334.361C1137.42 335.577 1143.39 334.373 1148.04 331.013L1173 312.987C1174.07 312.223 1174.93 311.215 1175.54 310.033C1176.14 308.851 1176.47 307.524 1176.5 306.142C1176.54 304.761 1176.27 303.36 1175.72 302.035C1175.17 300.711 1174.36 299.496 1173.33 298.474Z" fill="#00A788"/>
<path d="M1063.63 216.748C1058.98 220.098 1053.03 221.299 1047.08 220.085C1041.12 218.871 1035.66 215.342 1031.88 210.274C1035.66 215.343 1037.44 221.535 1036.83 227.49C1036.22 233.444 1033.27 238.673 1028.62 242.025C1033.26 238.673 1039.22 237.472 1045.17 238.684C1051.12 239.896 1056.59 243.424 1060.37 248.491C1056.59 243.423 1054.81 237.232 1055.42 231.279C1056.04 225.327 1058.99 220.099 1063.63 216.748Z" fill="#00A788"/>
<path d="M1097.49 167.161C1102.15 163.8 1105.11 158.559 1105.72 152.59C1106.33 146.622 1104.55 140.414 1100.76 135.332C1102.64 137.849 1104.95 140.012 1107.57 141.7C1110.18 143.387 1113.05 144.566 1116.01 145.167C1118.96 145.769 1121.95 145.782 1124.8 145.206C1127.65 144.631 1130.3 143.477 1132.6 141.811L1157.56 123.786C1158.63 123.022 1159.49 122.014 1160.1 120.832C1160.7 119.65 1161.03 118.322 1161.07 116.941C1161.1 115.56 1160.83 114.158 1160.28 112.834C1159.74 111.51 1158.92 110.294 1157.9 109.272C1150.27 101.784 1141.2 96.0385 1131.41 92.4903C1121.61 88.9422 1111.36 87.6892 1101.46 88.8309C1105.54 79.8824 1107.4 69.881 1106.9 59.62C1106.4 49.3591 1103.55 39.1211 1098.58 29.7183C1097.9 28.4494 1096.97 27.3202 1095.85 26.4089C1094.73 25.4977 1093.45 24.8263 1092.1 24.4416C1090.75 24.0568 1089.37 23.9679 1088.04 24.1809C1086.71 24.3939 1085.48 24.9038 1084.42 25.6752L1059.45 43.7004C1054.8 47.0623 1051.84 52.3041 1051.23 58.2732C1050.62 64.2423 1052.4 70.4497 1056.19 75.5305C1052.4 70.4489 1046.92 66.9106 1040.95 65.6941C1034.98 64.4775 1029.01 65.6823 1024.36 69.0435L999.384 87.0752C998.319 87.8396 997.454 88.8478 996.85 90.0297C996.246 91.2117 995.917 92.5392 995.886 93.9199C995.855 95.3006 996.122 96.7015 996.67 98.0253C997.217 99.3491 998.031 100.564 999.056 101.586C1006.68 109.073 1015.75 114.819 1025.54 118.368C1035.34 121.917 1045.59 123.171 1055.49 122.03C1051.41 130.979 1049.55 140.98 1050.05 151.24C1050.55 161.5 1053.4 171.737 1058.37 181.139C1059.05 182.408 1059.98 183.537 1061.1 184.448C1062.22 185.359 1063.5 186.03 1064.85 186.415C1066.2 186.8 1067.58 186.89 1068.91 186.678C1070.23 186.465 1071.47 185.956 1072.53 185.186L1097.49 167.161Z" fill="#00A788"/>
<path d="M1183.73 28.7784C1173.8 29.9245 1163.51 28.632 1153.7 25.0061C1143.89 21.3803 1134.84 15.5237 1127.28 7.91408C1132.38 17.2985 1135.34 27.5617 1135.91 37.8665C1136.48 48.1713 1134.64 58.2257 1130.55 67.2095C1140.48 66.0628 1150.77 67.3552 1160.58 70.9811C1170.38 74.6069 1179.44 80.4637 1186.99 88.0738C1181.89 78.6889 1178.94 68.4259 1178.37 58.1215C1177.8 47.817 1179.64 37.7628 1183.73 28.7784Z" fill="#00A788"/>
<path d="M1126.73 -29.8045C1122.12 -26.4759 1116.21 -25.2832 1110.29 -26.4884C1104.38 -27.6937 1098.95 -31.1983 1095.19 -36.2317C1098.95 -31.1978 1100.72 -25.0476 1100.11 -19.1336C1099.5 -13.2196 1096.57 -8.02611 1091.96 -4.69525C1096.57 -8.02452 1102.49 -9.2179 1108.4 -8.01287C1114.31 -6.80785 1119.74 -3.30312 1123.5 1.73031C1119.74 -3.30443 1117.98 -9.45496 1118.58 -15.3687C1119.19 -21.2823 1122.12 -26.4749 1126.73 -29.8045Z" fill="#00A788"/>
<path d="M1157.77 -14.6796C1165.4 -7.19303 1174.47 -1.44795 1184.26 2.10014C1194.06 5.64824 1204.31 6.9018 1214.21 5.76151C1210.13 14.711 1208.27 24.7122 1208.77 34.9726C1209.27 45.233 1212.12 55.4705 1217.09 64.874C1217.77 66.1429 1218.7 67.2722 1219.82 68.1835C1220.94 69.0947 1222.22 69.766 1223.57 70.1508C1224.92 70.5355 1226.3 70.6245 1227.63 70.4115C1228.96 70.1984 1230.19 69.6885 1231.25 68.9172L1256.22 50.892C1260.87 47.5317 1263.83 42.2909 1264.44 36.3225C1265.05 30.3542 1263.27 24.1471 1259.48 19.0668C1263.27 24.1467 1268.75 27.6833 1274.72 28.8989C1280.69 30.1145 1286.66 28.9095 1291.31 25.5489L1316.28 7.52369C1317.34 6.75975 1318.21 5.75174 1318.81 4.56968C1319.42 3.38761 1319.75 2.05985 1319.78 0.678688C1319.81 -0.702474 1319.54 -2.10389 1319 -3.42823C1318.45 -4.75255 1317.63 -5.96797 1316.61 -6.99007C1308.99 -14.4759 1299.92 -20.2205 1290.12 -23.7685C1280.33 -27.3166 1270.07 -28.5706 1260.18 -27.4312C1264.25 -36.3805 1266.11 -46.3817 1265.61 -56.6423C1265.11 -66.9028 1262.27 -77.1404 1257.3 -86.5437C1256.61 -87.8126 1255.68 -88.9419 1254.56 -89.8532C1253.44 -90.7644 1252.16 -91.4358 1250.81 -91.8205C1249.47 -92.2053 1248.08 -92.2942 1246.75 -92.0812C1245.43 -91.8681 1244.19 -91.3583 1243.13 -90.5869L1218.17 -72.5617C1213.51 -69.2005 1210.55 -63.9585 1209.94 -57.9886C1209.33 -52.0187 1211.11 -45.81 1214.9 -40.7284C1211.11 -45.8091 1205.63 -49.3471 1199.66 -50.5642C1193.69 -51.7813 1187.72 -50.5779 1183.07 -47.2187L1158.11 -29.1935C1157.04 -28.4295 1156.17 -27.4215 1155.57 -26.2394C1154.96 -25.0573 1154.64 -23.7296 1154.6 -22.3484C1154.57 -20.9673 1154.84 -19.5658 1155.39 -18.2415C1155.93 -16.9172 1156.75 -15.7017 1157.77 -14.6796Z" fill="#00A788"/>
<path d="M1159.18 347.438C1154.57 350.767 1148.66 351.96 1142.75 350.755C1136.83 349.55 1131.4 346.046 1127.65 341.012C1131.4 346.047 1133.17 352.197 1132.56 358.111C1131.95 364.025 1129.02 369.217 1124.41 372.547C1129.02 369.218 1134.94 368.026 1140.85 369.231C1146.77 370.436 1152.2 373.941 1155.95 378.974C1152.2 373.94 1150.43 367.79 1151.04 361.876C1151.64 355.962 1154.57 350.769 1159.18 347.438Z" fill="#00A788"/>
<path d="M1268.85 428.905C1261.23 421.417 1252.16 415.672 1242.36 412.123C1232.57 408.575 1222.31 407.322 1212.42 408.464C1216.49 399.516 1218.36 389.514 1217.86 379.253C1217.36 368.992 1214.51 358.755 1209.54 349.352C1208.85 348.083 1207.92 346.954 1206.8 346.042C1205.68 345.131 1204.4 344.46 1203.05 344.075C1201.71 343.69 1200.32 343.601 1198.99 343.814C1197.67 344.028 1196.43 344.537 1195.37 345.309L1170.42 363.327C1168.11 364.993 1166.19 367.14 1164.78 369.644C1163.37 372.148 1162.48 374.961 1162.18 377.921C1161.88 380.881 1162.17 383.931 1163.02 386.896C1163.88 389.86 1165.29 392.682 1167.17 395.198C1163.38 390.116 1157.9 386.578 1151.93 385.362C1145.96 384.145 1139.99 385.35 1135.33 388.711L1110.37 406.736C1109.31 407.5 1108.44 408.509 1107.84 409.691C1107.23 410.873 1106.91 412.2 1106.87 413.581C1106.84 414.961 1107.11 416.362 1107.66 417.686C1108.21 419.01 1109.02 420.225 1110.04 421.247C1117.67 428.734 1126.73 434.48 1136.53 438.029C1146.32 441.578 1156.58 442.831 1166.47 441.691C1162.4 450.634 1160.54 460.628 1161.03 470.881C1161.53 481.134 1164.37 491.366 1169.33 500.765C1170.01 502.041 1170.94 503.177 1172.06 504.095C1173.18 505.013 1174.46 505.69 1175.81 506.079C1177.17 506.468 1178.56 506.56 1179.89 506.348C1181.22 506.136 1182.46 505.625 1183.52 504.851L1208.49 486.826C1213.14 483.465 1216.1 478.223 1216.71 472.253C1217.32 466.283 1215.54 460.074 1211.75 454.993C1213.63 457.509 1215.94 459.673 1218.56 461.361C1221.17 463.049 1224.04 464.228 1227 464.83C1229.95 465.432 1232.94 465.446 1235.79 464.87C1238.64 464.295 1241.29 463.142 1243.59 461.477L1268.55 443.451C1269.62 442.685 1270.49 441.673 1271.09 440.487C1271.7 439.301 1272.03 437.968 1272.05 436.583C1272.08 435.198 1271.81 433.793 1271.26 432.467C1270.7 431.141 1269.88 429.925 1268.85 428.905Z" fill="#00A788"/>
<path d="M1204.35 313.809C1208.99 310.457 1214.94 309.255 1220.9 310.468C1226.85 311.68 1232.32 315.208 1236.1 320.275C1234.23 317.765 1232.83 314.952 1231.98 311.998C1231.13 309.044 1230.85 306.006 1231.15 303.057C1231.46 300.109 1232.34 297.308 1233.75 294.814C1235.15 292.321 1237.06 290.184 1239.36 288.525C1234.72 291.875 1228.77 293.076 1222.81 291.862C1216.86 290.648 1211.39 287.119 1207.62 282.051C1211.4 287.12 1213.17 293.312 1212.56 299.267C1211.95 305.222 1209 310.45 1204.36 313.803" fill="#00A788"/>
<path d="M986.175 766.973C976.247 768.12 965.959 766.828 956.149 763.202C946.34 759.576 937.288 753.719 929.73 746.109C934.832 755.494 937.788 765.757 938.356 776.062C938.924 786.366 937.088 796.421 932.998 805.405C942.926 804.258 953.214 805.55 963.024 809.176C972.833 812.802 981.886 818.659 989.443 826.269C984.341 816.884 981.385 806.621 980.817 796.317C980.249 786.012 982.085 775.958 986.175 766.973Z" fill="#00A788"/>
<path d="M897.642 701.963C901.396 706.998 903.164 713.149 902.557 719.064C901.95 724.979 899.019 730.173 894.407 733.503C896.69 731.854 899.316 730.711 902.137 730.141C904.957 729.572 907.916 729.585 910.844 730.182C913.773 730.778 916.614 731.945 919.204 733.617C921.795 735.289 924.085 737.433 925.943 739.925C924.085 737.433 922.695 734.64 921.852 731.706C921.009 728.772 920.73 725.754 921.03 722.826C921.331 719.898 922.206 717.115 923.605 714.639C925.003 712.162 926.899 710.039 929.182 708.39C924.571 711.721 918.657 712.914 912.742 711.709C906.827 710.504 901.396 706.998 897.642 701.963Z" fill="#00A788"/>
<path d="M1093.76 763.744L1118.72 745.719C1119.79 744.954 1120.65 743.946 1121.26 742.764C1121.86 741.582 1122.19 740.255 1122.22 738.874C1122.25 737.493 1121.99 736.093 1121.44 734.769C1120.89 733.445 1120.08 732.23 1119.05 731.208C1111.43 723.721 1102.36 717.976 1092.57 714.427C1082.77 710.879 1072.52 709.624 1062.62 710.764C1066.7 701.815 1068.56 691.814 1068.06 681.554C1067.56 671.294 1064.71 661.057 1059.74 651.654C1059.06 650.386 1058.12 649.257 1057 648.346C1055.89 647.435 1054.61 646.764 1053.26 646.379C1051.91 645.994 1050.53 645.904 1049.2 646.116C1047.87 646.329 1046.64 646.838 1045.58 647.608L1020.61 665.633C1018.31 667.298 1016.4 669.441 1014.98 671.942C1013.57 674.442 1012.69 677.25 1012.39 680.206C1012.08 683.162 1012.37 686.208 1013.22 689.17C1014.07 692.131 1015.47 694.951 1017.35 697.467C1013.56 692.386 1008.08 688.848 1002.11 687.631C996.14 686.414 990.172 687.617 985.517 690.976L960.554 709.002C959.488 709.766 958.623 710.774 958.018 711.956C957.413 713.138 957.083 714.465 957.052 715.847C957.02 717.228 957.287 718.629 957.835 719.954C958.382 721.278 959.196 722.493 960.221 723.515C967.844 731.004 976.912 736.75 986.708 740.299C996.504 743.847 1006.76 745.099 1016.66 743.957C1012.58 752.905 1010.72 762.907 1011.22 773.168C1011.72 783.428 1014.56 793.666 1019.53 803.069C1020.22 804.338 1021.15 805.467 1022.27 806.379C1023.39 807.29 1024.67 807.961 1026.02 808.346C1027.36 808.731 1028.75 808.82 1030.08 808.607C1031.4 808.394 1032.64 807.884 1033.7 807.112L1058.66 789.087C1060.97 787.423 1062.88 785.28 1064.29 782.78C1065.7 780.281 1066.59 777.473 1066.89 774.518C1067.19 771.562 1066.91 768.518 1066.06 765.557C1065.21 762.596 1063.8 759.777 1061.93 757.262C1065.72 762.342 1071.2 765.878 1077.17 767.094C1083.14 768.31 1089.11 767.105 1093.76 763.744Z" fill="#FF6000"/>
<path d="M1009.35 649.479C1007.05 651.139 1004.41 652.289 1001.57 652.862C998.726 653.435 995.747 653.421 992.799 652.82C989.851 652.219 986.991 651.043 984.383 649.36C981.774 647.677 979.469 645.519 977.598 643.009C981.376 648.077 983.156 654.268 982.546 660.222C981.936 666.175 978.986 671.403 974.346 674.757C978.987 671.405 984.939 670.204 990.891 671.417C996.844 672.63 1002.31 676.158 1006.09 681.225C1002.31 676.157 1000.53 669.965 1001.15 664.012C1001.76 658.058 1004.71 652.831 1009.35 649.479Z" fill="#00A788"/>
<path d="M1093.28 687.994C1103.21 686.846 1113.49 688.138 1123.3 691.764C1133.11 695.39 1142.17 701.248 1149.72 708.859C1144.62 699.473 1141.67 689.209 1141.1 678.904C1140.53 668.599 1142.37 658.544 1146.46 649.56C1136.53 650.707 1126.24 649.416 1116.43 645.79C1106.62 642.165 1097.57 636.309 1090.01 628.699C1095.11 638.083 1098.07 648.347 1098.64 658.651C1099.21 668.956 1097.37 679.011 1093.28 687.994Z" fill="#00A788"/>
<path d="M1054.69 616.089C1059.3 612.76 1065.21 611.567 1071.13 612.772C1077.04 613.977 1082.47 617.482 1086.22 622.515C1082.47 617.48 1080.7 611.33 1081.31 605.416C1081.92 599.502 1084.85 594.31 1089.46 590.98C1084.85 594.309 1078.94 595.501 1073.02 594.296C1067.11 593.091 1061.68 589.586 1057.92 584.553C1061.67 589.587 1063.44 595.737 1062.84 601.651C1062.23 607.565 1059.3 612.759 1054.69 616.089Z" fill="#00A788"/>
<path d="M1177.63 580.053C1173.84 574.972 1168.36 571.433 1162.39 570.217C1156.42 569 1150.45 570.205 1145.8 573.566L1120.83 591.591C1119.77 592.355 1118.9 593.363 1118.3 594.545C1117.69 595.728 1117.36 597.055 1117.33 598.436C1117.3 599.818 1117.57 601.219 1118.11 602.543C1118.66 603.868 1119.48 605.083 1120.5 606.105C1128.13 613.592 1137.2 619.337 1146.99 622.884C1156.79 626.431 1167.05 627.683 1176.94 626.54C1172.87 635.49 1171.01 645.491 1171.51 655.751C1172.01 666.012 1174.85 676.249 1179.82 685.653C1180.51 686.922 1181.44 688.051 1182.56 688.962C1183.68 689.874 1184.96 690.545 1186.3 690.93C1187.65 691.314 1189.04 691.403 1190.37 691.19C1191.69 690.977 1192.93 690.467 1193.99 689.696L1218.95 671.671C1223.61 668.31 1226.57 663.069 1227.18 657.1C1227.79 651.132 1226.01 644.924 1222.22 639.842C1226.01 644.923 1231.49 648.46 1237.46 649.676C1243.43 650.892 1249.4 649.688 1254.05 646.328L1279.01 628.302C1280.08 627.538 1280.94 626.53 1281.55 625.348C1282.15 624.166 1282.48 622.838 1282.52 621.457C1282.55 620.076 1282.28 618.675 1281.73 617.35C1281.19 616.026 1280.37 614.811 1279.35 613.788C1271.72 606.302 1262.65 600.557 1252.86 597.009C1243.06 593.46 1232.81 592.207 1222.91 593.347C1226.99 584.398 1228.85 574.397 1228.35 564.136C1227.85 553.875 1225 543.638 1220.03 534.234C1219.35 532.966 1218.42 531.836 1217.3 530.925C1216.18 530.014 1214.9 529.342 1213.55 528.958C1212.2 528.573 1210.82 528.484 1209.49 528.697C1208.16 528.91 1206.93 529.42 1205.87 530.191L1180.9 548.217C1176.25 551.578 1173.29 556.82 1172.68 562.789C1172.07 568.758 1173.85 574.966 1177.64 580.047" fill="#00A788"/>
<path d="M1134.63 557.347C1139.27 553.995 1145.22 552.793 1151.17 554.006C1157.13 555.218 1162.59 558.746 1166.37 563.812C1162.6 558.745 1160.82 552.554 1161.43 546.601C1162.04 540.648 1164.99 535.421 1169.63 532.069C1164.99 535.42 1159.03 536.62 1153.08 535.406C1147.13 534.192 1141.66 530.664 1137.88 525.596C1141.66 530.664 1143.44 536.857 1142.83 542.812C1142.22 548.766 1139.27 553.995 1134.63 557.347Z" fill="#00A788"/>
<path d="M1039.25 428.389C1043.89 425.037 1049.84 423.835 1055.79 425.048C1061.75 426.26 1067.22 429.788 1070.99 434.854C1067.22 429.787 1065.44 423.596 1066.05 417.643C1066.66 411.69 1069.61 406.463 1074.25 403.111C1069.61 406.462 1063.66 407.662 1057.7 406.448C1051.75 405.234 1046.28 401.706 1042.5 396.638C1046.28 401.706 1048.06 407.899 1047.45 413.854C1046.84 419.808 1043.89 425.037 1039.25 428.389Z" fill="#00A788"/>
<path d="M958.247 486.389C962.889 483.037 968.841 481.835 974.794 483.048C980.748 484.26 986.216 487.788 989.995 492.854C986.217 487.787 984.438 481.596 985.049 475.643C985.659 469.69 988.61 464.463 993.251 461.111C988.608 464.462 982.656 465.662 976.702 464.448C970.749 463.234 965.282 459.706 961.504 454.638C965.283 459.706 967.062 465.899 966.452 471.854C965.841 477.808 962.89 483.037 958.247 486.389Z" fill="#00A788"/>
<path d="M800.247 602.389C804.889 599.037 810.841 597.835 816.794 599.048C822.748 600.26 828.215 603.788 831.995 608.854C828.217 603.787 826.438 597.596 827.048 591.643C827.659 585.69 830.609 580.463 835.251 577.111C830.608 580.462 824.656 581.662 818.702 580.448C812.749 579.234 807.282 575.706 803.504 570.638C807.283 575.706 809.062 581.899 808.452 587.854C807.841 593.808 804.89 599.037 800.247 602.389Z" fill="#00A788"/>
<path d="M516.247 211.389C520.889 208.037 526.841 206.835 532.794 208.048C538.748 209.26 544.215 212.788 547.994 217.854C544.217 212.787 542.438 206.596 543.048 200.643C543.659 194.69 546.609 189.463 551.25 186.111C546.608 189.462 540.656 190.662 534.702 189.448C528.749 188.234 523.282 184.706 519.504 179.638C523.283 184.706 525.062 190.899 524.451 196.854C523.841 202.808 520.889 208.037 516.247 211.389Z" fill="#00A788"/>
<path d="M674.247 94.389C678.889 91.0372 684.841 89.8353 690.794 91.0477C696.748 92.2602 702.215 95.7877 705.995 100.854C702.217 95.7872 700.438 89.5962 701.048 83.6432C701.659 77.6903 704.609 72.463 709.251 69.1114C704.608 72.462 698.656 73.6623 692.702 72.4483C686.749 71.2343 681.282 67.7055 677.504 62.6379C681.283 67.7064 683.062 73.899 682.452 79.8535C681.841 85.808 678.89 91.0366 674.247 94.389Z" fill="#00A788"/>
<path d="M1013.25 52.3888C1017.89 49.0369 1023.84 47.835 1029.79 49.0475C1035.75 50.2599 1041.22 53.7874 1044.99 58.8542C1041.22 53.787 1039.44 47.5959 1040.05 41.643C1040.66 35.69 1043.61 30.4628 1048.25 27.1112C1043.61 30.4618 1037.66 31.662 1031.7 30.4481C1025.75 29.2341 1020.28 25.7053 1016.5 20.6376C1020.28 25.7061 1022.06 31.8988 1021.45 37.8533C1020.84 43.8078 1017.89 49.0363 1013.25 52.3888Z" fill="#00A788"/>
<path d="M928.247 108.389C932.889 105.037 938.841 103.835 944.794 105.048C950.748 106.26 956.215 109.788 959.995 114.854C956.217 109.787 954.438 103.596 955.048 97.6432C955.659 91.6903 958.609 86.463 963.251 83.1114C958.608 86.462 952.656 87.6623 946.702 86.4483C940.749 85.2343 935.282 81.7055 931.504 76.6379C935.283 81.7064 937.062 87.899 936.452 93.8535C935.841 99.808 932.89 105.037 928.247 108.389Z" fill="#00A788"/>
<path d="M1230.3 687.958C1232.6 686.297 1235.24 685.147 1238.08 684.574C1240.92 684 1243.9 684.014 1246.85 684.614C1249.8 685.214 1252.66 686.39 1255.27 688.073C1257.87 689.756 1260.18 691.914 1262.05 694.423C1258.27 689.356 1256.49 683.165 1257.1 677.212C1257.71 671.259 1260.66 666.032 1265.31 662.68C1263.01 664.34 1260.36 665.489 1257.52 666.061C1254.68 666.634 1251.7 666.618 1248.75 666.015C1245.8 665.413 1242.94 664.235 1240.33 662.55C1237.72 660.864 1235.42 658.704 1233.55 656.192C1237.33 661.261 1239.11 667.453 1238.5 673.408C1237.89 679.362 1234.93 684.591 1230.29 687.943" fill="#00A788"/>
<path d="M960.335 847.474C952.711 839.988 943.642 834.243 933.847 830.695C924.051 827.147 913.799 825.893 903.901 827.032C907.976 818.083 909.838 808.082 909.338 797.821C908.839 787.561 905.992 777.323 901.023 767.92C900.339 766.651 899.406 765.522 898.286 764.61C897.167 763.699 895.889 763.028 894.54 762.643C893.192 762.258 891.806 762.169 890.479 762.382C889.152 762.595 887.915 763.105 886.854 763.877L861.892 781.902C857.239 785.264 854.281 790.506 853.67 796.475C853.058 802.444 854.842 808.651 858.63 813.732C854.842 808.65 849.359 805.112 843.389 803.896C837.418 802.679 831.449 803.884 826.794 807.245L801.832 825.27C800.766 826.034 799.9 827.042 799.296 828.224C798.691 829.406 798.361 830.734 798.33 832.115C798.298 833.496 798.565 834.898 799.112 836.222C799.66 837.546 800.474 838.762 801.499 839.784C809.123 847.271 818.192 853.016 827.987 856.564C837.783 860.112 848.036 861.366 857.933 860.225C853.859 869.175 851.997 879.176 852.497 889.436C852.997 899.697 855.843 909.934 860.812 919.338C861.495 920.607 862.428 921.736 863.548 922.647C864.667 923.559 865.946 924.23 867.294 924.615C868.642 924.999 870.028 925.088 871.355 924.875C872.683 924.662 873.919 924.152 874.98 923.381L899.942 905.356C904.596 901.995 907.555 896.754 908.168 890.786C908.782 884.817 906.999 878.609 903.212 873.527C906.999 878.608 912.481 882.145 918.45 883.361C924.418 884.577 930.386 883.373 935.04 880.013L960.002 861.987C961.068 861.224 961.934 860.215 962.538 859.033C963.143 857.851 963.473 856.524 963.505 855.142C963.536 853.761 963.269 852.36 962.722 851.035C962.174 849.711 961.36 848.496 960.335 847.474Z" fill="#00A788"/>
<path d="M850.627 765.749C845.985 769.099 840.032 770.3 834.079 769.086C828.125 767.872 822.659 764.343 818.881 759.275C822.659 764.344 824.439 770.536 823.828 776.491C823.217 782.445 820.266 787.674 815.624 791.026C820.265 787.674 826.217 786.472 832.171 787.685C838.124 788.897 843.592 792.425 847.371 797.491C843.593 792.424 841.814 786.233 842.425 780.28C843.036 774.327 845.986 769.1 850.627 765.749Z" fill="#00A788"/>
<path d="M884.495 716.162C889.149 712.801 892.108 707.56 892.721 701.592C893.334 695.623 891.551 689.415 887.764 684.333C889.64 686.85 891.952 689.013 894.568 690.701C897.183 692.389 900.051 693.567 903.008 694.168C905.964 694.77 908.951 694.783 911.799 694.208C914.646 693.632 917.297 692.478 919.601 690.812L944.564 672.787C945.63 672.023 946.495 671.015 947.1 669.833C947.705 668.651 948.034 667.323 948.066 665.942C948.098 664.561 947.831 663.159 947.283 661.835C946.736 660.511 945.921 659.295 944.896 658.273C937.274 650.785 928.205 645.04 918.409 641.491C908.613 637.943 898.36 636.69 888.462 637.832C892.54 628.883 894.403 618.882 893.903 608.621C893.404 598.36 890.555 588.122 885.584 578.719C884.901 577.45 883.967 576.321 882.848 575.41C881.728 574.498 880.45 573.827 879.102 573.442C877.753 573.058 876.368 572.969 875.04 573.182C873.713 573.395 872.476 573.905 871.416 574.676L846.453 592.701C841.8 596.063 838.842 601.305 838.231 607.274C837.619 613.243 839.404 619.451 843.192 624.531C839.403 619.45 833.921 615.912 827.95 614.695C821.98 613.478 816.011 614.683 811.356 618.044L786.384 636.076C785.319 636.841 784.455 637.849 783.851 639.031C783.247 640.213 782.918 641.54 782.886 642.921C782.855 644.302 783.122 645.702 783.67 647.026C784.217 648.35 785.031 649.565 786.056 650.587C793.678 658.074 802.746 663.82 812.541 667.369C822.336 670.918 832.588 672.172 842.485 671.031C838.411 679.98 836.55 689.981 837.051 700.241C837.551 710.501 840.399 720.738 845.369 730.141C846.051 731.409 846.985 732.538 848.104 733.449C849.223 734.36 850.5 735.032 851.848 735.417C853.196 735.802 854.581 735.891 855.908 735.679C857.235 735.467 858.472 734.957 859.532 734.187L884.495 716.162Z" fill="#00A788"/>
<path d="M970.727 577.779C960.799 578.925 950.511 577.633 940.702 574.007C930.893 570.381 921.84 564.524 914.282 556.915C919.385 566.299 922.341 576.562 922.909 586.867C923.477 597.172 921.641 607.227 917.55 616.21C927.478 615.064 937.767 616.356 947.576 619.982C957.385 623.608 966.438 629.465 973.995 637.075C968.894 627.69 965.939 617.427 965.371 607.122C964.803 596.818 966.638 586.764 970.727 577.779Z" fill="#00A788"/>
<path d="M717.033 567.081C707.105 568.227 696.817 566.934 687.008 563.309C677.199 559.683 668.146 553.826 660.588 546.216C665.692 555.601 668.648 565.864 669.216 576.169C669.784 586.474 667.947 596.528 663.857 605.512C673.785 604.365 684.073 605.658 693.882 609.284C703.691 612.91 712.744 618.766 720.302 626.377C715.2 616.992 712.245 606.729 711.677 596.424C711.109 586.12 712.945 576.065 717.033 567.081Z" fill="#00A788"/>
<path d="M700.034 380.081C690.105 381.227 679.817 379.934 670.008 376.309C660.199 372.683 651.146 366.826 643.589 359.216C648.692 368.601 651.648 378.864 652.216 389.169C652.784 399.474 650.947 409.528 646.857 418.512C656.785 417.365 667.073 418.658 676.882 422.284C686.692 425.91 695.744 431.766 703.302 439.377C698.2 429.992 695.245 419.729 694.677 409.424C694.109 399.12 695.945 389.065 700.034 380.081Z" fill="#00A788"/>
<path d="M912.176 518.956C907.612 522.149 901.786 523.206 895.977 521.894C890.169 520.581 884.853 517.007 881.2 511.957C884.852 517.007 886.542 523.12 885.899 528.95C885.256 534.78 882.333 539.85 877.771 543.046C882.333 539.852 888.159 538.795 893.966 540.107C899.774 541.419 905.088 544.994 908.739 550.043C905.089 544.992 903.4 538.88 904.044 533.05C904.689 527.22 907.614 522.15 912.176 518.956Z" fill="#00A788"/>
<path d="M944.773 534.321C952.397 541.808 961.466 547.553 971.261 551.101C981.057 554.649 991.31 555.903 1001.21 554.762C997.133 563.712 995.272 573.713 995.771 583.974C996.271 594.234 999.118 604.471 1004.09 613.875C1004.77 615.144 1005.7 616.273 1006.82 617.184C1007.94 618.096 1009.22 618.767 1010.57 619.152C1011.92 619.537 1013.3 619.626 1014.63 619.412C1015.96 619.199 1017.19 618.69 1018.25 617.918L1043.22 599.893C1047.87 596.533 1050.83 591.292 1051.44 585.323C1052.05 579.355 1050.27 573.148 1046.48 568.068C1050.27 573.148 1055.75 576.684 1061.72 577.9C1067.69 579.115 1073.66 577.91 1078.31 574.55L1103.28 556.525C1104.34 555.761 1105.21 554.753 1105.81 553.571C1106.42 552.388 1106.75 551.061 1106.78 549.68C1106.81 548.298 1106.54 546.897 1106 545.573C1105.45 544.248 1104.63 543.033 1103.61 542.011C1095.99 534.525 1086.92 528.78 1077.12 525.232C1067.33 521.684 1057.07 520.43 1047.18 521.57C1051.25 512.62 1053.11 502.619 1052.61 492.358C1052.11 482.098 1049.27 471.86 1044.3 462.457C1043.61 461.188 1042.68 460.059 1041.56 459.147C1040.44 458.236 1039.16 457.565 1037.81 457.18C1036.47 456.795 1035.08 456.706 1033.75 456.919C1032.43 457.132 1031.19 457.642 1030.13 458.414L1005.17 476.439C1000.51 479.8 997.552 485.042 996.94 491.012C996.327 496.982 998.112 503.191 1001.9 508.272C998.112 503.192 992.631 499.654 986.662 498.436C980.692 497.219 974.724 498.423 970.069 501.782L945.106 519.807C944.04 520.571 943.175 521.579 942.57 522.761C941.965 523.943 941.635 525.271 941.604 526.652C941.572 528.033 941.839 529.435 942.387 530.759C942.934 532.084 943.748 533.299 944.773 534.321Z" fill="#00A788"/>
<path d="M1136.05 919.238C1128.42 911.75 1119.36 906.005 1109.56 902.456C1099.76 898.908 1089.51 897.655 1079.61 898.797C1083.69 889.849 1085.55 879.847 1085.05 869.586C1084.55 859.325 1081.71 849.087 1076.73 839.685C1076.05 838.416 1075.12 837.287 1074 836.375C1072.88 835.464 1071.6 834.793 1070.25 834.408C1068.9 834.023 1067.52 833.934 1066.19 834.147C1064.86 834.36 1063.63 834.87 1062.57 835.642L1037.61 853.66C1035.31 855.326 1033.39 857.472 1031.98 859.977C1030.56 862.481 1029.68 865.294 1029.38 868.254C1029.08 871.214 1029.36 874.264 1030.22 877.229C1031.08 880.193 1032.49 883.015 1034.37 885.531C1030.58 880.449 1025.1 876.911 1019.13 875.695C1013.16 874.478 1007.19 875.683 1002.53 879.044L977.57 897.069C976.506 897.833 975.641 898.842 975.037 900.024C974.433 901.206 974.104 902.533 974.073 903.914C974.042 905.294 974.309 906.695 974.856 908.019C975.404 909.343 976.218 910.558 977.242 911.58C984.864 919.067 993.932 924.813 1003.73 928.362C1013.52 931.911 1023.77 933.164 1033.67 932.024C1029.6 940.967 1027.74 950.961 1028.23 961.214C1028.73 971.468 1031.57 981.699 1036.53 991.099C1037.21 992.374 1038.14 993.511 1039.26 994.428C1040.38 995.346 1041.66 996.023 1043.01 996.413C1044.36 996.802 1045.75 996.893 1047.09 996.681C1048.42 996.469 1049.66 995.958 1050.72 995.184L1075.68 977.159C1080.34 973.798 1083.3 968.556 1083.91 962.586C1084.52 956.616 1082.74 950.408 1078.95 945.326C1080.83 947.843 1083.14 950.006 1085.75 951.694C1088.37 953.382 1091.24 954.561 1094.19 955.163C1097.15 955.765 1100.14 955.779 1102.99 955.203C1105.83 954.628 1108.49 953.475 1110.79 951.81L1135.75 933.785C1136.82 933.018 1137.69 932.006 1138.29 930.82C1138.9 929.634 1139.22 928.301 1139.25 926.916C1139.28 925.531 1139.01 924.126 1138.45 922.8C1137.9 921.474 1137.08 920.258 1136.05 919.238Z" fill="#00A788"/>
<path d="M991.35 862.81C995.992 859.458 1001.94 858.256 1007.9 859.468C1013.85 860.681 1019.32 864.208 1023.1 869.275C1021.23 866.765 1019.83 863.953 1018.98 860.999C1018.13 858.044 1017.85 855.006 1018.15 852.058C1018.46 849.109 1019.34 846.308 1020.75 843.815C1022.15 841.321 1024.06 839.184 1026.36 837.525C1021.72 840.876 1015.77 842.076 1009.81 840.862C1003.86 839.648 998.394 836.119 994.616 831.052C998.395 836.12 1000.17 842.313 999.564 848.267C998.953 854.222 996.002 859.451 991.359 862.803" fill="#00A788"/>
<path d="M1161.9 838.757C1151.97 839.903 1141.69 838.61 1131.88 834.984C1122.07 831.358 1113.02 825.502 1105.46 817.893C1110.56 827.277 1113.51 837.541 1114.08 847.845C1114.65 858.15 1112.81 868.204 1108.73 877.188C1118.65 876.042 1128.94 877.334 1138.75 880.96C1148.56 884.586 1157.61 890.443 1165.17 898.053C1160.07 888.668 1157.11 878.405 1156.55 868.1C1155.98 857.796 1157.81 847.742 1161.9 838.757Z" fill="#00A788"/>
<path d="M1073.37 773.747C1077.12 778.781 1078.89 784.931 1078.28 790.845C1077.68 796.759 1074.75 801.952 1070.14 805.283C1074.75 801.954 1080.66 800.761 1086.57 801.966C1092.49 803.171 1097.92 806.675 1101.67 811.709C1097.92 806.674 1096.15 800.524 1096.76 794.61C1097.37 788.696 1100.3 783.504 1104.91 780.174C1100.3 783.503 1094.38 784.695 1088.47 783.49C1082.56 782.285 1077.12 778.78 1073.37 773.747Z" fill="#00A788"/>
<path d="M1196.34 737.418C1194.04 739.083 1192.12 741.227 1190.71 743.729C1189.3 746.231 1188.42 749.042 1188.11 751.999C1187.81 754.957 1188.1 758.004 1188.95 760.967C1189.8 763.929 1191.21 766.749 1193.09 769.265C1189.3 764.185 1183.82 760.647 1177.85 759.43C1171.88 758.213 1165.91 759.416 1161.26 762.775L1136.29 780.8C1135.23 781.564 1134.36 782.572 1133.76 783.754C1133.15 784.936 1132.82 786.264 1132.79 787.645C1132.76 789.026 1133.03 790.428 1133.57 791.752C1134.12 793.076 1134.93 794.292 1135.96 795.314C1143.58 802.801 1152.65 808.546 1162.45 812.094C1172.24 815.642 1182.5 816.895 1192.39 815.755C1188.32 824.698 1186.45 834.692 1186.95 844.946C1187.45 855.2 1190.29 865.433 1195.25 874.833C1195.93 876.109 1196.86 877.246 1197.98 878.164C1199.1 879.082 1200.38 879.759 1201.73 880.148C1203.08 880.536 1204.48 880.628 1205.81 880.415C1207.14 880.202 1208.38 879.69 1209.44 878.915L1234.41 860.89C1239.06 857.528 1242.02 852.286 1242.63 846.317C1243.24 840.348 1241.46 834.141 1237.67 829.06C1241.46 834.142 1246.94 837.68 1252.91 838.897C1258.88 840.113 1264.85 838.908 1269.5 835.547L1294.47 817.522C1295.54 816.757 1296.4 815.745 1297.01 814.559C1297.62 813.372 1297.95 812.039 1297.97 810.653C1298 809.267 1297.73 807.861 1297.18 806.534C1296.62 805.207 1295.8 803.99 1294.77 802.969C1287.15 795.483 1278.08 789.738 1268.28 786.189C1258.49 782.641 1248.23 781.388 1238.34 782.528C1242.41 773.579 1244.27 763.578 1243.77 753.317C1243.27 743.057 1240.43 732.819 1235.46 723.416C1234.77 722.147 1233.84 721.018 1232.72 720.107C1231.6 719.195 1230.32 718.524 1228.97 718.139C1227.63 717.754 1226.24 717.666 1224.91 717.879C1223.59 718.092 1222.35 718.601 1221.29 719.373L1196.34 737.418Z" fill="#00A788"/>
<path d="M1185.08 721.263C1180.43 724.616 1174.48 725.817 1168.53 724.604C1162.57 723.391 1157.1 719.861 1153.33 714.793C1157.1 719.861 1158.88 726.052 1158.27 732.006C1157.66 737.959 1154.71 743.188 1150.07 746.541C1154.71 743.189 1160.67 741.988 1166.62 743.201C1172.57 744.414 1178.04 747.942 1181.82 753.01C1178.04 747.941 1176.26 741.749 1176.87 735.796C1177.48 729.843 1180.43 724.615 1185.08 721.263Z" fill="#00A788"/>
<path d="M527.033 301.08C517.105 302.227 506.817 300.935 497.008 297.309C487.198 293.683 478.146 287.826 470.588 280.216C475.69 289.601 478.646 299.864 479.214 310.168C479.782 320.473 477.946 330.527 473.856 339.511C483.784 338.365 494.073 339.657 503.882 343.283C513.691 346.909 522.744 352.766 530.301 360.376C525.199 350.991 522.244 340.728 521.676 330.423C521.108 320.119 522.943 310.064 527.033 301.08Z" fill="#00A788"/>
<path d="M611.795 310.921C615.549 315.956 617.317 322.107 616.71 328.022C616.103 333.937 613.172 339.131 608.56 342.461C610.843 340.812 613.469 339.669 616.29 339.099C619.11 338.53 622.069 338.543 624.997 339.14C627.926 339.736 630.767 340.903 633.357 342.575C635.948 344.247 638.238 346.391 640.096 348.883C638.238 346.391 636.848 343.598 636.005 340.664C635.162 337.73 634.883 334.712 635.183 331.784C635.484 328.856 636.359 326.073 637.758 323.597C639.156 321.12 641.052 318.997 643.335 317.348C638.724 320.679 632.81 321.872 626.895 320.667C620.98 319.462 615.549 315.956 611.795 310.921Z" fill="#00A788"/>
<path d="M807.915 372.703L832.878 354.677C833.943 353.913 834.807 352.905 835.411 351.723C836.015 350.541 836.344 349.213 836.375 347.833C836.407 346.452 836.139 345.051 835.592 343.727C835.045 342.403 834.23 341.189 833.206 340.167C825.583 332.68 816.515 326.934 806.721 323.386C796.926 319.837 786.674 318.583 776.776 319.722C780.852 310.774 782.713 300.773 782.213 290.512C781.712 280.252 778.864 270.015 773.893 260.613C773.21 259.345 772.277 258.216 771.158 257.304C770.039 256.393 768.762 255.722 767.414 255.337C766.066 254.952 764.681 254.863 763.354 255.075C762.027 255.287 760.79 255.796 759.73 256.567L734.767 274.592C732.462 276.256 730.549 278.4 729.138 280.9C727.727 283.401 726.844 286.209 726.541 289.165C726.238 292.121 726.52 295.167 727.371 298.128C728.222 301.09 729.625 303.909 731.501 306.425C727.713 301.344 722.232 297.806 716.263 296.589C710.293 295.372 704.325 296.576 699.67 299.935L674.707 317.96C673.641 318.724 672.776 319.732 672.171 320.914C671.566 322.096 671.237 323.424 671.205 324.805C671.173 326.186 671.44 327.588 671.988 328.912C672.535 330.236 673.35 331.452 674.375 332.474C681.997 339.962 691.066 345.709 700.862 349.257C710.658 352.805 720.911 354.058 730.808 352.915C726.732 361.864 724.869 371.865 725.369 382.126C725.869 392.387 728.717 402.625 733.687 412.028C734.37 413.297 735.304 414.426 736.423 415.337C737.543 416.248 738.821 416.92 740.169 417.305C741.518 417.689 742.903 417.778 744.231 417.565C745.558 417.352 746.795 416.842 747.855 416.071L772.818 398.046C775.122 396.382 777.034 394.239 778.445 391.739C779.857 389.239 780.739 386.431 781.042 383.476C781.345 380.521 781.063 377.476 780.212 374.515C779.361 371.555 777.958 368.736 776.083 366.22C779.872 371.3 785.354 374.837 791.324 376.053C797.293 377.268 803.261 376.063 807.915 372.703Z" fill="#FF6000"/>
<path d="M723.503 258.438C721.204 260.098 718.559 261.247 715.72 261.82C712.88 262.393 709.901 262.379 706.952 261.778C704.004 261.178 701.144 260.002 698.536 258.319C695.928 256.635 693.622 254.477 691.751 251.967C695.529 257.035 697.309 263.226 696.699 269.18C696.089 275.134 693.14 280.362 688.499 283.715C693.14 280.364 699.092 279.162 705.045 280.375C710.998 281.588 716.464 285.117 720.242 290.184C716.465 285.115 714.687 278.924 715.299 272.97C715.91 267.017 718.861 261.79 723.503 258.438Z" fill="#00A788"/>
<path d="M968.431 181.953C978.359 180.805 988.648 182.097 998.457 185.723C1008.27 189.349 1017.32 195.206 1024.88 202.817C1019.77 193.432 1016.82 183.168 1016.25 172.863C1015.69 162.558 1017.52 152.503 1021.61 143.519C1011.68 144.666 1001.4 143.374 991.585 139.749C981.775 136.124 972.722 130.267 965.163 122.657C970.266 132.042 973.223 142.305 973.791 152.61C974.359 162.915 972.522 172.969 968.431 181.953Z" fill="#00A788"/>
<path d="M1077.86 498.515C1087.79 497.367 1098.07 498.659 1107.88 502.285C1117.69 505.911 1126.75 511.769 1134.3 519.38C1129.2 509.994 1126.25 499.73 1125.68 489.425C1125.11 479.12 1126.95 469.065 1131.04 460.081C1121.11 461.228 1110.82 459.937 1101.01 456.311C1091.2 452.686 1082.15 446.83 1074.59 439.22C1079.69 448.604 1082.65 458.868 1083.22 469.172C1083.78 479.477 1081.95 489.532 1077.86 498.515Z" fill="#00A788"/>
<path d="M793.857 107.515C803.785 106.367 814.073 107.658 823.883 111.284C833.693 114.91 842.745 120.768 850.302 128.379C845.2 118.994 842.245 108.73 841.678 98.4245C841.111 88.1193 842.948 78.0646 847.038 69.0803C837.11 70.2277 826.821 68.936 817.011 65.3107C807.201 61.6853 798.147 55.8289 790.589 48.2191C795.692 57.6034 798.648 67.8668 799.216 78.1717C799.784 88.4767 797.948 98.5312 793.857 107.515Z" fill="#00A788"/>
<path d="M983.857 368.515C993.785 367.367 1004.07 368.659 1013.88 372.285C1023.69 375.911 1032.74 381.768 1040.3 389.38C1035.2 379.994 1032.25 369.73 1031.68 359.425C1031.11 349.12 1032.95 339.065 1037.04 330.081C1027.11 331.228 1016.82 329.936 1007.01 326.311C997.201 322.686 988.147 316.829 980.589 309.219C985.692 318.604 988.648 328.867 989.216 339.172C989.784 349.477 987.948 359.531 983.857 368.515Z" fill="#00A788"/>
<path d="M807.431 296.953C817.359 295.805 827.648 297.097 837.457 300.723C847.267 304.349 856.319 310.206 863.876 317.817C858.775 308.432 855.82 298.168 855.253 287.863C854.685 277.558 856.522 267.503 860.612 258.519C850.684 259.666 840.395 258.374 830.585 254.749C820.775 251.124 811.722 245.267 804.163 237.657C809.266 247.042 812.223 257.305 812.791 267.61C813.359 277.915 811.522 287.969 807.431 296.953Z" fill="#00A788"/>
<path d="M768.844 225.048C773.455 221.719 779.367 220.525 785.28 221.73C791.193 222.935 796.623 226.44 800.376 231.473C796.624 226.439 794.858 220.288 795.465 214.375C796.073 208.461 799.004 203.268 803.615 199.939C799.003 203.267 793.09 204.46 787.175 203.255C781.261 202.049 775.829 198.545 772.075 193.511C775.828 198.545 777.596 204.696 776.99 210.61C776.384 216.524 773.454 221.717 768.844 225.048Z" fill="#00A788"/>
<path d="M891.786 189.011C887.997 183.93 882.514 180.391 876.544 179.175C870.574 177.958 864.604 179.163 859.95 182.524L834.987 200.549C833.921 201.313 833.055 202.321 832.451 203.503C831.846 204.686 831.516 206.013 831.485 207.394C831.453 208.776 831.72 210.177 832.267 211.501C832.815 212.826 833.629 214.041 834.654 215.063C842.279 222.55 851.35 228.295 861.147 231.842C870.945 235.389 881.199 236.641 891.097 235.498C887.023 244.448 885.162 254.449 885.661 264.709C886.161 274.97 889.008 285.207 893.976 294.611C894.659 295.88 895.593 297.009 896.712 297.92C897.832 298.832 899.11 299.503 900.458 299.888C901.806 300.272 903.192 300.361 904.519 300.148C905.847 299.935 907.084 299.425 908.144 298.654L933.107 280.629C937.761 277.268 940.72 272.027 941.333 266.058C941.946 260.09 940.163 253.882 936.376 248.8C940.164 253.881 945.645 257.418 951.614 258.634C957.583 259.85 963.55 258.646 968.204 255.286L993.167 237.26C994.233 236.496 995.098 235.488 995.703 234.306C996.308 233.124 996.637 231.796 996.669 230.415C996.701 229.034 996.434 227.633 995.886 226.308C995.339 224.984 994.524 223.769 993.499 222.746C985.876 215.26 976.807 209.515 967.011 205.967C957.216 202.419 946.963 201.165 937.065 202.305C941.142 193.356 943.004 183.355 942.504 173.094C942.004 162.833 939.157 152.596 934.187 143.192C933.504 141.924 932.57 140.794 931.45 139.883C930.331 138.972 929.053 138.3 927.705 137.916C926.356 137.531 924.97 137.442 923.643 137.655C922.316 137.868 921.079 138.378 920.019 139.149L895.056 157.175C890.403 160.536 887.445 165.778 886.834 171.747C886.222 177.716 888.007 183.924 891.795 189.005" fill="#00A788"/>
<path d="M879.145 0.166253C875.356 -4.91536 869.873 -8.45363 863.903 -9.6702C857.933 -10.8868 851.963 -9.68195 847.309 -6.32081L822.346 11.7045C821.28 12.4684 820.414 13.4765 819.81 14.6585C819.205 15.8406 818.875 17.1684 818.844 18.5495C818.812 19.9307 819.079 21.3321 819.626 22.6565C820.174 23.9808 820.988 25.1963 822.013 26.2184C829.638 33.7053 838.709 39.45 848.506 42.997C858.304 46.544 868.558 47.7958 878.456 46.6531C874.382 55.6027 872.521 65.604 873.02 75.8644C873.52 86.1248 876.367 96.3623 881.335 105.766C882.018 107.035 882.952 108.164 884.071 109.075C885.191 109.987 886.469 110.658 887.817 111.043C889.165 111.427 890.551 111.516 891.878 111.303C893.206 111.09 894.443 110.58 895.503 109.809L920.466 91.7838C925.12 88.4233 928.079 83.1823 928.692 77.2135C929.305 71.2447 927.522 65.0369 923.735 59.9553C927.523 65.0356 933.004 68.573 938.973 69.7892C944.942 71.0055 950.909 69.801 955.563 66.4407L980.526 48.4154C981.592 47.6514 982.457 46.6434 983.062 45.4613C983.667 44.2793 983.996 42.9515 984.028 41.5703C984.06 40.1892 983.793 38.7877 983.245 37.4634C982.698 36.139 981.883 34.9236 980.858 33.9015C973.235 26.4149 964.166 20.6698 954.37 17.1216C944.575 13.5735 934.322 12.32 924.424 13.4603C928.501 4.51129 930.363 -5.4901 929.863 -15.7508C929.363 -26.0116 926.516 -36.2494 921.546 -45.6525C920.863 -46.9214 919.929 -48.0508 918.809 -48.962C917.69 -49.8733 916.412 -50.5446 915.064 -50.9293C913.715 -51.3141 912.329 -51.403 911.002 -51.19C909.675 -50.977 908.438 -50.4671 907.378 -49.6958L882.415 -31.6704C877.762 -28.3085 874.804 -23.0667 874.193 -17.0976C873.581 -11.1285 875.366 -4.92101 879.154 0.159755" fill="#00A788"/>
<path d="M848.778 166.305C853.42 162.953 859.372 161.751 865.326 162.964C871.279 164.176 876.747 167.704 880.526 172.77C876.748 167.703 874.969 161.512 875.58 155.559C876.19 149.606 879.141 144.379 883.782 141.027C879.139 144.378 873.187 145.578 867.233 144.364C861.28 143.15 855.813 139.622 852.035 134.554C855.814 139.622 857.594 145.815 856.983 151.77C856.372 157.724 853.421 162.953 848.778 166.305Z" fill="#00A788"/>
<path d="M944.456 296.917C946.754 295.256 949.398 294.106 952.237 293.533C955.076 292.959 958.055 292.973 961.003 293.573C963.951 294.173 966.811 295.349 969.419 297.032C972.027 298.715 974.332 300.872 976.203 303.382C972.425 298.315 970.646 292.124 971.257 286.171C971.867 280.218 974.818 274.991 979.459 271.639C977.159 273.299 974.513 274.448 971.672 275.02C968.831 275.593 965.851 275.577 962.902 274.974C959.953 274.372 957.093 273.194 954.484 271.509C951.876 269.823 949.571 267.663 947.702 265.151C951.48 270.22 953.26 276.412 952.649 282.367C952.038 288.321 949.087 293.55 944.445 296.902" fill="#00A788"/>
<path d="M674.488 456.433C666.864 448.947 657.795 443.202 648 439.654C638.204 436.106 627.952 434.852 618.054 435.991C622.13 427.042 623.991 417.041 623.492 406.78C622.992 396.52 620.145 386.282 615.176 376.879C614.493 375.61 613.559 374.481 612.439 373.569C611.32 372.658 610.042 371.987 608.693 371.602C607.345 371.217 605.959 371.128 604.632 371.341C603.305 371.554 602.068 372.064 601.008 372.836L576.045 390.861C571.392 394.223 568.434 399.465 567.823 405.434C567.211 411.403 568.996 417.61 572.784 422.691C568.995 417.609 563.512 414.071 557.542 412.855C551.572 411.638 545.602 412.843 540.948 416.204L515.985 434.229C514.919 434.993 514.054 436.001 513.449 437.183C512.844 438.365 512.514 439.693 512.483 441.074C512.451 442.455 512.718 443.857 513.266 445.181C513.813 446.505 514.627 447.721 515.652 448.743C523.276 456.23 532.345 461.975 542.14 465.523C551.936 469.071 562.189 470.324 572.086 469.184C568.012 478.134 566.151 488.135 566.65 498.395C567.15 508.656 569.997 518.893 574.965 528.297C575.648 529.566 576.582 530.695 577.701 531.606C578.821 532.517 580.099 533.189 581.447 533.573C582.795 533.958 584.181 534.047 585.508 533.834C586.836 533.621 588.073 533.111 589.133 532.34L614.096 514.315C618.75 510.954 621.709 505.713 622.322 499.744C622.935 493.776 621.152 487.568 617.365 482.486C621.153 487.566 626.634 491.104 632.603 492.32C638.572 493.536 644.539 492.332 649.193 488.972L674.156 470.946C675.222 470.182 676.087 469.174 676.692 467.992C677.296 466.81 677.626 465.483 677.658 464.101C677.689 462.72 677.422 461.319 676.875 459.994C676.328 458.67 675.513 457.455 674.488 456.433Z" fill="#00A788"/>
<path d="M564.78 374.707C560.138 378.057 554.185 379.258 548.232 378.044C542.278 376.83 536.812 373.301 533.034 368.233C536.812 373.302 538.592 379.494 537.981 385.449C537.37 391.403 534.419 396.632 529.777 399.984C534.418 396.632 540.37 395.431 546.324 396.643C552.277 397.855 557.745 401.383 561.524 406.45C557.746 401.382 555.967 395.191 556.578 389.238C557.189 383.285 560.139 378.058 564.78 374.707Z" fill="#00A788"/>
<path d="M598.648 325.12C603.302 321.759 606.261 316.518 606.874 310.55C607.487 304.581 605.704 298.373 601.918 293.291C603.794 295.808 606.105 297.971 608.721 299.659C611.337 301.347 614.205 302.525 617.161 303.126C620.118 303.728 623.105 303.741 625.952 303.166C628.799 302.59 631.45 301.436 633.754 299.77L658.717 281.745C659.783 280.981 660.649 279.973 661.253 278.791C661.858 277.609 662.188 276.281 662.219 274.9C662.251 273.519 661.984 272.117 661.437 270.793C660.889 269.469 660.075 268.253 659.05 267.231C651.427 259.743 642.358 253.998 632.562 250.449C622.766 246.901 612.513 245.648 602.616 246.79C606.693 237.841 608.556 227.84 608.057 217.579C607.557 207.318 604.708 197.08 599.737 187.677C599.054 186.408 598.12 185.279 597.001 184.368C595.882 183.456 594.603 182.785 593.255 182.4C591.907 182.016 590.521 181.927 589.194 182.14C587.866 182.353 586.63 182.863 585.569 183.634L560.606 201.659C555.953 205.021 552.996 210.263 552.384 216.232C551.773 222.201 553.557 228.409 557.345 233.489C553.556 228.408 548.074 224.87 542.103 223.653C536.133 222.436 530.164 223.641 525.509 227.002L500.537 245.034C499.472 245.799 498.608 246.807 498.004 247.989C497.4 249.171 497.071 250.498 497.04 251.879C497.008 253.26 497.276 254.66 497.823 255.984C498.37 257.308 499.185 258.523 500.209 259.545C507.831 267.032 516.899 272.778 526.694 276.327C536.489 279.876 546.742 281.13 556.639 279.989C552.564 288.938 550.703 298.939 551.204 309.199C551.704 319.459 554.552 329.696 559.522 339.099C560.205 340.367 561.138 341.496 562.257 342.407C563.376 343.318 564.653 343.99 566.001 344.375C567.349 344.76 568.734 344.849 570.061 344.637C571.388 344.425 572.625 343.916 573.685 343.145L598.648 325.12Z" fill="#00A788"/>
<path d="M684.88 186.738C674.952 187.884 664.664 186.591 654.855 182.965C645.046 179.339 635.993 173.483 628.435 165.873C633.538 175.258 636.495 185.521 637.063 195.826C637.631 206.131 635.794 216.185 631.704 225.169C641.632 224.022 651.92 225.314 661.729 228.94C671.538 232.566 680.591 238.423 688.149 246.033C683.047 236.648 680.092 226.385 679.524 216.081C678.956 205.776 680.792 195.722 684.88 186.738Z" fill="#00A788"/>
<path d="M627.888 128.154C623.276 131.483 617.362 132.675 611.448 131.47C605.534 130.265 600.102 126.76 596.348 121.727C600.101 126.761 601.868 132.911 601.263 138.825C600.657 144.739 597.727 149.932 593.117 153.263C597.727 149.934 603.639 148.741 609.553 149.946C615.466 151.151 620.896 154.655 624.649 159.689C620.897 154.654 619.131 148.504 619.738 142.59C620.346 136.676 623.277 131.484 627.888 128.154Z" fill="#00A788"/>
<path d="M657.991 143.182C665.584 150.65 674.61 156.389 684.352 159.943C694.094 163.497 704.285 164.768 714.117 163.656C710.09 172.553 708.265 182.502 708.786 192.714C709.307 202.926 712.161 213.121 717.12 222.49C717.802 223.755 718.733 224.881 719.847 225.79C720.962 226.7 722.233 227.371 723.574 227.757C724.915 228.143 726.292 228.235 727.61 228.026C728.929 227.817 730.157 227.312 731.208 226.547L755.97 208.667C760.586 205.334 763.513 200.125 764.107 194.187C764.701 188.249 762.913 182.068 759.137 177.003C762.915 182.068 768.371 185.6 774.305 186.824C780.24 188.047 786.167 186.862 790.784 183.529L815.545 165.649C816.602 164.891 817.46 163.89 818.058 162.715C818.656 161.54 818.98 160.219 819.009 158.845C819.037 157.471 818.768 156.075 818.221 154.756C817.674 153.437 816.861 152.225 815.841 151.206C808.247 143.738 799.221 138 789.479 134.446C779.737 130.893 769.546 129.621 759.714 130.731C763.742 121.835 765.568 111.886 765.047 101.674C764.526 91.4621 761.672 81.2672 756.711 71.8977C756.029 70.6334 755.099 69.5073 753.984 68.5978C752.87 67.6884 751.598 67.0173 750.257 66.6313C748.917 66.2452 747.539 66.1535 746.221 66.3624C744.903 66.5713 743.675 67.0758 742.623 67.8409L717.862 85.7208C713.244 89.0548 710.317 94.2647 709.723 100.204C709.128 106.144 710.917 112.327 714.694 117.393C710.917 112.328 705.462 108.794 699.527 107.569C693.593 106.344 687.665 107.527 683.048 110.859L658.286 128.739C657.229 129.497 656.372 130.498 655.773 131.673C655.175 132.848 654.851 134.169 654.823 135.543C654.795 136.917 655.064 138.313 655.611 139.632C656.158 140.951 656.97 142.163 657.991 143.182Z" fill="#00A788"/>
<path d="M914.667 519.401C910.03 522.749 904.085 523.952 898.136 522.746C892.188 521.539 886.723 518.021 882.941 512.965C886.707 518.032 888.478 524.218 887.863 530.164C887.249 536.11 884.299 541.331 879.663 544.679C884.305 541.328 890.258 540.128 896.211 541.342C902.165 542.556 907.632 546.085 911.41 551.152C907.631 546.084 905.851 539.891 906.462 533.937C907.073 527.982 910.024 522.753 914.667 519.401Z" fill="#00A788"/>
<path d="M661.919 506.979C657.309 510.308 651.397 511.502 645.483 510.297C639.57 509.092 634.14 505.587 630.387 500.554C634.139 505.588 635.905 511.739 635.298 517.653C634.691 523.566 631.759 528.759 627.149 532.089C631.761 528.76 637.674 527.567 643.588 528.772C649.503 529.978 654.934 533.482 658.688 538.516C654.935 533.482 653.168 527.332 653.773 521.418C654.379 515.504 657.309 510.31 661.919 506.979Z" fill="#00A788"/>
<path d="M850.2 528.197C842.578 520.709 833.509 514.964 823.713 511.415C813.917 507.867 803.664 506.614 793.767 507.756C797.844 498.808 799.707 488.806 799.208 478.545C798.708 468.284 795.859 458.047 790.888 448.644C790.205 447.375 789.271 446.246 788.152 445.334C787.033 444.423 785.754 443.752 784.406 443.367C783.058 442.982 781.672 442.893 780.345 443.106C779.017 443.32 777.781 443.829 776.72 444.601L751.767 462.619C749.458 464.285 747.543 466.432 746.13 468.936C744.718 471.44 743.836 474.253 743.534 477.213C743.233 480.173 743.518 483.223 744.374 486.188C745.23 489.152 746.64 491.974 748.522 494.49C744.734 489.408 739.251 485.87 733.281 484.654C727.31 483.437 721.341 484.642 716.686 488.003L691.724 506.028C690.659 506.792 689.794 507.801 689.19 508.983C688.586 510.165 688.257 511.492 688.226 512.873C688.195 514.253 688.462 515.654 689.01 516.978C689.557 518.302 690.371 519.517 691.396 520.539C699.018 528.026 708.086 533.772 717.88 537.321C727.675 540.87 737.928 542.123 747.825 540.983C743.752 549.926 741.889 559.92 742.385 570.173C742.881 580.426 745.722 590.658 750.682 600.057C751.361 601.333 752.294 602.469 753.413 603.387C754.533 604.305 755.814 604.982 757.166 605.371C758.517 605.76 759.907 605.852 761.239 605.64C762.571 605.428 763.812 604.917 764.875 604.143L789.838 586.118C794.492 582.757 797.451 577.515 798.064 571.545C798.676 565.575 796.892 559.366 793.103 554.285C794.979 556.801 797.291 558.965 799.907 560.653C802.523 562.341 805.391 563.52 808.348 564.122C811.304 564.724 814.292 564.738 817.139 564.162C819.987 563.587 822.639 562.434 824.943 560.769L849.906 542.743C850.974 541.977 851.841 540.965 852.445 539.779C853.05 538.593 853.378 537.26 853.406 535.875C853.434 534.49 853.161 533.085 852.608 531.759C852.054 530.433 851.232 529.217 850.2 528.197Z" fill="#00A788"/>
<path d="M705.504 471.769C710.146 468.417 716.098 467.215 722.052 468.427C728.005 469.64 733.473 473.167 737.252 478.234C735.381 475.724 733.981 472.912 733.132 469.958C732.284 467.003 732.003 463.965 732.306 461.017C732.609 458.068 733.491 455.267 734.899 452.774C736.308 450.28 738.217 448.143 740.517 446.484C735.874 449.835 729.922 451.035 723.968 449.821C718.015 448.607 712.548 445.078 708.77 440.011C712.549 445.079 714.328 451.272 713.718 457.226C713.107 463.181 710.156 468.41 705.513 471.762" fill="#00A788"/>
<path d="M876.055 447.716C866.127 448.862 855.839 447.569 846.03 443.943C836.221 440.317 827.169 434.461 819.61 426.852C824.713 436.236 827.668 446.5 828.236 456.804C828.804 467.109 826.968 477.163 822.879 486.147C832.807 485.001 843.095 486.293 852.904 489.919C862.713 493.545 871.766 499.402 879.324 507.012C874.222 497.627 871.267 487.364 870.699 477.059C870.131 466.755 871.967 456.701 876.055 447.716Z" fill="#00A788"/>
<path d="M787.523 382.706C791.276 387.74 793.044 393.89 792.438 399.804C791.832 405.718 788.902 410.911 784.292 414.242C788.903 410.913 794.815 409.72 800.728 410.925C806.641 412.13 812.071 415.634 815.824 420.668C812.072 415.633 810.306 409.483 810.913 403.569C811.521 397.655 814.452 392.463 819.063 389.133C814.451 392.462 808.537 393.654 802.623 392.449C796.709 391.244 791.277 387.739 787.523 382.706Z" fill="#00A788"/>
<path d="M910.494 346.377C908.188 348.042 906.275 350.186 904.863 352.688C903.452 355.19 902.569 358.001 902.267 360.958C901.965 363.916 902.248 366.963 903.102 369.926C903.955 372.888 905.361 375.708 907.24 378.224C903.452 373.144 897.97 369.606 892.001 368.389C886.032 367.171 880.063 368.375 875.408 371.734L850.446 389.759C849.38 390.523 848.514 391.531 847.91 392.713C847.305 393.895 846.975 395.223 846.944 396.604C846.912 397.985 847.179 399.387 847.726 400.711C848.274 402.035 849.088 403.251 850.113 404.273C857.737 411.76 866.805 417.505 876.601 421.053C886.396 424.601 896.649 425.854 906.547 424.714C902.472 433.657 900.608 443.651 901.103 453.905C901.598 464.159 904.439 474.392 909.4 483.792C910.079 485.068 911.012 486.205 912.132 487.123C913.252 488.041 914.534 488.718 915.886 489.107C917.238 489.495 918.629 489.587 919.961 489.374C921.293 489.161 922.534 488.649 923.597 487.874L948.56 469.849C953.213 466.487 956.17 461.245 956.782 455.276C957.393 449.307 955.609 443.1 951.821 438.019C955.609 443.101 961.092 446.639 967.062 447.856C973.033 449.072 979.002 447.867 983.656 444.506L1008.62 426.481C1009.69 425.716 1010.56 424.704 1011.16 423.518C1011.77 422.331 1012.1 420.998 1012.13 419.612C1012.16 418.226 1011.88 416.82 1011.33 415.493C1010.78 414.166 1009.96 412.949 1008.92 411.928C1001.3 404.442 992.23 398.697 982.435 395.149C972.639 391.6 962.386 390.347 952.489 391.487C956.563 382.538 958.424 372.537 957.925 362.276C957.425 352.016 954.578 341.778 949.61 332.375C948.927 331.106 947.993 329.977 946.874 329.066C945.755 328.154 944.476 327.483 943.128 327.098C941.78 326.713 940.394 326.625 939.067 326.838C937.739 327.051 936.503 327.56 935.442 328.332L910.494 346.377Z" fill="#00A788"/>
<path d="M899.23 330.222C894.587 333.574 888.634 334.776 882.68 333.562C876.725 332.349 871.257 328.82 867.479 323.751C871.257 328.819 873.036 335.011 872.426 340.964C871.816 346.918 868.867 352.146 864.226 355.499C868.867 352.148 874.819 350.946 880.772 352.159C886.725 353.373 892.192 356.901 895.969 361.968C892.192 356.9 890.414 350.708 891.026 344.754C891.637 338.801 894.588 333.574 899.23 330.222Z" fill="#00A788"/>
<path d="M413.944 -15.02C404.016 -13.8733 393.727 -15.1657 383.918 -18.7916C374.109 -22.4175 365.056 -28.2742 357.499 -35.8843C362.601 -26.4997 365.556 -16.2365 366.124 -5.9319C366.692 4.37273 364.857 14.4271 360.767 23.4111C370.695 22.2645 380.983 23.5568 390.792 27.1827C400.602 30.8086 409.654 36.6654 417.212 44.2754C412.11 34.8908 409.154 24.6277 408.586 14.3231C408.018 4.01844 409.854 -6.03588 413.944 -15.02Z" fill="#00A788"/>
<path d="M521.53 -18.2495L546.493 -36.2748C547.558 -37.0391 548.422 -38.0474 549.026 -39.2294C549.63 -40.4113 549.96 -41.7387 549.991 -43.1195C550.022 -44.5002 549.755 -45.9011 549.207 -47.2249C548.66 -48.5487 547.846 -49.7636 546.821 -50.7854C539.199 -58.2722 530.131 -64.0177 520.336 -67.5664C510.541 -71.1151 500.289 -72.3694 490.392 -71.2298C494.467 -80.1786 496.328 -90.1796 495.828 -100.44C495.328 -110.7 492.479 -120.937 487.509 -130.339C486.826 -131.608 485.892 -132.737 484.774 -133.648C483.655 -134.559 482.377 -135.23 481.029 -135.615C479.682 -136 478.296 -136.09 476.969 -135.877C475.642 -135.665 474.406 -135.156 473.345 -134.386L448.382 -116.36C446.077 -114.696 444.165 -112.553 442.753 -110.052C441.342 -107.552 440.459 -104.743 440.156 -101.787C439.853 -98.8312 440.135 -95.7855 440.986 -92.824C441.837 -89.8624 443.241 -87.0431 445.117 -84.527C441.329 -89.6077 435.847 -93.1457 429.878 -94.3628C423.909 -95.5799 417.94 -94.3766 413.285 -91.0173L388.322 -72.992C387.257 -72.2281 386.391 -71.22 385.786 -70.038C385.182 -68.8559 384.852 -67.5282 384.82 -66.147C384.789 -64.7659 385.056 -63.3644 385.603 -62.0401C386.15 -60.7158 386.965 -59.5003 387.99 -58.4782C395.612 -50.9897 404.681 -45.2434 414.477 -41.6951C424.273 -38.1469 434.526 -36.8944 444.424 -38.037C440.347 -29.0882 438.485 -19.0868 438.984 -8.82604C439.484 1.43474 442.332 11.6726 447.302 21.0756C447.985 22.3445 448.919 23.4738 450.039 24.385C451.158 25.2963 452.436 25.9676 453.785 26.3524C455.133 26.7371 456.519 26.8261 457.846 26.6131C459.173 26.4 460.41 25.8901 461.47 25.1188L486.433 7.09353C488.737 5.42969 490.65 3.28668 492.061 0.78686C493.472 -1.71297 494.354 -4.52065 494.657 -7.4759C494.96 -10.4311 494.679 -13.4761 493.828 -16.4368C492.977 -19.3976 491.573 -22.2162 489.698 -24.7317C493.487 -19.6518 498.969 -16.1152 504.939 -14.8996C510.908 -13.684 516.876 -14.889 521.53 -18.2495Z" fill="#FF6000"/>
<path d="M388.104 65.4804C380.48 57.9945 371.411 52.25 361.615 48.7019C351.82 45.1539 341.567 43.8999 331.67 45.0392C335.745 36.09 337.607 26.0887 337.107 15.8281C336.607 5.56759 333.76 -4.67012 328.791 -14.0734C328.108 -15.3423 327.174 -16.4716 326.055 -17.3829C324.935 -18.2941 323.657 -18.9655 322.309 -19.3502C320.961 -19.735 319.575 -19.8239 318.247 -19.6109C316.92 -19.3979 315.683 -18.888 314.623 -18.1166L289.66 -0.0913412C285.007 3.27053 282.05 8.51239 281.438 14.4815C280.827 20.4505 282.611 26.658 286.399 31.7388C282.61 26.6572 277.128 23.1189 271.157 21.9024C265.187 20.6858 259.218 21.8906 254.563 25.2517L229.6 43.277C228.534 44.0409 227.669 45.049 227.064 46.2311C226.459 47.4131 226.13 48.7409 226.098 50.122C226.066 51.5032 226.334 52.9046 226.881 54.229C227.428 55.5533 228.243 56.7688 229.268 57.7909C236.891 65.2775 245.96 71.0225 255.756 74.5706C265.551 78.1188 275.804 79.3723 285.702 78.2321C281.627 87.1816 279.766 97.1828 280.266 107.443C280.765 117.704 283.612 127.941 288.58 137.345C289.263 138.614 290.197 139.743 291.316 140.654C292.436 141.565 293.714 142.237 295.062 142.622C296.411 143.006 297.797 143.095 299.124 142.882C300.451 142.669 301.688 142.159 302.748 141.388L327.711 123.363C332.365 120.002 335.324 114.761 335.937 108.792C336.55 102.824 334.767 96.6158 330.98 91.5342C334.768 96.6145 340.249 100.152 346.218 101.368C352.187 102.584 358.155 101.38 362.808 98.0196L387.771 79.9943C388.837 79.2304 389.702 78.2223 390.307 77.0402C390.912 75.8582 391.241 74.5304 391.273 73.1493C391.305 71.7681 391.038 70.3666 390.49 69.0423C389.943 67.718 389.129 66.5025 388.104 65.4804Z" fill="#00A788"/>
<path d="M278.396 -16.2452C273.753 -12.8946 267.801 -11.6944 261.847 -12.9083C255.894 -14.1223 250.427 -17.6511 246.649 -22.7187C250.428 -17.6503 252.207 -11.4576 251.596 -5.5032C250.986 0.451248 248.034 5.67978 243.392 9.0322C248.034 5.68034 253.986 4.47849 259.939 5.69093C265.893 6.90338 271.36 10.4308 275.139 15.4976C271.362 10.4304 269.583 4.23942 270.193 -1.71351C270.804 -7.66643 273.754 -12.8936 278.396 -16.2452Z" fill="#00A788"/>
<path d="M628.282 128.449C623.645 131.797 617.7 133 611.752 131.794C605.804 130.587 600.338 127.069 596.556 122.013C600.323 127.08 602.093 133.266 601.479 139.212C600.864 145.158 597.915 150.378 593.278 153.727C597.921 150.376 603.873 149.176 609.827 150.39C615.78 151.604 621.247 155.133 625.025 160.2C621.246 155.132 619.467 148.939 620.078 142.984C620.688 137.03 623.64 131.801 628.282 128.449Z" fill="#00A788"/>
<path d="M373.952 114.445C369.342 117.774 363.43 118.968 357.516 117.763C351.603 116.558 346.173 113.053 342.42 108.019C346.172 113.054 347.938 119.205 347.331 125.118C346.723 131.032 343.792 136.225 339.181 139.554C343.793 136.226 349.707 135.033 355.621 136.238C361.535 137.443 366.967 140.948 370.721 145.981C366.968 140.948 365.2 134.797 365.806 128.883C366.412 122.969 369.342 117.776 373.952 114.445Z" fill="#00A788"/>
<path d="M563.816 137.245C556.193 129.758 547.124 124.012 537.328 120.464C527.533 116.916 517.28 115.663 507.382 116.804C511.46 107.856 513.323 97.8545 512.823 87.5937C512.323 77.3328 509.475 67.0949 504.504 57.6922C503.821 56.4234 502.887 55.2941 501.767 54.3828C500.648 53.4716 499.37 52.8002 498.022 52.4155C496.673 52.0307 495.287 51.9418 493.96 52.1548C492.633 52.3679 491.396 52.8778 490.336 53.6491L465.382 71.6677C463.074 73.3335 461.159 75.4799 459.746 77.9841C458.333 80.4882 457.451 83.301 457.15 86.2613C456.848 89.2216 457.134 92.2713 457.99 95.236C458.845 98.2006 460.255 101.022 462.138 103.538C458.349 98.4568 452.866 94.9186 446.896 93.702C440.926 92.4855 434.957 93.6903 430.302 97.0514L405.339 115.076C404.274 115.841 403.41 116.849 402.806 118.031C402.202 119.213 401.873 120.54 401.842 121.921C401.81 123.302 402.078 124.703 402.625 126.026C403.172 127.35 403.987 128.565 405.011 129.587C412.633 137.074 421.701 142.82 431.496 146.369C441.291 149.918 451.543 151.172 461.44 150.031C457.367 158.974 455.505 168.968 456 179.221C456.496 189.475 459.337 199.706 464.298 209.106C464.977 210.381 465.909 211.518 467.029 212.436C468.149 213.353 469.429 214.03 470.781 214.42C472.133 214.809 473.523 214.9 474.854 214.688C476.186 214.476 477.427 213.965 478.49 213.191L503.453 195.166C508.108 191.805 511.067 186.563 511.679 180.593C512.292 174.623 510.507 168.415 506.719 163.333C508.595 165.85 510.907 168.014 513.522 169.702C516.138 171.389 519.006 172.568 521.963 173.17C524.92 173.772 527.907 173.786 530.755 173.211C533.602 172.635 536.254 171.482 538.559 169.817L563.521 151.792C564.59 151.025 565.456 150.014 566.061 148.827C566.665 147.641 566.993 146.309 567.021 144.923C567.049 143.538 566.777 142.133 566.223 140.807C565.67 139.481 564.848 138.265 563.816 137.245Z" fill="#00A788"/>
<path d="M419.119 80.8162C423.761 77.4644 429.713 76.2625 435.667 77.4749C441.62 78.6874 447.088 82.2149 450.867 87.2816C448.996 84.7718 447.596 81.9595 446.748 79.0053C445.899 76.0512 445.618 73.0131 445.921 70.0647C446.225 67.1163 447.106 64.3153 448.515 61.8217C449.923 59.3282 451.832 57.191 454.132 55.5322C449.49 58.8828 443.537 60.0831 437.584 58.8691C431.63 57.6551 426.163 54.1263 422.385 49.0587C426.164 54.1272 427.944 60.3198 427.333 66.2743C426.722 72.2288 423.771 77.4573 419.128 80.8098" fill="#00A788"/>
<path d="M589.671 56.7637C579.743 57.9094 569.455 56.6167 559.646 52.9908C549.837 49.365 540.784 43.5087 533.226 35.8994C538.328 45.2841 541.284 55.5472 541.852 65.8518C542.42 76.1564 540.584 86.2108 536.494 95.1948C546.422 94.0482 556.71 95.3405 566.52 98.9664C576.329 102.592 585.381 108.449 592.939 116.059C587.838 106.674 584.883 96.4113 584.315 86.1068C583.747 75.8024 585.582 65.7481 589.671 56.7637Z" fill="#00A788"/>
<path d="M501.138 -8.24671C504.891 -3.21279 506.659 2.9375 506.053 8.85155C505.447 14.7656 502.517 19.9591 497.907 23.29C502.518 19.9607 508.43 18.7673 514.343 19.9724C520.256 21.1774 525.687 24.6822 529.439 29.7156C525.687 24.6809 523.921 18.5303 524.528 12.6165C525.136 6.70278 528.067 1.51014 532.678 -1.81944C528.066 1.50914 522.153 2.70193 516.238 1.49668C510.324 0.291428 504.892 -3.2132 501.138 -8.24671Z" fill="#00A788"/>
<path d="M624.11 -44.5753C621.804 -42.9103 619.891 -40.7655 618.479 -38.2635C617.067 -35.7615 616.185 -32.9513 615.883 -29.9937C615.581 -27.036 615.864 -23.9888 616.717 -21.0261C617.571 -18.0635 618.977 -15.2436 620.855 -12.7275C617.067 -17.8083 611.586 -21.3462 605.617 -22.5633C599.647 -23.7804 593.679 -22.577 589.024 -19.2178L564.061 -1.19268C562.996 -0.428742 562.13 0.579317 561.525 1.76138C560.921 2.94344 560.591 4.27115 560.559 5.65231C560.528 7.03346 560.795 8.43491 561.342 9.75923C561.889 11.0835 562.704 12.299 563.729 13.321C571.352 20.8076 580.421 26.5527 590.217 30.1008C600.012 33.6488 610.265 34.9024 620.162 33.7621C616.087 42.7049 614.224 52.6991 614.719 62.9533C615.214 73.2074 618.055 83.4398 623.015 92.8399C623.695 94.1159 624.627 95.2527 625.748 96.1707C626.868 97.0887 628.149 97.7658 629.501 98.1547C630.854 98.5435 632.245 98.6347 633.576 98.4218C634.908 98.2089 636.149 97.6972 637.213 96.9223L662.175 78.8972C666.828 75.5354 669.786 70.2935 670.397 64.3245C671.009 58.3555 669.224 52.148 665.436 47.0673C669.225 52.1489 674.708 55.6871 680.678 56.9037C686.648 58.1202 692.617 56.9154 697.272 53.5543L722.235 35.5292C723.305 34.7636 724.173 33.7523 724.779 32.5658C725.385 31.3793 725.714 30.0463 725.743 28.6601C725.772 27.274 725.5 25.8682 724.947 24.5409C724.393 23.2137 723.571 21.9971 722.538 20.9763C714.915 13.4897 705.846 7.74467 696.05 4.1966C686.255 0.648524 676.002 -0.605035 666.105 0.535241C670.179 -8.41425 672.04 -18.4154 671.54 -28.6757C671.041 -38.936 668.194 -49.1734 663.226 -58.5769C662.543 -59.8458 661.609 -60.9751 660.49 -61.8864C659.37 -62.7976 658.092 -63.4689 656.744 -63.8537C655.395 -64.2384 654.01 -64.3274 652.682 -64.1144C651.355 -63.9013 650.118 -63.3914 649.058 -62.6201L624.11 -44.5753Z" fill="#00A788"/>
</svg>
