<svg width="480" height="88" viewBox="0 0 480 88" fill="none" xmlns="http://www.w3.org/2000/svg">
<path d="M42.7662 27.0013C43.5195 25.6467 44.331 24.3284 45.2008 23.0465C46.0686 24.3304 46.8802 25.6496 47.6355 27.0043C48.0814 27.8005 48.5003 28.6057 48.901 29.4255C49.3018 30.2454 49.7146 31.1419 50.0822 32.0178C50.721 33.6015 51.3748 35.3799 51.7846 36.6569C51.863 36.9076 51.9383 37.1553 52.0136 37.406C52.1492 37.8454 52.2758 38.2907 52.3963 38.7331C52.4686 39.0015 52.541 39.2728 52.6103 39.5471C52.6796 39.8213 52.7308 40.0307 52.791 40.2755C52.8513 40.5203 52.8875 40.6795 52.9297 40.8801C52.9477 40.9449 52.9628 41.0098 52.9779 41.0747L53.1135 41.7147C53.1586 41.927 53.2008 42.1394 53.243 42.3546C53.2852 42.5699 53.3274 42.7823 53.3666 42.9976C53.4057 43.2128 53.4359 43.3692 53.466 43.552C53.5082 43.7938 53.5504 44.0386 53.5895 44.2864L53.6528 44.6963L53.689 44.9352C53.689 45.0059 53.7071 45.0797 53.7191 45.1534V45.233C53.7372 45.351 53.7522 45.466 53.7673 45.584C53.7704 45.6242 53.7704 45.6647 53.7673 45.7049C53.7854 45.8199 53.7974 45.9349 53.8125 46.0529C53.8111 46.0647 53.8111 46.0765 53.8125 46.0883C53.8125 46.1207 53.8125 46.1561 53.8276 46.1885C53.8426 46.221 53.8276 46.2181 53.8276 46.2357C53.8487 46.4009 53.8667 46.5661 53.8848 46.7342C53.9029 46.9023 53.921 47.0674 53.9361 47.2355C53.9511 47.4036 53.9692 47.5481 53.9843 47.7074C53.9859 47.7181 53.9859 47.7291 53.9843 47.7398C54.0054 47.9698 54.0264 48.2028 54.0445 48.4388C54.0957 49.1053 54.1349 49.7777 54.159 50.4501C54.159 50.7745 54.1831 51.0989 54.1892 51.4263V51.4911C54.1892 51.8097 54.1892 52.1311 54.1892 52.4496V52.4732C54.1907 52.4987 54.1907 52.5243 54.1892 52.5499C54.1572 53.0654 53.9344 53.552 53.5624 53.9183C53.2913 54.1869 52.9507 54.3785 52.5771 54.4727L52.4747 54.4963L52.2788 54.5258C52.2065 54.5258 52.1342 54.5258 52.0588 54.5258H38.3037C38.2283 54.5258 38.156 54.5258 38.0837 54.5258L37.8878 54.4963L37.7854 54.4727C37.4113 54.3797 37.0705 54.1879 36.8001 53.9183C36.4269 53.5527 36.2039 53.0658 36.1733 52.5499C36.1733 52.5174 36.1733 52.485 36.1733 52.4496C36.1733 52.1311 36.1733 51.8097 36.1733 51.4911V51.4292C36.1733 51.1019 36.1914 50.7774 36.2035 50.453C36.2276 49.7806 36.2668 49.1082 36.318 48.4417C36.3421 48.1026 36.3722 47.7722 36.4054 47.439C36.4686 46.7695 36.544 46.106 36.6344 45.4424C36.6645 45.2065 36.7007 44.9765 36.7368 44.7435C36.771 44.5115 36.8071 44.2785 36.8453 44.0445C36.8845 43.8145 36.9206 43.5874 36.9628 43.3574C36.9869 43.207 37.017 43.0624 37.0472 42.9091C37.0472 42.856 37.0683 42.797 37.0773 42.7439L37.1135 42.5581C37.1376 42.4225 37.1647 42.2898 37.1918 42.1541L37.2189 42.0155L37.3093 41.582C37.3334 41.4699 37.3575 41.3578 37.3846 41.2428C37.4961 40.7297 37.6167 40.2195 37.7462 39.7063L37.9451 38.9395C37.9451 38.9041 37.9632 38.8629 37.9752 38.8275C38.0325 38.6092 38.0958 38.3939 38.156 38.1786C38.2163 37.9634 38.2946 37.7068 38.3609 37.4679C38.4272 37.229 38.5266 36.9311 38.611 36.6628C39.0088 35.4094 39.6475 33.6782 40.2713 32.1152C40.2713 32.1152 40.2713 32.1004 40.2713 32.0945C40.6549 31.1921 41.0567 30.3073 41.4765 29.4403C41.8964 28.6086 42.3263 27.7956 42.7662 27.0013ZM43.1097 47.3771C43.1089 46.8479 43.3158 46.3387 43.6875 45.9546C44.0593 45.5704 44.5676 45.3406 45.1074 45.3127H45.2973C45.8371 45.3406 46.3454 45.5704 46.7171 45.9546C47.0889 46.3387 47.2958 46.8479 47.295 47.3771V50.4147H49.9797C49.9556 49.8662 49.9225 49.3176 49.8833 48.775C49.8652 48.5597 49.8472 48.3414 49.8261 48.1291C49.7839 47.6631 49.7357 47.1942 49.6814 46.7312C49.6634 46.5778 49.6423 46.4186 49.6212 46.2652C49.591 46.0234 49.5579 45.7816 49.5217 45.5397C49.5037 45.3864 49.4796 45.2448 49.4555 45.0885C49.4313 44.9322 49.4193 44.8437 49.3982 44.7228C49.3711 44.5518 49.344 44.3807 49.3108 44.2126C49.2777 44.0445 49.2536 43.8735 49.2204 43.7024C49.1602 43.3603 49.0909 43.0212 49.0216 42.6849C48.9884 42.5139 48.9522 42.3458 48.9131 42.1777C48.8438 41.8533 48.7715 41.5318 48.6931 41.2104C48.6419 40.998 48.5907 40.7887 48.5334 40.5793C48.4611 40.2843 48.3767 39.9688 48.2924 39.665C48.2472 39.4999 48.202 39.3347 48.1507 39.1666C48.0302 38.739 47.8976 38.3084 47.7651 37.8808C47.7138 37.7186 47.6596 37.5564 47.6054 37.3942C47.4999 37.0727 47.3884 36.7483 47.2739 36.4239C47.1323 36.0199 46.9726 35.6158 46.828 35.2147C46.6592 34.7665 46.4784 34.33 46.2946 33.8788C45.9551 33.055 45.5905 32.242 45.2008 31.4398C44.8152 32.242 44.4516 33.055 44.1101 33.8788C43.9263 34.3182 43.7455 34.7635 43.5767 35.2147C43.42 35.6158 43.2754 36.0199 43.1308 36.4239C43.0163 36.7483 42.9018 37.0727 42.7993 37.3942C42.5985 37.984 42.4167 38.5738 42.2539 39.1637C42.2027 39.3318 42.1575 39.4969 42.1123 39.6621C42.0249 39.957 41.9436 40.2696 41.8713 40.5763C41.817 40.7857 41.7658 40.9951 41.7116 41.2074C41.6332 41.5289 41.5609 41.8503 41.4916 42.1747C41.4524 42.3429 41.4163 42.511 41.3831 42.682C41.3138 43.0182 41.2445 43.3574 41.1843 43.6995C41.1511 43.8705 41.121 44.0386 41.0939 44.2097C41.0668 44.3807 41.0336 44.5488 41.0065 44.7199C40.9854 44.8408 40.9673 44.9617 40.9492 45.0856C40.9312 45.2094 40.901 45.3805 40.8829 45.5368C40.8468 45.7786 40.8136 46.0204 40.7835 46.2623C40.7624 46.4156 40.7413 46.5749 40.7232 46.7283C40.669 47.1913 40.6178 47.6602 40.5786 48.1261C40.5575 48.3385 40.5394 48.5567 40.5214 48.772C40.4822 49.3176 40.4491 49.8632 40.4249 50.4117H43.1097V47.3771Z" fill="#00A887"/>
<path d="M118.319 64.2022C113.497 59.6134 111.087 53.8615 111.087 46.9467C111.087 40.0319 113.497 34.2801 118.319 29.6912C123.14 25.1023 129.283 22.8088 136.747 22.8108C145.144 22.8108 151.587 25.7029 156.077 31.4872C156.462 31.9709 156.824 32.4634 157.168 32.9618C157.636 33.6544 157.904 34.4583 157.943 35.2881C157.981 36.1178 157.79 36.9423 157.388 37.6739C156.986 38.4054 156.389 39.0167 155.66 39.4427C154.932 39.8686 154.099 40.0933 153.25 40.0929H152.789C152.022 40.0808 151.271 39.8803 150.604 39.5098C149.937 39.1393 149.376 38.6106 148.972 37.9724C148.516 37.2815 147.991 36.6364 147.405 36.0466C144.605 33.3059 141.05 31.9355 136.741 31.9355C132.386 31.9355 128.798 33.3383 125.978 36.1439C123.158 38.9496 121.749 42.5505 121.751 46.9467C121.751 51.512 123.118 55.1542 125.852 57.8733C128.585 60.5925 132.217 61.952 136.747 61.952C141.279 61.952 144.923 60.4293 147.679 57.3838C148.282 56.6917 148.822 55.9497 149.294 55.166C149.697 54.4607 150.283 53.8716 150.992 53.4575C151.701 53.0434 152.509 52.819 153.335 52.8067H153.636C157.252 52.8067 159.56 56.676 157.689 59.7048C157.214 60.4753 156.699 61.2215 156.146 61.9402C151.345 68.0352 144.88 71.0826 136.75 71.0826C129.284 71.0826 123.14 68.7892 118.319 64.2022Z" fill="white"/>
<path d="M166.406 66.2665V40.019C166.406 39.5579 166.499 39.1013 166.679 38.6753C166.859 38.2493 167.124 37.8623 167.457 37.5364C167.79 37.2105 168.186 36.952 168.621 36.7758C169.057 36.5996 169.523 36.5091 169.994 36.5095H185.06C188.57 36.5095 191.282 37.2704 193.196 38.7922C194.109 39.4837 194.844 40.3751 195.342 41.3948C195.839 42.4145 196.086 43.5341 196.062 44.6639C196.062 47.1865 195.106 49.1653 193.196 50.6006C192.375 51.2223 191.416 51.6466 190.397 51.8393V52.1666C191.685 52.427 192.923 52.889 194.061 53.535C196.503 55.2318 197.726 57.4928 197.728 60.3181C197.757 61.6302 197.47 62.9307 196.891 64.1145C196.312 65.2984 195.457 66.3326 194.395 67.1336C192.171 68.9031 189.058 69.7878 185.054 69.7878H169.988C169.517 69.7871 169.05 69.6953 168.615 69.5179C168.18 69.3405 167.784 69.0809 167.452 68.7538C167.119 68.4268 166.855 68.0388 166.676 67.6121C166.496 67.1853 166.405 66.728 166.406 66.2665ZM175.747 49.2292H183.747C184.189 49.2517 184.631 49.1885 185.049 49.0432C185.466 48.898 185.85 48.6736 186.178 48.3828C186.463 48.1113 186.69 47.7867 186.844 47.428C186.999 47.0694 187.079 46.6841 187.079 46.2948C187.079 45.9056 186.999 45.5202 186.844 45.1616C186.69 44.803 186.463 44.4783 186.178 44.2068C185.85 43.915 185.467 43.6897 185.049 43.5439C184.632 43.3981 184.189 43.3348 183.747 43.3575H175.738L175.747 49.2292ZM175.747 62.9281H184.407C185.465 62.9643 186.494 62.5901 187.272 61.887C187.63 61.5619 187.915 61.168 188.11 60.7301C188.305 60.2922 188.406 59.8196 188.406 59.3419C188.406 58.8642 188.305 58.3916 188.11 57.9537C187.915 57.5158 187.63 57.122 187.272 56.7968C186.495 56.0926 185.465 55.7174 184.407 55.7528H175.738L175.747 62.9281Z" fill="white"/>
<path d="M206.704 65.6355C203.173 62.2243 201.406 58.0601 201.404 53.1429C201.402 48.2257 203.169 44.0615 206.704 40.6503C210.236 37.2371 214.579 35.5305 219.733 35.5305C224.976 35.5305 229.243 37.2705 232.663 40.6178C235.977 43.8619 237.183 48.088 237.571 51.1316C237.637 51.6271 237.595 52.1308 237.446 52.6089C237.297 53.087 237.046 53.5286 236.709 53.9043C236.373 54.2799 235.958 54.581 235.493 54.7874C235.028 54.9938 234.523 55.1007 234.013 55.1011H211.064C211.392 57.2286 212.449 59.1838 214.062 60.6456C215.567 62.1114 217.604 62.9325 219.727 62.9282C221.919 62.9817 224.062 62.2908 225.793 60.9729C227.278 59.7103 229.18 59.015 231.147 59.0147H231.271C231.966 59.0154 232.646 59.2103 233.231 59.5764C233.817 59.9425 234.283 60.4646 234.576 61.0813C234.869 61.698 234.975 62.3837 234.884 63.0578C234.792 63.7319 234.505 64.3663 234.058 64.8865C230.502 68.799 225.725 70.7563 219.727 70.7582C214.573 70.7582 210.232 69.0507 206.704 65.6355ZM211.402 49.5567H227.733C227.379 47.8253 226.42 46.2686 225.021 45.1536C223.538 43.9423 221.653 43.3036 219.721 43.3576C217.786 43.3079 215.896 43.9353 214.391 45.1271C212.951 46.2668 211.905 47.8137 211.396 49.5567H211.402Z" fill="white"/>
<path d="M331.064 65.6355C327.533 62.2243 325.767 58.0601 325.767 53.1429C325.767 48.2257 327.533 44.0615 331.064 40.6503C334.6 37.2371 338.944 35.5305 344.096 35.5305C349.339 35.5305 353.603 37.2705 357.026 40.6178C360.34 43.8619 361.531 48.088 361.931 51.1316C361.998 51.6272 361.955 52.131 361.807 52.6094C361.659 53.0877 361.408 53.5295 361.071 53.9053C360.734 54.281 360.319 54.5821 359.854 54.7883C359.388 54.9945 358.883 55.1012 358.373 55.1011H335.43C335.764 57.23 336.826 59.1849 338.444 60.6456C339.947 62.112 341.983 62.9342 344.105 62.9312C346.297 62.9837 348.44 62.2929 350.171 60.9759C351.656 59.7137 353.556 59.0184 355.522 59.0176H355.646C356.341 59.0178 357.021 59.2123 357.607 59.5782C358.193 59.9441 358.66 60.4661 358.953 61.0829C359.246 61.6998 359.354 62.3857 359.262 63.06C359.17 63.7344 358.884 64.369 358.436 64.8894C354.88 68.802 350.104 70.7592 344.105 70.7612C338.943 70.7592 334.596 69.0507 331.064 65.6355ZM335.765 49.5567H352.093C351.74 47.8249 350.781 46.2677 349.381 45.1536C347.899 43.9423 346.015 43.3035 344.084 43.3576C342.148 43.309 340.258 43.9363 338.751 45.1271C337.314 46.2678 336.271 47.8147 335.765 49.5567Z" fill="#00A887"/>
<path d="M240.057 40.7475V40.0987C240.057 39.1468 240.444 38.2338 241.131 37.5607C241.819 36.8877 242.752 36.5095 243.724 36.5095H268.381C268.863 36.5091 269.34 36.6017 269.786 36.7819C270.231 36.9621 270.635 37.2264 270.976 37.5597C271.317 37.893 271.587 38.2888 271.772 38.7245C271.956 39.1601 272.051 39.6271 272.051 40.0987V40.7475C272.053 41.2203 271.96 41.6888 271.776 42.1262C271.593 42.5635 271.323 42.9611 270.982 43.2959C270.641 43.6308 270.235 43.8965 269.789 44.0776C269.343 44.2587 268.864 44.3517 268.381 44.3513H260.719V66.2046C260.719 67.1565 260.332 68.0694 259.645 68.7425C258.957 69.4156 258.024 69.7937 257.052 69.7937H255.057C254.575 69.7941 254.098 69.7016 253.653 69.5214C253.208 69.3412 252.803 69.0769 252.462 68.7435C252.121 68.4102 251.851 68.0144 251.666 67.5788C251.482 67.1431 251.387 66.6762 251.387 66.2046V44.3513H243.724C243.242 44.3513 242.764 44.258 242.318 44.0767C241.872 43.8954 241.467 43.6297 241.126 43.2949C240.785 42.9601 240.516 42.5627 240.332 42.1255C240.149 41.6883 240.055 41.22 240.057 40.7475Z" fill="white"/>
<path d="M272.714 74.3413V64.1579C272.714 63.6961 272.807 63.2389 272.988 62.8123C273.169 62.3858 273.433 61.9983 273.767 61.6721C274.101 61.3459 274.498 61.0873 274.934 60.9111C275.37 60.7349 275.837 60.6446 276.309 60.6454H278.053L287.006 26.8038C287.21 26.0337 287.67 25.3518 288.312 24.865C288.955 24.3782 289.745 24.1142 290.558 24.1142H305.874C306.687 24.1138 307.477 24.3778 308.119 24.8647C308.762 25.3516 309.221 26.0337 309.424 26.8038L318.379 60.6454H320.124C320.595 60.6454 321.061 60.7363 321.496 60.9129C321.932 61.0894 322.327 61.3482 322.66 61.6744C322.993 62.0006 323.257 62.3878 323.437 62.8139C323.617 63.2401 323.71 63.6967 323.709 64.1579V74.3413C323.71 74.8129 323.615 75.2799 323.431 75.7157C323.247 76.1515 322.977 76.5475 322.636 76.8811C322.296 77.2147 321.891 77.4794 321.446 77.6599C321.001 77.8405 320.524 77.9334 320.042 77.9334H317.713C317.231 77.9334 316.754 77.8405 316.309 77.6599C315.864 77.4794 315.46 77.2147 315.119 76.8811C314.778 76.5475 314.508 76.1515 314.324 75.7157C314.14 75.2799 314.046 74.8129 314.046 74.3413V69.779H282.38V74.3413C282.38 75.2925 281.995 76.2048 281.309 76.8782C280.622 77.5516 279.691 77.931 278.719 77.9334H276.393C275.911 77.9346 275.432 77.8425 274.986 77.6625C274.54 77.4825 274.134 77.2181 273.792 76.8844C273.451 76.5508 273.179 76.1544 272.994 75.718C272.809 75.2816 272.714 74.8138 272.714 74.3413ZM287.711 60.6454H308.707L301.375 33.2477H295.048L287.711 60.6454Z" fill="#00A887"/>
<path d="M367.693 66.1899V40.0987C367.693 39.1468 368.079 38.2338 368.767 37.5608C369.454 36.8877 370.387 36.5095 371.36 36.5095H373.354C373.836 36.5091 374.313 36.6017 374.759 36.7819C375.204 36.9621 375.609 37.2264 375.949 37.5597C376.29 37.893 376.561 38.2888 376.745 38.7245C376.929 39.1601 377.024 39.6271 377.024 40.0987V48.9048H381.023L388.924 38.0195C389.263 37.5528 389.712 37.1722 390.233 36.9096C390.753 36.6469 391.33 36.5098 391.916 36.5095H393.296C393.968 36.5082 394.627 36.6875 395.203 37.028C395.778 37.3684 396.246 37.8569 396.557 38.4402C396.868 39.0235 397.009 39.6792 396.966 40.3357C396.922 40.9922 396.695 41.6243 396.309 42.1631L389.378 51.8393L397.659 64.2257C398.021 64.7671 398.227 65.3943 398.255 66.0409C398.283 66.6876 398.132 67.3296 397.818 67.899C397.503 68.4684 397.037 68.944 396.47 69.2755C395.902 69.607 395.253 69.782 394.591 69.7819H392.702C392.091 69.7817 391.49 69.6321 390.953 69.3468C390.417 69.0614 389.961 68.6494 389.629 68.1481L382.023 56.7378H377.024V66.1958C377.024 66.6673 376.929 67.1343 376.745 67.5699C376.561 68.0056 376.29 68.4014 375.949 68.7347C375.609 69.068 375.204 69.3323 374.759 69.5125C374.313 69.6927 373.836 69.7853 373.354 69.7849H371.36C370.878 69.7849 370.4 69.6919 369.955 69.5111C369.51 69.3304 369.105 69.0655 368.765 68.7316C368.424 68.3977 368.154 68.0013 367.97 67.5652C367.786 67.129 367.692 66.6617 367.693 66.1899Z" fill="#00A887"/>
<path d="M406.683 65.6355C403.132 62.2243 401.356 58.0601 401.356 53.1429C401.356 48.2257 403.133 44.0615 406.686 40.6503C410.242 37.2371 414.685 35.5305 420.017 35.5305C425.304 35.5305 429.736 37.2371 433.314 40.6503C436.891 44.0634 438.68 48.2276 438.68 53.1429C438.68 58.0582 436.891 62.2224 433.314 65.6355C429.736 69.0487 425.304 70.7563 420.017 70.7582C414.685 70.7582 410.241 69.0507 406.683 65.6355ZM413.614 46.1003C411.878 47.9268 411.011 50.2743 411.013 53.1429C411.015 56.0114 411.882 58.36 413.614 60.1884C414.429 61.0526 415.419 61.7421 416.52 62.2137C417.621 62.6854 418.81 62.9288 420.012 62.9288C421.214 62.9288 422.403 62.6854 423.504 62.2137C424.605 61.7421 425.595 61.0526 426.411 60.1884C428.144 58.3619 429.011 56.0134 429.011 53.1429C429.011 50.2724 428.144 47.9249 426.411 46.1003C425.595 45.2354 424.606 44.5451 423.505 44.073C422.404 43.6009 421.214 43.3571 420.012 43.3571C418.81 43.3571 417.621 43.6009 416.519 44.073C415.418 44.5451 414.429 45.2354 413.614 46.1003Z" fill="#00A887"/>
<path d="M444.007 78.5851V40.0986C444.007 39.627 444.102 39.16 444.287 38.7244C444.471 38.2887 444.742 37.8929 445.083 37.5596C445.423 37.2263 445.828 36.962 446.273 36.7818C446.719 36.6016 447.196 36.509 447.677 36.5094H449.672C450.645 36.5094 451.577 36.8876 452.265 37.5607C452.953 38.2337 453.339 39.1467 453.339 40.0986V40.7503H453.671C454.432 39.7856 455.305 38.9099 456.271 38.1403C458.593 36.4253 461.428 35.5079 464.337 35.5303C468.779 35.5303 472.495 37.1504 475.486 40.3905C478.477 43.6307 479.982 47.8814 480 53.1427C480 58.4079 478.5 62.6596 475.501 65.8978C472.502 69.136 468.786 70.756 464.352 70.758C461.443 70.7804 458.608 69.863 456.286 68.148C455.32 67.3784 454.447 66.5027 453.686 65.538H453.354V78.5851C453.354 79.537 452.968 80.4499 452.28 81.123C451.593 81.7961 450.66 82.1742 449.687 82.1742H447.693C447.209 82.1765 446.731 82.0854 446.284 81.9061C445.837 81.7268 445.43 81.4628 445.088 81.1293C444.745 80.7957 444.474 80.3993 444.288 79.9627C444.103 79.5261 444.007 79.0579 444.007 78.5851ZM455.738 45.9349C454.131 47.6553 453.327 50.0579 453.327 53.1427C453.327 56.2275 454.131 58.6311 455.738 60.3534C457.345 62.0698 459.433 62.928 462.002 62.928C463.138 62.9595 464.266 62.7417 465.304 62.2905C466.342 61.8394 467.264 61.1664 468.001 60.3209C469.556 58.5809 470.335 56.1882 470.337 53.1427C470.339 50.0972 469.56 47.7054 468.001 45.9674C467.264 45.122 466.342 44.4489 465.304 43.9973C464.266 43.5457 463.138 43.3271 462.002 43.3574C459.427 43.3574 457.339 44.2166 455.738 45.9349Z" fill="#00A887"/>
<path d="M8.00129 1.07335C8.7797 0.973842 9.56804 0.973842 10.3465 1.07335C10.4744 1.09004 10.6023 1.10674 10.7302 1.12969C11.4551 1.24794 12.1757 1.38288 12.892 1.53451C13.2289 1.60546 13.5636 1.68058 13.8983 1.7557C14.233 1.83082 14.5379 1.90594 14.8534 1.98524C24.6653 4.4586 33.5268 9.68001 40.3518 17.0095L40.388 17.0492C41.5457 18.3012 42.65 19.6137 43.6734 20.9638L43.797 21.1266L41.4732 24.6531L41.2174 24.3088L41.1598 24.2295L41.0148 24.0334C40.0919 22.7486 39.1006 21.5123 38.045 20.3295C31.7731 13.3246 23.5079 8.31121 14.3076 5.9312C14.022 5.85607 13.7384 5.78513 13.4549 5.72252C13.1713 5.65992 12.8728 5.5848 12.5808 5.51385C12.5488 5.51385 12.5189 5.50133 12.4912 5.49507C12.327 5.4596 12.1671 5.42621 12.0051 5.38865L11.519 5.29266C11.0351 5.19459 10.5447 5.10695 10.0544 5.02557C9.31719 4.90329 8.5616 4.94063 7.84076 5.13495C7.11992 5.32927 6.45136 5.67585 5.88211 6.1503C5.29687 6.63367 4.82652 7.23629 4.50394 7.91605C4.18136 8.59581 4.01432 9.33632 4.0145 10.0858V28.91C4.02522 34.2825 6.21195 39.4317 10.0953 43.2287C13.9787 47.0257 19.2418 49.1607 24.7308 49.1656C25.253 49.1823 25.7481 49.397 26.1114 49.7644C26.4748 50.1318 26.6779 50.6231 26.6779 51.1344C26.6779 51.6458 26.4748 52.1371 26.1114 52.5045C25.7481 52.8719 25.253 53.0866 24.7308 53.1032C22.7482 53.1049 20.8472 53.8764 19.445 55.2484C18.0429 56.6203 17.2541 58.4808 17.2519 60.4213V78.8907C17.2525 79.0922 17.2639 79.2935 17.286 79.4938C17.2988 79.5898 17.3137 79.6879 17.3308 79.7818C17.3478 79.8736 17.367 79.9696 17.3883 80.0614C17.3883 80.0614 17.3883 80.0718 17.3883 80.076C17.4054 80.1469 17.4246 80.22 17.4459 80.2847C17.4672 80.3493 17.4843 80.4161 17.5056 80.4933C17.8328 81.4943 18.4624 82.3747 19.3114 83.0182C19.9258 83.4931 20.6436 83.8233 21.4092 83.9832C22.1748 84.1432 22.9677 84.1286 23.7267 83.9406L23.8695 83.903L23.9463 83.8863L24.2554 83.8049L24.5432 83.7277C24.6775 83.6922 24.8076 83.6547 24.9419 83.615C25.0762 83.5754 25.2489 83.5274 25.4024 83.4794C25.43 83.4737 25.457 83.466 25.4834 83.4564C25.6774 83.4001 25.8714 83.3375 26.0655 83.2749L26.3277 83.1873C26.494 83.1351 26.6581 83.0767 26.8223 83.0203C26.8884 82.9995 26.9545 82.9744 27.0163 82.9515C27.1933 82.891 27.3659 82.8263 27.5386 82.7616C27.5813 82.7449 27.6239 82.7324 27.6666 82.7115C27.8798 82.6364 28.093 82.555 28.2891 82.4715C28.5257 82.3797 28.7581 82.2837 28.9905 82.1836C29.2229 82.0834 29.4425 81.9874 29.6706 81.8873L29.741 81.8539C29.9542 81.762 30.1674 81.664 30.3678 81.5617C30.5682 81.4595 30.8219 81.3531 31.0479 81.2299C31.2738 81.1068 31.4956 81.0004 31.7173 80.8815C31.939 80.7625 32.1607 80.6457 32.3803 80.5184C32.5999 80.3911 32.8195 80.2721 33.0327 80.1448C33.2097 80.0426 33.3845 79.9362 33.5593 79.8298C34.0838 79.5084 34.5969 79.1745 35.0986 78.8281C35.4752 78.5694 35.8483 78.3016 36.2179 78.0248L36.5846 77.7493C36.8262 77.5629 37.065 77.373 37.3009 77.1796C37.5397 76.9856 37.7742 76.7915 38.0045 76.5912C38.2347 76.3909 38.4671 76.1905 38.6952 75.9819C38.9234 75.7732 39.1451 75.5645 39.3668 75.3559C39.4414 75.2849 39.5182 75.2119 39.58 75.1472L39.7932 74.9385C40.0831 74.6526 40.3667 74.3605 40.646 74.0621C40.7739 73.9244 40.904 73.7846 41.0297 73.6448C41.9279 72.6647 42.7652 71.6327 43.5369 70.5543C43.6175 70.4436 43.7089 70.3409 43.8098 70.2476C43.9105 70.1564 44.0197 70.0747 44.136 70.0035C44.2756 69.9187 44.4262 69.8528 44.5837 69.8073C44.7755 69.7481 44.9753 69.7178 45.1764 69.7176C45.704 69.7168 46.2105 69.92 46.5856 70.2831C46.673 70.3661 46.7522 70.4569 46.8223 70.5543C46.899 70.6566 46.9715 70.763 47.0355 70.8632C47.0994 70.9633 47.1847 71.0718 47.2636 71.1678C47.4128 71.3765 47.5685 71.5706 47.7262 71.7688C47.884 71.967 48.0396 72.1632 48.1996 72.3594C48.6792 72.9436 49.1803 73.5133 49.6919 74.0621C49.822 74.1998 49.9499 74.3355 50.0821 74.4794C50.2142 74.6234 50.3464 74.7486 50.4808 74.8822C50.7473 75.1493 51.0201 75.4101 51.2952 75.6647C51.6619 76.0111 52.0371 76.3457 52.4208 76.6684C52.6106 76.8333 52.8046 76.996 53.0007 77.1525C53.1969 77.309 53.3888 77.4697 53.587 77.622C53.7107 77.7201 53.8343 77.8161 53.9601 77.9079C54.5848 78.3837 55.2265 78.8386 55.8789 79.2663C56.1418 79.4402 56.4069 79.6093 56.6741 79.7734C56.8681 79.8965 57.0664 80.0155 57.2647 80.1323C57.2865 80.1464 57.3093 80.159 57.3329 80.1699C57.5461 80.2972 57.7593 80.4203 57.9725 80.5371C58.1857 80.654 58.4117 80.7834 58.6334 80.9002C58.8551 81.0171 59.0811 81.136 59.3071 81.2487C59.5331 81.3614 59.7335 81.4574 59.9467 81.5659C59.9583 81.5742 59.9713 81.5805 59.9851 81.5847C60.1855 81.6828 60.3838 81.7746 60.5863 81.8664L60.678 81.906C60.8912 82.002 61.1043 82.0938 61.3175 82.1856L61.3708 82.2065C61.599 82.3046 61.8292 82.4006 62.0595 82.4903C62.2897 82.58 62.4709 82.6552 62.6799 82.7303C62.7223 82.7491 62.7657 82.7658 62.8099 82.7804C62.9613 82.8388 63.1127 82.893 63.2662 82.9452C63.3621 82.9848 63.4623 83.0182 63.5625 83.0537C63.6627 83.0892 63.797 83.1351 63.9164 83.1706C64.0358 83.206 64.1914 83.2624 64.33 83.3083C64.5432 83.3792 64.7713 83.4481 64.9952 83.517C65.1082 83.5524 65.2233 83.5858 65.3384 83.6171C65.5047 83.6672 65.671 83.7152 65.8416 83.7611L65.9866 83.7987L66.413 83.9093L66.5132 83.9322L66.6347 83.9635C67.3933 84.1516 68.1859 84.1663 68.9512 84.0064C69.7165 83.8464 70.4339 83.5162 71.0479 83.0412C71.898 82.3983 72.5285 81.5178 72.8558 80.5163C72.8771 80.4516 72.8963 80.3848 72.9155 80.3076C72.9346 80.2304 72.956 80.1636 72.973 80.0989C72.9742 80.0941 72.9742 80.0891 72.973 80.0843C72.9943 79.9925 73.0135 79.8986 73.0306 79.8047C73.0477 79.7101 73.0626 79.6141 73.0754 79.5167C73.0975 79.3171 73.1089 79.1165 73.1095 78.9158V60.4213C73.1067 58.4867 72.3224 56.6316 70.9278 55.2607C69.5331 53.8898 67.6412 53.1143 65.6646 53.1032C65.1425 53.0866 64.6474 52.8719 64.2841 52.5045C63.9207 52.1371 63.7175 51.6458 63.7175 51.1344C63.7175 50.6231 63.9207 50.1318 64.2841 49.7644C64.6474 49.397 65.1425 49.1823 65.6646 49.1656C71.1563 49.1601 76.4214 47.0226 80.3048 43.222C84.1882 39.4215 86.3726 34.2683 86.3788 28.8933V10.0691C86.379 9.31962 86.212 8.57912 85.8894 7.89935C85.5668 7.21959 85.0965 6.61697 84.5112 6.13361C83.9417 5.65886 83.2728 5.31211 82.5516 5.11778C81.8304 4.92346 81.0743 4.88628 80.3368 5.00887C79.8465 5.09025 79.3583 5.1779 78.8722 5.27597L78.384 5.37196L77.9 5.47838C77.8698 5.48285 77.8399 5.48912 77.8104 5.49716C77.5184 5.56185 77.2263 5.62862 76.9363 5.70583C76.6464 5.78304 76.365 5.84564 76.0836 5.9145C66.8842 8.29513 58.6199 13.3084 52.3484 20.3128C51.2932 21.499 50.3026 22.7389 49.3807 24.0271C49.3295 24.0918 49.2826 24.1565 49.2357 24.2232L49.1781 24.3025L48.9223 24.6469L46.6027 21.1308L46.7242 20.968C47.7497 19.6179 48.8562 18.2991 50.0117 17.0533L50.048 17.0137C56.873 9.68418 65.7344 4.46277 75.5463 1.98941C75.864 1.91012 76.1859 1.83291 76.5014 1.75987C76.8169 1.68684 77.1687 1.60963 77.5056 1.53868C78.2162 1.38844 78.9369 1.2535 79.6674 1.13386C79.7953 1.11091 79.9232 1.09422 80.0512 1.07752L80.3347 1.04622C80.4307 1.04622 80.5245 1.02953 80.6204 1.02535H80.7931C80.9402 1.02535 81.083 1.01492 81.2195 1.01492H81.2877C81.3645 1.01492 81.4391 1.01492 81.5158 1.01492L81.8079 1.02952C81.9998 1.04205 82.1938 1.06083 82.3878 1.08796C82.488 1.08796 82.5839 1.113 82.6841 1.12969C82.9293 1.17142 83.1745 1.2215 83.4175 1.27993C83.6606 1.33836 83.8972 1.40931 84.1339 1.4886C84.3236 1.55329 84.5091 1.62006 84.6946 1.69727C84.9398 1.79952 85.1807 1.90594 85.4173 2.03114C86.019 2.33739 86.5839 2.70833 87.1016 3.1371C88.1328 3.98844 88.9618 5.04978 89.5307 6.24706C90.0996 7.44433 90.3947 8.7487 90.3955 10.0691V28.8933C90.3955 39.3498 83.36 48.7525 73.2225 51.9472C74.4651 52.9986 75.4616 54.2998 76.144 55.7621C76.8265 57.2245 77.1789 58.8136 77.1773 60.4213V78.8928C77.1773 79.3326 77.146 79.7719 77.0835 80.2074C77.043 80.462 76.9982 80.7145 76.9385 80.9649C76.9193 81.0526 76.8958 81.1423 76.8724 81.2278C76.8063 81.472 76.7317 81.7141 76.6443 81.9519C76.6452 81.9575 76.6452 81.9631 76.6443 81.9686C76.5696 82.1773 76.4908 82.3672 76.4034 82.5592C75.5173 84.4973 73.9723 86.0749 72.0314 87.0234C70.0905 87.9719 67.8737 88.2327 65.7584 87.7613L65.703 87.7488H65.6902L65.3214 87.657L64.9568 87.5589C64.7074 87.4921 64.4601 87.4233 64.2127 87.3502C63.9654 87.2772 63.7181 87.2042 63.4751 87.1291C63.2321 87.0539 62.9954 86.9767 62.7566 86.8974H62.7374C62.4944 86.8153 62.2535 86.7319 62.0147 86.647C61.8015 86.5677 61.5649 86.4843 61.3431 86.4008L61.2664 86.3716C61.034 86.2839 60.8037 86.1942 60.5735 86.1003C60.4115 86.0356 60.2473 85.9688 60.0874 85.8916C59.9637 85.8415 59.838 85.7894 59.7164 85.7351L59.6397 85.7017C59.4265 85.6099 59.2133 85.5139 59.0001 85.42H58.9788C58.7656 85.3178 58.5311 85.2114 58.3072 85.1049C58.0834 84.9985 57.851 84.8858 57.625 84.7711C57.399 84.6563 57.1709 84.5436 56.947 84.4247C56.7232 84.3057 56.4993 84.1847 56.2776 84.0637C55.1071 83.42 53.9707 82.7187 52.8728 81.9624C52.5104 81.7092 52.1508 81.4504 51.794 81.1861C51.6405 81.0713 51.4892 80.9608 51.3399 80.8439C51.0393 80.6123 50.7409 80.3786 50.4466 80.1386L50.0202 79.7755C49.4745 79.315 48.9422 78.842 48.4234 78.3565C48.2507 78.1959 48.0802 78.031 47.9096 77.8662C47.771 77.7347 47.6367 77.6012 47.5045 77.4655C46.7001 76.6601 45.9311 75.8191 45.1977 74.9427C44.4686 75.8191 43.7032 76.6607 42.9016 77.4676L42.4965 77.8683C42.326 78.0331 42.1554 78.198 41.9827 78.3586C41.4625 78.8455 40.9302 79.3185 40.3859 79.7776L39.9595 80.1407C39.6653 80.3806 39.3668 80.6143 39.0662 80.846C38.917 80.9628 38.7656 81.0734 38.6121 81.1882C38.0023 81.6417 37.3805 82.0771 36.7466 82.4945C36.5334 82.6343 36.3202 82.7699 36.107 82.9118C35.8938 83.0537 35.6806 83.1789 35.4674 83.3104C35.2542 83.4418 35.041 83.5691 34.8108 83.6964C34.5805 83.8237 34.3716 83.9489 34.1499 84.0699C33.9708 84.168 33.7917 84.2661 33.6105 84.3621C33.344 84.504 33.0754 84.6417 32.8046 84.7794C32.5914 84.89 32.3633 85.0006 32.1416 85.1049L32.1138 85.1196C31.9134 85.2176 31.7109 85.3094 31.5084 85.3992L31.4167 85.443C31.2035 85.539 31.001 85.6308 30.7899 85.7205L30.7131 85.7539C30.5916 85.8082 30.4658 85.8603 30.3422 85.9104C30.1823 85.9793 30.0181 86.046 29.8561 86.1191C29.6258 86.213 29.3956 86.3027 29.1632 86.3904L29.0864 86.4196C28.8732 86.503 28.6387 86.5865 28.4149 86.6658C28.191 86.7451 27.9437 86.8327 27.7049 86.9099L27.6367 86.935C27.4235 87.008 27.1847 87.0831 26.9566 87.1436H26.946C26.705 87.2188 26.4599 87.2918 26.2168 87.3523C25.9738 87.4128 25.7222 87.4921 25.4728 87.561C25.2233 87.6299 25.0059 87.6862 24.7692 87.7425C24.7372 87.7425 24.7052 87.7592 24.6711 87.7676C22.35 88.288 19.9135 87.9229 17.8577 86.7467C15.802 85.5704 14.2816 83.6715 13.6062 81.4365C13.5721 81.3155 13.538 81.1924 13.506 81.0672C13.4357 80.7834 13.3802 80.4954 13.3355 80.2054C13.2729 79.7691 13.2416 79.3291 13.2417 78.8886V60.4213C13.2383 58.8148 13.5885 57.2264 14.2683 55.7641C14.9482 54.3019 15.9418 53 17.1815 51.9472C7.0355 48.7525 1.32941e-06 39.3498 1.32941e-06 28.8933V10.0691C-0.000722203 8.74645 0.2939 7.43959 0.863238 6.24003C1.43258 5.04046 2.26288 3.97717 3.29603 3.12458C3.81371 2.69581 4.37861 2.32487 4.98028 2.01862C5.21693 1.8976 5.45784 1.787 5.70302 1.68475C5.8885 1.60963 6.07398 1.54285 6.26373 1.47608C6.50037 1.39678 6.73915 1.32792 6.98006 1.26741C7.22098 1.20689 7.46828 1.1589 7.71133 1.11717C7.81153 1.10256 7.90747 1.08587 8.00768 1.07543L8.00129 1.07335Z" fill="white"/>
</svg>
