<svg width="483" height="89" viewBox="0 0 483 89" fill="none" xmlns="http://www.w3.org/2000/svg">
<path d="M43.0337 27.3093C43.7917 25.9393 44.6083 24.606 45.4836 23.3096C46.3568 24.608 47.1734 25.9423 47.9334 27.3123C48.3822 28.1176 48.8036 28.9319 49.2069 29.7611C49.6102 30.5902 50.0255 31.497 50.3954 32.3828C51.0382 33.9845 51.6962 35.783 52.1085 37.0745C52.1874 37.3281 52.2632 37.5786 52.339 37.8321C52.4754 38.2766 52.6028 38.7269 52.724 39.1743C52.7968 39.4458 52.8696 39.7202 52.9393 39.9976C53.009 40.2749 53.0606 40.4867 53.1212 40.7343C53.1819 40.9818 53.2183 41.1429 53.2607 41.3457C53.2789 41.4113 53.2941 41.4769 53.3092 41.5426L53.4456 42.1898C53.4911 42.4046 53.5336 42.6193 53.576 42.837C53.6185 43.0548 53.6609 43.2695 53.7003 43.4872C53.7398 43.705 53.7701 43.8631 53.8004 44.048C53.8428 44.2926 53.8853 44.5401 53.9247 44.7907L53.9884 45.2053L54.0248 45.4469C54.0248 45.5184 54.043 45.593 54.0551 45.6676V45.7481C54.0733 45.8674 54.0884 45.9837 54.1036 46.103C54.1068 46.1437 54.1068 46.1846 54.1036 46.2253C54.1218 46.3417 54.1339 46.458 54.1491 46.5773C54.1477 46.5892 54.1477 46.6012 54.1491 46.6131C54.1491 46.6459 54.1491 46.6817 54.1642 46.7145C54.1794 46.7473 54.1642 46.7443 54.1642 46.7622C54.1855 46.9292 54.2037 47.0963 54.2218 47.2663C54.24 47.4363 54.2582 47.6033 54.2734 47.7733C54.2886 47.9434 54.3067 48.0895 54.3219 48.2506C54.3236 48.2614 54.3236 48.2725 54.3219 48.2834C54.3431 48.516 54.3643 48.7516 54.3825 48.9903C54.4341 49.6643 54.4735 50.3444 54.4978 51.0244C54.4978 51.3525 54.522 51.6806 54.5281 52.0117V52.0773C54.5281 52.3994 54.5281 52.7246 54.5281 53.0467V53.0705C54.5296 53.0964 54.5296 53.1223 54.5281 53.1481C54.496 53.6695 54.2718 54.1615 53.8974 54.532C53.6246 54.8037 53.2819 54.9975 52.906 55.0928L52.8029 55.1167L52.6058 55.1465C52.533 55.1465 52.4602 55.1465 52.3844 55.1465H38.5433C38.4675 55.1465 38.3947 55.1465 38.322 55.1465L38.1249 55.1167L38.0218 55.0928C37.6454 54.9986 37.3024 54.8047 37.0303 54.532C36.6548 54.1623 36.4304 53.6698 36.3997 53.1481C36.3997 53.1153 36.3997 53.0825 36.3997 53.0467C36.3997 52.7246 36.3997 52.3994 36.3997 52.0773V52.0147C36.3997 51.6836 36.4179 51.3555 36.43 51.0274C36.4542 50.3474 36.4937 49.6673 36.5452 48.9932C36.5695 48.6502 36.5998 48.3162 36.6331 47.9791C36.6968 47.3021 36.7726 46.631 36.8636 45.9599C36.8939 45.7213 36.9303 45.4886 36.9667 45.253C37.001 45.0184 37.0374 44.7827 37.0758 44.5461C37.1152 44.3135 37.1516 44.0838 37.1941 43.8511C37.2183 43.699 37.2486 43.5529 37.279 43.3978C37.279 43.3441 37.3002 43.2844 37.3093 43.2307L37.3457 43.0428C37.3699 42.9056 37.3972 42.7714 37.4245 42.6342L37.4518 42.494L37.5427 42.0556C37.567 41.9422 37.5912 41.8289 37.6185 41.7126C37.7307 41.1936 37.852 40.6776 37.9824 40.1586L38.1825 39.3831C38.1825 39.3473 38.2007 39.3056 38.2128 39.2698C38.2704 39.0491 38.3341 38.8313 38.3947 38.6136C38.4554 38.3959 38.5342 38.1364 38.6009 37.8948C38.6676 37.6532 38.7677 37.3519 38.8526 37.0805C39.2528 35.8129 39.8956 34.0621 40.5232 32.4812C40.5232 32.4812 40.5232 32.4663 40.5232 32.4604C40.9093 31.5477 41.3135 30.6529 41.736 29.776C42.1585 28.9349 42.591 28.1126 43.0337 27.3093ZM43.3794 47.9165C43.3786 47.3814 43.5868 46.8664 43.9608 46.4778C44.3349 46.0893 44.8464 45.8569 45.3896 45.8286H45.5806C46.1238 45.8569 46.6353 46.0893 47.0094 46.4778C47.3834 46.8664 47.5916 47.3814 47.5908 47.9165V50.9886H50.2924C50.2681 50.4339 50.2347 49.8791 50.1953 49.3303C50.1771 49.1126 50.1589 48.8918 50.1377 48.6771C50.0953 48.2058 50.0468 47.7316 49.9922 47.2633C49.974 47.1082 49.9528 46.9471 49.9315 46.792C49.9012 46.5475 49.8679 46.3029 49.8315 46.0583C49.8133 45.9032 49.789 45.76 49.7648 45.602C49.7405 45.4439 49.7284 45.3544 49.7072 45.2321C49.6799 45.0591 49.6526 44.8861 49.6192 44.7161C49.5859 44.5461 49.5616 44.3731 49.5283 44.2001C49.4676 43.8541 49.3979 43.5111 49.3282 43.1711C49.2948 42.9981 49.2584 42.8281 49.219 42.6581C49.1493 42.33 49.0765 42.0049 48.9977 41.6798C48.9461 41.465 48.8946 41.2533 48.837 41.0415C48.7642 40.7432 48.6793 40.4241 48.5944 40.1168C48.5489 39.9498 48.5035 39.7828 48.4519 39.6128C48.3306 39.1803 48.1972 38.7448 48.0638 38.3123C48.0123 38.1483 47.9577 37.9842 47.9031 37.8202C47.797 37.4951 47.6848 37.167 47.5696 36.8389C47.4271 36.4303 47.2664 36.0217 47.1209 35.616C46.9511 35.1627 46.7692 34.7212 46.5842 34.2649C46.2426 33.4317 45.8757 32.6095 45.4836 31.7982C45.0955 32.6095 44.7296 33.4317 44.386 34.2649C44.201 34.7093 44.0191 35.1597 43.8493 35.616C43.6917 36.0217 43.5461 36.4303 43.4006 36.8389C43.2854 37.167 43.1702 37.4951 43.0671 37.8202C42.8649 38.4167 42.682 39.0133 42.5183 39.6098C42.4667 39.7798 42.4212 39.9468 42.3758 40.1139C42.2878 40.4121 42.206 40.7283 42.1332 41.0385C42.0786 41.2503 42.0271 41.462 41.9725 41.6768C41.8937 42.0019 41.8209 42.327 41.7512 42.6551C41.7118 42.8251 41.6754 42.9951 41.642 43.1681C41.5723 43.5081 41.5025 43.8511 41.4419 44.1971C41.4085 44.3701 41.3782 44.5401 41.3509 44.7131C41.3237 44.8861 41.2903 45.0561 41.263 45.2291C41.2418 45.3514 41.2236 45.4737 41.2054 45.599C41.1872 45.7242 41.1569 45.8972 41.1387 46.0553C41.1023 46.2999 41.069 46.5445 41.0386 46.7891C41.0174 46.9442 40.9962 47.1052 40.978 47.2603C40.9234 47.7286 40.8719 48.2028 40.8325 48.6741C40.8112 48.8888 40.7931 49.1096 40.7749 49.3273C40.7354 49.8791 40.7021 50.4309 40.6778 50.9857H43.3794V47.9165Z" fill="#00A887"/>
<path d="M119.058 64.9324C114.207 60.2914 111.781 54.4742 111.781 47.4809C111.781 40.4875 114.207 34.6704 119.058 30.0293C123.91 25.3883 130.091 23.0688 137.602 23.0708C146.051 23.0708 152.535 25.9958 157.053 31.8458C157.441 32.3349 157.804 32.833 158.15 33.3371C158.621 34.0376 158.891 34.8506 158.93 35.6898C158.969 36.529 158.776 37.3628 158.372 38.1027C157.967 38.8426 157.367 39.4608 156.634 39.8916C155.901 40.3224 155.062 40.5496 154.208 40.5492H153.745C152.973 40.537 152.217 40.3342 151.545 39.9595C150.874 39.5848 150.309 39.0501 149.903 38.4047C149.444 37.7059 148.916 37.0535 148.326 36.457C145.509 33.6851 141.932 32.2991 137.596 32.2991C133.214 32.2991 129.604 33.7179 126.766 36.5554C123.928 39.3929 122.51 43.0347 122.512 47.4809C122.512 52.098 123.887 55.7816 126.638 58.5316C129.389 61.2816 133.044 62.6566 137.602 62.6566C142.162 62.6566 145.829 61.1166 148.602 58.0365C149.209 57.3366 149.753 56.5861 150.227 55.7935C150.633 55.0803 151.222 54.4844 151.936 54.0656C152.65 53.6468 153.463 53.4199 154.293 53.4074H154.597C158.235 53.4074 160.558 57.3207 158.675 60.3839C158.197 61.1632 157.679 61.9178 157.122 62.6447C152.291 68.8089 145.786 71.891 137.605 71.891C130.092 71.891 123.91 69.5714 119.058 64.9324Z" fill="#951BC4"/>
<path d="M167.446 67.0201V40.4744C167.446 40.0081 167.539 39.5463 167.721 39.1154C167.902 38.6846 168.168 38.2932 168.504 37.9636C168.839 37.634 169.237 37.3726 169.675 37.1944C170.113 37.0162 170.583 36.9247 171.057 36.9251H186.217C189.748 36.9251 192.477 37.6946 194.403 39.2336C195.322 39.933 196.062 40.8345 196.563 41.8658C197.063 42.8971 197.311 44.0295 197.287 45.1721C197.287 47.7233 196.326 49.7246 194.403 51.1762C193.577 51.805 192.612 52.2341 191.587 52.4289V52.76C192.883 53.0233 194.128 53.4906 195.274 54.1439C197.732 55.86 198.962 58.1467 198.964 61.0041C198.993 62.3311 198.704 63.6463 198.122 64.8436C197.539 66.0409 196.679 67.0868 195.61 67.897C193.373 69.6866 190.239 70.5814 186.211 70.5814H171.051C170.576 70.5806 170.107 70.4878 169.669 70.3084C169.231 70.129 168.833 69.8664 168.498 69.5356C168.163 69.2049 167.898 68.8125 167.717 68.3809C167.537 67.9492 167.445 67.4868 167.446 67.0201ZM176.845 49.7893H184.895C185.34 49.8119 185.785 49.748 186.205 49.6011C186.625 49.4542 187.011 49.2273 187.342 48.9332C187.629 48.6586 187.857 48.3303 188.012 47.9676C188.168 47.6049 188.248 47.2152 188.248 46.8215C188.248 46.4278 188.168 46.0381 188.012 45.6754C187.857 45.3127 187.629 44.9844 187.342 44.7098C187.012 44.4147 186.626 44.1868 186.206 44.0394C185.786 43.8919 185.34 43.8278 184.895 43.8508H176.836L176.845 49.7893ZM176.845 63.6437H185.559C186.624 63.6803 187.66 63.3019 188.443 62.5908C188.802 62.262 189.089 61.8637 189.286 61.4208C189.482 60.9779 189.583 60.4999 189.583 60.0168C189.583 59.5337 189.482 59.0557 189.286 58.6128C189.089 58.1699 188.802 57.7716 188.443 57.4428C187.66 56.7306 186.624 56.3511 185.559 56.3869H176.836L176.845 63.6437Z" fill="#951BC4"/>
<path d="M207.996 66.382C204.443 62.9321 202.665 58.7206 202.663 53.7475C202.661 48.7744 204.439 44.5629 207.996 41.113C211.55 37.661 215.92 35.9351 221.107 35.9351C226.383 35.9351 230.676 37.6948 234.117 41.0802C237.452 44.3611 238.665 48.6352 239.056 51.7133C239.123 52.2145 239.08 52.7239 238.93 53.2074C238.781 53.691 238.528 54.1376 238.189 54.5175C237.85 54.8974 237.433 55.2019 236.965 55.4106C236.497 55.6194 235.989 55.7276 235.476 55.728H212.384C212.714 57.8796 213.778 59.857 215.401 61.3354C216.914 62.8179 218.965 63.6483 221.101 63.644C223.306 63.6981 225.463 62.9993 227.204 61.6665C228.699 60.3895 230.612 59.6863 232.592 59.686H232.716C233.416 59.6867 234.1 59.8838 234.689 60.2541C235.278 60.6244 235.748 61.1524 236.042 61.7761C236.337 62.3998 236.444 63.0933 236.352 63.775C236.26 64.4567 235.971 65.0984 235.521 65.6244C231.943 69.5814 227.137 71.5609 221.101 71.5629C215.914 71.5629 211.546 69.836 207.996 66.382ZM212.723 50.1206H229.157C228.8 48.3695 227.836 46.7951 226.428 45.6675C224.935 44.4424 223.038 43.7964 221.095 43.851C219.147 43.8008 217.246 44.4353 215.731 45.6406C214.282 46.7933 213.229 48.3578 212.717 50.1206H212.723Z" fill="#951BC4"/>
<path d="M333.133 66.382C329.58 62.9321 327.803 58.7206 327.803 53.7475C327.803 48.7744 329.58 44.5629 333.133 41.113C336.691 37.661 341.062 35.9351 346.247 35.9351C351.523 35.9351 355.813 37.6948 359.257 41.0802C362.593 44.3611 363.79 48.6352 364.193 51.7133C364.26 52.2146 364.218 52.7242 364.068 53.2079C363.919 53.6917 363.666 54.1385 363.327 54.5185C362.988 54.8986 362.571 55.203 362.103 55.4116C361.635 55.6202 361.127 55.728 360.613 55.728H337.527C337.863 57.8811 338.932 59.8582 340.559 61.3354C342.071 62.8185 344.121 63.65 346.256 63.6469C348.462 63.7001 350.618 63.0014 352.36 61.6694C353.853 60.393 355.766 59.6897 357.744 59.6889H357.869C358.568 59.6891 359.253 59.8858 359.842 60.2559C360.432 60.6259 360.902 61.1539 361.197 61.7777C361.492 62.4016 361.6 63.0953 361.507 63.7773C361.415 64.4593 361.127 65.1012 360.676 65.6274C357.099 69.5844 352.292 71.5639 346.256 71.5659C341.061 71.5639 336.687 69.836 333.133 66.382ZM337.863 50.1206H354.294C353.939 48.3691 352.974 46.7943 351.565 45.6675C350.073 44.4424 348.177 43.7963 346.235 43.851C344.287 43.8019 342.384 44.4363 340.868 45.6406C339.422 46.7943 338.373 48.3588 337.863 50.1206Z" fill="#00A887"/>
<path d="M241.558 41.2111V40.5549C241.558 39.5922 241.946 38.669 242.638 37.9882C243.33 37.3075 244.269 36.9251 245.248 36.9251H270.059C270.543 36.9247 271.024 37.0183 271.472 37.2005C271.92 37.3827 272.327 37.6501 272.67 37.9872C273.013 38.3243 273.285 38.7246 273.47 39.1651C273.656 39.6057 273.752 40.078 273.752 40.5549V41.2111C273.754 41.6893 273.659 42.1632 273.475 42.6055C273.29 43.0478 273.018 43.4499 272.675 43.7886C272.332 44.1272 271.924 44.3959 271.475 44.5791C271.026 44.7622 270.545 44.8563 270.059 44.8559H262.348V66.9574C262.348 67.9201 261.959 68.8434 261.267 69.5242C260.575 70.2049 259.637 70.5873 258.658 70.5873H256.651C256.166 70.5877 255.686 70.4941 255.238 70.3119C254.79 70.1296 254.383 69.8623 254.04 69.5252C253.697 69.1881 253.425 68.7878 253.239 68.3472C253.054 67.9066 252.958 67.4344 252.958 66.9574V44.8559H245.248C244.762 44.8559 244.281 44.7616 243.832 44.5782C243.383 44.3949 242.976 44.1262 242.633 43.7875C242.29 43.4489 242.019 43.0469 241.834 42.6048C241.65 42.1627 241.556 41.6891 241.558 41.2111Z" fill="#951BC4"/>
<path d="M274.419 75.1868V64.8877C274.419 64.4207 274.512 63.9583 274.694 63.5269C274.876 63.0955 275.143 62.7036 275.479 62.3737C275.815 62.0438 276.213 61.7822 276.652 61.604C277.091 61.4259 277.561 61.3346 278.036 61.3354H279.791L288.8 27.1093C289.005 26.3305 289.468 25.6408 290.115 25.1485C290.762 24.6562 291.556 24.3891 292.374 24.3892H307.786C308.604 24.3888 309.398 24.6558 310.045 25.1482C310.692 25.6406 311.153 26.3305 311.358 27.1093L320.369 61.3354H322.124C322.599 61.3354 323.068 61.4273 323.506 61.6058C323.944 61.7844 324.342 62.0461 324.677 62.376C325.012 62.7059 325.278 63.0975 325.459 63.5285C325.64 63.9595 325.733 64.4213 325.733 64.8877V75.1868C325.733 75.6638 325.638 76.1361 325.453 76.5768C325.267 77.0176 324.996 77.4181 324.653 77.7555C324.31 78.0929 323.903 78.3605 323.455 78.5431C323.007 78.7257 322.527 78.8197 322.043 78.8197H319.699C319.214 78.8197 318.734 78.7257 318.286 78.5431C317.838 78.3605 317.431 78.0929 317.089 77.7555C316.746 77.4181 316.474 77.0176 316.289 76.5768C316.104 76.1361 316.008 75.6638 316.009 75.1868V70.5726H284.145V75.1868C284.145 76.1488 283.758 77.0715 283.067 77.7525C282.376 78.4335 281.439 78.8173 280.462 78.8197H278.121C277.635 78.8209 277.154 78.7278 276.705 78.5457C276.256 78.3637 275.847 78.0963 275.504 77.7588C275.16 77.4214 274.887 77.0205 274.701 76.5791C274.515 76.1378 274.419 75.6647 274.419 75.1868ZM289.509 61.3354H310.636L303.259 33.6265H296.892L289.509 61.3354Z" fill="#00A887"/>
<path d="M369.991 66.9425V40.555C369.991 39.5922 370.379 38.669 371.071 37.9882C371.763 37.3075 372.702 36.9251 373.681 36.9251H375.688C376.173 36.9247 376.653 37.0183 377.101 37.2005C377.549 37.3828 377.956 37.6501 378.299 37.9872C378.642 38.3243 378.914 38.7246 379.1 39.1652C379.285 39.6057 379.381 40.078 379.381 40.555V49.4612H383.404L391.354 38.4522C391.696 37.9802 392.148 37.5953 392.672 37.3297C393.195 37.064 393.776 36.9253 394.365 36.9251H395.754C396.43 36.9237 397.094 37.105 397.673 37.4494C398.251 37.7937 398.723 38.2878 399.036 38.8777C399.349 39.4676 399.491 40.1307 399.447 40.7947C399.403 41.4586 399.174 42.0979 398.786 42.6428L391.812 52.4289L400.144 64.9561C400.509 65.5036 400.716 66.1379 400.744 66.7919C400.773 67.4459 400.62 68.0952 400.304 68.6711C399.988 69.247 399.519 69.728 398.947 70.0632C398.376 70.3985 397.723 70.5754 397.058 70.5754H395.156C394.542 70.5751 393.937 70.4239 393.397 70.1353C392.857 69.8467 392.399 69.43 392.064 68.923L384.411 57.3831H379.381V66.9485C379.381 67.4254 379.285 67.8977 379.1 68.3383C378.914 68.7789 378.642 69.1792 378.299 69.5163C377.956 69.8534 377.549 70.1207 377.101 70.3029C376.653 70.4852 376.173 70.5788 375.688 70.5784H373.681C373.196 70.5784 372.715 70.4843 372.267 70.3015C371.819 70.1187 371.412 69.8508 371.069 69.5131C370.727 69.1754 370.455 68.7745 370.27 68.3335C370.085 67.8924 369.99 67.4197 369.991 66.9425Z" fill="#00A887"/>
<path d="M409.225 66.382C405.651 62.9321 403.865 58.7206 403.865 53.7475C403.865 48.7744 405.652 44.5629 409.228 41.113C412.806 37.661 417.277 35.9351 422.642 35.9351C427.962 35.9351 432.422 37.661 436.022 41.113C439.622 44.5649 441.422 48.7764 441.422 53.7475C441.422 58.7186 439.622 62.9301 436.022 66.382C432.422 69.834 427.962 71.5609 422.642 71.5629C417.277 71.5629 412.805 69.836 409.225 66.382ZM416.199 46.6249C414.452 48.4722 413.58 50.8464 413.582 53.7475C413.584 56.6486 414.456 59.0238 416.199 60.8731C417.02 61.747 418.015 62.4444 419.123 62.9214C420.231 63.3983 421.428 63.6446 422.637 63.6446C423.847 63.6446 425.043 63.3983 426.151 62.9214C427.259 62.4444 428.255 61.747 429.076 60.8731C430.82 59.0258 431.692 56.6506 431.692 53.7475C431.692 50.8444 430.82 48.4702 429.076 46.6249C428.255 45.7502 427.26 45.0521 426.152 44.5746C425.044 44.0971 423.847 43.8506 422.637 43.8506C421.427 43.8506 420.231 44.0971 419.123 44.5746C418.015 45.0521 417.019 45.7502 416.199 46.6249Z" fill="#00A887"/>
<path d="M446.782 79.4788V40.5551C446.782 40.0782 446.878 39.6059 447.064 39.1653C447.249 38.7247 447.521 38.3244 447.864 37.9873C448.207 37.6502 448.614 37.3829 449.062 37.2007C449.51 37.0184 449.991 36.9248 450.475 36.9252H452.483C453.461 36.9252 454.4 37.3076 455.092 37.9884C455.784 38.6691 456.173 39.5924 456.173 40.5551V41.2143H456.506C457.273 40.2386 458.151 39.3529 459.123 38.5746C461.459 36.8401 464.312 35.9123 467.239 35.935C471.709 35.935 475.448 37.5735 478.458 40.8504C481.468 44.1273 482.982 48.4264 483 53.7474C483 59.0725 481.491 63.3725 478.473 66.6474C475.455 69.9224 471.716 71.5608 467.255 71.5628C464.327 71.5855 461.475 70.6577 459.138 68.9232C458.166 68.1449 457.288 67.2592 456.521 66.2835H456.188V79.4788C456.188 80.4415 455.799 81.3648 455.107 82.0455C454.415 82.7263 453.476 83.1087 452.498 83.1087H450.491C450.005 83.1111 449.523 83.0189 449.073 82.8376C448.623 82.6562 448.214 82.3892 447.87 82.0519C447.525 81.7146 447.252 81.3136 447.065 80.8721C446.878 80.4305 446.782 79.957 446.782 79.4788ZM458.586 46.4578C456.969 48.1977 456.16 50.6276 456.16 53.7474C456.16 56.8673 456.969 59.2981 458.586 61.04C460.203 62.7759 462.304 63.6439 464.89 63.6439C466.032 63.6757 467.167 63.4555 468.212 62.9992C469.257 62.5429 470.184 61.8623 470.926 61.0072C472.491 59.2474 473.274 56.8275 473.276 53.7474C473.278 50.6673 472.495 48.2484 470.926 46.4906C470.184 45.6357 469.256 44.9549 468.212 44.4982C467.167 44.0414 466.032 43.8203 464.89 43.851C462.298 43.851 460.197 44.7199 458.586 46.4578Z" fill="#00A887"/>
<path d="M8.05129 1.0872C8.83457 0.98656 9.62783 0.98656 10.4111 1.0872C10.5398 1.10408 10.6685 1.12096 10.7973 1.14418C11.5267 1.26377 12.2518 1.40024 12.9726 1.5536C13.3115 1.62535 13.6484 1.70132 13.9852 1.7773C14.322 1.85327 14.6288 1.92925 14.9463 2.00944C24.8194 4.5109 33.7363 9.79162 40.604 17.2044L40.6404 17.2445C41.8053 18.5107 42.9166 19.8382 43.9463 21.2036L44.0708 21.3682L41.7324 24.9348L41.475 24.5866L41.417 24.5064L41.2712 24.308C40.3424 23.0087 39.3449 21.7583 38.2828 20.562C31.9716 13.4776 23.6548 8.40727 14.3971 6.00022C14.1096 5.92425 13.8243 5.8525 13.5389 5.78918C13.2536 5.72587 12.9533 5.6499 12.6594 5.57814C12.6272 5.57814 12.5972 5.56548 12.5693 5.55915C12.4041 5.52327 12.2432 5.4895 12.0801 5.45152L11.591 5.35444C11.104 5.25525 10.6106 5.16661 10.1172 5.08431C9.37542 4.96064 8.61511 4.99841 7.88977 5.19493C7.16442 5.39146 6.49168 5.74198 5.91887 6.22182C5.32997 6.71068 4.85669 7.32014 4.53209 8.00762C4.20749 8.69511 4.03941 9.44403 4.03959 10.202V29.24C4.05038 34.6736 6.25078 39.8812 10.1584 43.7214C14.066 47.5615 19.362 49.7207 24.8854 49.7258C25.4108 49.7426 25.909 49.9597 26.2746 50.3313C26.6402 50.7029 26.8447 51.1998 26.8447 51.7169C26.8447 52.2341 26.6402 52.731 26.2746 53.1025C25.909 53.4741 25.4108 53.6913 24.8854 53.7081C22.8904 53.7098 20.9775 54.49 19.5666 55.8776C18.1557 57.2652 17.362 59.1467 17.3597 61.1093V79.7885C17.3603 79.9923 17.3718 80.1959 17.394 80.3984C17.4069 80.4955 17.4219 80.5947 17.4391 80.6897C17.4562 80.7825 17.4756 80.8796 17.497 80.9725C17.497 80.9725 17.497 80.983 17.497 80.9872C17.5142 81.059 17.5335 81.1328 17.5549 81.1983C17.5764 81.2637 17.5935 81.3312 17.615 81.4093C17.9442 82.4217 18.5778 83.3121 19.4321 83.9629C20.0503 84.4432 20.7726 84.7771 21.543 84.9388C22.3134 85.1006 23.1113 85.0858 23.875 84.8957L24.0187 84.8577L24.0959 84.8408L24.407 84.7585L24.6966 84.6804C24.8318 84.6446 24.9626 84.6066 25.0978 84.5665C25.2329 84.5264 25.4067 84.4778 25.5612 84.4293C25.5889 84.4235 25.6161 84.4158 25.6427 84.4061C25.8379 84.3491 26.0331 84.2858 26.2284 84.2225L26.4922 84.1339C26.6596 84.0811 26.8247 84.022 26.9899 83.965C27.0564 83.9439 27.1229 83.9186 27.1852 83.8954C27.3632 83.8342 27.537 83.7687 27.7107 83.7033C27.7537 83.6864 27.7966 83.6738 27.8395 83.6527C28.054 83.5767 28.2685 83.4944 28.4659 83.41C28.704 83.3171 28.9379 83.22 29.1717 83.1188C29.4055 83.0174 29.6265 82.9204 29.856 82.8191L29.9268 82.7853C30.1414 82.6924 30.3559 82.5932 30.5576 82.4898C30.7592 82.3864 31.0145 82.2788 31.2419 82.1543C31.4693 82.0298 31.6924 81.9221 31.9155 81.8019C32.1386 81.6816 32.3617 81.5634 32.5827 81.4346C32.8037 81.3059 33.0246 81.1856 33.2392 81.0569C33.4172 80.9535 33.5931 80.8458 33.7691 80.7382C34.2968 80.4132 34.8131 80.0755 35.318 79.7252C35.697 79.4635 36.0724 79.1927 36.4442 78.9127L36.8132 78.6341C37.0564 78.4456 37.2966 78.2535 37.5341 78.058C37.7743 77.8617 38.0103 77.6655 38.242 77.4629C38.4737 77.2603 38.7075 77.0576 38.9371 76.8466C39.1666 76.6356 39.3897 76.4245 39.6128 76.2135C39.6879 76.1417 39.7652 76.0679 39.8274 76.0024L40.0419 75.7914C40.3337 75.5023 40.619 75.2068 40.9 74.905C41.0287 74.7658 41.1596 74.6244 41.2862 74.483C42.19 73.4918 43.0325 72.448 43.809 71.3574C43.8901 71.2455 43.982 71.1416 44.0836 71.0472C44.185 70.955 44.2949 70.8724 44.4119 70.8003C44.5523 70.7146 44.7038 70.6479 44.8624 70.6019C45.0553 70.542 45.2564 70.5114 45.4588 70.5112C45.9896 70.5103 46.4993 70.7159 46.8768 71.0831C46.9647 71.1671 47.0444 71.2589 47.1149 71.3574C47.1922 71.4608 47.2651 71.5685 47.3295 71.6698C47.3938 71.7711 47.4796 71.8808 47.559 71.9779C47.7092 72.1889 47.8658 72.3852 48.0245 72.5857C48.1833 72.7862 48.3399 72.9846 48.5008 73.1829C48.9835 73.7739 49.4876 74.35 50.0025 74.905C50.1334 75.0443 50.2621 75.1815 50.3951 75.3271C50.5281 75.4727 50.6611 75.5994 50.7963 75.7344C51.0644 76.0046 51.339 76.2684 51.6157 76.5258C51.9847 76.8762 52.3623 77.2145 52.7485 77.5409C52.9394 77.7077 53.1346 77.8723 53.332 78.0306C53.5294 78.1888 53.7224 78.3513 53.9219 78.5054C54.0464 78.6046 54.1708 78.7017 54.2974 78.7945C54.9259 79.2757 55.5717 79.7358 56.2281 80.1684C56.4927 80.3443 56.7595 80.5152 57.0283 80.6812C57.2236 80.8057 57.4231 80.926 57.6226 81.0442C57.6445 81.0585 57.6674 81.0712 57.6912 81.0822C57.9058 81.2109 58.1203 81.3354 58.3348 81.4536C58.5493 81.5718 58.7767 81.7027 58.9999 81.8208C59.223 81.939 59.4504 82.0593 59.6778 82.1733C59.9052 82.2872 60.1068 82.3843 60.3214 82.4941C60.3331 82.5025 60.3461 82.5089 60.36 82.5131C60.5616 82.6123 60.7612 82.7051 60.965 82.798L61.0572 82.8381C61.2717 82.9351 61.4862 83.028 61.7008 83.1209L61.7544 83.142C61.984 83.2411 62.2156 83.3382 62.4473 83.429C62.679 83.5197 62.8614 83.5957 63.0716 83.6717C63.1143 83.6907 63.158 83.7076 63.2025 83.7223C63.3548 83.7814 63.5071 83.8363 63.6616 83.889C63.7581 83.9291 63.8589 83.9629 63.9598 83.9988C64.0606 84.0347 64.1958 84.0811 64.3159 84.117C64.436 84.1528 64.5926 84.2098 64.7321 84.2563C64.9466 84.328 65.1761 84.3977 65.4014 84.4673C65.5151 84.5032 65.631 84.5369 65.7468 84.5686C65.9141 84.6192 66.0815 84.6678 66.2531 84.7142L66.399 84.7522L66.828 84.864L66.9289 84.8873L67.0511 84.9189C67.8145 85.1092 68.6121 85.124 69.3822 84.9623C70.1523 84.8005 70.8741 84.4665 71.4919 83.9861C72.3474 83.336 72.9818 82.4454 73.3111 81.4325C73.3326 81.3671 73.3519 81.2996 73.3712 81.2215C73.3905 81.1434 73.4119 81.0759 73.4291 81.0105C73.4303 81.0056 73.4303 81.0005 73.4291 80.9957C73.4506 80.9028 73.4699 80.8078 73.487 80.7129C73.5042 80.6172 73.5192 80.5201 73.5321 80.4216C73.5543 80.2198 73.5658 80.0169 73.5664 79.8138V61.1093C73.5636 59.1527 72.7744 57.2766 71.3711 55.8901C69.9677 54.5036 68.0639 53.7192 66.075 53.7081C65.5496 53.6913 65.0515 53.4741 64.6858 53.1025C64.3202 52.731 64.1158 52.2341 64.1158 51.7169C64.1158 51.1998 64.3202 50.7029 64.6858 50.3313C65.0515 49.9597 65.5496 49.7426 66.075 49.7258C71.601 49.7202 76.899 47.5584 80.8067 43.7146C84.7143 39.8709 86.9125 34.6593 86.9187 29.2232V10.1852C86.9189 9.42714 86.7508 8.67822 86.4262 7.99074C86.1016 7.30326 85.6283 6.69379 85.0394 6.20493C84.4664 5.7248 83.7933 5.37411 83.0675 5.17757C82.3418 4.98104 81.581 4.94344 80.8389 5.06742C80.3455 5.14973 79.8542 5.23837 79.3651 5.33756L78.8739 5.43464L78.3869 5.54227C78.3565 5.54679 78.3264 5.55313 78.2968 5.56126C78.0029 5.62668 77.709 5.69421 77.4172 5.7723C77.1254 5.85039 76.8423 5.9137 76.5591 5.98334C67.3022 8.39101 58.9862 13.4613 52.6755 20.5452C51.6138 21.7449 50.617 22.9988 49.6893 24.3017C49.6378 24.3671 49.5906 24.4325 49.5434 24.5001L49.4855 24.5803L49.228 24.9285L46.894 21.3724L47.0162 21.2078C48.0481 19.8424 49.1615 18.5086 50.3243 17.2487L50.3608 17.2086C57.2284 9.79584 66.1453 4.51512 76.0185 2.01366C76.3381 1.93347 76.662 1.85538 76.9795 1.78152C77.2971 1.70765 77.651 1.62957 77.99 1.55782C78.7051 1.40587 79.4302 1.26939 80.1653 1.1484C80.294 1.12518 80.4227 1.1083 80.5515 1.09142L80.8368 1.05976C80.9333 1.05976 81.0277 1.04288 81.1243 1.03866H81.298C81.446 1.03866 81.5898 1.0281 81.7271 1.0281H81.7957C81.873 1.0281 81.9481 1.0281 82.0253 1.0281L82.3192 1.04288C82.5123 1.05554 82.7075 1.07453 82.9027 1.10197C83.0035 1.10197 83.1001 1.12729 83.2009 1.14418C83.4476 1.18639 83.6943 1.23704 83.9389 1.29613C84.1835 1.35522 84.4216 1.42697 84.6597 1.50717C84.8506 1.57259 85.0373 1.64012 85.2239 1.71821C85.4706 1.82162 85.7131 1.92925 85.9512 2.05587C86.5566 2.3656 87.125 2.74075 87.646 3.17439C88.6836 4.0354 89.5178 5.1088 90.0903 6.31967C90.6627 7.53055 90.9597 8.84974 90.9604 10.1852V29.2232C90.9604 39.7984 83.881 49.3079 73.6801 52.5389C74.9305 53.6023 75.9332 54.9182 76.6199 56.3972C77.3066 57.8762 77.6613 59.4834 77.6596 61.1093V79.7906C77.6597 80.2354 77.6281 80.6797 77.5652 81.1202C77.5245 81.3777 77.4794 81.633 77.4193 81.8863C77.4 81.9749 77.3764 82.0657 77.3528 82.1522C77.2863 82.3991 77.2113 82.6439 77.1233 82.8845C77.1243 82.8901 77.1243 82.8958 77.1233 82.9014C77.0482 83.1124 76.9688 83.3045 76.8809 83.4986C75.9892 85.4587 74.4346 87.0543 72.4816 88.0136C70.5285 88.9729 68.2979 89.2366 66.1694 88.7599L66.1137 88.7472H66.1008L65.7296 88.6543L65.3628 88.5552C65.1118 88.4876 64.8629 88.418 64.6141 88.3441C64.3652 88.2703 64.1164 88.1964 63.8718 88.1204C63.6272 88.0444 63.3891 87.9663 63.1488 87.8862H63.1295C62.885 87.8031 62.6426 87.7187 62.4023 87.6329C62.1878 87.5527 61.9496 87.4683 61.7265 87.3839L61.6493 87.3543C61.4155 87.2657 61.1838 87.1749 60.9521 87.08C60.789 87.0145 60.6238 86.947 60.4629 86.8689C60.3385 86.8183 60.2119 86.7655 60.0897 86.7107L60.0124 86.6769C59.7979 86.584 59.5834 86.487 59.3688 86.392H59.3474C59.1329 86.2886 58.8969 86.1809 58.6716 86.0733C58.4464 85.9657 58.2125 85.8517 57.9851 85.7356C57.7577 85.6196 57.5282 85.5056 57.3029 85.3853C57.0777 85.265 56.8524 85.1426 56.6293 85.0202C55.4515 84.3693 54.308 83.66 53.2033 82.895C52.8386 82.639 52.4767 82.3773 52.1178 82.11C51.9633 81.9939 51.811 81.882 51.6608 81.7639C51.3583 81.5296 51.058 81.2933 50.7619 81.0506L50.3329 80.6833C49.7837 80.2176 49.2481 79.7393 48.726 79.2483C48.5523 79.0858 48.3806 78.919 48.209 78.7523C48.0696 78.6194 47.9344 78.4843 47.8014 78.3471C46.9919 77.5325 46.2182 76.682 45.4802 75.7956C44.7465 76.682 43.9764 77.5332 43.1697 78.3492L42.7621 78.7544C42.5905 78.9212 42.4189 79.0879 42.2451 79.2504C41.7217 79.7428 41.1861 80.2212 40.6383 80.6854L40.2092 81.0527C39.9132 81.2953 39.6128 81.5317 39.3104 81.766C39.1602 81.8842 39.0079 81.996 38.8534 82.1121C38.2398 82.5707 37.6141 83.0111 36.9763 83.4332C36.7617 83.5746 36.5472 83.7118 36.3327 83.8553C36.1182 83.9988 35.9036 84.1254 35.6891 84.2584C35.4746 84.3913 35.26 84.5201 35.0284 84.6488C34.7967 84.7775 34.5864 84.9042 34.3633 85.0266C34.1831 85.1257 34.0029 85.2249 33.8206 85.322C33.5524 85.4655 33.2821 85.6048 33.0096 85.7441C32.7951 85.8559 32.5656 85.9678 32.3424 86.0733L32.3146 86.0881C32.1129 86.1873 31.9091 86.2801 31.7053 86.3709L31.613 86.4152C31.3985 86.5123 31.1947 86.6051 30.9823 86.6959L30.9051 86.7297C30.7828 86.7845 30.6562 86.8373 30.5318 86.8879C30.3709 86.9576 30.2057 87.0251 30.0427 87.099C29.811 87.1939 29.5793 87.2847 29.3455 87.3733L29.2682 87.4029C29.0537 87.4873 28.8177 87.5717 28.5925 87.6519C28.3672 87.7321 28.1184 87.8207 27.8781 87.8988L27.8094 87.9241C27.5949 87.998 27.3546 88.074 27.1251 88.1352H27.1144C26.8719 88.2112 26.6252 88.285 26.3807 88.3462C26.1361 88.4074 25.883 88.4876 25.632 88.5573C25.381 88.6269 25.1621 88.6839 24.924 88.7409C24.8918 88.7409 24.8597 88.7578 24.8253 88.7662C22.4897 89.2926 20.038 88.9233 17.9694 87.7337C15.9008 86.5441 14.3709 84.6236 13.6913 82.3632C13.6569 82.2408 13.6226 82.1163 13.5904 81.9897C13.5196 81.7027 13.4639 81.4114 13.4188 81.1181C13.3559 80.6769 13.3244 80.2319 13.3244 79.7864V61.1093C13.321 59.4845 13.6734 57.8781 14.3575 56.3992C15.0416 54.9203 16.0414 53.6037 17.2889 52.5389C7.07947 49.3079 1.33772e-06 39.7984 1.33772e-06 29.2232V10.1852C-0.000726717 8.84746 0.295737 7.52576 0.868633 6.31257C1.44153 5.09938 2.27702 4.02401 3.31663 3.16173C3.83755 2.72809 4.40598 2.35294 5.0114 2.04321C5.24953 1.92081 5.49195 1.80895 5.73866 1.70554C5.9253 1.62957 6.11194 1.56204 6.30287 1.4945C6.541 1.41431 6.78127 1.34466 7.02369 1.28346C7.26611 1.22226 7.51496 1.17372 7.75952 1.13152C7.86035 1.11674 7.95689 1.09986 8.05772 1.0893L8.05129 1.0872Z" fill="#951BC4"/>
</svg>
