<svg width="380" height="244" viewBox="0 0 380 244" fill="none" xmlns="http://www.w3.org/2000/svg">
<g clip-path="url(#clip0_2280_358)">
<path d="M224.905 137.327C224.905 137.608 224.808 137.898 224.747 138.205C224.808 137.933 224.861 137.643 224.905 137.327Z" fill="#951BC4"/>
<path d="M221.063 143.898C219.312 145.277 217.15 146.028 214.921 146.03C214.114 146.03 213.31 145.933 212.526 145.741C214.005 146.082 215.541 146.089 217.022 145.761C218.503 145.433 219.893 144.779 221.089 143.846C222.429 142.818 223.488 141.469 224.168 139.924C223.489 141.487 222.427 142.854 221.08 143.898" fill="#951BC4"/>
<path d="M213.421 141.425C214.277 141.639 215.171 141.654 216.035 141.47C216.899 141.286 217.709 140.908 218.404 140.363C219.319 139.663 220 138.703 220.36 137.608C220.001 138.729 219.31 139.715 218.378 140.433C217.705 140.962 216.921 141.33 216.084 141.508C215.248 141.686 214.381 141.669 213.552 141.46H213.421" fill="#951BC4"/>
<path d="M213.42 141.425H213.315L212.859 141.302L213.42 141.451" fill="#951BC4"/>
<path d="M212.438 145.723L212.183 145.662H212.034L212.438 145.767" fill="#951BC4"/>
<path d="M207.728 139.477L207.035 139.17L207.728 139.477Z" fill="#951BC4"/>
<path d="M205.525 138.433C205.753 138.556 205.99 138.67 206.236 138.784C205.99 138.678 205.753 138.556 205.525 138.433Z" fill="#951BC4"/>
<path d="M205.525 138.433L204.788 138.047L205.525 138.433Z" fill="#951BC4"/>
<path d="M204.788 138.047L204.06 137.643L204.788 138.047Z" fill="#951BC4"/>
<path d="M202.648 136.783L203.288 137.187L202.648 136.783Z" fill="#951BC4"/>
<path d="M199.262 134.38L198.621 133.862L199.262 134.38Z" fill="#951BC4"/>
<path d="M198.445 139.249C199.638 140.126 200.875 140.88 202.147 141.6C200.872 140.881 199.637 140.096 198.445 139.249Z" fill="#951BC4"/>
<path d="M198.62 133.862L197.989 133.318L198.62 133.862Z" fill="#951BC4"/>
<path d="M197.261 138.389L198.445 139.266C198.042 138.985 197.655 138.696 197.261 138.389Z" fill="#951BC4"/>
<path d="M196.752 132.195C197.147 132.581 197.559 132.949 197.98 133.318C197.559 132.958 197.103 132.581 196.752 132.195Z" fill="#951BC4"/>
<path d="M193.566 135.222C194.137 135.766 194.716 136.292 195.321 136.81C194.724 136.301 194.137 135.766 193.566 135.222Z" fill="#951BC4"/>
<path d="M192.848 127.852L193.366 128.51L192.848 127.852Z" fill="#951BC4"/>
<path d="M191.847 126.492C191.926 126.615 192.005 126.729 192.093 126.843C192.005 126.729 191.926 126.615 191.847 126.492C191.769 126.385 191.681 126.285 191.584 126.194C191.681 126.285 191.769 126.385 191.847 126.492Z" fill="#951BC4"/>
<path d="M190.048 131.405C190.85 132.388 191.689 133.33 192.566 134.23C191.683 133.33 190.844 132.391 190.048 131.414V131.405Z" fill="#951BC4"/>
<path d="M187.505 77.6169C188.295 76.1693 189.137 74.7656 190.049 73.397C190.927 74.7656 191.804 76.1781 192.594 77.6169C193.059 78.4942 193.471 79.3277 193.91 80.205C194.348 81.0823 194.787 82.0385 195.147 82.9685C195.813 84.6617 196.498 86.5655 196.901 87.9254L197.138 88.7237C197.278 89.1887 197.41 89.6712 197.542 90.145C197.612 90.4257 197.691 90.7152 197.761 91.0223C197.831 91.3293 197.893 91.5311 197.954 91.7943C198.015 92.0575 198.051 92.2243 198.094 92.4436C198.116 92.5127 198.134 92.583 198.147 92.6541L198.287 93.3296C198.34 93.5577 198.384 93.7859 198.428 94.014C198.472 94.2421 198.516 94.4701 198.551 94.6983C198.586 94.9264 198.63 95.1019 198.656 95.2949L198.787 96.0756C198.787 96.2248 198.831 96.3652 198.849 96.5143C198.866 96.6635 198.849 96.6898 198.849 96.7688V97.0056C198.854 97.0347 198.854 97.0643 198.849 97.0934C198.849 97.2162 198.849 97.339 198.901 97.4618C198.906 97.5056 198.906 97.5497 198.901 97.5934C198.901 97.7163 198.902 97.8391 198.945 97.9619C198.945 97.9619 198.945 98.0321 198.945 98.0672C198.951 98.0813 198.951 98.0969 198.945 98.111C198.945 98.2953 198.945 98.4707 199.007 98.6462L199.059 99.1814C199.059 99.3481 199.059 99.5147 199.059 99.6902C199.059 99.9446 199.103 100.19 199.121 100.436C199.173 101.155 199.217 101.866 199.244 102.585V103.629V103.7C199.244 104.042 199.244 104.384 199.244 104.726C199.248 104.752 199.248 104.779 199.244 104.805C199.216 105.281 199.038 105.737 198.736 106.106C198.433 106.475 198.021 106.738 197.559 106.858H197.454H197.252H182.338H182.136H182.031C181.637 106.76 181.278 106.553 180.995 106.261C180.607 105.873 180.376 105.354 180.346 104.805C180.342 104.77 180.342 104.735 180.346 104.7C180.346 104.358 180.346 104.015 180.346 103.673V103.603V102.559C180.346 101.84 180.416 101.129 180.469 100.41C180.469 100.05 180.522 99.699 180.557 99.3393C180.627 98.6287 180.706 97.9181 180.802 97.2162C180.802 96.9618 180.864 96.7161 180.908 96.4705C180.908 96.2248 180.978 95.9704 181.022 95.7248C181.066 95.4791 181.101 95.2334 181.145 94.9878C181.188 94.7421 181.197 94.672 181.232 94.514V94.3386C181.232 94.2684 181.232 94.207 181.232 94.1368L181.311 93.7069V93.5577C181.311 93.4086 181.373 93.2507 181.408 93.1016L181.487 92.7331C181.601 92.1891 181.732 91.6452 181.864 91.0925L182.075 90.2766V90.1537C182.136 89.9256 182.206 89.6976 182.268 89.4695L182.478 88.7062L182.741 87.8289C183.162 86.4954 183.82 84.6442 184.496 82.9773C184.888 82.0122 185.309 81.0647 185.759 80.1348C186.18 79.2575 186.637 78.3801 187.084 77.5467L187.505 77.6169ZM187.444 99.2954C187.443 98.7315 187.66 98.189 188.048 97.7806C188.437 97.3722 188.968 97.1292 189.532 97.1021H189.725C190.288 97.1292 190.819 97.3722 191.208 97.7806C191.597 98.189 191.813 98.7315 191.813 99.2954V102.541H194.62C194.62 101.954 194.559 101.375 194.515 100.787L194.462 100.103C194.462 99.6025 194.366 99.1024 194.304 98.6111C194.304 98.4444 194.304 98.2777 194.243 98.111C194.182 97.9443 194.182 97.5934 194.146 97.339C194.111 97.0846 194.094 97.0144 194.076 96.8565C194.059 96.6986 194.076 96.5933 194.015 96.4617C193.953 96.3301 193.953 96.102 193.918 95.9177C193.883 95.7335 193.857 95.558 193.822 95.3738C193.76 95.0141 193.69 94.6456 193.62 94.2859C193.62 94.1105 193.55 93.9262 193.506 93.7508C193.436 93.3999 193.357 93.0577 193.278 92.7156C193.199 92.3734 193.164 92.2681 193.111 92.04C193.059 91.8119 192.945 91.3908 192.857 91.0662C192.857 90.8907 192.76 90.7152 192.708 90.531C192.585 90.0748 192.444 89.6537 192.304 89.1624C192.251 88.9869 192.199 88.8202 192.137 88.6448C192.032 88.2939 191.909 87.9517 191.795 87.6096C191.681 87.2674 191.488 86.7322 191.33 86.3199C191.172 85.9075 190.962 85.3636 190.769 84.8898C190.418 84.0125 190.032 83.1352 189.628 82.2579C189.225 83.1352 188.839 84.0125 188.488 84.8898C188.295 85.3636 188.102 85.8373 187.926 86.3199C187.751 86.8024 187.61 87.1972 187.461 87.6096C187.312 88.0219 187.224 88.2939 187.119 88.6448C186.917 89.2677 186.724 89.8993 186.549 90.531C186.496 90.7152 186.444 90.8907 186.4 91.0662C186.312 91.3908 186.224 91.7154 186.145 92.04C186.066 92.3646 186.04 92.4875 185.979 92.7156C185.917 92.9437 185.821 93.3999 185.75 93.7508C185.75 93.9262 185.671 94.1105 185.636 94.2859C185.566 94.6456 185.496 95.0141 185.435 95.3738C185.435 95.558 185.364 95.7423 185.338 95.9177C185.312 96.0932 185.277 96.2862 185.242 96.4617C185.207 96.6371 185.242 96.7249 185.18 96.8565C185.119 96.9881 185.18 97.1723 185.11 97.339C185.04 97.5057 185.04 97.8566 185.014 98.111C184.987 98.3655 185.014 98.4444 184.952 98.6111C184.891 99.1024 184.838 99.6025 184.794 100.103L184.742 100.787C184.742 101.375 184.663 101.954 184.636 102.541H187.444V99.2954Z" fill="#00A887"/>
<path d="M190.049 131.406C189.251 132.379 188.417 133.318 187.531 134.222C188.409 133.321 189.248 132.379 190.049 131.397" fill="#951BC4"/>
<path d="M188.549 126.15C188.659 126.047 188.78 125.956 188.909 125.878C188.782 125.959 188.661 126.05 188.549 126.15Z" fill="#951BC4"/>
<path d="M188.548 126.15C188.44 126.256 188.34 126.371 188.25 126.493C187.407 127.698 186.493 128.852 185.513 129.949C186.49 128.852 187.401 127.698 188.241 126.493C188.334 126.37 188.437 126.256 188.548 126.15Z" fill="#951BC4"/>
<path d="M149.376 48.8846C150.227 48.775 151.088 48.775 151.938 48.8846L152.351 48.9461C153.146 49.0806 153.936 49.2297 154.719 49.3935L155.816 49.6391C156.167 49.7269 156.518 49.8058 156.86 49.9023C167.594 52.6636 177.287 58.4998 184.75 66.6942V66.7381C186.02 68.1379 187.218 69.602 188.338 71.1247L188.479 71.3089L185.943 75.2393L185.662 74.8533C185.644 74.8226 185.624 74.7933 185.601 74.7656L185.443 74.5462C184.43 73.1105 183.344 71.7283 182.188 70.4053C175.332 62.5765 166.296 56.9713 156.237 54.3065L155.298 54.0696L154.342 53.8415H154.246L153.719 53.7274L153.184 53.6134C152.658 53.5081 152.122 53.4028 151.587 53.3151C150.781 53.1784 149.955 53.2199 149.167 53.4366C148.379 53.6534 147.648 54.0401 147.025 54.5697C146.386 55.1086 145.873 55.7801 145.52 56.5377C145.167 57.2952 144.983 58.1205 144.981 58.9563V80.0119C144.988 86.0152 147.376 91.7707 151.621 96.0157C155.866 100.261 161.621 102.649 167.625 102.656C167.929 102.628 168.236 102.665 168.526 102.763C168.815 102.86 169.081 103.017 169.307 103.224C169.533 103.43 169.713 103.681 169.836 103.961C169.96 104.241 170.023 104.543 170.023 104.849C170.023 105.155 169.96 105.457 169.836 105.737C169.713 106.016 169.533 106.268 169.307 106.474C169.081 106.68 168.815 106.837 168.526 106.935C168.236 107.033 167.929 107.069 167.625 107.042C165.457 107.044 163.378 107.907 161.845 109.44C160.313 110.972 159.45 113.051 159.448 115.219V135.853C159.435 136.078 159.435 136.304 159.448 136.529C159.448 136.634 159.448 136.748 159.448 136.853C159.448 136.959 159.492 137.064 159.51 137.169C159.526 137.249 159.546 137.328 159.571 137.406C159.571 137.485 159.571 137.555 159.632 137.625C159.991 138.744 160.679 139.729 161.606 140.45C162.28 140.979 163.066 141.347 163.904 141.525C164.742 141.703 165.61 141.686 166.44 141.477L166.598 141.433H166.677L167.019 141.345L167.326 141.258L167.765 141.135L168.274 140.986H168.362L168.993 140.784L169.283 140.679C169.467 140.626 169.643 140.556 169.818 140.494L170.037 140.415C170.23 140.354 170.415 140.275 170.608 140.205L170.748 140.152L171.423 139.88L172.196 139.556L172.932 139.231H173.011L173.704 138.898L174.441 138.529L175.178 138.143L175.898 137.739L176.617 137.318L177.187 136.967C177.758 136.608 178.319 136.231 178.872 135.844C179.284 135.555 179.697 135.257 180.091 134.967L180.495 134.66C180.758 134.45 181.021 134.239 181.276 134.02C181.539 133.809 181.793 133.59 182.048 133.362L182.794 132.686C183.048 132.458 183.294 132.221 183.531 131.984L183.776 131.747L184.013 131.511C184.329 131.186 184.645 130.861 184.952 130.528L185.373 130.063C186.353 128.966 187.267 127.812 188.11 126.606C188.285 126.358 188.509 126.149 188.768 125.992C188.922 125.898 189.087 125.824 189.259 125.773C189.47 125.71 189.689 125.677 189.909 125.676C190.193 125.676 190.476 125.731 190.739 125.839C191.003 125.948 191.242 126.107 191.444 126.308C191.541 126.399 191.629 126.499 191.707 126.606C191.786 126.72 191.865 126.843 191.953 126.957L192.198 127.291C192.365 127.519 192.532 127.747 192.707 127.966L193.225 128.624C193.751 129.282 194.295 129.914 194.865 130.528C195.006 130.686 195.146 130.835 195.295 130.984C195.444 131.133 195.585 131.291 195.725 131.44C196.012 131.739 196.304 132.031 196.603 132.318C197.006 132.704 197.41 133.081 197.831 133.441L198.462 133.985L199.103 134.502L199.515 134.827C200.2 135.353 200.901 135.862 201.621 136.345C201.902 136.538 202.191 136.722 202.498 136.906L203.139 137.31H203.218L203.911 137.722L204.639 138.125L205.376 138.512C205.604 138.634 205.849 138.757 206.086 138.862L206.744 139.178L206.841 139.222L207.534 139.529H207.595C207.841 139.643 208.095 139.749 208.341 139.845L209.025 140.117L209.166 140.17L209.666 140.354L209.99 140.477L210.376 140.608L210.824 140.757L211.552 140.986L211.929 141.1L212.482 141.258H212.64L213.096 141.38H213.201H213.333C214.162 141.59 215.029 141.606 215.865 141.428C216.702 141.25 217.486 140.883 218.158 140.354C219.091 139.635 219.782 138.65 220.141 137.529C220.141 137.459 220.141 137.389 220.202 137.31C220.227 137.232 220.248 137.153 220.264 137.073C220.264 136.967 220.264 136.862 220.325 136.757C220.325 136.652 220.325 136.538 220.369 136.432C220.382 136.21 220.382 135.988 220.369 135.766V115.184C220.365 113.016 219.502 110.939 217.969 109.407C216.437 107.875 214.36 107.012 212.192 107.007C211.888 107.034 211.581 106.998 211.291 106.9C211.002 106.802 210.736 106.645 210.51 106.439C210.285 106.232 210.104 105.981 209.981 105.702C209.858 105.422 209.794 105.119 209.794 104.814C209.794 104.508 209.858 104.206 209.981 103.926C210.104 103.646 210.285 103.395 210.51 103.189C210.736 102.982 211.002 102.825 211.291 102.727C211.581 102.63 211.888 102.593 212.192 102.62C218.196 102.613 223.951 100.226 228.196 95.9806C232.441 91.7356 234.829 85.9801 234.836 79.9768V58.9212C234.834 58.0854 234.651 57.2601 234.298 56.5026C233.945 55.745 233.431 55.0735 232.792 54.5346C232.169 54.005 231.438 53.6183 230.65 53.4015C229.862 53.1848 229.036 53.1433 228.23 53.28C227.695 53.3678 227.16 53.473 226.633 53.5783L226.098 53.6924L225.563 53.8064H225.466L224.51 54.0345L223.58 54.2714C213.521 56.9362 204.485 62.5415 197.629 70.3702C196.473 71.6932 195.387 73.0754 194.374 74.5111L194.216 74.7305C194.194 74.7582 194.173 74.7875 194.155 74.8182L193.874 75.2042L191.339 71.2738L191.47 71.0896C192.593 69.5806 193.804 68.1067 195.067 66.703V66.6591C202.53 58.4648 212.223 52.6285 222.957 49.8672C223.299 49.7707 223.65 49.6918 224.001 49.6041L225.098 49.3584C225.879 49.1917 226.659 49.0426 227.458 48.911L227.879 48.8495H228.186H228.502H228.686H229.169H229.485H229.809L230.441 48.911L230.765 48.9636C231.034 49.0056 231.301 49.0613 231.564 49.1303C231.827 49.1917 232.09 49.2707 232.353 49.3584L232.959 49.5953C233.222 49.7064 233.485 49.8292 233.748 49.9638C234.404 50.3103 235.022 50.7249 235.591 51.2008C236.72 52.1546 237.627 53.3438 238.248 54.685C238.869 56.0261 239.19 57.4869 239.188 58.965V80.0207C239.179 85.7018 237.392 91.2376 234.076 95.851C230.761 100.464 226.084 103.924 220.703 105.744C222.057 106.92 223.143 108.375 223.887 110.008C224.63 111.641 225.013 113.415 225.01 115.21V135.853C225.01 136.344 224.975 136.833 224.905 137.318C224.858 137.599 224.805 137.892 224.747 138.196C224.729 138.296 224.705 138.396 224.677 138.494C224.607 138.766 224.519 139.038 224.422 139.301C224.346 139.529 224.259 139.749 224.159 139.959C223.479 141.504 222.419 142.853 221.08 143.881C219.881 144.81 218.492 145.462 217.011 145.79C215.531 146.117 213.996 146.113 212.517 145.776H212.465L212.061 145.67L211.657 145.565L210.85 145.328L210.043 145.083L209.253 144.828L208.464 144.547L207.727 144.276H207.648L206.885 143.968L206.358 143.749L205.946 143.574H205.867L205.165 143.267L204.428 142.916C204.174 142.802 203.928 142.67 203.683 142.547L202.937 142.161L202.209 141.758C200.936 141.038 199.699 140.249 198.506 139.406L197.322 138.529L196.831 138.143C196.497 137.88 196.173 137.625 195.857 137.354L195.374 136.95C194.778 136.432 194.199 135.906 193.62 135.362C193.427 135.187 193.242 135.002 193.058 134.818L192.62 134.371C191.742 133.47 190.903 132.528 190.102 131.546C189.306 132.528 188.467 133.47 187.584 134.371L187.145 134.818C186.961 135.002 186.777 135.187 186.584 135.362C186.013 135.906 185.434 136.432 184.829 136.95L184.346 137.354C184.031 137.625 183.706 137.88 183.373 138.143L182.881 138.529C182.214 139.029 181.53 139.52 180.837 139.985L180.144 140.442L179.433 140.889L178.714 141.319L177.995 141.74L177.407 142.065L176.529 142.53L175.81 142.889L175.152 143.205L175.047 143.249L174.362 143.556H174.275L173.871 143.732L173.345 143.951L172.582 144.258H172.503L171.766 144.53L170.994 144.802H170.915L170.169 145.048L169.371 145.293L168.555 145.53L167.791 145.732H167.686C166.207 146.068 164.673 146.073 163.192 145.745C161.712 145.417 160.322 144.766 159.123 143.837C157.438 142.524 156.21 140.713 155.614 138.661L155.509 138.248C155.43 137.93 155.368 137.608 155.325 137.283C155.254 136.795 155.219 136.303 155.219 135.809V115.184C155.217 113.389 155.6 111.615 156.343 109.982C157.086 108.348 158.172 106.894 159.527 105.717C154.059 103.971 149.284 100.54 145.885 95.9151C142.485 91.2899 140.637 85.7079 140.603 79.968V58.9124C140.602 57.4337 140.925 55.9727 141.548 54.6316C142.17 53.2904 143.079 52.1015 144.209 51.1481C144.778 50.6723 145.396 50.2577 146.051 49.9111L146.841 49.5426C147.043 49.4549 147.245 49.3847 147.446 49.3058C147.648 49.2268 147.973 49.1478 148.236 49.0777C148.499 49.0086 148.766 48.953 149.034 48.911L149.359 48.8583L149.376 48.8846Z" fill="#951BC4"/>
<path d="M184.784 136.81C185.381 136.292 185.96 135.766 186.539 135.222C185.978 135.766 185.39 136.301 184.784 136.81Z" fill="#951BC4"/>
<path d="M183.671 131.871L183.916 131.634L183.671 131.871Z" fill="#951BC4"/>
<path d="M182.934 132.573C183.188 132.344 183.434 132.108 183.671 131.871C183.434 132.108 183.188 132.344 182.934 132.573Z" fill="#951BC4"/>
<path d="M182.188 133.248L182.934 132.572L182.188 133.248Z" fill="#951BC4"/>
<path d="M181.416 133.906L182.179 133.248C181.933 133.476 181.67 133.695 181.416 133.906Z" fill="#951BC4"/>
<path d="M180.626 134.546L181.415 133.906L180.626 134.546Z" fill="#951BC4"/>
<path d="M180.794 139.845C181.487 139.38 182.171 138.889 182.838 138.389C182.171 138.898 181.487 139.38 180.794 139.845Z" fill="#951BC4"/>
<path d="M179.003 135.748C179.415 135.459 179.828 135.16 180.223 134.871C179.828 135.178 179.415 135.476 179.003 135.748Z" fill="#951BC4"/>
<path d="M174.574 138.433L175.311 138.047L174.574 138.433Z" fill="#951BC4"/>
<path d="M173.827 138.801C174.081 138.687 174.327 138.556 174.572 138.433C174.327 138.565 174.081 138.687 173.827 138.801Z" fill="#951BC4"/>
<path d="M173.143 139.135L173.827 138.801L173.143 139.135Z" fill="#951BC4"/>
<path d="M168.459 145.513L167.915 145.662L167.696 145.715L168.459 145.513Z" fill="#951BC4"/>
<path d="M167.15 141.31L166.808 141.398H166.729L167.15 141.293" fill="#951BC4"/>
<path d="M161.72 140.363C162.419 140.911 163.234 141.291 164.102 141.473C164.971 141.656 165.87 141.636 166.73 141.416L166.572 141.46C165.741 141.669 164.873 141.686 164.035 141.508C163.197 141.33 162.411 140.962 161.738 140.433C160.811 139.711 160.123 138.727 159.764 137.608C160.124 138.703 160.805 139.663 161.72 140.363Z" fill="#951BC4"/>
<path d="M159.026 143.846C160.224 144.777 161.613 145.43 163.094 145.758C164.575 146.085 166.11 146.08 167.589 145.741C166.805 145.933 166.001 146.03 165.194 146.03C162.966 146.028 160.803 145.277 159.053 143.899C157.355 142.56 156.126 140.717 155.543 138.635C156.139 140.687 157.367 142.498 159.053 143.811" fill="#951BC4"/>
<path d="M78.0598 190.756C75.1308 187.789 73.4884 183.788 73.4884 179.618C73.4884 175.449 75.1308 171.448 78.0598 168.481C79.6042 166.998 81.4304 165.841 83.4301 165.077C85.4298 164.313 87.5625 163.958 89.7019 164.033C95.0067 164.033 99.0805 165.901 101.923 169.639C102.16 169.946 102.388 170.27 102.607 170.595C102.902 171.042 103.07 171.56 103.094 172.095C103.118 172.63 102.996 173.161 102.742 173.632C102.489 174.104 102.112 174.497 101.653 174.772C101.194 175.047 100.668 175.192 100.133 175.192H99.8437C99.3589 175.186 98.8834 175.057 98.4616 174.818C98.0398 174.579 97.6854 174.237 97.4311 173.824C97.1421 173.38 96.81 172.965 96.4397 172.587C94.6016 170.867 92.1757 169.916 89.6589 169.928C87.1422 169.939 84.7251 170.912 82.9027 172.648C82.0179 173.572 81.3288 174.666 80.8765 175.863C80.4243 177.06 80.2182 178.336 80.2707 179.614C80.2191 180.9 80.4254 182.184 80.8774 183.389C81.3294 184.595 82.018 185.697 82.9027 186.633C83.8084 187.521 84.8874 188.212 86.0722 188.665C87.2571 189.118 88.5225 189.322 89.7896 189.264C91.0883 189.316 92.3823 189.078 93.5779 188.568C94.7735 188.059 95.8409 187.289 96.7029 186.317C97.0799 185.865 97.4203 185.384 97.7206 184.878C97.9776 184.426 98.3484 184.048 98.7962 183.784C99.2441 183.519 99.7534 183.376 100.274 183.369H100.458C100.98 183.365 101.494 183.499 101.947 183.758C102.4 184.018 102.776 184.393 103.037 184.845C103.297 185.298 103.433 185.811 103.43 186.333C103.427 186.856 103.285 187.367 103.02 187.817C102.722 188.317 102.396 188.8 102.046 189.264C100.629 191.168 98.7704 192.699 96.631 193.726C94.4916 194.753 92.1349 195.245 89.7634 195.16C87.624 195.235 85.4912 194.88 83.4915 194.116C81.4917 193.352 79.6657 192.194 78.1213 190.712" fill="#951BC4"/>
<path d="M108.449 192.09V175.149C108.448 174.851 108.506 174.555 108.619 174.28C108.732 174.004 108.899 173.754 109.109 173.542C109.319 173.331 109.569 173.164 109.844 173.05C110.12 172.935 110.415 172.876 110.713 172.876H120.24C122.07 172.757 123.885 173.278 125.373 174.35C125.951 174.796 126.417 175.371 126.732 176.029C127.048 176.687 127.204 177.411 127.189 178.14C127.22 178.879 127.071 179.614 126.754 180.282C126.438 180.95 125.964 181.531 125.373 181.974C124.858 182.375 124.257 182.652 123.618 182.781V182.992C124.433 183.157 125.215 183.453 125.934 183.869C126.659 184.345 127.252 184.997 127.657 185.764C128.062 186.531 128.266 187.388 128.25 188.256C128.267 189.101 128.086 189.938 127.72 190.7C127.354 191.462 126.815 192.127 126.145 192.642C124.442 193.893 122.358 194.513 120.249 194.397H110.721C110.423 194.397 110.128 194.338 109.853 194.224C109.578 194.11 109.328 193.942 109.118 193.731C108.907 193.52 108.741 193.269 108.628 192.994C108.514 192.718 108.457 192.423 108.458 192.125L108.449 192.09ZM114.353 181.132H119.407C119.687 181.146 119.966 181.105 120.23 181.01C120.494 180.915 120.736 180.769 120.942 180.579C121.122 180.404 121.266 180.195 121.363 179.964C121.461 179.732 121.511 179.484 121.511 179.233C121.511 178.981 121.461 178.733 121.363 178.502C121.266 178.27 121.122 178.061 120.942 177.886C120.736 177.697 120.494 177.55 120.23 177.455C119.966 177.361 119.687 177.319 119.407 177.333H114.353V181.132ZM114.353 189.975H119.828C120.496 189.997 121.145 189.754 121.635 189.3C121.863 189.09 122.044 188.836 122.168 188.553C122.292 188.27 122.356 187.964 122.356 187.655C122.356 187.346 122.292 187.04 122.168 186.757C122.044 186.474 121.863 186.219 121.635 186.01C121.145 185.558 120.495 185.318 119.828 185.343H114.353V189.975Z" fill="#951BC4"/>
<path d="M133.91 191.721C132.85 190.662 132.009 189.404 131.436 188.02C130.862 186.636 130.567 185.152 130.567 183.654C130.567 182.156 130.862 180.672 131.436 179.288C132.009 177.904 132.85 176.646 133.91 175.587C134.986 174.508 136.271 173.658 137.685 173.09C139.1 172.521 140.615 172.246 142.139 172.28C143.653 172.238 145.16 172.509 146.565 173.075C147.971 173.641 149.244 174.49 150.307 175.57C152.062 177.429 153.154 179.816 153.413 182.36C153.454 182.68 153.426 183.004 153.332 183.313C153.238 183.621 153.08 183.905 152.868 184.148C152.655 184.39 152.394 184.584 152.1 184.718C151.807 184.851 151.489 184.921 151.167 184.922H136.665C136.873 186.295 137.541 187.557 138.56 188.501C139.51 189.448 140.798 189.978 142.139 189.975C143.525 190.01 144.879 189.563 145.973 188.712C146.913 187.896 148.115 187.448 149.359 187.449H149.43C149.868 187.451 150.296 187.578 150.664 187.815C151.033 188.052 151.326 188.389 151.51 188.787C151.694 189.184 151.761 189.626 151.704 190.06C151.646 190.494 151.466 190.903 151.184 191.239C150.048 192.499 148.647 193.492 147.082 194.147C145.516 194.802 143.826 195.103 142.13 195.029C140.606 195.063 139.091 194.787 137.677 194.219C136.262 193.65 134.978 192.801 133.901 191.721H133.91ZM136.866 181.342H147.184C146.966 180.225 146.364 179.219 145.482 178.5C144.547 177.711 143.353 177.296 142.13 177.333C140.908 177.304 139.715 177.708 138.761 178.474C137.847 179.209 137.184 180.212 136.866 181.342Z" fill="#951BC4"/>
<path d="M212.543 191.721C211.483 190.662 210.643 189.404 210.069 188.02C209.496 186.636 209.2 185.152 209.2 183.654C209.2 182.156 209.496 180.672 210.069 179.288C210.643 177.904 211.483 176.646 212.543 175.587C213.62 174.508 214.904 173.658 216.318 173.09C217.733 172.521 219.248 172.246 220.772 172.28C222.287 172.238 223.793 172.509 225.199 173.075C226.604 173.641 227.877 174.49 228.94 175.57C230.692 177.432 231.783 179.817 232.046 182.36C232.087 182.68 232.059 183.006 231.965 183.315C231.87 183.623 231.711 183.908 231.498 184.151C231.284 184.393 231.022 184.587 230.728 184.72C230.433 184.853 230.114 184.922 229.791 184.922H215.298C215.507 186.295 216.175 187.557 217.193 188.501C217.663 188.971 218.221 189.342 218.836 189.595C219.45 189.848 220.108 189.977 220.772 189.975C222.158 190.01 223.512 189.563 224.606 188.712C225.546 187.896 226.748 187.448 227.993 187.449H228.063C228.501 187.451 228.929 187.578 229.298 187.815C229.666 188.052 229.959 188.389 230.143 188.787C230.327 189.184 230.395 189.626 230.337 190.06C230.279 190.494 230.099 190.903 229.817 191.239C228.681 192.499 227.28 193.492 225.715 194.147C224.149 194.802 222.459 195.103 220.764 195.029C219.241 195.062 217.727 194.786 216.314 194.217C214.901 193.649 213.619 192.8 212.543 191.721ZM215.508 181.342H225.826C225.605 180.226 225.003 179.222 224.124 178.5C223.188 177.713 221.995 177.298 220.772 177.333C219.55 177.304 218.357 177.708 217.403 178.474C216.489 179.209 215.826 180.212 215.508 181.342Z" fill="#00A887"/>
<path d="M154.982 175.613V175.201C154.982 174.584 155.227 173.993 155.663 173.557C156.099 173.121 156.691 172.876 157.307 172.876H172.888C173.503 172.879 174.092 173.124 174.527 173.56C174.961 173.996 175.204 174.586 175.204 175.201V175.613C175.204 176.228 174.96 176.817 174.526 177.251C174.092 177.686 173.503 177.93 172.888 177.93H168.046V192.046C168.043 192.661 167.797 193.25 167.362 193.684C166.926 194.118 166.336 194.362 165.721 194.362H164.466C163.851 194.362 163.261 194.118 162.825 193.684C162.389 193.25 162.144 192.661 162.141 192.046V177.93H157.272C156.657 177.93 156.067 177.686 155.631 177.252C155.195 176.818 154.949 176.229 154.947 175.613" fill="#951BC4"/>
<path d="M175.626 197.31V190.73C175.625 190.432 175.682 190.137 175.796 189.862C175.909 189.587 176.076 189.337 176.286 189.127C176.497 188.916 176.746 188.749 177.022 188.636C177.297 188.523 177.592 188.465 177.889 188.466H178.995L184.653 166.612C184.778 166.113 185.066 165.669 185.471 165.351C185.876 165.033 186.376 164.86 186.89 164.858H196.541C197.056 164.86 197.555 165.033 197.961 165.351C198.366 165.669 198.653 166.113 198.778 166.612L204.437 188.466H205.542C205.84 188.465 206.135 188.523 206.41 188.636C206.685 188.749 206.935 188.916 207.145 189.127C207.356 189.337 207.522 189.587 207.636 189.862C207.749 190.137 207.807 190.432 207.806 190.73V197.31C207.804 197.916 207.563 198.498 207.137 198.929C206.71 199.361 206.131 199.608 205.525 199.617H204.051C203.437 199.617 202.847 199.373 202.413 198.939C201.979 198.504 201.735 197.915 201.735 197.301V194.353H181.732V197.301C181.732 197.915 181.488 198.504 181.054 198.939C180.619 199.373 180.03 199.617 179.416 199.617H177.942C177.638 199.617 177.336 199.557 177.055 199.441C176.774 199.324 176.519 199.154 176.304 198.939C176.089 198.723 175.918 198.468 175.802 198.187C175.686 197.906 175.626 197.605 175.626 197.301V197.31ZM185.101 188.457H198.366L193.734 170.762H189.733L185.101 188.457Z" fill="#00A887"/>
<path d="M235.643 192.046V175.201C235.643 174.586 235.887 173.996 236.321 173.56C236.755 173.124 237.344 172.879 237.959 172.876H239.223C239.838 172.879 240.427 173.124 240.861 173.56C241.295 173.996 241.539 174.586 241.539 175.201V180.886H244.066L249.058 173.868C249.271 173.566 249.554 173.319 249.882 173.148C250.21 172.977 250.574 172.887 250.944 172.885H251.821C252.245 172.885 252.662 173.001 253.024 173.221C253.387 173.442 253.682 173.757 253.878 174.134C254.074 174.51 254.162 174.933 254.133 175.357C254.105 175.78 253.96 176.188 253.716 176.535L249.33 182.79L254.593 190.782C254.821 191.133 254.949 191.538 254.965 191.956C254.981 192.373 254.884 192.788 254.685 193.155C254.486 193.522 254.191 193.829 253.832 194.043C253.474 194.257 253.064 194.37 252.646 194.371H251.453C251.067 194.37 250.688 194.274 250.35 194.09C250.011 193.906 249.724 193.641 249.514 193.318L244.724 185.948H241.565V192.089C241.565 192.394 241.505 192.695 241.389 192.976C241.273 193.257 241.102 193.512 240.887 193.727C240.672 193.942 240.417 194.113 240.136 194.229C239.854 194.346 239.553 194.406 239.249 194.406H237.986C237.372 194.406 236.782 194.162 236.348 193.727C235.914 193.293 235.67 192.704 235.67 192.089" fill="#00A887"/>
<path d="M260.278 191.721C259.211 190.666 258.364 189.41 257.786 188.025C257.207 186.641 256.91 185.155 256.91 183.654C256.91 182.154 257.207 180.668 257.786 179.283C258.364 177.899 259.211 176.642 260.278 175.587C262.564 173.461 265.57 172.279 268.692 172.279C271.813 172.279 274.819 173.461 277.105 175.587C278.18 176.638 279.034 177.893 279.617 179.278C280.2 180.664 280.5 182.151 280.5 183.654C280.5 185.157 280.2 186.645 279.617 188.03C279.034 189.416 278.18 190.67 277.105 191.721C274.819 193.847 271.813 195.029 268.692 195.029C265.57 195.029 262.564 193.847 260.278 191.721ZM264.665 179.105C263.604 180.384 263.023 181.993 263.023 183.654C263.023 185.316 263.604 186.925 264.665 188.203C265.18 188.762 265.805 189.208 266.501 189.513C267.197 189.818 267.949 189.976 268.709 189.976C269.469 189.976 270.221 189.818 270.917 189.513C271.613 189.208 272.239 188.762 272.754 188.203C273.814 186.925 274.395 185.316 274.395 183.654C274.395 181.993 273.814 180.384 272.754 179.105C272.239 178.547 271.613 178.101 270.917 177.796C270.221 177.491 269.469 177.333 268.709 177.333C267.949 177.333 267.197 177.491 266.501 177.796C265.805 178.101 265.18 178.547 264.665 179.105Z" fill="#00A887"/>
<path d="M283.869 200.047V175.201C283.869 174.586 284.113 173.996 284.547 173.561C284.981 173.125 285.57 172.879 286.185 172.877H287.44C287.745 172.877 288.047 172.937 288.329 173.054C288.611 173.17 288.868 173.342 289.083 173.558C289.299 173.773 289.471 174.03 289.587 174.312C289.704 174.594 289.764 174.896 289.764 175.201V175.614H289.975C290.455 174.991 291.006 174.426 291.616 173.929C293.083 172.822 294.875 172.23 296.713 172.245C298.04 172.228 299.356 172.5 300.568 173.042C301.78 173.585 302.859 174.384 303.731 175.386C305.573 177.735 306.574 180.634 306.574 183.619C306.574 186.605 305.573 189.504 303.731 191.853C302.861 192.856 301.782 193.657 300.569 194.2C299.357 194.742 298.041 195.013 296.713 194.994C294.875 195.009 293.083 194.416 291.616 193.309C291.006 192.813 290.455 192.248 289.975 191.625H289.747V200.047C289.745 200.662 289.499 201.251 289.063 201.685C288.627 202.12 288.037 202.363 287.422 202.363H286.167C285.553 202.363 284.964 202.119 284.53 201.685C284.095 201.251 283.851 200.661 283.851 200.047H283.869ZM291.265 178.991C290.278 180.343 289.747 181.973 289.747 183.646C289.747 185.319 290.278 186.948 291.265 188.3C291.762 188.85 292.375 189.284 293.058 189.572C293.742 189.86 294.48 189.995 295.221 189.967C295.939 189.987 296.652 189.846 297.307 189.554C297.963 189.263 298.545 188.828 299.011 188.282C299.97 186.928 300.485 185.309 300.485 183.65C300.485 181.991 299.97 180.372 299.011 179.018C298.546 178.471 297.964 178.035 297.308 177.742C296.652 177.449 295.939 177.306 295.221 177.325C294.48 177.299 293.743 177.434 293.059 177.722C292.376 178.01 291.764 178.443 291.265 178.991Z" fill="#00A887"/>
<path d="M334.208 116.267L337.344 121.619L340.48 116.267H342.799L338.571 122.813L342.799 129.358H340.48L337.344 124.279L334.208 129.358H331.889L336.049 122.813L331.889 116.267H334.208Z" fill="#787878"/>
<path d="M322.304 51.2802V192.722" stroke="#C7C7C7" stroke-miterlimit="10"/>
<path d="M319.515 56.4651L320.339 56.7634L322.304 51.3678L324.27 56.7634L325.094 56.4651L322.304 48.7973L319.515 56.4651Z" fill="#C7C7C7"/>
<path d="M319.515 187.536L320.339 187.238L322.304 192.634L324.27 187.238L325.094 187.536L322.304 195.204L319.515 187.536Z" fill="#C7C7C7"/>
<path d="M205.943 16.5462V34.0007H203.83V18.7621H203.728L199.466 21.5916V19.4439L203.83 16.5462H205.943ZM217.168 15.728L211.543 36.6257H209.702L215.327 15.728H217.168ZM225.416 34.2394C224.291 34.2394 223.288 34.0462 222.407 33.6598C221.532 33.2735 220.836 32.7365 220.319 32.049C219.808 31.3558 219.529 30.5519 219.484 29.6371H221.632C221.677 30.1996 221.87 30.6854 222.211 31.0945C222.552 31.4979 222.998 31.8104 223.549 32.032C224.1 32.2536 224.711 32.3644 225.382 32.3644C226.132 32.3644 226.796 32.2337 227.376 31.9723C227.956 31.711 228.41 31.3473 228.74 30.8814C229.069 30.4155 229.234 29.8757 229.234 29.2621C229.234 28.6201 229.075 28.0547 228.757 27.5661C228.438 27.0718 227.973 26.6854 227.359 26.407C226.745 26.1286 225.995 25.9894 225.109 25.9894H223.711V24.1144H225.109C225.802 24.1144 226.41 23.9894 226.933 23.7394C227.461 23.4894 227.873 23.1371 228.169 22.6825C228.47 22.228 228.62 21.6939 228.62 21.0803C228.62 20.4894 228.49 19.9752 228.228 19.5377C227.967 19.1002 227.598 18.7593 227.12 18.5149C226.649 18.2706 226.092 18.1485 225.45 18.1485C224.848 18.1485 224.279 18.2593 223.745 18.4808C223.217 18.6968 222.785 19.0121 222.45 19.4269C222.115 19.836 221.933 20.3303 221.904 20.9098H219.859C219.893 19.995 220.169 19.1939 220.686 18.5064C221.203 17.8132 221.879 17.2735 222.714 16.8871C223.555 16.5007 224.478 16.3075 225.484 16.3075C226.563 16.3075 227.49 16.5263 228.262 16.9638C229.035 17.3956 229.629 17.9666 230.044 18.6769C230.458 19.3871 230.666 20.1541 230.666 20.978C230.666 21.961 230.407 22.799 229.89 23.4922C229.379 24.1854 228.683 24.6655 227.802 24.9326V25.0689C228.904 25.2507 229.765 25.7195 230.384 26.4752C231.004 27.2252 231.313 28.1541 231.313 29.2621C231.313 30.211 231.055 31.0632 230.538 31.8189C230.027 32.5689 229.328 33.1598 228.441 33.5916C227.555 34.0235 226.546 34.2394 225.416 34.2394ZM236.333 20.9098L239.47 26.2621L242.606 20.9098H244.924L240.697 27.4553L244.924 34.0007H242.606L239.47 28.9212L236.333 34.0007H234.015L238.174 27.4553L234.015 20.9098H236.333Z" fill="#787878"/>
<path d="M190.496 2.4834V46.4722" stroke="#C7C7C7" stroke-miterlimit="10"/>
<path d="M187.697 7.66849L188.531 7.96678L190.496 2.56252L192.461 7.96678L193.286 7.66849L190.496 0.000732422L187.697 7.66849Z" fill="#C7C7C7"/>
<path d="M187.697 41.2873L188.531 40.989L190.496 46.3933L192.461 40.989L193.286 41.2873L190.496 48.9551L187.697 41.2873Z" fill="#C7C7C7"/>
<path d="M205.943 211.546V229.001H203.83V213.762H203.728L199.466 216.592V214.444L203.83 211.546H205.943ZM217.168 210.728L211.543 231.626H209.702L215.327 210.728H217.168ZM225.416 229.239C224.291 229.239 223.288 229.046 222.407 228.66C221.532 228.273 220.836 227.737 220.319 227.049C219.808 226.356 219.529 225.552 219.484 224.637H221.632C221.677 225.2 221.87 225.685 222.211 226.094C222.552 226.498 222.998 226.81 223.549 227.032C224.1 227.254 224.711 227.364 225.382 227.364C226.132 227.364 226.796 227.234 227.376 226.972C227.956 226.711 228.41 226.347 228.74 225.881C229.069 225.416 229.234 224.876 229.234 224.262C229.234 223.62 229.075 223.055 228.757 222.566C228.438 222.072 227.973 221.685 227.359 221.407C226.745 221.129 225.995 220.989 225.109 220.989H223.711V219.114H225.109C225.802 219.114 226.41 218.989 226.933 218.739C227.461 218.489 227.873 218.137 228.169 217.683C228.47 217.228 228.62 216.694 228.62 216.08C228.62 215.489 228.49 214.975 228.228 214.538C227.967 214.1 227.598 213.759 227.12 213.515C226.649 213.271 226.092 213.148 225.45 213.148C224.848 213.148 224.279 213.259 223.745 213.481C223.217 213.697 222.785 214.012 222.45 214.427C222.115 214.836 221.933 215.33 221.904 215.91H219.859C219.893 214.995 220.169 214.194 220.686 213.506C221.203 212.813 221.879 212.273 222.714 211.887C223.555 211.501 224.478 211.308 225.484 211.308C226.563 211.308 227.49 211.526 228.262 211.964C229.035 212.396 229.629 212.967 230.044 213.677C230.458 214.387 230.666 215.154 230.666 215.978C230.666 216.961 230.407 217.799 229.89 218.492C229.379 219.185 228.683 219.666 227.802 219.933V220.069C228.904 220.251 229.765 220.719 230.384 221.475C231.004 222.225 231.313 223.154 231.313 224.262C231.313 225.211 231.055 226.063 230.538 226.819C230.027 227.569 229.328 228.16 228.441 228.592C227.555 229.023 226.546 229.239 225.416 229.239ZM236.333 215.91L239.47 221.262L242.606 215.91H244.924L240.697 222.455L244.924 229.001H242.606L239.47 223.921L236.333 229.001H234.015L238.174 222.455L234.015 215.91H236.333Z" fill="#787878"/>
<path d="M190.496 197.529V241.527" stroke="#C7C7C7" stroke-miterlimit="10"/>
<path d="M187.697 202.714L188.531 203.013L190.496 197.617L192.461 203.013L193.286 202.714L190.496 195.047L187.697 202.714Z" fill="#C7C7C7"/>
<path d="M187.697 236.342L188.531 236.035L190.496 241.439L192.461 236.035L193.286 236.342L190.496 244.001L187.697 236.342Z" fill="#C7C7C7"/>
<path d="M19.9434 107.546V125.001H17.8298V109.762H17.7275L13.4662 112.592V110.444L17.8298 107.546H19.9434ZM31.1679 106.728L25.5429 127.626H23.7019L29.3269 106.728H31.1679ZM33.518 125.001V123.467L39.2794 117.16C39.9555 116.421 40.5123 115.779 40.9498 115.234C41.3873 114.683 41.7112 114.166 41.9214 113.683C42.1373 113.194 42.2453 112.683 42.2453 112.148C42.2453 111.535 42.0975 111.004 41.8021 110.555C41.5123 110.106 41.1146 109.759 40.6089 109.515C40.1032 109.271 39.535 109.148 38.9044 109.148C38.2339 109.148 37.6487 109.288 37.1487 109.566C36.6544 109.839 36.2708 110.222 35.9981 110.717C35.7311 111.211 35.5975 111.791 35.5975 112.455H33.5862C33.5862 111.433 33.822 110.535 34.2936 109.762C34.7652 108.989 35.4072 108.387 36.2197 107.955C37.0379 107.523 37.9555 107.308 38.9725 107.308C39.9953 107.308 40.9015 107.523 41.6913 107.955C42.4811 108.387 43.1004 108.969 43.5492 109.702C43.9981 110.435 44.2225 111.251 44.2225 112.148C44.2225 112.791 44.1061 113.418 43.8731 114.032C43.6458 114.64 43.2481 115.319 42.6799 116.069C42.1174 116.813 41.3362 117.722 40.3362 118.796L36.4157 122.989V123.126H44.5294V125.001H33.518ZM49.5833 111.91L52.7197 117.262L55.8561 111.91H58.1742L53.947 118.455L58.1742 125.001H55.8561L52.7197 119.921L49.5833 125.001H47.2652L51.4242 118.455L47.2652 111.91H49.5833Z" fill="#787878"/>
<path d="M71.0049 130.677H2.60022" stroke="#C7C7C7" stroke-miterlimit="10"/>
<path d="M65.8199 127.887L65.5216 128.712L70.9258 130.677L65.5216 132.643L65.8199 133.467L73.4876 130.677L65.8199 127.887Z" fill="#C7C7C7"/>
<path d="M7.78519 127.887L8.08345 128.712L2.68802 130.677L8.08345 132.643L7.78519 133.467L0.117432 130.677L7.78519 127.887Z" fill="#C7C7C7"/>
<path d="M306.61 48.7973H73.4884V195.196H306.61V48.7973Z" stroke="#C7C7C7" stroke-miterlimit="10"/>
<path d="M379.97 0.000732422H0.117432V244.001H379.97V0.000732422Z" stroke="#C7C7C7" stroke-miterlimit="10"/>
<path d="M306.609 48.7973H379.97" stroke="#C7C7C7" stroke-miterlimit="10"/>
<path d="M306.609 195.204H379.97" stroke="#C7C7C7" stroke-miterlimit="10"/>
</g>
<defs>
<clipPath id="clip0_2280_358">
<rect width="379.853" height="244" fill="white" transform="translate(0.117432 0.000732422)"/>
</clipPath>
</defs>
</svg>
