<svg width="234" height="231" viewBox="0 0 234 231" fill="none" xmlns="http://www.w3.org/2000/svg">
<g clip-path="url(#clip0_2126_2829)">
<path d="M120.312 151.396L120.922 152.174L120.312 151.396Z" fill="#951BC4"/>
<path d="M119.131 149.792C119.221 149.931 119.321 150.071 119.421 150.201C119.321 150.071 119.221 149.931 119.131 149.792C119.036 149.669 118.932 149.552 118.821 149.443C118.937 149.548 119.041 149.665 119.131 149.792Z" fill="#951BC4"/>
<path d="M117 155.582C117.94 156.738 118.941 157.844 120.001 158.911C118.961 157.848 117.96 156.741 117 155.592V155.582Z" fill="#951BC4"/>
<path d="M113.988 92.1815C114.919 90.4774 115.929 88.8231 116.99 87.1987C118.061 88.8131 119.071 90.4774 119.992 92.1815C120.542 93.178 121.062 94.1746 121.552 95.221C122.043 96.2673 122.553 97.3835 123.013 98.4797C123.804 100.473 124.614 102.715 125.114 104.319C125.214 104.638 125.314 104.947 125.404 105.266C125.564 105.814 125.724 106.372 125.875 106.94C125.965 107.279 126.055 107.618 126.135 107.937C126.215 108.256 126.295 108.545 126.365 108.854C126.435 109.163 126.485 109.362 126.535 109.621L126.595 109.86C126.595 110.129 126.705 110.398 126.765 110.667C126.825 110.937 126.875 111.206 126.925 111.475L127.075 112.282L127.195 112.979C127.255 113.292 127.305 113.601 127.345 113.906C127.345 114.076 127.405 114.245 127.425 114.414C127.445 114.584 127.425 114.624 127.425 114.723V114.992C127.425 114.992 127.425 115.062 127.425 115.092L127.485 115.541C127.485 115.59 127.485 115.64 127.485 115.69C127.485 115.74 127.485 115.979 127.485 116.129C127.485 116.129 127.485 116.218 127.485 116.258C127.485 116.298 127.485 116.258 127.485 116.318C127.485 116.527 127.485 116.736 127.555 116.946L127.615 117.574L127.676 118.171C127.676 118.46 127.736 118.749 127.756 119.048C127.816 119.886 127.866 120.733 127.896 121.58C127.896 121.988 127.896 122.397 127.896 122.805V122.895C127.896 123.294 127.896 123.692 127.896 124.091V124.221C127.857 124.871 127.579 125.485 127.115 125.945C126.783 126.282 126.364 126.524 125.905 126.642H125.775H125.534H107.925H107.685H107.555C107.096 126.524 106.677 126.282 106.345 125.945C105.88 125.485 105.603 124.871 105.564 124.221V124.091C105.564 123.692 105.564 123.294 105.564 122.895V122.805C105.564 122.397 105.564 121.988 105.564 121.58C105.564 120.733 105.644 119.886 105.704 119.048C105.704 118.62 105.774 118.211 105.814 117.783C105.894 116.946 105.984 116.109 106.094 115.272C106.094 114.983 106.174 114.684 106.224 114.395C106.224 114.096 106.315 113.807 106.355 113.518L106.505 112.651C106.505 112.461 106.565 112.272 106.605 112.083C106.645 111.893 106.605 111.943 106.605 111.873C106.609 111.797 106.609 111.72 106.605 111.644C106.605 111.475 106.675 111.305 106.705 111.136C106.7 111.076 106.7 111.016 106.705 110.956C106.705 110.777 106.775 110.598 106.815 110.418L106.905 109.99C107.045 109.342 107.195 108.694 107.345 108.056C107.435 107.728 107.515 107.409 107.595 107.06C107.595 107.01 107.595 106.96 107.595 106.92C107.665 106.641 107.745 106.372 107.815 106.103C107.885 105.834 107.985 105.505 108.075 105.206C108.165 104.907 108.276 104.529 108.386 104.21C108.876 102.635 109.656 100.453 110.387 98.4896C110.857 97.3535 111.387 96.2275 111.887 95.1313C112.388 94.035 112.888 93.0883 113.448 92.0818L113.988 92.1815ZM113.868 117.723C113.87 117.058 114.127 116.42 114.587 115.938C115.046 115.456 115.673 115.168 116.34 115.132H116.58C117.246 115.168 117.873 115.456 118.333 115.938C118.793 116.42 119.05 117.058 119.051 117.723V121.61H122.363C122.363 120.945 122.323 120.258 122.243 119.547C122.243 119.278 122.243 119.009 122.173 118.739C122.119 118.155 122.059 117.567 121.993 116.976C121.993 116.786 121.993 116.587 121.923 116.398L121.803 115.481C121.803 115.291 121.802 115.102 121.722 114.913C121.642 114.723 121.722 114.604 121.652 114.454C121.582 114.305 121.582 114.026 121.542 113.807C121.502 113.587 121.472 113.378 121.422 113.169C121.356 112.737 121.276 112.308 121.182 111.883C121.182 111.674 121.092 111.465 121.052 111.255C120.962 110.847 120.872 110.438 120.772 110.03C120.672 109.621 120.652 109.501 120.582 109.242C120.512 108.983 120.382 108.475 120.282 108.086C120.222 107.877 120.172 107.668 120.102 107.459C119.951 106.92 119.791 106.382 119.631 105.844C119.561 105.645 119.501 105.436 119.431 105.236C119.301 104.828 119.161 104.419 119.021 104.011C118.881 103.602 118.661 103.014 118.471 102.486C118.281 101.958 118.041 101.36 117.81 100.802C117.39 99.8051 116.94 98.7487 116.46 97.7422C115.979 98.7388 115.529 99.7353 115.109 100.802C114.879 101.36 114.659 101.928 114.449 102.486C114.239 103.044 114.079 103.482 113.898 104.011C113.718 104.539 113.618 104.828 113.488 105.236C113.248 105.974 113.028 106.711 112.818 107.459C112.748 107.668 112.698 107.877 112.638 108.086C112.528 108.475 112.428 108.854 112.338 109.242C112.248 109.631 112.208 109.771 112.148 110.03C112.088 110.289 111.957 110.847 111.867 111.255C111.867 111.465 111.777 111.674 111.737 111.883C111.644 112.308 111.564 112.737 111.497 113.169C111.447 113.378 111.417 113.597 111.377 113.807C111.337 114.016 111.307 114.235 111.267 114.454C111.227 114.674 111.217 114.753 111.197 114.913C111.177 115.072 111.197 115.291 111.117 115.481L110.997 116.398C110.997 116.587 110.947 116.786 110.917 116.976C110.857 117.564 110.797 118.152 110.747 118.739C110.747 119.009 110.697 119.278 110.677 119.547C110.677 120.234 110.577 120.922 110.557 121.61H113.868V117.723Z" fill="#00A887"/>
<path d="M117 155.582C116.059 156.724 115.059 157.831 113.998 158.9C115.025 157.837 116.026 156.728 117 155.572" fill="#951BC4"/>
<path d="M115.229 149.393C115.353 149.268 115.495 149.16 115.649 149.074C115.497 149.164 115.356 149.271 115.229 149.393Z" fill="#951BC4"/>
<path d="M115.23 149.393C115.099 149.517 114.979 149.65 114.869 149.792C113.873 151.215 112.79 152.576 111.628 153.868C112.788 152.574 113.87 151.213 114.869 149.792C114.971 149.643 115.092 149.509 115.23 149.393Z" fill="#951BC4"/>
<path d="M68.8657 58.3189C69.8621 58.1919 70.8708 58.1919 71.8672 58.3189L72.3574 58.3886C73.2979 58.5481 74.2385 58.7275 75.1589 58.9268L76.4595 59.2158L77.7001 59.5147C90.4056 62.7749 101.88 69.6566 110.717 79.3161C112.222 80.9603 113.641 82.6799 114.969 84.4683L115.129 84.6875L112.128 89.3115L111.798 88.8631L111.728 88.7535L111.538 88.4944C110.343 86.8047 109.06 85.1781 107.696 83.6212C99.5755 74.4075 88.8811 67.8151 76.9798 64.6868L75.8693 64.4078C75.4991 64.3081 75.1189 64.2284 74.7387 64.1387H74.6286L73.9983 63.9992L73.368 63.8696C72.7376 63.7401 72.1073 63.6205 71.467 63.5209C70.5145 63.3594 69.5381 63.4078 68.6064 63.6626C67.6747 63.9174 66.8103 64.3725 66.0742 64.9957C65.3149 65.6308 64.7047 66.4239 64.2864 67.3192C63.8681 68.2145 63.6519 69.1903 63.653 70.1778V94.9719C63.6742 102.049 66.5137 108.829 71.5483 113.823C76.5829 118.817 83.4013 121.618 90.5068 121.61C91.1701 121.651 91.7928 121.942 92.248 122.424C92.7032 122.907 92.9565 123.544 92.9565 124.206C92.9565 124.868 92.7032 125.505 92.248 125.987C91.7928 126.469 91.1701 126.761 90.5068 126.802C87.9416 126.804 85.4823 127.82 83.6684 129.627C81.8546 131.434 80.8344 133.883 80.8318 136.438V160.754C80.8318 161.023 80.8318 161.292 80.8318 161.551L80.8918 161.93C80.8918 162.06 80.8918 162.179 80.9718 162.309C80.9718 162.398 80.9719 162.488 81.042 162.588L81.1219 162.847C81.5461 164.167 82.3625 165.327 83.4631 166.175C84.2583 166.8 85.187 167.235 86.1775 167.446C87.168 167.656 88.194 167.638 89.1761 167.391L89.3562 167.341H89.4562L89.8564 167.242L90.2266 167.142L90.7469 166.993L91.3371 166.813H91.4472L92.1976 166.574L92.5378 166.454L93.1782 166.235L93.4283 166.145L94.1086 165.896L94.2687 165.827L95.0791 165.518C95.3792 165.388 95.6894 165.268 95.9795 165.129C96.2697 164.989 96.5699 164.88 96.86 164.74H96.96C97.2335 164.621 97.5037 164.491 97.7705 164.352C98.0606 164.212 98.3508 164.073 98.651 163.913C98.9511 163.754 99.2312 163.614 99.5114 163.455L100.372 162.986L101.212 162.488C101.442 162.359 101.672 162.209 101.893 162.07C102.573 161.651 103.233 161.213 103.894 160.754C104.374 160.415 104.894 160.066 105.334 159.698L105.815 159.329C106.125 159.09 106.435 158.841 106.735 158.582C107.045 158.333 107.345 158.073 107.646 157.804L108.536 157.007C108.826 156.738 109.116 156.469 109.406 156.18C109.505 156.092 109.598 155.999 109.687 155.901L109.977 155.622C110.347 155.243 110.717 154.855 111.077 154.466L111.578 153.918C112.74 152.626 113.823 151.265 114.819 149.842C114.929 149.7 115.049 149.567 115.179 149.443C115.308 149.323 115.449 149.216 115.6 149.124C115.779 149.01 115.975 148.923 116.18 148.865C116.429 148.785 116.689 148.745 116.95 148.746C117.288 148.744 117.623 148.81 117.936 148.938C118.248 149.066 118.532 149.255 118.771 149.493C118.881 149.603 118.981 149.722 119.081 149.842C119.181 149.961 119.271 150.121 119.372 150.25C119.472 150.38 119.562 150.52 119.662 150.649C119.762 150.779 120.062 151.187 120.262 151.446L120.872 152.224C121.493 152.991 122.143 153.738 122.813 154.466L123.324 155.004L123.834 155.532C124.184 155.891 124.534 156.23 124.834 156.529C125.134 156.828 125.835 157.416 126.295 157.844L127.046 158.482C127.296 158.691 127.546 158.901 127.806 159.1L128.286 159.479C129.093 160.103 129.924 160.701 130.777 161.272C131.118 161.492 131.458 161.721 131.778 161.93C132.098 162.139 132.278 162.259 132.538 162.408L132.628 162.458C132.898 162.628 133.179 162.787 133.459 162.947L134.309 163.415C134.599 163.574 134.89 163.734 135.18 163.873C135.47 164.013 135.74 164.162 136.02 164.292L136.801 164.661H136.921L137.741 165.029H137.811L138.702 165.408L139.502 165.717L139.672 165.787L140.262 166.006L140.642 166.145C140.793 166.145 140.943 166.255 141.103 166.295L141.633 166.484L142.493 166.753L142.944 166.883L143.594 167.072H143.784L144.324 167.212H144.444L144.604 167.262C145.587 167.508 146.613 167.527 147.603 167.316C148.594 167.105 149.522 166.671 150.317 166.046C151.418 165.198 152.234 164.037 152.659 162.717C152.659 162.638 152.659 162.548 152.739 162.458C152.819 162.369 152.739 162.269 152.809 162.179C152.809 162.05 152.869 161.93 152.889 161.8C152.889 161.681 152.889 161.551 152.889 161.422C152.904 161.16 152.904 160.897 152.889 160.635V136.468C152.886 133.913 151.866 131.464 150.052 129.657C148.238 127.85 145.779 126.834 143.214 126.832C142.858 126.854 142.501 126.803 142.166 126.682C141.831 126.562 141.524 126.374 141.264 126.131C141.004 125.888 140.797 125.594 140.655 125.268C140.514 124.942 140.441 124.591 140.441 124.236C140.441 123.88 140.514 123.529 140.655 123.203C140.797 122.877 141.004 122.584 141.264 122.34C141.524 122.097 141.831 121.909 142.166 121.789C142.501 121.668 142.858 121.618 143.214 121.64C150.319 121.634 157.132 118.821 162.158 113.818C167.183 108.814 170.01 102.029 170.018 94.952V70.1579C170.016 69.1708 169.799 68.1959 169.38 67.301C168.962 66.4061 168.354 65.6126 167.596 64.9758C166.858 64.3523 165.992 63.8972 165.059 63.6424C164.126 63.3876 163.148 63.3393 162.194 63.5009C161.563 63.6006 160.933 63.7201 160.303 63.8497L159.672 63.9793L159.042 64.1188H158.922L157.791 64.3878L156.691 64.6669C144.789 67.7952 134.095 74.3876 125.975 83.6013C124.61 85.1582 123.328 86.7848 122.133 88.4744L121.943 88.7335L121.873 88.8431L121.543 89.2916L118.541 84.6676L118.691 84.4484C120.022 82.6745 121.453 80.9305 122.943 79.2962H122.993C131.83 69.6366 143.305 62.755 156.01 59.4948L157.251 59.1958L158.542 58.9068C159.472 58.7075 160.403 58.5281 161.343 58.3687L161.843 58.2989H162.204H162.574H164.124L164.875 58.3787L165.255 58.4384C165.575 58.4384 165.885 58.558 166.256 58.6378C166.626 58.7175 166.876 58.8072 167.186 58.9068C167.496 59.0065 167.666 59.0762 167.906 59.1759C168.227 59.3154 168.537 59.4549 168.847 59.6144C169.628 60.0186 170.359 60.5101 171.028 61.0793C172.363 62.2018 173.436 63.6012 174.173 65.1795C174.909 66.7579 175.29 68.4773 175.29 70.2176V95.0118C175.257 101.755 173.092 108.317 169.104 113.765C165.115 119.214 159.505 123.273 153.069 125.367C154.672 126.754 155.956 128.47 156.835 130.395C157.713 132.321 158.166 134.413 158.161 136.528V160.854C158.162 161.431 158.122 162.007 158.041 162.578C158.041 162.917 157.931 163.245 157.851 163.574C157.851 163.694 157.791 163.814 157.771 163.923C157.681 164.252 157.581 164.561 157.471 164.92C157.381 165.189 157.271 165.448 157.161 165.697C156.014 168.249 154.014 170.326 151.502 171.575C148.99 172.823 146.121 173.165 143.384 172.543H143.294L142.814 172.424L142.343 172.294C142.023 172.214 141.703 172.115 141.343 172.025L140.342 171.736L139.412 171.427L138.481 171.098L137.611 170.779H137.511L136.61 170.421L135.98 170.162L135.51 169.952L135.41 169.902L134.579 169.534L133.709 169.115L132.829 168.677L131.948 168.218L131.088 167.75C129.579 166.903 128.117 165.978 126.705 164.979C126.235 164.651 125.765 164.312 125.305 163.983L124.724 163.525C124.334 163.226 123.944 162.917 123.564 162.598L122.993 162.119C122.293 161.511 121.603 160.894 120.932 160.256L120.272 159.608L119.742 159.08C118.741 158.014 117.741 156.907 116.74 155.751C115.793 156.907 114.793 158.017 113.739 159.08L113.208 159.608L112.548 160.256C111.878 160.894 111.187 161.511 110.477 162.119L109.917 162.598C109.537 162.917 109.146 163.226 108.756 163.525L108.176 163.983C107.385 164.581 106.575 165.149 105.755 165.697L104.934 166.245L104.094 166.763L103.243 167.272L102.393 167.77L101.693 168.149C101.352 168.338 101.002 168.517 100.692 168.697C100.382 168.876 100.122 168.986 99.8315 169.125C99.5814 169.255 99.3113 169.374 99.0512 169.494L98.9311 169.554L98.1207 169.912L98.0206 169.962L97.5404 170.172L96.9101 170.431L96.0196 170.789H95.9196L95.0491 171.108L94.1286 171.437H94.0386L93.1682 171.726L92.2276 172.015C91.9075 172.105 91.5873 172.204 91.2271 172.284L90.3166 172.523C90.2737 172.533 90.2295 172.533 90.1867 172.523C88.4391 172.924 86.6239 172.933 84.8727 172.549C83.1214 172.164 81.4778 171.396 80.0613 170.301C78.0507 168.757 76.5831 166.619 75.8693 164.192C75.8693 164.033 75.7792 163.873 75.7392 163.704C75.6491 163.335 75.5791 162.956 75.5191 162.568C75.4386 161.993 75.3985 161.414 75.399 160.834V136.518C75.3947 134.403 75.8471 132.311 76.7258 130.385C77.6045 128.46 78.8888 126.745 80.4916 125.357C74.056 123.263 68.4457 119.204 64.4569 113.755C60.4682 108.307 58.3036 101.745 58.2703 95.0018V70.1579C58.2703 68.4175 58.6516 66.6981 59.3878 65.1197C60.1239 63.5413 61.1972 62.142 62.5325 61.0195C63.2013 60.4503 63.933 59.9588 64.7135 59.5546C65.0237 59.3951 65.3339 59.2556 65.6541 59.1161C65.8942 59.0164 66.1343 58.9268 66.3744 58.847C66.6846 58.7474 66.9946 58.6477 67.3048 58.578C67.615 58.5082 67.9352 58.4285 68.2554 58.3787L68.6356 58.3189H68.8657Z" fill="#951BC4"/>
<path d="M200.143 107.631L203.28 112.984L206.416 107.631H208.734L204.507 114.177L208.734 120.722H206.416L203.28 115.643L200.143 120.722H197.825L201.984 114.177L197.825 107.631H200.143Z" fill="#787878"/>
<path d="M133.267 19.4681V36.9226H131.154V21.684H131.051L126.79 24.5135V22.3658L131.154 19.4681H133.267ZM144.492 18.6499L138.867 39.5476H137.026L142.651 18.6499H144.492ZM146.842 36.9226V35.3885L152.603 29.0817C153.279 28.3431 153.836 27.701 154.274 27.1556C154.711 26.6044 155.035 26.0874 155.245 25.6044C155.461 25.1158 155.569 24.6044 155.569 24.0703C155.569 23.4567 155.422 22.9254 155.126 22.4766C154.836 22.0277 154.439 21.6811 153.933 21.4368C153.427 21.1925 152.859 21.0703 152.228 21.0703C151.558 21.0703 150.973 21.2095 150.473 21.4879C149.978 21.7607 149.595 22.1442 149.322 22.6385C149.055 23.1328 148.922 23.7124 148.922 24.3772H146.91C146.91 23.3544 147.146 22.4567 147.618 21.684C148.089 20.9112 148.731 20.309 149.544 19.8772C150.362 19.4453 151.279 19.2294 152.297 19.2294C153.319 19.2294 154.225 19.4453 155.015 19.8772C155.805 20.309 156.424 20.8914 156.873 21.6243C157.322 22.3573 157.547 23.1726 157.547 24.0703C157.547 24.7124 157.43 25.3402 157.197 25.9539C156.97 26.5618 156.572 27.2408 156.004 27.9908C155.441 28.7351 154.66 29.6442 153.66 30.7181L149.74 34.9112V35.0476H157.853V36.9226H146.842ZM162.907 23.8317L166.044 29.184L169.18 23.8317H171.498L167.271 30.3772L171.498 36.9226H169.18L166.044 31.8431L162.907 36.9226H160.589L164.748 30.3772L160.589 23.8317H162.907Z" fill="#787878"/>
<path d="M175.5 58.2192H58.5002V172.782H175.5V58.2192Z" stroke="#C7C7C7" stroke-miterlimit="10"/>
<path d="M234 0.000732422H0.000244141V231.001H234V0.000732422Z" stroke="#C7C7C7" stroke-miterlimit="10"/>
<path d="M175.5 58.2192H234" stroke="#C7C7C7" stroke-miterlimit="10"/>
<path d="M175.5 172.782H234" stroke="#C7C7C7" stroke-miterlimit="10"/>
<path d="M187.046 61.0293V169.962" stroke="#C7C7C7" stroke-miterlimit="10"/>
<path d="M183.865 66.9191L184.805 67.2679L187.046 61.1292L189.287 67.2679L190.228 66.9191L187.046 58.2192L183.865 66.9191Z" fill="#C7C7C7"/>
<path d="M183.865 164.073L184.805 163.734L187.046 169.873L189.287 163.734L190.228 164.073L187.046 172.783L183.865 164.073Z" fill="#C7C7C7"/>
<path d="M117 2.8208V54.4719" stroke="#C7C7C7" stroke-miterlimit="10"/>
<path d="M113.818 8.71058L114.759 9.0494L117 2.92061L119.241 9.0494L120.182 8.71058L117 0.000732422L113.818 8.71058Z" fill="#C7C7C7"/>
<path d="M113.818 48.5824L114.759 48.2336L117 54.3724L119.241 48.2336L120.182 48.5824L117 57.2823L113.818 48.5824Z" fill="#C7C7C7"/>
<path d="M117 175.603V227.254" stroke="#C7C7C7" stroke-miterlimit="10"/>
<path d="M113.818 181.492L114.759 181.831L117 175.692L119.241 181.831L120.182 181.492L117 172.782L113.818 181.492Z" fill="#C7C7C7"/>
<path d="M113.818 221.364L114.759 221.015L117 227.154L119.241 221.015L120.182 221.364L117 230.064L113.818 221.364Z" fill="#C7C7C7"/>
<path d="M133.277 192.24V209.694H131.164V194.456H131.061L126.8 197.285V195.138L131.164 192.24H133.277ZM144.502 191.422L138.877 212.319H137.036L142.661 191.422H144.502ZM146.852 209.694V208.16L152.613 201.853C153.289 201.115 153.846 200.473 154.284 199.927C154.721 199.376 155.045 198.859 155.255 198.376C155.471 197.888 155.579 197.376 155.579 196.842C155.579 196.228 155.431 195.697 155.136 195.248C154.846 194.799 154.448 194.453 153.943 194.209C153.437 193.964 152.869 193.842 152.238 193.842C151.568 193.842 150.982 193.981 150.482 194.26C149.988 194.532 149.605 194.916 149.332 195.41C149.065 195.905 148.931 196.484 148.931 197.149H146.92C146.92 196.126 147.156 195.228 147.627 194.456C148.099 193.683 148.741 193.081 149.553 192.649C150.372 192.217 151.289 192.001 152.306 192.001C153.329 192.001 154.235 192.217 155.025 192.649C155.815 193.081 156.434 193.663 156.883 194.396C157.332 195.129 157.556 195.944 157.556 196.842C157.556 197.484 157.44 198.112 157.207 198.726C156.98 199.334 156.582 200.013 156.014 200.763C155.451 201.507 154.67 202.416 153.67 203.49L149.749 207.683V207.819H157.863V209.694H146.852ZM162.917 196.603L166.053 201.956L169.19 196.603H171.508L167.281 203.149L171.508 209.694H169.19L166.053 204.615L162.917 209.694H160.599L164.758 203.149L160.599 196.603H162.917Z" fill="#787878"/>
<path d="M54.6781 109.711H2.82153" stroke="#C7C7C7" stroke-miterlimit="10"/>
<path d="M48.7653 106.542L48.425 107.469L54.5882 109.711L48.425 111.943L48.7653 112.88L57.5098 109.711L48.7653 106.542Z" fill="#C7C7C7"/>
<path d="M8.74472 106.542L9.08486 107.469L2.92166 109.711L9.08486 111.943L8.74472 112.88L0.000244141 109.711L8.74472 106.542Z" fill="#C7C7C7"/>
<path d="M15.9671 82.6292V100.084H13.8535V84.8451H13.7512L9.48983 87.6746V85.5269L13.8535 82.6292H15.9671ZM27.1915 81.811L21.5665 102.709H19.7256L25.3506 81.811H27.1915ZM29.5417 100.084V98.5496L35.303 92.2428C35.9792 91.5042 36.536 90.8621 36.9735 90.3167C37.411 89.7656 37.7349 89.2485 37.9451 88.7656C38.161 88.2769 38.269 87.7656 38.269 87.2315C38.269 86.6178 38.1212 86.0866 37.8258 85.6377C37.536 85.1889 37.1383 84.8423 36.6326 84.5979C36.1269 84.3536 35.5587 84.2315 34.928 84.2315C34.2576 84.2315 33.6724 84.3707 33.1724 84.6491C32.678 84.9218 32.2945 85.3053 32.0218 85.7996C31.7547 86.294 31.6212 86.8735 31.6212 87.5383H29.6099C29.6099 86.5156 29.8457 85.6178 30.3172 84.8451C30.7888 84.0724 31.4309 83.4701 32.2434 83.0383C33.0616 82.6065 33.9792 82.3906 34.9962 82.3906C36.019 82.3906 36.9252 82.6065 37.715 83.0383C38.5048 83.4701 39.1241 84.0525 39.5729 84.7854C40.0218 85.5184 40.2462 86.3337 40.2462 87.2315C40.2462 87.8735 40.1297 88.5014 39.8968 89.115C39.6695 89.7229 39.2718 90.4019 38.7036 91.1519C38.1411 91.8962 37.3599 92.8053 36.3599 93.8792L32.4394 98.0724V98.2087H40.553V100.084H29.5417ZM45.607 86.9928L48.7434 92.3451L51.8797 86.9928H54.1979L49.9707 93.5383L54.1979 100.084H51.8797L48.7434 95.0042L45.607 100.084H43.2888L47.4479 93.5383L43.2888 86.9928H45.607Z" fill="#787878"/>
</g>
<defs>
<clipPath id="clip0_2126_2829">
<rect width="234" height="231" fill="white" transform="translate(0.000244141 0.000732422)"/>
</clipPath>
</defs>
</svg>
