<svg width="585" height="164" viewBox="0 0 585 164" fill="none" xmlns="http://www.w3.org/2000/svg">
<g clip-path="url(#clip0_2280_499)">
<path d="M373.15 100.321C371.68 98.8493 370.514 97.1007 369.718 95.1758C368.923 93.2508 368.513 91.1873 368.513 89.1034C368.513 87.0194 368.923 84.9559 369.718 83.031C370.514 81.1061 371.68 79.3575 373.15 77.8853C374.642 76.3829 376.422 75.2004 378.383 74.4094C380.344 73.6184 382.445 73.2355 384.558 73.2838C386.656 73.2274 388.743 73.6041 390.69 74.3904C392.637 75.1768 394.402 76.3561 395.876 77.8553C398.301 80.4451 399.811 83.7634 400.171 87.2989C400.23 87.7437 400.193 88.196 400.063 88.6253C399.933 89.0545 399.713 89.4509 399.418 89.788C399.123 90.125 398.759 90.3948 398.351 90.5793C397.944 90.7638 397.502 90.8587 397.055 90.8578H376.976C377.255 92.7809 378.182 94.5499 379.603 95.8703C380.262 96.5189 381.043 97.03 381.9 97.3741C382.758 97.7183 383.675 97.8886 384.598 97.8753C386.518 97.9236 388.396 97.3037 389.912 96.1209C391.211 94.9851 392.875 94.3584 394.597 94.3565H394.707C395.315 94.3582 395.91 94.5339 396.422 94.863C396.934 95.1921 397.342 95.6609 397.598 96.2146C397.854 96.7681 397.947 97.3835 397.867 97.9885C397.787 98.5934 397.536 99.1627 397.145 99.6297C394.028 103.145 389.846 104.903 384.598 104.903C382.486 104.951 380.386 104.569 378.425 103.779C376.464 102.99 374.683 101.811 373.19 100.311L373.15 100.321ZM377.305 85.8653H391.6C391.294 84.3121 390.456 82.9151 389.233 81.9154C387.935 80.8312 386.286 80.2607 384.598 80.3114C382.906 80.263 381.252 80.821 379.933 81.8853C378.664 82.9162 377.745 84.3176 377.305 85.8953" fill="#00A887"/>
<path d="M120.734 65.6346C121.393 64.4216 122.102 63.2286 122.862 62.0857C123.621 63.2386 124.33 64.4216 124.999 65.6346C125.379 66.3464 125.749 67.0782 126.098 67.81C126.448 68.5419 126.817 69.3539 127.097 70.1359C127.657 71.5594 128.226 73.1433 128.586 74.2962C128.655 74.5268 128.725 74.7474 128.785 74.968C128.905 75.369 129.015 75.77 129.125 76.1609L129.305 76.8927C129.365 77.1133 129.415 77.3339 129.465 77.5444C129.515 77.7549 129.555 77.9153 129.595 78.0958C129.634 78.2762 129.595 78.206 129.595 78.2662L129.714 78.8376C129.714 79.0281 129.784 79.2286 129.824 79.4191C129.864 79.6096 129.894 79.8 129.934 79.9905L130.024 80.4918C130.024 80.7123 130.094 80.9329 130.124 81.1534L130.184 81.5143V81.7349V81.9254C130.179 81.9519 130.179 81.979 130.184 82.0055C130.184 82.1058 130.184 82.206 130.184 82.3163C130.184 82.4266 130.184 82.3865 130.184 82.4266C130.189 82.5301 130.189 82.6339 130.184 82.7374C130.184 82.7374 130.184 82.7975 130.184 82.8276C130.184 82.978 130.184 83.1283 130.234 83.2787C130.284 83.4291 130.234 83.5795 130.234 83.7299C130.234 83.8802 130.234 84.0105 130.234 84.1509C130.234 84.3614 130.234 84.5619 130.234 84.7724C130.234 85.3739 130.314 85.9755 130.334 86.587V87.4592V87.5193C130.334 87.8 130.334 88.0908 130.334 88.3815V88.4717C130.296 88.9306 130.102 89.3625 129.784 89.6948C129.547 89.9399 129.246 90.1135 128.915 90.196H128.825H128.656H116.188H116.019H115.929C115.601 90.1133 115.303 89.9395 115.07 89.6948C114.742 89.3696 114.546 88.9337 114.52 88.4717V88.3815C114.52 88.0908 114.52 87.8 114.52 87.5193V87.4592C114.52 87.1684 114.52 86.8777 114.52 86.587C114.52 85.9755 114.58 85.3739 114.62 84.7724C114.62 84.4717 114.62 84.181 114.7 83.8802C114.76 83.2787 114.82 82.6772 114.9 82.0857L114.99 81.4541C114.99 81.2436 115.05 81.0331 115.09 80.8326C115.13 80.6321 115.15 80.4115 115.189 80.211C115.229 80.0105 115.19 79.9403 115.259 79.81V79.6597V79.4893C115.259 79.369 115.259 79.2486 115.329 79.1283C115.334 79.0884 115.334 79.048 115.329 79.008C115.329 78.8777 115.389 78.7474 115.409 78.617C115.429 78.4867 115.459 78.4165 115.479 78.3163C115.579 77.8551 115.679 77.394 115.789 76.9328L115.969 76.2411V76.1409L116.119 75.5594C116.179 75.3489 116.248 75.1383 116.308 74.9278L116.518 74.196C116.868 73.0732 117.427 71.5193 117.977 70.1158C118.306 69.3138 118.656 68.5118 119.036 67.7298C119.415 66.9479 119.755 66.2662 120.144 65.5544L120.734 65.6346ZM120.444 83.8401C120.443 83.3661 120.625 82.9101 120.95 82.5667C121.276 82.2232 121.72 82.0187 122.192 81.9955H122.362C122.833 82.0211 123.276 82.2264 123.601 82.5693C123.926 82.9122 124.108 83.3669 124.11 83.8401V86.567H126.458C126.458 86.0757 126.458 85.5644 126.368 85.1033C126.368 84.9028 126.368 84.7123 126.368 84.5218C126.368 84.1008 126.288 83.6797 126.238 83.2687C126.238 83.1283 126.238 82.988 126.238 82.8476L126.148 82.196L126.088 81.785C126.088 81.6747 126.088 81.5745 126.088 81.4642C126.088 81.3539 126.088 81.1534 126.008 81.003C125.928 80.8526 126.008 80.7023 125.928 80.5419C125.848 80.3815 125.818 79.9303 125.759 79.6296L125.669 79.1785C125.609 78.8878 125.539 78.597 125.469 78.3063C125.399 78.0155 125.379 77.9253 125.329 77.7449C125.279 77.5644 125.199 77.1935 125.119 76.9229L124.999 76.4717C124.889 76.0908 124.78 75.6998 124.66 75.3188C124.66 75.1785 124.57 75.0281 124.52 74.8877C124.43 74.597 124.33 74.3063 124.23 74.0156L123.841 72.9228C123.691 72.5218 123.531 72.1208 123.371 71.7298C123.071 70.988 122.738 70.2561 122.372 69.5343C122.032 70.2561 121.713 70.988 121.373 71.7298C121.203 72.1208 121.043 72.5218 120.904 72.9228C120.764 73.3238 120.634 73.6547 120.514 74.0156C120.394 74.3765 120.314 74.597 120.224 74.8877C120.054 75.409 119.895 75.8903 119.745 76.4717C119.745 76.6221 119.655 76.7725 119.615 76.9229L119.405 77.7449C119.405 77.9253 119.315 78.1158 119.265 78.3063C119.215 78.4967 119.135 78.8878 119.075 79.1785L118.986 79.6296C118.916 79.9303 118.856 80.2411 118.806 80.5419C118.756 80.8426 118.806 80.8526 118.726 81.003C118.646 81.1534 118.676 81.3138 118.656 81.4642L118.596 81.785C118.596 81.9253 118.596 82.0556 118.596 82.196C118.596 82.3363 118.536 82.6271 118.506 82.8476C118.476 83.0682 118.506 83.1283 118.456 83.2687C118.456 83.6797 118.366 84.1008 118.326 84.5218C118.326 84.7123 118.326 84.9028 118.326 85.1033C118.326 85.5845 118.266 86.1058 118.246 86.567H120.594L120.444 83.8401Z" fill="#00A887"/>
<path d="M88.7869 41.4742C89.4966 41.3839 90.2149 41.3839 90.9246 41.4742L91.2743 41.5243C91.9436 41.6446 92.6029 41.7649 93.2722 41.9053L94.1913 42.1158L95.0702 42.3364C104.058 44.6604 112.175 49.566 118.426 56.4517C119.485 57.6246 120.494 58.8577 121.423 60.1309L121.533 60.2813L119.415 63.5895L119.175 63.2587V63.1885C119.175 63.1284 119.085 63.0682 119.045 62.9981C118.196 61.7951 117.287 60.6421 116.318 59.5193C110.572 52.9368 103 48.2245 94.5707 45.9855L93.7916 45.785L92.9824 45.5946H92.9026L92.463 45.5043L92.0135 45.4041L90.6749 45.1534C89.9985 45.0408 89.3058 45.0774 88.645 45.261C87.9842 45.4445 87.3712 45.7705 86.8488 46.2161C86.3121 46.6701 85.8811 47.2365 85.586 47.8756C85.2908 48.5147 85.1389 49.211 85.1406 49.9154V67.5995C85.1406 72.6513 87.1403 77.4962 90.6998 81.0683C94.2593 84.6404 99.087 86.6472 104.121 86.6472C104.586 86.6816 105.021 86.8914 105.339 87.2345C105.657 87.5776 105.833 88.0286 105.833 88.4969C105.833 88.9651 105.657 89.4161 105.339 89.7592C105.021 90.1022 104.586 90.312 104.121 90.3464C102.303 90.3464 100.56 91.071 99.2752 92.3608C97.99 93.6505 97.268 95.3997 97.268 97.2237V114.577C97.2578 114.764 97.2578 114.952 97.268 115.139C97.2625 115.229 97.2625 115.319 97.268 115.409C97.268 115.489 97.268 115.58 97.268 115.67L97.3279 115.88C97.3234 115.94 97.3234 116.001 97.3279 116.061C97.6314 117.001 98.2091 117.829 98.9862 118.437C99.544 118.874 100.193 119.179 100.885 119.328C101.578 119.477 102.294 119.467 102.982 119.299H103.112H103.182L103.461 119.219L103.731 119.149L104.091 119.048L104.51 118.918H104.59L105.12 118.748L105.36 118.667L105.819 118.507L105.999 118.437L106.468 118.266L106.588 118.216L107.158 117.986C107.377 117.905 107.587 117.815 107.807 117.715L108.426 117.444H108.486L109.066 117.164L109.685 116.853C109.895 116.753 110.095 116.642 110.304 116.522L110.904 116.191L111.503 115.83L111.993 115.539C112.472 115.239 112.992 114.928 113.401 114.597C113.811 114.266 114.09 114.106 114.4 113.845L114.74 113.585L115.399 113.053L116.048 112.492C116.261 112.311 116.471 112.121 116.678 111.92L117.287 111.339L117.497 111.138L117.697 110.938C117.956 110.667 118.226 110.387 118.476 110.106L118.835 109.715C119.655 108.796 120.419 107.829 121.123 106.818C121.199 106.712 121.286 106.614 121.383 106.527C121.472 106.442 121.569 106.364 121.672 106.296C121.799 106.216 121.937 106.155 122.082 106.116C122.256 106.056 122.438 106.025 122.622 106.026C123.104 106.028 123.566 106.219 123.91 106.557C123.992 106.637 124.065 106.724 124.13 106.818L124.34 107.108L124.539 107.389L124.969 107.95L125.399 108.512C125.838 109.06 126.298 109.591 126.777 110.106L127.137 110.497L127.496 110.878L128.246 111.61C128.585 111.93 128.925 112.251 129.245 112.552L129.774 113.003L130.314 113.444L130.653 113.715C131.233 114.166 131.822 114.587 132.421 114.988C132.661 115.159 132.901 115.309 133.151 115.469L133.69 115.81H133.75L134.339 116.161C134.539 116.271 134.739 116.392 134.949 116.492C135.158 116.592 135.348 116.722 135.558 116.823L136.157 117.123L136.717 117.384H136.797L137.376 117.645H137.426L138.055 117.905L138.625 118.136L138.745 118.186L139.164 118.337L139.434 118.437L139.754 118.547L140.133 118.677L140.743 118.868L141.062 118.968L141.522 119.098H141.652L142.031 119.199H142.131H142.241C142.929 119.366 143.646 119.376 144.337 119.227C145.029 119.077 145.679 118.773 146.237 118.337C147.015 117.731 147.59 116.902 147.885 115.961L147.945 115.78C147.95 115.71 147.95 115.64 147.945 115.57L148.005 115.309C148.005 115.229 148.005 115.138 148.005 115.038C148.015 114.851 148.015 114.664 148.005 114.477V97.1936C148.002 95.3705 147.28 93.6227 145.995 92.3336C144.71 91.0444 142.969 90.3191 141.152 90.3164C140.899 90.3351 140.644 90.3012 140.404 90.2167C140.165 90.1323 139.945 89.9991 139.759 89.8255C139.572 89.6519 139.424 89.4416 139.322 89.2079C139.221 88.9741 139.168 88.7218 139.168 88.4667C139.168 88.2117 139.221 87.9594 139.322 87.7256C139.424 87.4918 139.572 87.2816 139.759 87.108C139.945 86.9344 140.165 86.8012 140.404 86.7168C140.644 86.6323 140.899 86.5984 141.152 86.6171C146.186 86.6171 151.014 84.6103 154.573 81.0382C158.133 77.4661 160.132 72.6213 160.132 67.5695V49.9253C160.132 49.2203 159.978 48.5238 159.682 47.8848C159.385 47.2457 158.952 46.6795 158.414 46.2261C157.894 45.7807 157.283 45.4548 156.623 45.2712C155.964 45.0877 155.273 45.0509 154.598 45.1634L153.25 45.414L152.81 45.5143L152.361 45.6045H152.281L151.481 45.795L150.692 45.9955C142.264 48.2374 134.693 52.9492 128.945 59.5294C127.98 60.6413 127.073 61.8024 126.228 63.0081C126.181 63.0692 126.138 63.1328 126.098 63.1986L126.038 63.2687L125.808 63.5996L123.68 60.2913L123.79 60.1409C124.729 58.8677 125.788 57.6346 126.787 56.4617C133.042 49.5757 141.162 44.6702 150.153 42.3464L151.022 42.1259L151.951 41.9153C152.6 41.775 153.26 41.6546 153.949 41.5343L154.299 41.4842H154.558H154.818H155.647H155.917C156.093 41.4748 156.27 41.4748 156.446 41.4842H156.716C156.946 41.4842 157.165 41.5644 157.385 41.6246C157.605 41.6848 157.825 41.7449 158.045 41.8151L158.554 42.0156L159.213 42.3264C159.761 42.6026 160.277 42.9388 160.752 43.3289C161.696 44.1307 162.454 45.1306 162.972 46.2582C163.49 47.3858 163.755 48.6137 163.749 49.8552V67.5394C163.724 72.3511 162.191 77.033 159.364 80.9201C156.538 84.8072 152.564 87.7021 148.005 89.1936C149.143 90.1809 150.056 91.4032 150.68 92.777C151.304 94.1508 151.625 95.6437 151.621 97.1535V114.507C151.622 114.92 151.592 115.332 151.531 115.74C151.531 115.981 151.451 116.221 151.401 116.452L151.342 116.702C151.282 116.933 151.212 117.154 151.132 117.384C151.069 117.575 150.996 117.763 150.912 117.946C150.101 119.769 148.685 121.254 146.905 122.146C145.125 123.038 143.092 123.283 141.152 122.838H141.092L140.753 122.758L140.423 122.667L139.744 122.467C139.514 122.407 139.284 122.336 139.064 122.256L138.405 122.046L137.746 121.815L137.136 121.585H137.066L136.427 121.334L135.978 121.144L135.638 120.993H135.568L134.989 120.732L134.369 120.432C134.16 120.331 133.95 120.231 133.75 120.121L133.121 119.79L132.511 119.449C131.442 118.848 130.413 118.186 129.405 117.444L128.406 116.712L127.996 116.392L127.177 115.73L126.777 115.389C126.278 114.958 125.778 114.507 125.309 114.056L124.839 113.595L124.47 113.214C123.74 112.462 123.031 111.67 122.372 110.848C121.703 111.67 121.003 112.462 120.264 113.214L119.894 113.595L119.425 114.056C118.955 114.507 118.426 114.958 117.966 115.389L117.567 115.73L116.748 116.392L116.328 116.712C115.769 117.143 115.199 117.545 114.62 117.935L114.031 118.326C113.841 118.457 113.641 118.577 113.441 118.697L112.842 119.058C112.642 119.179 112.442 119.299 112.232 119.409L111.743 119.69L111.004 120.081L110.394 120.382L109.835 120.642H109.755L109.176 120.903H109.106L108.766 121.053L108.316 121.244L107.687 121.494H107.617L106.998 121.725L106.348 121.956H106.289L105.669 122.156L105 122.357L104.321 122.557L103.671 122.727H103.581C101.455 123.213 99.2244 122.869 97.3415 121.765C95.4587 120.661 94.0647 118.88 93.442 116.783L93.352 116.432C93.2921 116.171 93.2323 115.89 93.1923 115.62C93.1402 115.211 93.1134 114.799 93.1123 114.387V97.1936C93.1093 95.6849 93.4298 94.1931 94.052 92.8197C94.6742 91.4462 95.5836 90.2232 96.7185 89.2337C92.161 87.7418 88.1877 84.8465 85.3633 80.9593C82.5389 77.072 81.0069 72.3904 80.9849 67.5795V49.9253C80.98 48.684 81.2457 47.4566 81.7634 46.3292C82.2811 45.2018 83.0383 44.2018 83.9818 43.3991C84.4597 43.0089 84.979 42.6727 85.5302 42.3966C85.74 42.2863 85.9598 42.186 86.1896 42.0858L86.6991 41.8853L87.3583 41.6948C87.5781 41.6346 87.8079 41.5945 88.0276 41.5544H88.2974L88.7869 41.4742Z" fill="#951BC4"/>
<path d="M186.884 99.0284C182.827 94.9013 180.553 89.337 180.553 83.5397C180.553 77.7423 182.827 72.1781 186.884 68.0509C191.1 63.934 196.478 61.8722 203.018 61.8655C210.343 61.8655 215.984 64.462 219.94 69.655C220.28 70.0961 220.599 70.5371 220.939 70.9883C221.349 71.6094 221.583 72.3305 221.618 73.0749C221.652 73.8192 221.484 74.5588 221.132 75.215C220.781 75.8713 220.259 76.4196 219.621 76.8016C218.984 77.1836 218.255 77.385 217.512 77.3843H217.103C216.433 77.3744 215.777 77.1958 215.193 76.8647C214.61 76.5336 214.12 76.0607 213.766 75.4895C213.366 74.8694 212.907 74.2887 212.398 73.7552C209.846 71.3686 206.483 70.049 202.995 70.0658C199.507 70.0826 196.156 71.4344 193.627 73.8455C192.391 75.1278 191.426 76.6474 190.789 78.3132C190.152 79.979 189.857 81.7567 189.921 83.5397C189.921 87.6433 191.12 90.9114 193.517 93.3442C194.771 94.5807 196.265 95.544 197.907 96.1737C199.548 96.8034 201.302 97.0858 203.058 97.0034C204.856 97.0733 206.647 96.7417 208.302 96.0327C209.957 95.3236 211.434 94.2547 212.628 92.9031C213.156 92.2787 213.628 91.6076 214.036 90.8981C214.392 90.266 214.906 89.7389 215.529 89.3694C216.151 88.9999 216.859 88.801 217.582 88.7928H217.842C218.565 88.7878 219.277 88.9754 219.904 89.3365C220.531 89.6976 221.051 90.2192 221.412 90.8481C221.773 91.4771 221.96 92.1908 221.956 92.9164C221.952 93.642 221.756 94.3535 221.388 94.9783C220.974 95.6695 220.524 96.3388 220.04 96.9833C218.079 99.6243 215.51 101.75 212.553 103.178C209.595 104.606 206.338 105.294 203.058 105.184C196.524 105.184 191.147 103.125 186.924 99.0084" fill="#951BC4"/>
<path d="M228.981 100.883V77.3241C228.981 76.4866 229.312 75.6834 229.903 75.0912C230.493 74.499 231.293 74.1663 232.128 74.1663H245.324C248.401 74.1663 250.768 74.848 252.446 76.2214C253.245 76.8412 253.888 77.6401 254.323 78.5541C254.758 79.468 254.975 80.4717 254.954 81.4846C254.996 82.5106 254.789 83.5314 254.353 84.4601C253.916 85.3888 253.262 86.1978 252.446 86.8179C251.724 87.3741 250.883 87.7549 249.989 87.9307V88.2214C251.12 88.4583 252.206 88.8746 253.206 89.4545C254.21 90.1132 255.031 91.0171 255.592 92.0815C256.153 93.1459 256.435 94.3358 256.412 95.5397C256.44 96.7188 256.19 97.8879 255.683 98.9521C255.176 100.016 254.427 100.946 253.495 101.665C251.498 103.249 248.83 104.031 245.324 104.031H232.128C231.715 104.032 231.306 103.952 230.924 103.794C230.543 103.637 230.196 103.405 229.903 103.113C229.611 102.82 229.379 102.473 229.221 102.09C229.062 101.707 228.981 101.297 228.981 100.883ZM237.152 85.5848H244.145C244.533 85.6067 244.92 85.5506 245.286 85.4198C245.651 85.2889 245.987 85.0859 246.273 84.8229C246.529 84.5843 246.732 84.2939 246.868 83.9707C247.004 83.6475 247.07 83.2989 247.062 82.9482C247.068 82.5977 247.002 82.2497 246.866 81.9268C246.73 81.6039 246.528 81.3132 246.273 81.0735C245.985 80.8136 245.649 80.6134 245.284 80.4844C244.919 80.3553 244.532 80.3 244.145 80.3216H237.152V85.5848ZM237.152 97.8856H244.745C245.67 97.9172 246.571 97.5823 247.252 96.9532C247.572 96.6662 247.827 96.3136 247.999 95.9193C248.171 95.5249 248.257 95.098 248.251 94.6675C248.257 94.2369 248.171 93.8101 247.999 93.4158C247.827 93.0214 247.572 92.6688 247.252 92.3818C246.572 91.7491 245.671 91.4105 244.745 91.4394H237.152V97.8856Z" fill="#951BC4"/>
<path d="M293.463 77.9758V77.3943C293.463 76.9704 293.546 76.5506 293.707 76.159C293.869 75.7673 294.106 75.4115 294.405 75.1117C294.703 74.812 295.058 74.5742 295.448 74.4119C295.838 74.2497 296.257 74.1663 296.679 74.1663H318.267C319.12 74.1663 319.938 74.5064 320.541 75.1117C321.144 75.7171 321.483 76.5382 321.483 77.3943V77.9758C321.481 78.8302 321.141 79.6486 320.538 80.2519C319.935 80.8551 319.118 81.1938 318.267 81.1938H311.554V100.813C311.554 101.666 311.216 102.485 310.614 103.088C310.013 103.692 309.197 104.031 308.347 104.031H306.599C305.748 104.031 304.933 103.692 304.331 103.088C303.73 102.485 303.392 101.666 303.392 100.813V81.1537H296.679C295.828 81.1537 295.011 80.815 294.408 80.2118C293.805 79.6086 293.465 78.79 293.463 77.9356" fill="#951BC4"/>
<path d="M310.886 10.0673V27.5219H308.772V12.2832H308.67L304.409 15.1128V12.965L308.772 10.0673H310.886ZM322.11 9.24912L316.485 30.1469H314.645L320.27 9.24912H322.11ZM324.461 27.5219V25.9878L330.222 19.6809C330.898 18.9423 331.455 18.3003 331.892 17.7548C332.33 17.2037 332.654 16.6866 332.864 16.2037C333.08 15.715 333.188 15.2037 333.188 14.6696C333.188 14.0559 333.04 13.5247 332.745 13.0758C332.455 12.627 332.057 12.2804 331.552 12.0361C331.046 11.7917 330.478 11.6696 329.847 11.6696C329.177 11.6696 328.591 11.8088 328.091 12.0872C327.597 12.3599 327.213 12.7434 326.941 13.2378C326.674 13.7321 326.54 14.3116 326.54 14.9764H324.529C324.529 13.9537 324.765 13.0559 325.236 12.2832C325.708 11.5105 326.35 10.9082 327.162 10.4764C327.981 10.0446 328.898 9.82867 329.915 9.82867C330.938 9.82867 331.844 10.0446 332.634 10.4764C333.424 10.9082 334.043 11.4906 334.492 12.2236C334.941 12.9565 335.165 13.7719 335.165 14.6696C335.165 15.3116 335.049 15.9395 334.816 16.5531C334.588 17.1611 334.191 17.84 333.623 18.59C333.06 19.3344 332.279 20.2434 331.279 21.3173L327.358 25.5105V25.6469H335.472V27.5219H324.461ZM340.526 14.4309L343.662 19.7832L346.799 14.4309H349.117L344.89 20.9764L349.117 27.5219H346.799L343.662 22.4423L340.526 27.5219H338.208L342.367 20.9764L338.208 14.4309H340.526Z" fill="#787878"/>
<path d="M294.042 124.903V160.633" stroke="#C7C7C7" stroke-miterlimit="10"/>
<path d="M290.856 130.828L291.805 131.169L294.043 125.003L296.28 131.169L297.219 130.828L294.043 122.076L290.856 130.828Z" fill="#C7C7C7"/>
<path d="M290.856 154.708L291.805 154.367L294.043 160.532L296.28 154.367L297.219 154.708L294.043 163.469L290.856 154.708Z" fill="#C7C7C7"/>
<path d="M310.876 132.123V149.577H308.763V134.339H308.66L304.399 137.168V135.02L308.763 132.123H310.876ZM322.101 131.304L316.476 152.202H314.635L320.26 131.304H322.101ZM324.451 149.577V148.043L330.212 141.736C330.888 140.998 331.445 140.356 331.883 139.81C332.32 139.259 332.644 138.742 332.854 138.259C333.07 137.77 333.178 137.259 333.178 136.725C333.178 136.111 333.03 135.58 332.735 135.131C332.445 134.682 332.047 134.336 331.542 134.091C331.036 133.847 330.468 133.725 329.837 133.725C329.167 133.725 328.582 133.864 328.082 134.142C327.587 134.415 327.204 134.799 326.931 135.293C326.664 135.787 326.53 136.367 326.53 137.032H324.519C324.519 136.009 324.755 135.111 325.226 134.339C325.698 133.566 326.34 132.964 327.153 132.532C327.971 132.1 328.888 131.884 329.905 131.884C330.928 131.884 331.834 132.1 332.624 132.532C333.414 132.964 334.033 133.546 334.482 134.279C334.931 135.012 335.155 135.827 335.155 136.725C335.155 137.367 335.039 137.995 334.806 138.608C334.579 139.216 334.181 139.895 333.613 140.645C333.05 141.39 332.269 142.299 331.269 143.373L327.349 147.566V147.702H335.462V149.577H324.451ZM340.516 136.486L343.653 141.839L346.789 136.486H349.107L344.88 143.032L349.107 149.577H346.789L343.653 144.498L340.516 149.577H338.198L342.357 143.032L338.198 136.486H340.516Z" fill="#787878"/>
<path d="M37.9933 76.1253L41.1296 81.4776L44.266 76.1253H46.5842L42.3569 82.6707L46.5842 89.2162H44.266L41.1296 84.1366L37.9933 89.2162H35.6751L39.8342 82.6707L35.6751 76.1253H37.9933Z" fill="#787878"/>
<path d="M532.737 74.9524L535.874 80.3047L539.01 74.9524H541.328L537.101 81.4979L541.328 88.0433H539.01L535.874 82.9638L532.737 88.0433H530.419L534.578 81.4979L530.419 74.9524H532.737Z" fill="#787878"/>
<path d="M78.6174 99.0483H2.81641" stroke="#C7C7C7" stroke-miterlimit="10"/>
<path d="M72.7125 95.8606L72.3728 96.803L78.5164 99.0486L72.3728 101.294L72.7125 102.237L81.4434 99.0486L72.7125 95.8606Z" fill="#C7C7C7"/>
<path d="M8.71991 95.8606L9.06952 96.803L2.9159 99.0486L9.06952 101.294L8.71991 102.237L-0.000976562 99.0486L8.71991 95.8606Z" fill="#C7C7C7"/>
<path d="M503.553 41.4041H81.4434V123.139H503.553V41.4041Z" stroke="#C7C7C7" stroke-miterlimit="10"/>
<path d="M584.999 0.531738H-0.000976562V164.001H584.999V0.531738Z" stroke="#C7C7C7" stroke-miterlimit="10"/>
<path d="M503.544 41.4041H584.989" stroke="#C7C7C7" stroke-miterlimit="10"/>
<path d="M503.544 123.139H584.989" stroke="#C7C7C7" stroke-miterlimit="10"/>
<path d="M520.757 44.231V120.301" stroke="#C7C7C7" stroke-miterlimit="10"/>
<path d="M517.569 50.156L518.518 50.4968L520.755 44.3314L522.993 50.4968L523.922 50.156L520.755 41.4041L517.569 50.156Z" fill="#C7C7C7"/>
<path d="M517.569 114.377L518.518 114.036L520.755 120.202L522.993 114.036L523.922 114.377L520.755 123.139L517.569 114.377Z" fill="#C7C7C7"/>
<path d="M294.042 2.83789V38.5673" stroke="#C7C7C7" stroke-miterlimit="10"/>
<path d="M290.856 8.76264L291.805 9.10352L294.043 2.93807L296.28 9.10352L297.219 8.76264L294.043 0.000732422L290.856 8.76264Z" fill="#C7C7C7"/>
<path d="M290.856 32.6426L291.805 32.3018L294.043 38.4671L296.28 32.3018L297.219 32.6426L294.043 41.4045L290.856 32.6426Z" fill="#C7C7C7"/>
<path d="M322.064 108.131V98.9882C322.064 98.1534 322.394 97.3527 322.982 96.7624C323.571 96.1721 324.368 95.8404 325.2 95.8404H326.729L334.57 65.4544C334.748 64.7628 335.149 64.1501 335.712 63.7127C336.274 63.2753 336.966 63.038 337.677 63.0383H351.113C351.826 63.0375 352.519 63.2744 353.083 63.7117C353.647 64.149 354.051 64.762 354.23 65.4544L362.062 95.8404H363.59C364.003 95.8391 364.412 95.9195 364.794 96.0772C365.175 96.2348 365.522 96.4664 365.815 96.7589C366.107 97.0513 366.339 97.3987 366.497 97.7813C366.656 98.1639 366.737 98.574 366.737 98.9882V108.131C366.737 108.987 366.398 109.808 365.795 110.414C365.192 111.019 364.373 111.359 363.52 111.359H361.522C360.671 111.357 359.855 111.015 359.254 110.41C358.653 109.805 358.316 108.986 358.316 108.131V104.031H330.595V108.131C330.595 108.987 330.256 109.808 329.652 110.414C329.049 111.019 328.231 111.359 327.378 111.359H325.38C324.529 111.357 323.713 111.015 323.112 110.41C322.511 109.805 322.173 108.986 322.173 108.131H322.064ZM335.3 95.8404H353.681L347.117 71.2388H341.573L335.3 95.8404Z" fill="#00A887"/>
<path d="M405.217 100.813V77.3943C405.217 76.5382 405.556 75.7171 406.159 75.1117C406.763 74.5064 407.581 74.1663 408.434 74.1663H410.172C411.025 74.1663 411.843 74.5064 412.446 75.1117C413.05 75.7171 413.389 76.5382 413.389 77.3943V85.2941H416.885L423.808 75.5196C424.106 75.1018 424.498 74.7612 424.954 74.5259C425.409 74.2905 425.913 74.1673 426.425 74.1663H427.634C428.222 74.165 428.799 74.3261 429.302 74.6319C429.805 74.9377 430.215 75.3765 430.486 75.9002C430.757 76.4238 430.879 77.0123 430.84 77.6012C430.8 78.19 430.6 78.7566 430.261 79.239L424.187 87.9307L431.44 99.0485C431.765 99.5345 431.952 100.101 431.981 100.685C432.009 101.27 431.878 101.852 431.602 102.368C431.326 102.883 430.914 103.314 430.412 103.612C429.91 103.91 429.336 104.066 428.753 104.061H427.094C426.559 104.061 426.032 103.927 425.561 103.671C425.091 103.416 424.69 103.047 424.397 102.597L417.764 92.3517H413.389V100.843C413.386 101.697 413.046 102.516 412.443 103.119C411.84 103.722 411.023 104.061 410.172 104.061H408.434C407.582 104.061 406.766 103.722 406.163 103.119C405.56 102.516 405.22 101.697 405.217 100.843" fill="#00A887"/>
<path d="M439.361 100.322C437.88 98.8556 436.704 97.109 435.902 95.1833C435.1 93.2575 434.686 91.191 434.686 89.1036C434.686 87.0163 435.1 84.9497 435.902 83.024C436.704 81.0982 437.88 79.3516 439.361 77.8856C442.529 74.9353 446.691 73.2959 451.013 73.2959C455.336 73.2959 459.498 74.9353 462.666 77.8856C464.156 79.3467 465.339 81.0918 466.147 83.0182C466.954 84.9446 467.37 87.0136 467.37 89.1036C467.37 91.1937 466.954 93.2627 466.147 95.1891C465.339 97.1155 464.156 98.8605 462.666 100.322C459.498 103.272 455.336 104.911 451.013 104.911C446.691 104.911 442.529 103.272 439.361 100.322ZM445.424 82.7778C443.952 84.5548 443.146 86.7927 443.146 89.1036C443.146 91.4145 443.952 93.6525 445.424 95.4294C446.14 96.2038 447.007 96.8216 447.971 97.244C448.935 97.6665 449.976 97.8846 451.028 97.8846C452.081 97.8846 453.122 97.6665 454.086 97.244C455.05 96.8216 455.917 96.2038 456.633 95.4294C458.105 93.6525 458.911 91.4145 458.911 89.1036C458.911 86.7927 458.105 84.5548 456.633 82.7778C455.917 82.0034 455.05 81.3857 454.086 80.9632C453.122 80.5407 452.081 80.3227 451.028 80.3227C449.976 80.3227 448.935 80.5407 447.971 80.9632C447.007 81.3857 446.14 82.0034 445.424 82.7778Z" fill="#00A887"/>
<path d="M472.036 111.941V77.3942C472.036 76.5398 472.374 75.7203 472.975 75.1152C473.576 74.5101 474.392 74.1688 475.243 74.1662H476.981C477.834 74.1662 478.652 74.5063 479.256 75.1117C479.859 75.7171 480.198 76.5381 480.198 77.3942V77.9757H480.488C481.152 77.1067 481.917 76.3193 482.765 75.6298C484.798 74.091 487.281 73.2698 489.828 73.294C491.675 73.2614 493.506 73.6349 495.194 74.3882C496.882 75.1416 498.385 76.2566 499.598 77.6549C502.222 80.5622 503.533 84.3784 503.533 89.1035C503.533 93.8287 502.222 97.6449 499.598 100.552C498.385 101.95 496.882 103.065 495.194 103.819C493.506 104.572 491.675 104.946 489.828 104.913C487.28 104.934 484.797 104.109 482.765 102.567C481.917 101.881 481.153 101.097 480.488 100.231H480.198V111.941C480.195 112.795 479.855 113.614 479.252 114.217C478.649 114.82 477.833 115.159 476.981 115.159H475.233C474.383 115.159 473.567 114.82 472.966 114.216C472.364 113.613 472.026 112.794 472.026 111.941H472.036ZM482.296 82.6273C480.936 84.5093 480.205 86.7742 480.205 89.0985C480.205 91.4228 480.936 93.6877 482.296 95.5697C482.987 96.3329 483.836 96.9355 484.783 97.3355C485.73 97.7355 486.753 97.9232 487.78 97.8855C488.775 97.9131 489.763 97.7167 490.672 97.3108C491.582 96.9048 492.389 96.2996 493.034 95.5396C494.36 93.6552 495.072 91.4052 495.072 89.0985C495.072 86.7918 494.36 84.5418 493.034 82.6574C492.388 81.8987 491.581 81.295 490.671 80.8907C489.762 80.4865 488.774 80.292 487.78 80.3215C486.754 80.2819 485.731 80.4678 484.784 80.8661C483.837 81.2643 482.987 81.8654 482.296 82.6273Z" fill="#00A887"/>
<path d="M264.264 100.321C262.792 98.8505 261.623 97.1024 260.826 95.1772C260.029 93.2521 259.619 91.188 259.619 89.1033C259.619 87.0186 260.029 84.9544 260.826 83.0293C261.623 81.1042 262.792 79.356 264.264 77.8852C265.755 76.3819 267.535 75.1988 269.496 74.4077C271.458 73.6166 273.559 73.2342 275.672 73.2837C277.77 73.2279 279.857 73.6048 281.803 74.3911C283.75 75.1774 285.516 76.3565 286.99 77.8552C289.415 80.445 290.925 83.7633 291.285 87.2988C291.342 87.7433 291.304 88.1949 291.173 88.6235C291.043 89.0521 290.823 89.4478 290.528 89.7845C290.233 90.1211 289.87 90.3909 289.463 90.5759C289.057 90.761 288.615 90.857 288.169 90.8577H268.08C268.363 92.7792 269.29 94.5469 270.707 95.8702C271.366 96.5188 272.147 97.0299 273.004 97.374C273.862 97.7181 274.779 97.8885 275.702 97.8752C277.619 97.9236 279.493 97.3036 281.006 96.1208C282.305 94.9857 283.969 94.3592 285.691 94.3564H285.801C286.41 94.3562 287.007 94.5305 287.52 94.8589C288.034 95.1872 288.443 95.6559 288.7 96.2099C288.957 96.7639 289.051 97.38 288.971 97.9858C288.891 98.5917 288.641 99.1619 288.249 99.6296C285.132 103.145 280.95 104.903 275.702 104.903C273.59 104.952 271.489 104.57 269.528 103.781C267.568 102.992 265.787 101.811 264.294 100.311L264.264 100.321ZM268.399 85.8652H282.704C282.393 84.3138 281.557 82.9183 280.337 81.9153C279.039 80.8311 277.39 80.2606 275.702 80.3113C274.007 80.264 272.35 80.8218 271.027 81.8852C269.763 82.9214 268.847 84.3208 268.399 85.8952" fill="#951BC4"/>
</g>
<defs>
<clipPath id="clip0_2280_499">
<rect width="585" height="164" fill="white" transform="translate(-0.000976562 0.000732422)"/>
</clipPath>
</defs>
</svg>
